<svg width="102" height="62" viewBox="0 0 102 62" fill="none" xmlns="http://www.w3.org/2000/svg">
<path d="M86.1076 7.14789C86.1944 6.50739 85.3056 5.98062 84.636 5.92525C84.3167 5.89981 83.9871 5.9492 83.6854 5.84295C83.0276 5.605 82.7657 4.752 82.1344 4.47964C81.6576 4.27462 81.1043 4.45719 80.6466 4.69364C80.189 4.93009 79.7283 5.22789 79.2118 5.26081C78.763 5.29074 78.2744 5.12014 77.8874 5.34312C77.5931 5.50923 77.4459 5.85342 77.1708 6.05545C76.8956 6.25748 76.563 6.29489 76.2348 6.31285C75.9067 6.3308 75.5682 6.33529 75.2695 6.47447C74.9708 6.61364 74.725 6.93389 74.7868 7.26162L86.1076 7.14789Z" fill="#EBEBEB"/>
<path d="M60.667 43.0039C60.7862 42.8408 55.6048 34.5322 55.6048 34.5322L51.8964 33.9336L48.0792 39.0068L46.4604 38.2346L35.1293 42.7375L27.1829 32.4416L25.9703 33.7241L22.7858 28.9099L20.7403 33.5176L17.5882 41.4625L15.4559 39.8448L9.5343 45.9699H66.1766C66.1766 45.9699 60.5463 43.167 60.667 43.0039Z" fill="#F5F5F5"/>
<path d="M81.2136 45.8248C81.2136 45.8457 64.2979 45.8637 43.4354 45.8637C22.573 45.8637 5.65137 45.8457 5.65137 45.8248C5.65137 45.8038 22.5656 45.7859 43.4325 45.7859C64.2994 45.7859 81.2136 45.8038 81.2136 45.8248Z" fill="#E0E0E0"/>
<path d="M78.4685 48.0351C78.4685 48.0576 74.7896 48.0755 70.2439 48.0755C65.6982 48.0755 62.0193 48.0576 62.0193 48.0351C62.0193 48.0127 65.6982 47.9962 70.2439 47.9962C74.7896 47.9962 78.4685 48.0142 78.4685 48.0351Z" fill="#E0E0E0"/>
<path d="M21.419 13.6427C21.547 12.7074 20.2417 11.9367 19.2705 11.8574C18.8055 11.8185 18.3228 11.8918 17.8813 11.7347C16.9263 11.3965 16.5437 10.1409 15.6122 9.74136C14.9146 9.44207 14.1126 9.70844 13.4357 10.0541C12.7588 10.3998 12.0878 10.8428 11.3373 10.8847C10.6809 10.9266 9.96722 10.6797 9.39331 11.0059C8.96508 11.2483 8.7414 11.7541 8.34702 12.046C7.95264 12.3378 7.46408 12.3976 6.97846 12.4246C6.49284 12.4515 6.00281 12.456 5.56722 12.658C5.13164 12.8601 4.76963 13.33 4.86087 13.8103L21.419 13.6427Z" fill="#EBEBEB"/>
<path d="M88.6964 29.1644C88.8068 28.3503 87.6766 27.6799 86.8275 27.611C86.4228 27.5766 86.0019 27.641 85.6193 27.5048C84.7879 27.2055 84.4553 26.1175 83.6445 25.7703C83.0382 25.51 82.3392 25.7419 81.752 26.0427C81.1649 26.3435 80.5836 26.7221 79.9258 26.764C79.3548 26.8014 78.7353 26.5859 78.235 26.8703C77.8627 27.0813 77.667 27.5182 77.3241 27.7756C76.9812 28.033 76.55 28.0749 76.1336 28.1034C75.7171 28.1318 75.286 28.1303 74.9063 28.3069C74.5266 28.4835 74.2132 28.892 74.2912 29.3095L88.6964 29.1644Z" fill="#F5F5F5"/>
<path d="M60.8925 3.60278C60.9705 3.02812 60.1729 2.55523 59.5681 2.50585C59.2811 2.4819 58.9794 2.5268 58.7145 2.43102C58.1259 2.22301 57.8934 1.45231 57.321 1.20689C56.8927 1.02282 56.3998 1.18743 55.9848 1.39844C55.5698 1.60945 55.1592 1.87881 54.6957 1.90874C54.2939 1.93568 53.8554 1.78304 53.5022 1.98357C53.2403 2.13322 53.102 2.43252 52.8592 2.62257C52.607 2.78091 52.3152 2.86148 52.0189 2.85453C51.7238 2.84942 51.4304 2.90016 51.1536 3.00418C50.8858 3.12839 50.6636 3.41721 50.7195 3.71052L60.8925 3.60278Z" fill="#F5F5F5"/>
<path d="M102 58.8801C101.794 54.7483 101.883 56.1864 101.677 52.0531L94.4344 47.9497L87.9227 50.5536L86.7778 52.4407C86.0815 53.5809 85.1332 54.5401 84.0083 55.2421C82.6162 56.1146 80.7385 57.4869 80.0586 58.8801H102Z" fill="#E0E0E0"/>
<path d="M0 48.7924L7.43732 51.299L16.1946 58.8757H0V48.7924Z" fill="#E0E0E0"/>
<path d="M89.3701 38.7449L90.9153 49.9371L91.317 49.9491C91.061 46.1495 90.7872 42.2691 89.3701 38.7449Z" fill="#E0E0E0"/>
<path d="M93.6613 38.2286C92.5826 39.4258 92.1485 41.0854 91.8748 42.6897C91.4863 44.9644 91.451 47.6506 91.5672 49.9567L92.1323 49.9701C91.9084 45.9932 92.4272 42.0092 93.6613 38.2286Z" fill="#E0E0E0"/>
<path d="M89.6549 45.3669C89.5298 44.8117 89.3886 44.2475 89.0781 43.7761C88.6572 43.1371 87.9714 42.7286 87.2827 42.4203C86.594 42.112 85.8686 41.8546 85.2461 41.4207C85.9407 42.5789 87.5182 42.8872 88.3202 43.9647C88.7205 44.5034 88.8868 45.1798 89.0427 45.8353C89.3842 47.266 89.5946 48.5036 89.936 49.9342H90.3922C90.2413 48.3975 89.9951 46.872 89.6549 45.3669Z" fill="#E0E0E0"/>
<path d="M92.5449 49.9492C92.5449 49.9492 92.9319 45.5046 93.2189 44.689C93.5059 43.8734 96.218 41.6182 96.1915 41.7245C96.165 41.8307 94.1578 44.2969 93.8708 44.8012C93.5839 45.3056 93.0879 49.9492 93.0879 49.9492H92.5449Z" fill="#E0E0E0"/>
<path d="M76.0902 49.1829C76.0592 49.1886 76.0276 49.1911 75.996 49.1904L75.7297 49.1979L74.7467 49.2099L71.5092 49.2218L68.2718 49.2099L67.2902 49.1979L67.0224 49.1904C66.9913 49.1911 66.9603 49.1886 66.9297 49.1829C66.9601 49.1763 66.9913 49.1738 67.0224 49.1754H67.2902L68.2718 49.1635L71.5092 49.1515L74.7467 49.1635L75.7297 49.1754H75.996C76.0276 49.1737 76.0593 49.1763 76.0902 49.1829Z" fill="#E0E0E0"/>
<path d="M81.6494 51.3979C81.7443 51.4669 81.8244 51.5548 81.8851 51.6561C81.9458 51.7574 81.9857 51.8701 82.0026 51.9875C82.0351 52.2232 82.0139 52.4633 81.9408 52.6894C81.7793 53.1375 81.5066 53.5355 81.1491 53.8447C80.8356 53.4481 80.8547 52.8585 80.8768 52.5592C80.9195 52.0863 81.2756 51.2587 81.6494 51.3979Z" fill="#3F7ED3"/>
<path d="M81.4512 54.6602C81.4479 54.5275 81.4795 54.3963 81.5426 54.28C81.6057 54.1638 81.698 54.0667 81.8102 53.9988C81.923 53.9322 82.0478 53.8892 82.1773 53.8725C82.3067 53.8558 82.4381 53.8657 82.5637 53.9015C82.6242 53.9104 82.682 53.9329 82.7329 53.9673C82.7838 54.0017 82.8265 54.0472 82.858 54.1005C82.8785 54.1542 82.8845 54.2125 82.8755 54.2693C82.8664 54.3261 82.8426 54.3794 82.8065 54.4238C82.7325 54.5107 82.6377 54.5767 82.5313 54.6153C82.1737 54.765 81.7955 54.8368 81.457 54.6602" fill="#3F7ED3"/>
<path d="M80.7341 55.9486C80.7408 55.9177 80.7507 55.8876 80.7636 55.8588C80.7856 55.796 80.8151 55.7092 80.8519 55.6179C80.9417 55.3486 81.0739 55.0959 81.2433 54.8696C81.418 54.6442 81.6486 54.4701 81.9114 54.3653C81.991 54.3347 82.0741 54.3141 82.1586 54.304C82.188 54.304 82.2116 54.304 82.2278 54.304H82.2513C82.1382 54.3212 82.0271 54.3508 81.9202 54.3922C81.6642 54.5003 81.4397 54.6735 81.2683 54.8951C81.102 55.1202 80.9687 55.3688 80.8725 55.6328C80.8327 55.7331 80.7989 55.8139 80.7753 55.8693C80.7631 55.8965 80.7493 55.923 80.7341 55.9486Z" fill="#263238"/>
<path d="M81.4322 52.0488C81.4338 52.0627 81.4338 52.0768 81.4322 52.0907C81.4322 52.1207 81.4278 52.1596 81.419 52.2075C81.4072 52.3092 81.3881 52.4544 81.3616 52.6355C81.3101 52.9976 81.2321 53.4944 81.1335 54.0437C81.0349 54.5929 80.9348 55.0912 80.8568 55.4414C80.8186 55.621 80.7862 55.7646 80.7626 55.8634C80.7509 55.9098 80.7406 55.9487 80.7347 55.9771C80.732 55.9911 80.7276 56.0047 80.7214 56.0175C80.7214 56.0175 80.7214 56.0026 80.7214 55.9756C80.7214 55.9487 80.7347 55.9083 80.7435 55.8604L80.8289 55.4369C80.8995 55.0792 80.9966 54.5854 81.0952 54.0377C81.1938 53.49 81.2747 52.9901 81.3321 52.6325C81.3616 52.4544 81.3836 52.3107 81.4013 52.206C81.4087 52.1581 81.416 52.1192 81.4204 52.0892C81.4227 52.0753 81.4267 52.0618 81.4322 52.0488Z" fill="#263238"/>
<path d="M80.7605 54.8173C80.7633 54.5374 80.7005 54.2609 80.5775 54.0106C80.4544 53.7603 80.2745 53.5433 80.0527 53.3777C79.9394 53.2939 79.7834 53.228 79.6657 53.3013C79.548 53.3747 79.5406 53.5498 79.5671 53.6889C79.6276 53.9797 79.7719 54.2456 79.9815 54.4527C80.1912 54.6598 80.4567 54.7987 80.7443 54.8517" fill="#3F7ED3"/>
<path d="M80.037 53.8132C80.0622 53.8278 80.0863 53.8443 80.1091 53.8626C80.1374 53.8822 80.1645 53.9037 80.19 53.927C80.2249 53.9561 80.2583 53.9871 80.2901 54.0197C80.3254 54.0572 80.3652 54.0961 80.4034 54.1425C80.4445 54.19 80.4828 54.24 80.5182 54.2921C80.6007 54.4165 80.6688 54.55 80.7213 54.6902C80.7708 54.8286 80.8054 54.9721 80.8243 55.1182C80.8312 55.1823 80.8347 55.2467 80.8346 55.3112C80.8377 55.367 80.8377 55.423 80.8346 55.4788C80.8316 55.5246 80.8257 55.57 80.8169 55.615C80.8119 55.6498 80.8051 55.6843 80.7963 55.7183C80.7903 55.7469 80.7819 55.7749 80.7713 55.8021C80.764 55.8021 80.7978 55.6794 80.811 55.4773C80.8141 55.422 80.8141 55.3665 80.811 55.3112C80.8096 55.2481 80.8047 55.1852 80.7963 55.1227C80.7775 54.979 80.743 54.838 80.6933 54.7021C80.6414 54.5671 80.5753 54.4382 80.4961 54.3175C80.4622 54.2655 80.4254 54.2156 80.3858 54.1679C80.349 54.1215 80.3107 54.0811 80.2769 54.0437C80.1356 53.891 80.0326 53.8192 80.037 53.8132Z" fill="#263238"/>
<path d="M12.7906 58.7171L12.8524 58.7096C12.7243 56.7642 11.7634 54.6781 11.0659 52.8539C10.3492 50.9758 9.67671 49.0483 8.04474 47.908C9.80905 51.4253 11.3931 55.0332 12.7906 58.7171Z" fill="#455A64"/>
<path d="M13.935 48.8284C13.935 48.8284 13.935 48.8374 13.935 48.8538L13.9129 48.9256L13.8216 49.204C13.8025 49.2639 13.7804 49.3312 13.7554 49.403L13.6848 49.644C13.6348 49.8161 13.5715 50.0121 13.5185 50.2321C13.4905 50.3413 13.4596 50.4566 13.4287 50.5763C13.3978 50.696 13.3728 50.8217 13.3434 50.9519C13.2816 51.2108 13.2315 51.4906 13.1756 51.7854C13.0756 52.384 12.9887 53.029 12.9372 53.7189C12.8857 54.4088 12.8828 55.0658 12.896 55.6644C12.9093 55.9637 12.9166 56.248 12.9402 56.5129C12.9505 56.6461 12.9564 56.7748 12.9696 56.8975C12.9828 57.0202 12.9946 57.1399 13.0049 57.2521C13.0255 57.4781 13.0579 57.6801 13.08 57.8597L13.1138 58.1081C13.1271 58.1844 13.1388 58.2578 13.1491 58.3161C13.1683 58.4389 13.183 58.5361 13.1948 58.605L13.2051 58.6798C13.2057 58.6883 13.2057 58.6968 13.2051 58.7052C13.2051 58.7052 13.0814 58.1575 12.974 57.2551C12.9622 57.1429 12.949 57.0247 12.9358 56.9005C12.9225 56.7762 12.9152 56.649 12.9034 56.5159C12.8784 56.2495 12.8695 55.9652 12.8563 55.6644C12.8401 55.0658 12.8475 54.4028 12.8946 53.7114C12.9416 53.02 13.0417 52.3646 13.1374 51.775C13.1933 51.4757 13.2448 51.1988 13.3081 50.9399C13.339 50.8097 13.3655 50.684 13.3964 50.5643C13.4273 50.4446 13.4582 50.3294 13.4876 50.2201C13.5435 50.0001 13.6083 49.8056 13.6598 49.632L13.7348 49.3926L13.804 49.1935C13.8452 49.0768 13.879 48.984 13.9011 48.9197C13.9129 48.8897 13.9217 48.8658 13.9276 48.8478L13.935 48.8284Z" fill="#455A64"/>
<path d="M13.6468 47.7513L12.9905 50.1068C12.9244 50.3438 13.0598 50.5903 13.2928 50.6575L13.3905 50.6856C13.6235 50.7528 13.866 50.6151 13.932 50.3781L14.5883 48.0226C14.6543 47.7856 14.519 47.5391 14.2859 47.472L14.1883 47.4438C13.9552 47.3767 13.7128 47.5143 13.6468 47.7513Z" fill="#F5F5F5"/>
<path d="M13.3914 50.687C13.3914 50.687 13.4179 50.6945 13.4694 50.6975C13.5442 50.7036 13.6193 50.6896 13.6872 50.6571C13.7405 50.6325 13.7881 50.597 13.8272 50.5526C13.8662 50.5083 13.8957 50.4562 13.9138 50.3997C13.9521 50.265 13.9933 50.1078 14.0418 49.9358C14.136 49.5901 14.2493 49.18 14.3744 48.7251C14.4362 48.4976 14.5024 48.2582 14.5716 48.0113C14.5872 47.9507 14.5894 47.8874 14.5782 47.8258C14.5671 47.7643 14.5427 47.706 14.5068 47.6551C14.4705 47.6027 14.4227 47.5596 14.367 47.5294C14.3081 47.5002 14.2458 47.4785 14.1816 47.465C14.0911 47.4403 13.995 47.4472 13.9088 47.4846C13.8226 47.5221 13.7513 47.5879 13.7063 47.6716C13.6796 47.7289 13.6594 47.7892 13.646 47.8511C13.5768 48.0981 13.5091 48.3375 13.4458 48.565C13.3178 49.0139 13.2016 49.4269 13.1044 49.7726C13.0794 49.8579 13.0573 49.9402 13.0353 50.0181C13.01 50.0883 12.9952 50.1619 12.9911 50.2365C12.9921 50.296 13.0048 50.3547 13.0282 50.4091C13.0517 50.4636 13.0856 50.5128 13.128 50.5538C13.1833 50.605 13.2499 50.6419 13.3222 50.6615L13.3781 50.6795L13.3973 50.687H13.3767L13.3193 50.672C13.2447 50.6553 13.1753 50.6198 13.1177 50.5688C13.0726 50.5268 13.0363 50.476 13.011 50.4194C12.9857 50.3629 12.972 50.3017 12.9705 50.2395C12.9743 50.1626 12.9887 50.0865 13.0132 50.0136C13.0338 49.9358 13.0559 49.8534 13.0794 49.7681C13.1751 49.4225 13.2884 49.0199 13.4135 48.5575C13.4753 48.33 13.5415 48.0906 13.6107 47.8437C13.6244 47.7785 13.6457 47.7152 13.6739 47.6551C13.7071 47.5962 13.7522 47.5452 13.8064 47.5054C13.8626 47.4636 13.9274 47.4352 13.996 47.4225C14.0646 47.4098 14.1351 47.4131 14.2022 47.4321C14.2687 47.4481 14.3333 47.4712 14.395 47.501C14.4536 47.5351 14.5039 47.5821 14.5422 47.6386C14.5814 47.6945 14.6081 47.7584 14.6203 47.8259C14.6326 47.8934 14.63 47.9628 14.6128 48.0292C14.5436 48.2761 14.4759 48.5156 14.4127 48.743L14.0713 49.9507C14.0227 50.1228 13.98 50.277 13.9373 50.4146C13.9046 50.511 13.8405 50.5931 13.7557 50.6475C13.6709 50.7019 13.5705 50.7253 13.4709 50.7139C13.4432 50.7088 13.4165 50.6998 13.3914 50.687Z" fill="#263238"/>
<path d="M13.2025 58.7097C13.1422 57.2058 13.1407 55.5506 13.9795 54.3085C14.4548 53.6067 15.17 53.0994 15.9352 52.7507C16.7108 52.4251 17.5143 52.1726 18.3353 51.9965C17.4274 53.2894 15.3716 53.3044 14.5093 54.6243C14.2503 55.0164 14.1296 55.4818 14.0133 55.9382C13.7705 56.881 13.5586 57.7759 13.3158 58.7202" fill="#455A64"/>
<path d="M6.71973 53.427H6.74033H6.79919C6.8507 53.4345 6.92722 53.4405 7.02434 53.46C7.2995 53.5072 7.57061 53.5762 7.83518 53.6665C8.22878 53.8001 8.60717 53.9762 8.96387 54.1917C9.17283 54.3205 9.37428 54.4614 9.56722 54.6138C9.77544 54.7798 9.97212 54.9603 10.1558 55.154C10.3383 55.3469 10.5056 55.554 10.6562 55.7735C10.7327 55.8768 10.8033 55.986 10.8651 56.0893C10.9269 56.1926 10.9917 56.3003 11.0461 56.4051C11.2464 56.7742 11.4101 57.1627 11.5347 57.5648C11.6204 57.8351 11.6848 58.1118 11.7275 58.3924C11.7451 58.4912 11.7496 58.569 11.7554 58.6214V58.6812C11.7554 58.6947 11.7554 58.7022 11.7554 58.7022V58.6827C11.7554 58.6663 11.7554 58.6468 11.7466 58.6229C11.7363 58.5705 11.7304 58.4927 11.7098 58.3954C11.6614 58.1168 11.5931 57.8422 11.5053 57.5738C11.3781 57.1748 11.213 56.7894 11.0123 56.423C10.9579 56.3183 10.8931 56.2165 10.8313 56.1102C10.7695 56.004 10.6989 55.8992 10.6238 55.796C10.4728 55.5791 10.3061 55.374 10.1249 55.1824C9.94506 54.9905 9.75231 54.8115 9.54809 54.6467C9.35639 54.4947 9.15643 54.3538 8.94916 54.2247C8.35687 53.861 7.70557 53.6076 7.02581 53.4764C6.92869 53.454 6.85364 53.4465 6.80214 53.436L6.74327 53.4255L6.71973 53.427Z" fill="#455A64"/>
<path d="M5.2612 52.4623L5.21719 52.5554C5.11224 52.7773 5.2041 53.0438 5.42237 53.1505L7.59207 54.2115C7.81034 54.3182 8.07237 54.2248 8.17732 54.0028L8.22132 53.9098C8.32628 53.6878 8.23441 53.4213 8.01614 53.3146L5.84644 52.2537C5.62817 52.1469 5.36615 52.2403 5.2612 52.4623Z" fill="#F5F5F5"/>
<path d="M8.22226 53.909C8.22226 53.909 8.23404 53.8835 8.24581 53.8327C8.26837 53.7386 8.25968 53.6396 8.22107 53.551C8.18247 53.4625 8.11614 53.3895 8.03243 53.3433C7.90882 53.2805 7.76313 53.2131 7.60568 53.1353L6.49611 52.5951L5.83685 52.2748C5.78112 52.2482 5.72033 52.2345 5.65879 52.2345C5.59724 52.2345 5.53645 52.2482 5.48073 52.2748C5.42362 52.3032 5.37338 52.3441 5.33357 52.3945C5.29608 52.4488 5.2645 52.507 5.23939 52.5681C5.21177 52.6262 5.19742 52.6899 5.19742 52.7544C5.19742 52.819 5.21177 52.8827 5.23939 52.9408C5.26673 52.9984 5.30586 53.0494 5.35417 53.0904C5.40525 53.1275 5.4606 53.1582 5.51899 53.1817L6.17384 53.493L7.28635 54.0422L7.5115 54.1529C7.57531 54.1905 7.64424 54.2182 7.71604 54.2352C7.77394 54.2443 7.83303 54.2415 7.88988 54.2272C7.94672 54.2128 8.00019 54.187 8.04715 54.1514C8.10588 54.105 8.15281 54.045 8.184 53.9763L8.21196 53.9225C8.21492 53.9162 8.21836 53.9102 8.22226 53.9045C8.22321 53.9109 8.22321 53.9175 8.22226 53.9239L8.19872 53.9793C8.16943 54.0516 8.1229 54.1154 8.06333 54.1649C8.01516 54.2034 7.95977 54.2314 7.90057 54.2474C7.84136 54.2633 7.77957 54.2668 7.71899 54.2577C7.64478 54.2416 7.57336 54.2144 7.50708 54.1769L7.28046 54.0676L6.16501 53.5274C5.95604 53.4241 5.73531 53.3179 5.50722 53.2071C5.44671 53.1817 5.38941 53.1491 5.33651 53.1099C5.28307 53.067 5.23939 53.0129 5.20849 52.9512C5.17793 52.8876 5.16205 52.8178 5.16205 52.747C5.16205 52.6762 5.17793 52.6063 5.20849 52.5427C5.23411 52.4785 5.26721 52.4177 5.30708 52.3616C5.37054 52.2794 5.45948 52.2216 5.55942 52.1974C5.65936 52.1732 5.76441 52.1841 5.85745 52.2284L6.51377 52.5502L7.62628 53.0994C7.78374 53.1772 7.92059 53.249 8.05303 53.3119C8.10599 53.3433 8.15192 53.3857 8.18789 53.4362C8.22387 53.4867 8.24911 53.5442 8.262 53.6052C8.28295 53.6805 8.28295 53.7603 8.262 53.8357C8.2528 53.8622 8.23938 53.8869 8.22226 53.909Z" fill="#263238"/>
<path d="M92.4658 19.0645C92.6098 19.0262 92.759 19.0131 92.9073 19.0256C93.0556 19.0134 93.2048 19.0266 93.3488 19.0645C93.2048 19.1024 93.0556 19.1156 92.9073 19.1034C92.759 19.1159 92.6098 19.1027 92.4658 19.0645Z" fill="#263238"/>
<path d="M88.9366 19.0645C89.5242 19.0125 90.115 19.0125 90.7025 19.0645C90.115 19.1164 89.5242 19.1164 88.9366 19.0645Z" fill="#263238"/>
<path d="M85.4103 19.0646C85.9978 19.0125 86.5886 19.0125 87.1762 19.0646C86.5886 19.1166 85.9978 19.1166 85.4103 19.0646Z" fill="#263238"/>
<path d="M81.8809 19.0645C82.4684 19.0125 83.0592 19.0125 83.6467 19.0645C83.0592 19.1164 82.4684 19.1164 81.8809 19.0645Z" fill="#263238"/>
<path d="M78.3536 19.0646C78.9412 19.0125 79.532 19.0125 80.1195 19.0646C79.532 19.1166 78.9412 19.1166 78.3536 19.0646Z" fill="#263238"/>
<path d="M74.8281 18.9852C75.1226 18.9767 75.4174 18.9847 75.7111 19.0092C76.0063 19.0073 76.3013 19.0258 76.594 19.0645C76.3013 19.1037 76.0053 19.1112 75.7111 19.087C75.4138 19.0893 75.1173 19.0551 74.8281 18.9852Z" fill="#263238"/>
<path d="M71.7081 17.5336C71.7272 17.5171 71.9715 17.8329 72.3644 18.1217C72.7573 18.4105 73.1237 18.5602 73.1134 18.5841C73.027 18.5713 72.9433 18.5435 72.8662 18.5018C72.673 18.4164 72.4895 18.31 72.3188 18.1845C72.0699 18.0167 71.8612 17.7943 71.7081 17.5336Z" fill="#263238"/>
<path d="M70.7442 14.1426C70.7633 14.1426 70.7883 14.5421 70.8486 15.0315C70.909 15.5208 70.9958 15.9129 70.9693 15.9189C70.8613 15.6381 70.7948 15.3426 70.7721 15.042C70.7216 14.745 70.7121 14.4422 70.7442 14.1426Z" fill="#263238"/>
<path d="M69.4599 10.8757C69.6789 11.0793 69.8651 11.3167 70.0117 11.5791C70.1787 11.8292 70.3035 12.1058 70.3811 12.3977C70.3605 12.4066 70.203 12.0385 69.947 11.6195C69.6909 11.2005 69.4422 10.8907 69.4599 10.8757Z" fill="#263238"/>
<path d="M66.5638 8.90479C66.855 8.95995 67.136 9.06093 67.3967 9.20408C67.6685 9.32516 67.9206 9.48765 68.1442 9.68595C68.1325 9.70541 67.7999 9.48991 67.3643 9.27442C66.9287 9.05892 66.5564 8.92574 66.5638 8.90479Z" fill="#263238"/>
<path d="M63.0723 8.76712C63.3521 8.66665 63.6454 8.61063 63.942 8.60101C64.1507 8.58791 64.3601 8.58791 64.5689 8.60101C64.6554 8.59775 64.742 8.60631 64.8264 8.62645C64.7427 8.6508 64.6557 8.66091 64.5689 8.65638C64.4085 8.65638 64.1892 8.66685 63.9479 8.68631C63.4652 8.71474 63.0767 8.78957 63.0723 8.76712Z" fill="#263238"/>
<path d="M60.0078 10.4447C60.189 10.205 60.4072 9.99683 60.6538 9.8281C60.8848 9.63788 61.1441 9.48633 61.422 9.37915C61.4323 9.4001 61.0879 9.59614 60.6994 9.88945C60.311 10.1828 60.024 10.4611 60.0078 10.4447Z" fill="#263238"/>
<path d="M58.467 13.6009C58.4895 12.9955 58.6654 12.4063 58.9776 11.8904C58.9982 11.9009 58.8305 12.2615 58.6833 12.7344C58.5361 13.2073 58.4905 13.6039 58.467 13.6009Z" fill="#263238"/>
<path d="M58.3861 17.1864C58.3525 16.8884 58.344 16.588 58.361 16.2885C58.352 15.9883 58.3694 15.6878 58.4128 15.3906C58.4464 15.6887 58.4548 15.989 58.438 16.2885C58.4469 16.5888 58.4295 16.8892 58.3861 17.1864Z" fill="#263238"/>
<path d="M58.3358 20.7736C58.301 20.4756 58.2921 20.1752 58.3091 19.8757C58.301 19.5754 58.3183 19.275 58.3609 18.9778C58.3957 19.2757 58.4046 19.5762 58.3876 19.8757C58.3956 20.1759 58.3783 20.4763 58.3358 20.7736Z" fill="#263238"/>
<path d="M58.2847 24.3605C58.2509 24.0625 58.2425 23.7621 58.2595 23.4626C58.2506 23.1623 58.268 22.8619 58.3114 22.5647C58.3451 22.8627 58.3535 23.1631 58.3365 23.4626C58.3456 23.7629 58.3283 24.0633 58.2847 24.3605Z" fill="#263238"/>
<path d="M57.3117 27.7426C57.2926 27.7291 57.5148 27.3969 57.7267 26.9539C57.9386 26.5109 58.0548 26.1293 58.0769 26.1353C58.031 26.4339 57.9355 26.7223 57.7944 26.9883C57.6758 27.2653 57.5127 27.5202 57.3117 27.7426Z" fill="#263238"/>
<path d="M54.545 29.8841C54.5377 29.8632 54.9041 29.7135 55.3279 29.4756C55.7517 29.2377 56.0725 29.0042 56.0858 29.0266C55.874 29.2379 55.6306 29.4137 55.3647 29.5474C55.1104 29.7025 54.8339 29.8161 54.545 29.8841Z" fill="#263238"/>
<path d="M51.0664 30.2972C51.3593 30.2614 51.6545 30.2489 51.9493 30.2598H52.2922H52.5718C52.6585 30.2524 52.7457 30.258 52.8308 30.2762C52.7474 30.3025 52.6606 30.3156 52.5733 30.3151L52.2922 30.3361C52.1877 30.3361 52.0715 30.3361 51.9493 30.3361C51.6545 30.3516 51.3588 30.3386 51.0664 30.2972Z" fill="#263238"/>
<path d="M47.7335 29.2676C47.7467 29.2481 48.0808 29.4606 48.5208 29.6657C48.9608 29.8707 49.3345 29.9979 49.3286 30.0203C49.0356 29.971 48.752 29.8751 48.4884 29.736C48.2145 29.6203 47.9599 29.4623 47.7335 29.2676Z" fill="#263238"/>
<path d="M45.5322 26.5365C45.5543 26.529 45.7015 26.9016 45.9472 27.3251C46.193 27.7486 46.4372 28.0629 46.4196 28.0734C46.2028 27.867 46.0209 27.6259 45.881 27.3596C45.7208 27.1067 45.6029 26.8286 45.5322 26.5365Z" fill="#263238"/>
<path d="M45.199 22.9899C45.2371 23.2875 45.25 23.5879 45.2375 23.8878C45.25 24.1876 45.2371 24.488 45.199 24.7857C45.16 24.4881 45.1472 24.1876 45.1605 23.8878C45.1471 23.5879 45.1599 23.2874 45.199 22.9899Z" fill="#263238"/>
<path d="M45.199 19.4027C45.2371 19.7004 45.25 20.0007 45.2375 20.3006C45.25 20.6005 45.2371 20.9009 45.199 21.1985C45.1599 20.9009 45.1471 20.6005 45.1605 20.3006C45.1471 20.0007 45.1599 19.7003 45.199 19.4027Z" fill="#263238"/>
<path d="M45.199 15.8141C45.237 16.1117 45.2499 16.4121 45.2375 16.712C45.25 17.0118 45.2371 17.3122 45.199 17.6099C45.1599 17.3123 45.1471 17.0118 45.1605 16.712C45.1472 16.4121 45.16 16.1117 45.199 15.8141Z" fill="#263238"/>
<path d="M45.199 12.2271C45.2371 12.5247 45.25 12.8251 45.2375 13.1249C45.2499 13.4248 45.237 13.7252 45.199 14.0228C45.16 13.7253 45.1472 13.4248 45.1605 13.1249C45.1471 12.8251 45.1599 12.5246 45.199 12.2271Z" fill="#263238"/>
<path d="M45.1994 8.63843C45.2229 8.72418 45.2344 8.81284 45.2335 8.90181C45.2409 9.06343 45.2453 9.28791 45.2453 9.53632C45.2579 9.83618 45.245 10.1366 45.2068 10.4342C45.1678 10.1367 45.1549 9.83618 45.1683 9.53632C45.1683 9.28791 45.1683 9.06343 45.1787 8.90181C45.1731 8.81347 45.1801 8.72477 45.1994 8.63843Z" fill="#263238"/>
<path d="M43.8602 5.38794C44.0835 5.5874 44.2733 5.82242 44.4224 6.08381C44.5912 6.33253 44.7181 6.60819 44.7976 6.8994C44.7756 6.90838 44.6166 6.54024 44.3562 6.12571C44.0957 5.71118 43.8426 5.4029 43.8602 5.38794Z" fill="#263238"/>
<path d="M40.8965 3.53394C41.482 3.64161 42.0356 3.8837 42.5152 4.24178C42.5034 4.26123 42.162 4.0592 41.7176 3.86616C41.2732 3.67311 40.8906 3.55638 40.8965 3.53394Z" fill="#263238"/>
<path d="M37.4004 3.41711C37.6821 3.32227 37.9763 3.2718 38.273 3.26746C38.5188 3.25399 38.7395 3.26746 38.8999 3.26746C38.9867 3.26401 39.0734 3.27359 39.1574 3.29589C39.0734 3.318 38.9866 3.32708 38.8999 3.32283C38.7395 3.33181 38.5188 3.32283 38.2774 3.34378C37.7889 3.37521 37.4004 3.43956 37.4004 3.41711Z" fill="#263238"/>
<path d="M34.2881 5.01387C34.6833 4.56278 35.1766 4.21176 35.7288 3.98877C35.7391 4.00972 35.3903 4.19678 34.993 4.47962C34.5956 4.76246 34.3102 5.03033 34.2881 5.01387Z" fill="#263238"/>
<path d="M32.6555 8.12219C32.6636 7.81998 32.7223 7.52138 32.8292 7.23926C32.9123 6.94928 33.0437 6.67595 33.2177 6.43115C33.2383 6.44163 33.0558 6.79779 32.9013 7.2647C32.7468 7.73161 32.6776 8.12518 32.6555 8.12219Z" fill="#263238"/>
<path d="M32.5956 11.7062C32.5566 11.4086 32.5437 11.1082 32.5571 10.8083C32.5437 10.5084 32.5566 10.208 32.5956 9.9104C32.6337 10.208 32.6466 10.5084 32.6341 10.8083C32.6466 11.1082 32.6337 11.4086 32.5956 11.7062Z" fill="#263238"/>
<path d="M32.5956 15.2948C32.5566 14.9973 32.5437 14.6968 32.5571 14.3969C32.5438 14.0971 32.5566 13.7966 32.5956 13.499C32.6336 13.7967 32.6465 14.0971 32.6341 14.3969C32.6466 14.6968 32.6337 14.9972 32.5956 15.2948Z" fill="#263238"/>
<path d="M32.5047 18.8775C32.4826 18.8775 32.5488 18.4764 32.5547 17.9796C32.5422 17.6797 32.5555 17.3792 32.5944 17.0817C32.6323 17.3793 32.6446 17.6797 32.6312 17.9796C32.6403 18.284 32.5975 18.5878 32.5047 18.8775Z" fill="#263238"/>
<path d="M30.7779 21.9318C30.7632 21.9138 31.0531 21.6415 31.3665 21.2598C31.68 20.8782 31.8786 20.537 31.8992 20.549C31.6419 21.096 31.257 21.5708 30.7779 21.9318Z" fill="#263238"/>
<path d="M27.626 23.4387C27.626 23.4163 28.0101 23.3444 28.4736 23.1993C28.9371 23.0541 29.2977 22.9 29.308 22.9149C29.0569 23.0763 28.7829 23.1974 28.4957 23.2741C28.216 23.3748 27.9225 23.4303 27.626 23.4387Z" fill="#263238"/>
<path d="M24.1008 23.5631C24.3932 23.5211 24.6886 23.5041 24.9838 23.5122C25.2783 23.4942 25.5738 23.5032 25.8667 23.5391C25.5743 23.5811 25.279 23.5981 24.9838 23.59C24.6893 23.6079 24.3938 23.5989 24.1008 23.5631Z" fill="#263238"/>
<path d="M20.5742 23.6093C20.8665 23.5664 21.162 23.5493 21.4572 23.5584C21.7517 23.5413 22.047 23.5498 22.3401 23.5838C22.0479 23.6277 21.7524 23.6452 21.4572 23.6362C21.1626 23.6524 20.8673 23.6434 20.5742 23.6093Z" fill="#263238"/>
<path d="M17.0469 23.6602C17.3391 23.6164 17.6346 23.5988 17.9298 23.6078C18.2243 23.5908 18.5198 23.5998 18.8128 23.6348C18.5204 23.6777 18.225 23.6947 17.9298 23.6857C17.6353 23.7028 17.3399 23.6943 17.0469 23.6602Z" fill="#263238"/>
<path d="M13.5194 23.7126C13.8117 23.6697 14.1071 23.6527 14.4024 23.6617C14.6968 23.6445 14.9922 23.653 15.2853 23.6872C14.9931 23.7312 14.6976 23.7487 14.4024 23.7396C14.1078 23.7567 13.8124 23.7477 13.5194 23.7126Z" fill="#263238"/>
<path d="M10.8613 23.7471C11.0051 23.7077 11.1542 23.6926 11.3028 23.7022C11.4507 23.6879 11.6 23.699 11.7443 23.7351C11.6006 23.7752 11.4514 23.7904 11.3028 23.78C11.1549 23.796 11.0054 23.7848 10.8613 23.7471Z" fill="#263238"/>
<path d="M40.2097 1.06917C40.2101 0.904981 40.1731 0.742928 40.1018 0.595627C40.0305 0.448326 39.9267 0.319752 39.7985 0.219914C39.6703 0.120077 39.5212 0.0516689 39.3628 0.0200156C39.2043 -0.0116378 39.0409 -0.00568279 38.8851 0.0374179C38.7293 0.0805186 38.5854 0.159602 38.4645 0.268511C38.3437 0.37742 38.2492 0.513216 38.1884 0.66533C38.1277 0.817443 38.1022 0.98177 38.1141 1.14552C38.126 1.30926 38.1749 1.46801 38.2569 1.60941C38.2982 1.67825 38.3482 1.72763 38.4041 1.80096L39.0178 2.62403C39.0355 2.64761 39.0583 2.66672 39.0845 2.67987C39.1106 2.69302 39.1394 2.69986 39.1686 2.69986C39.1978 2.69986 39.2266 2.69302 39.2527 2.67987C39.2789 2.66672 39.3017 2.64761 39.3194 2.62403L39.9184 1.81742C39.9707 1.75162 40.0199 1.6832 40.0655 1.6124C40.1606 1.44774 40.2104 1.26012 40.2097 1.06917ZM39.1649 1.53458C39.0735 1.53458 38.9842 1.50702 38.9082 1.45539C38.8322 1.40376 38.773 1.33037 38.738 1.24451C38.703 1.15864 38.6939 1.06416 38.7117 0.97301C38.7295 0.881859 38.7736 0.79813 38.8382 0.732414C38.9028 0.666697 38.9851 0.621944 39.0748 0.603813C39.1644 0.585682 39.2573 0.594987 39.3417 0.630553C39.4262 0.666118 39.4983 0.726347 39.5491 0.803621C39.5999 0.880896 39.627 0.971746 39.627 1.06468C39.627 1.18931 39.5783 1.30883 39.4916 1.39695C39.405 1.48507 39.2875 1.53458 39.1649 1.53458Z" fill="#3F7ED3"/>
<path d="M79.9902 16.8661C79.9904 16.7021 79.9533 16.5402 79.882 16.3931C79.8107 16.246 79.707 16.1176 79.5789 16.0179C79.4509 15.9181 79.3019 15.8498 79.1437 15.8181C78.9854 15.7864 78.8221 15.7922 78.6664 15.8351C78.5108 15.8781 78.3669 15.9569 78.2461 16.0655C78.1252 16.1742 78.0306 16.3097 77.9696 16.4615C77.9086 16.6133 77.8829 16.7774 77.8944 16.941C77.9059 17.1047 77.9543 17.2634 78.0359 17.4048C78.0757 17.4737 78.1257 17.5231 78.1831 17.5949L78.7923 18.415C78.81 18.4374 78.8324 18.4556 78.8578 18.468C78.8833 18.4805 78.9112 18.487 78.9395 18.487C78.9678 18.487 78.9957 18.4805 79.0211 18.468C79.0466 18.4556 79.069 18.4374 79.0866 18.415L79.6856 17.6084C79.738 17.5426 79.7871 17.4741 79.8327 17.4033C79.9314 17.2418 79.9858 17.0563 79.9902 16.8661ZM78.9409 17.33C78.8495 17.3303 78.76 17.303 78.6838 17.2516C78.6077 17.2001 78.5482 17.1268 78.513 17.041C78.4778 16.9551 78.4684 16.8606 78.4861 16.7694C78.5038 16.6781 78.5477 16.5942 78.6122 16.5284C78.6768 16.4625 78.7591 16.4176 78.8488 16.3994C78.9385 16.3811 79.0314 16.3903 79.116 16.4258C79.2005 16.4614 79.2727 16.5216 79.3236 16.5989C79.3744 16.6762 79.4016 16.7671 79.4016 16.8601C79.4017 16.9218 79.39 16.9828 79.3669 17.0398C79.3439 17.0968 79.31 17.1486 79.2672 17.1923C79.2244 17.2359 79.1735 17.2706 79.1176 17.2942C79.0616 17.3179 79.0016 17.33 78.9409 17.33Z" fill="#3F7ED3"/>
<path d="M65.2459 6.30089C65.2465 6.13663 65.2097 5.97447 65.1385 5.82702C65.0674 5.67958 64.9637 5.55083 64.8356 5.45082C64.7074 5.35081 64.5583 5.28223 64.3999 5.25042C64.2414 5.21861 64.0779 5.22444 63.922 5.26745C63.7661 5.31045 63.6221 5.38948 63.5011 5.49836C63.3802 5.60725 63.2856 5.74306 63.2248 5.8952C63.1639 6.04735 63.1384 6.21174 63.1503 6.37555C63.1621 6.53936 63.211 6.69818 63.2931 6.83962C63.3329 6.90846 63.3829 6.95785 63.4403 7.03118L64.0495 7.85125C64.0672 7.87483 64.0901 7.89394 64.1162 7.9071C64.1424 7.92025 64.1712 7.92709 64.2004 7.92709C64.2295 7.92709 64.2583 7.92025 64.2845 7.9071C64.3107 7.89394 64.3335 7.87483 64.3512 7.85125L64.9501 7.04464C65.0025 6.97885 65.0516 6.91042 65.0973 6.83962C65.1932 6.67675 65.2445 6.49073 65.2459 6.30089ZM64.1982 6.7648C64.1067 6.7651 64.0172 6.73779 63.941 6.68634C63.8649 6.63488 63.8054 6.5616 63.7702 6.47576C63.735 6.38993 63.7256 6.2954 63.7433 6.20415C63.761 6.1129 63.8049 6.02903 63.8694 5.96316C63.934 5.8973 64.0163 5.8524 64.106 5.83414C64.1957 5.81589 64.2887 5.82511 64.3732 5.86063C64.4577 5.89615 64.5299 5.95638 64.5808 6.03368C64.6316 6.11099 64.6588 6.2019 64.6588 6.2949C64.6588 6.41927 64.6103 6.53856 64.5239 6.62664C64.4376 6.71472 64.3204 6.7644 64.1982 6.7648Z" fill="#455A64"/>
<path d="M22.0042 20.5026C22.0055 20.2993 21.9605 20.0985 21.8728 19.9157C21.785 19.733 21.657 19.5734 21.4985 19.4494C21.3401 19.3254 21.1556 19.2403 20.9594 19.2009C20.7633 19.1614 20.5608 19.1686 20.3679 19.2219C20.1749 19.2752 19.9967 19.3732 19.8472 19.5081C19.6976 19.6431 19.5808 19.8114 19.5059 19.9999C19.4309 20.1884 19.3998 20.392 19.4151 20.5947C19.4303 20.7975 19.4915 20.9939 19.5938 21.1686C19.6481 21.2499 19.7066 21.3283 19.7689 21.4035L20.5209 22.4182C20.5425 22.4479 20.5706 22.472 20.6031 22.4886C20.6356 22.5053 20.6714 22.5139 20.7077 22.5139C20.7441 22.5139 20.7799 22.5053 20.8124 22.4886C20.8448 22.472 20.873 22.4479 20.8946 22.4182L21.6304 21.4215C21.698 21.3404 21.7609 21.2555 21.8188 21.1671C21.9378 20.9664 22.0018 20.737 22.0042 20.5026ZM20.7063 21.0773C20.5933 21.0773 20.483 21.0432 20.3891 20.9794C20.2952 20.9156 20.222 20.825 20.1788 20.7189C20.1355 20.6128 20.1242 20.496 20.1463 20.3834C20.1683 20.2708 20.2227 20.1673 20.3025 20.0861C20.3824 20.0049 20.4841 19.9496 20.5949 19.9272C20.7056 19.9048 20.8204 19.9163 20.9248 19.9602C21.0291 20.0042 21.1183 20.0786 21.181 20.1741C21.2438 20.2696 21.2772 20.3818 21.2772 20.4967C21.2772 20.6507 21.2171 20.7983 21.11 20.9072C21.0029 21.0161 20.8577 21.0773 20.7063 21.0773Z" fill="#455A64"/>
<path d="M45.4918 16.3964C44.6863 16.3522 43.8834 16.5225 43.1623 16.8902C42.3926 17.2553 41.6657 17.7956 41.2831 18.5663C40.9005 19.337 40.9431 20.3621 41.5465 20.9726C40.3869 21.2854 39.5142 22.3344 39.1493 23.4957C38.7843 24.657 38.8623 25.92 39.0934 27.1172C39.2037 27.6829 39.3995 28.3144 39.913 28.5569C40.2427 28.7065 40.6488 28.6766 40.9579 28.8696C41.2669 29.0627 41.4082 29.4158 41.6039 29.7166C41.7909 30.0044 42.0334 30.2505 42.3168 30.44C42.6002 30.6295 42.9186 30.7583 43.2525 30.8188C43.5864 30.8793 43.9289 30.8701 44.2592 30.7917C44.5896 30.7134 44.9007 30.5676 45.1739 30.3631L47.552 17.5112C47.0855 16.8468 46.2908 16.4652 45.4918 16.3964Z" fill="#455A64"/>
<path d="M47.0902 17.7805C47.041 17.8516 46.9864 17.9187 46.9269 17.981C46.8165 18.1068 46.6561 18.2803 46.453 18.5048C45.9319 19.084 45.3473 19.6006 44.7107 20.0447C44.0679 20.49 43.3326 20.7778 42.5622 20.8857C42.3293 20.9152 42.0941 20.9203 41.8602 20.9007C41.7778 20.9007 41.7131 20.8827 41.6704 20.8768C41.6482 20.8751 41.6264 20.8701 41.6057 20.8618C41.6057 20.8618 41.6984 20.8618 41.8617 20.8708C42.0934 20.8786 42.3254 20.8656 42.5548 20.8319C43.3121 20.7091 44.0335 20.4184 44.668 19.9804C45.2988 19.5399 45.8841 19.0355 46.4147 18.4749L46.9048 17.9676C46.9615 17.9002 47.0235 17.8377 47.0902 17.7805Z" fill="#263238"/>
<path d="M42.4549 21.6311C42.4461 21.6311 42.4079 21.5712 42.3755 21.4575C42.3377 21.3059 42.3302 21.1481 42.3534 20.9935C42.3776 20.8392 42.4327 20.6914 42.5153 20.5596C42.58 20.4593 42.6359 20.4099 42.6433 20.4099C42.5456 20.5949 42.4738 20.7928 42.4299 20.998C42.4084 21.2092 42.4169 21.4224 42.4549 21.6311Z" fill="#263238"/>
<path d="M43.2553 22.1084C43.2688 22.1304 43.2797 22.154 43.2876 22.1787C43.3068 22.2251 43.3362 22.294 43.3671 22.3867C43.4584 22.6441 43.5336 22.907 43.5923 23.1739C43.7983 24.0596 43.7983 24.9819 43.5923 25.8676C43.3743 26.7539 42.8965 27.552 42.2222 28.1557C42.0183 28.336 41.7947 28.4916 41.5556 28.6196C41.4732 28.6675 41.4085 28.693 41.3584 28.7154C41.3353 28.7266 41.3111 28.7357 41.2863 28.7424C41.3689 28.6878 41.4544 28.6378 41.5424 28.5927C41.7726 28.4562 41.9885 28.2963 42.1869 28.1153C42.8391 27.5081 43.3021 26.72 43.5187 25.8481C43.7221 24.9747 43.7307 24.0661 43.5437 23.1889C43.476 22.8507 43.3965 22.5903 43.345 22.3987C43.309 22.304 43.279 22.207 43.2553 22.1084Z" fill="#263238"/>
<path d="M43.6639 24.1331C43.6028 24.1263 43.5426 24.1128 43.4844 24.0927C43.3696 24.0613 43.2033 24.0194 42.9973 23.97C41.9252 23.714 40.8229 23.6133 39.723 23.6707C39.5126 23.6812 39.3419 23.6932 39.2242 23.7037C39.1631 23.7109 39.1013 23.7109 39.0402 23.7037C39.099 23.6842 39.1597 23.6717 39.2212 23.6662C39.3375 23.6468 39.5082 23.6273 39.7201 23.6094C40.8256 23.5198 41.9381 23.621 43.0105 23.9087C43.2165 23.964 43.3799 24.0149 43.4917 24.0583C43.552 24.0757 43.6099 24.1008 43.6639 24.1331Z" fill="#263238"/>
<g opacity="0.3">
<path d="M41.7082 20.8694C42.5087 21.3931 43.5889 21.3333 44.4365 20.8918C45.2841 20.4503 45.9081 19.6318 46.2362 18.7234C45.1281 20.0253 43.4829 20.9696 41.7082 20.8694Z" fill="black"/>
</g>
<g opacity="0.3">
<path d="M41.281 28.7394C41.6136 28.7156 41.937 28.6174 42.228 28.4519C42.519 28.2863 42.7705 28.0575 42.9644 27.7816C43.3124 27.2209 43.5234 26.5836 43.5795 25.923C43.366 26.488 43.0958 27.0291 42.7731 27.5377C42.5867 27.7776 42.3739 27.995 42.1389 28.1857C41.8755 28.405 41.587 28.5909 41.2795 28.7394" fill="black"/>
</g>
<path d="M42.1076 23.7471C42.1614 23.8707 42.1966 24.0019 42.2121 24.1362C42.2371 24.2589 42.2651 24.401 42.3077 24.5597C42.3336 24.6496 42.3336 24.7451 42.3077 24.835C42.2933 24.8877 42.2624 24.9342 42.2196 24.9675C42.1769 25.0007 42.1246 25.0188 42.0708 25.0191C42.0182 25.0117 41.9688 24.989 41.9285 24.9537C41.8883 24.9183 41.859 24.8719 41.8442 24.8201C41.8191 24.7305 41.8191 24.6357 41.8442 24.5462C41.8869 24.3831 41.9325 24.2469 41.9693 24.1257C42.0021 23.9955 42.0469 23.8687 42.1032 23.7471C42.0885 23.8812 42.0609 24.0135 42.0208 24.1421C41.9884 24.2693 41.9516 24.41 41.9133 24.5612C41.8928 24.6381 41.8928 24.7192 41.9133 24.7961C41.9237 24.8338 41.9442 24.8678 41.9725 24.8942C42.0009 24.9207 42.0359 24.9385 42.0737 24.9458C42.1111 24.9447 42.1472 24.9312 42.1764 24.9075C42.2056 24.8837 42.2264 24.8509 42.2356 24.8141C42.2555 24.7376 42.2555 24.6571 42.2356 24.5806C42.2005 24.4392 42.1735 24.2958 42.1547 24.1511C42.1311 23.8997 42.1076 23.7501 42.1076 23.7471Z" fill="#263238"/>
<path d="M45.59 18.9373C45.4275 18.8546 45.2702 18.7616 45.1191 18.659C44.7479 18.424 44.3632 18.2121 43.9668 18.0245C43.5714 17.8378 43.1547 17.7021 42.7263 17.6204C42.3966 17.5591 42.1877 17.5576 42.1877 17.5441C42.2361 17.5344 42.2856 17.5314 42.3348 17.5351C42.4683 17.5357 42.6015 17.5457 42.7336 17.565C43.1715 17.6322 43.5977 17.7627 43.9992 17.9526C44.3991 18.1408 44.7835 18.3615 45.1485 18.6126C45.2883 18.7069 45.4001 18.7862 45.4766 18.8431C45.5181 18.8696 45.5562 18.9012 45.59 18.9373Z" fill="#263238"/>
<path d="M45.3704 18.8371C45.3792 18.8371 45.3866 18.888 45.3453 18.9523C45.3174 18.9947 45.2778 19.0278 45.2315 19.0475C45.1852 19.0672 45.1342 19.0726 45.0849 19.063L45.0363 19.0541L45.0584 19.0077C45.101 18.9209 45.1756 18.8548 45.2659 18.8236C45.3336 18.8012 45.3777 18.8101 45.3792 18.8236C45.3807 18.8371 45.3409 18.8476 45.288 18.879C45.2193 18.9174 45.1635 18.9758 45.1276 19.0466L45.1025 18.9912C45.1393 18.9974 45.1771 18.9943 45.2124 18.9823C45.2478 18.9703 45.2798 18.9498 45.3056 18.9224C45.3453 18.876 45.3586 18.8356 45.3704 18.8371Z" fill="#263238"/>
<path d="M57.8005 18.5497C57.8005 18.5497 57.2119 17.7626 57.2119 17.4438L57.4561 15.5912C57.4561 15.5912 57.5621 15.4041 57.7269 15.7139C57.8741 15.9982 57.7916 16.4382 57.7916 16.4382L57.8947 16.8737L58.1169 16.5444L58.367 15.3068C58.367 15.3068 58.526 14.4089 58.6613 14.5062C58.7967 14.6035 58.8379 14.8594 58.7688 15.2455C58.6996 15.6316 58.6113 16.1209 58.6113 16.1209C58.6113 16.1209 58.5937 16.2706 58.7349 16.0177C58.8762 15.7648 59.0292 14.6813 59.0866 14.5361C59.144 14.391 59.1617 14.0049 59.3809 14.0258C59.6002 14.0468 59.4722 14.5391 59.4722 14.5391L59.2632 16.1344C59.2632 16.1344 59.4663 15.4924 59.5046 15.3862C59.5428 15.2799 59.6032 14.9267 59.6767 14.7352C59.7503 14.5436 59.8592 14.4449 59.9549 14.4568C60.0007 14.4595 60.0437 14.4799 60.0752 14.5139C60.1067 14.5478 60.1242 14.5927 60.1241 14.6394L59.8033 16.0042C59.8033 16.0042 59.6252 16.6253 59.637 16.6657C59.6488 16.7061 59.8739 16.4068 59.8739 16.4068L60.0476 15.9578C60.0476 15.9578 60.1947 15.3308 60.3566 15.3128C60.5185 15.2949 60.5273 15.4221 60.5273 15.4221L60.2551 16.5684L59.7562 17.8763L59.2838 18.8595C59.2838 18.8595 58.6246 18.7548 58.5995 18.7892C58.5745 18.8236 57.8005 18.5497 57.8005 18.5497Z" fill="#FFBE9D"/>
<path d="M58.9678 17.9976C58.9151 17.9056 58.8699 17.8096 58.8324 17.7103C58.7408 17.4775 58.5664 17.2883 58.3438 17.1805C58.2348 17.1321 58.1129 17.1226 57.998 17.1536L57.9597 17.164L57.9509 17.1221C57.9082 16.9321 57.8494 16.757 57.8229 16.6373C57.7987 16.5739 57.7881 16.5061 57.792 16.4382C57.8226 16.4969 57.8472 16.5586 57.8655 16.6223C57.9267 16.7826 57.9797 16.9459 58.0245 17.1117L57.9759 17.0802C58.1071 17.041 58.2476 17.0495 58.3732 17.1042C58.5091 17.1619 58.6275 17.2554 58.7161 17.375C58.7849 17.4711 58.8412 17.5757 58.8839 17.6863C58.9292 17.7844 58.9576 17.8897 58.9678 17.9976Z" fill="#EB996E"/>
<path d="M52.7022 17.6533L55.9617 22.6082L57.4333 18.2893L59.4376 18.7907C59.4376 18.7907 58.6194 24.5971 58.3074 25.1732C57.9954 25.7494 57.0168 26.5814 55.8057 26.4138C54.5946 26.2462 52.1827 22.9434 52.1827 22.9434L52.7022 17.6533Z" fill="#3F7ED3"/>
<path d="M56.3635 24.597C56.4368 23.8727 56.2822 23.1433 55.9221 22.5139C55.9988 22.5887 56.0616 22.6769 56.1075 22.7743C56.2354 23.0013 56.3278 23.2472 56.3812 23.5031C56.4367 23.7584 56.4536 24.0208 56.4312 24.2813C56.4271 24.3898 56.4042 24.4966 56.3635 24.597Z" fill="#263238"/>
<g opacity="0.3">
<path d="M52.9482 23.997C53.0547 23.9396 53.1463 23.8573 53.2154 23.7568C53.2844 23.6564 53.3291 23.5407 53.3456 23.4193C53.3772 23.1768 53.3697 22.9306 53.3235 22.6905C53.1925 21.7133 53.0086 20.6957 52.882 19.7185L52.9335 23.8952" fill="black"/>
</g>
<g opacity="0.3">
<path d="M56.3973 24.3561C56.462 24.344 56.5227 24.3158 56.574 24.274C56.6254 24.2322 56.6658 24.1782 56.6916 24.1167C56.7426 23.9919 56.7604 23.8556 56.7431 23.7216C56.7199 23.4692 56.634 23.2269 56.4934 23.0175C56.3529 22.8081 56.1623 22.6384 55.9396 22.5244C56.2606 23.0769 56.418 23.7119 56.3929 24.3531" fill="black"/>
</g>
<path d="M56.4495 49.9357L58.3125 54.2486L63.6396 51.9679C63.3939 51.4651 59.9945 51.721 59.9945 51.721L58.8173 48.7924L56.4495 49.9357Z" fill="#3F7ED3"/>
<g opacity="0.6">
<path d="M58.4609 52.0787C58.4163 52.1167 58.3871 52.17 58.3787 52.2285C58.3702 52.287 58.3833 52.3466 58.4153 52.396C58.4511 52.4425 58.503 52.4733 58.5605 52.4822C58.6179 52.4911 58.6765 52.4774 58.7243 52.4439C58.7713 52.4036 58.8019 52.347 58.8104 52.2852C58.8188 52.2233 58.8044 52.1604 58.7699 52.1086C58.728 52.064 58.6709 52.0376 58.6103 52.0348C58.5497 52.032 58.4904 52.0531 58.4447 52.0937" fill="white"/>
</g>
<g opacity="0.6">
<path d="M58.3134 54.2485L58.1457 53.7996L63.3153 51.7793C63.3153 51.7793 63.5964 51.7793 63.6405 51.9634L58.3134 54.2485Z" fill="white"/>
</g>
<path d="M60.095 51.7345C60.1053 51.7615 59.9802 51.8303 59.8875 51.9695C59.7948 52.1087 59.7727 52.2493 59.7403 52.2493C59.7079 52.2493 59.6873 52.0802 59.8036 51.9126C59.9199 51.745 60.0906 51.7091 60.095 51.7345Z" fill="#263238"/>
<path d="M60.8935 51.6821C60.9111 51.7046 60.8169 51.7974 60.7743 51.947C60.7316 52.0967 60.7566 52.2268 60.7301 52.2358C60.7036 52.2448 60.6242 52.1041 60.6801 51.9186C60.736 51.733 60.8832 51.6567 60.8935 51.6821Z" fill="#263238"/>
<path d="M61.4703 52.2045C61.4497 52.2194 61.3585 52.1027 61.3658 51.9306C61.3732 51.7585 61.4703 51.6478 61.4894 51.6642C61.5086 51.6807 61.4674 51.7914 61.463 51.9336C61.4585 52.0757 61.4953 52.191 61.4703 52.2045Z" fill="#263238"/>
<path d="M59.7536 51.0281C59.7536 51.0565 59.6182 51.0715 59.4755 51.1448C59.3327 51.2182 59.2371 51.3139 59.2135 51.2945C59.19 51.275 59.2621 51.1359 59.4313 51.0521C59.6005 50.9683 59.7565 51.0027 59.7536 51.0281Z" fill="#263238"/>
<path d="M37.7805 54.1663L37.5524 51.8632L39.4419 49.4434L37.1256 47.929L37.0638 48.0217L35.8866 49.8295L34.3576 51.0566L36.7857 55.1136L39.1505 54.952C39.1505 54.952 38.9386 54.3908 37.7805 54.1663Z" fill="#3F7ED3"/>
<g opacity="0.6">
<path d="M34.3547 51.0565L36.7828 55.1135L39.1476 54.9519L38.8577 54.6092L36.927 54.6331L34.6799 50.7961L34.3547 51.0565Z" fill="white"/>
</g>
<path d="M37.6927 53.1098C37.678 53.1353 37.5353 53.0664 37.3528 53.0844C37.1703 53.1023 37.0408 53.1876 37.0217 53.1652C37.0026 53.1427 37.1218 52.9961 37.3455 52.9781C37.5691 52.9602 37.7163 53.0904 37.6927 53.1098Z" fill="#263238"/>
<path d="M37.62 52.5396C37.5965 52.559 37.4817 52.4243 37.2919 52.4004C37.102 52.3765 36.9549 52.4737 36.9387 52.4498C36.9225 52.4258 36.9549 52.3974 37.0182 52.3555C37.1042 52.3024 37.2054 52.2808 37.3051 52.2941C37.405 52.3073 37.4974 52.3549 37.5671 52.4288C37.6171 52.4857 37.6303 52.5321 37.62 52.5396Z" fill="#263238"/>
<path d="M37.5867 51.8033C37.5617 51.8197 37.4719 51.6851 37.3041 51.6387C37.1364 51.5923 36.9907 51.6566 36.9775 51.6312C36.9642 51.6057 36.9981 51.5833 37.0613 51.5549C37.1469 51.5179 37.2422 51.5115 37.3317 51.5368C37.4213 51.5621 37.4998 51.6175 37.5543 51.694C37.594 51.7524 37.5985 51.7973 37.5867 51.8033Z" fill="#263238"/>
<path d="M38.1824 51.1912C38.1544 51.2032 38.0794 51.07 37.9263 50.9847C37.7733 50.8994 37.632 50.8934 37.6217 50.8635C37.6114 50.8336 37.7924 50.7827 37.9778 50.8919C38.1632 51.0012 38.2103 51.1852 38.1824 51.1912Z" fill="#263238"/>
<path d="M38.4573 50.6766C38.4455 50.6855 38.3616 50.5943 38.2351 50.4386C38.163 50.3488 38.0879 50.2575 38.0158 50.1633C37.9658 50.1083 37.9246 50.0457 37.8937 49.9777C37.8835 49.9541 37.8782 49.9286 37.8782 49.9029C37.8782 49.8771 37.8835 49.8516 37.8937 49.828C37.9057 49.8016 37.9251 49.7793 37.9494 49.7639C37.9737 49.7485 38.0019 49.7406 38.0305 49.7412C38.1151 49.7519 38.1948 49.7873 38.2601 49.843C38.4177 49.9642 38.5253 50.1408 38.5618 50.3384C38.5934 50.4492 38.5818 50.5682 38.5294 50.6706C38.5218 50.5647 38.5085 50.4593 38.4897 50.3548C38.4612 50.2459 38.4112 50.144 38.3425 50.0555C38.3023 50.0052 38.2558 49.9604 38.2042 49.9223C38.155 49.8823 38.0969 49.855 38.0349 49.843C38.0259 49.8423 38.0169 49.8444 38.0091 49.8489C38.0012 49.8534 37.9948 49.8602 37.9908 49.8685C37.9834 49.8903 37.9834 49.914 37.9908 49.9358C38.0184 49.9938 38.053 50.0481 38.0938 50.0974C38.1615 50.1962 38.2292 50.292 38.2954 50.3862C38.3651 50.4731 38.4198 50.5712 38.4573 50.6766Z" fill="#263238"/>
<path d="M38.5474 50.7423C38.5356 50.7423 38.5371 50.6151 38.6548 50.4625C38.7353 50.3598 38.8468 50.2869 38.972 50.255C39.0973 50.2231 39.2293 50.234 39.3479 50.2859C39.3608 50.2953 39.3713 50.3077 39.3787 50.322C39.3861 50.3362 39.3902 50.3521 39.3906 50.3682C39.3903 50.3964 39.3821 50.4239 39.3671 50.4475C39.3444 50.4781 39.3177 50.5053 39.2876 50.5283C39.1523 50.6393 38.992 50.7143 38.8211 50.7468C38.7253 50.7773 38.6226 50.7773 38.5268 50.7468C38.5268 50.7289 38.6386 50.7304 38.8049 50.681C38.9576 50.6364 39.0994 50.5599 39.2214 50.4565C39.2434 50.4398 39.2632 50.4201 39.2802 50.3981C39.2891 50.3757 39.2802 50.3817 39.2802 50.3757C39.2581 50.3644 39.2342 50.3573 39.2096 50.3547C39.1804 50.35 39.1509 50.3475 39.1213 50.3473C39.0645 50.3458 39.0078 50.3539 38.9535 50.3712C38.8604 50.3989 38.7758 50.4504 38.7078 50.5208C38.5915 50.6346 38.5636 50.7483 38.5474 50.7423Z" fill="#263238"/>
<g opacity="0.6">
<path d="M36.2372 50.8561C36.241 50.9127 36.228 50.9692 36.2001 51.0183C36.1722 51.0674 36.1305 51.107 36.0804 51.1319C36.0302 51.1569 35.974 51.1661 35.9187 51.1584C35.8634 51.1507 35.8116 51.1264 35.7699 51.0887C35.7282 51.051 35.6985 51.0015 35.6846 50.9465C35.6707 50.8916 35.6732 50.8337 35.6917 50.7801C35.7103 50.7266 35.7441 50.6799 35.7888 50.646C35.8335 50.6121 35.8872 50.5925 35.9429 50.5897C36.0165 50.586 36.0886 50.6118 36.1437 50.6617C36.1987 50.7115 36.2323 50.7813 36.2372 50.8561Z" fill="white"/>
</g>
<path d="M48.7385 9.91048C48.8398 9.4161 49.0144 8.94026 49.2565 8.49929C49.5032 8.05554 49.9026 7.72027 50.3778 7.558C50.8716 7.42657 51.3919 7.43954 51.8788 7.59541C52.2233 7.71497 52.5374 7.91072 52.7985 8.16857C53.24 8.55616 53.4652 9.16074 53.6506 9.72193" fill="#3F7ED3"/>
<path d="M53.9618 9.76083C53.8759 9.21676 53.5884 8.72681 53.1584 8.39153C52.7211 8.08016 52.2054 7.90256 51.6721 7.87973C50.8465 7.81538 49.8812 8.04435 49.3176 8.65791C48.7539 9.27147 48.4214 10.1065 48.492 10.8548C48.5229 11.1915 48.8437 12.1028 49.0983 12.3228L53.8279 12.1986C54.1105 11.7407 54.0472 10.2981 53.9618 9.76083Z" fill="#3F7ED3"/>
<path d="M53.8804 10.768C53.8294 10.102 53.5334 9.47995 53.0515 9.02593C52.5696 8.57191 51.9371 8.31923 51.2802 8.31824H51.1448C49.685 8.40204 48.9374 9.70848 49.0625 11.19L49.3186 18.035H52.6635L52.634 15.8067C52.634 15.8067 54.0379 15.5882 54.057 14.1605C54.0659 13.4722 53.9717 12.052 53.8804 10.768Z" fill="#FFBE9D"/>
<path d="M52.6435 15.8051C51.9922 15.8039 51.3548 15.6127 50.807 15.2544C50.807 15.2544 51.2367 16.281 52.6362 16.1523L52.6435 15.8051Z" fill="#EB996E"/>
<path d="M53.3262 11.8905C53.3263 11.9436 53.306 11.9946 53.2698 12.0329C53.2336 12.0711 53.1842 12.0936 53.132 12.0955C53.1065 12.0975 53.0809 12.0943 53.0566 12.0861C53.0324 12.0779 53.01 12.0649 52.9908 12.0477C52.9716 12.0305 52.9559 12.0096 52.9448 11.9862C52.9337 11.9628 52.9273 11.9374 52.926 11.9114C52.9259 11.8583 52.9462 11.8073 52.9824 11.769C53.0186 11.7308 53.068 11.7083 53.1202 11.7064C53.1457 11.7044 53.1713 11.7076 53.1956 11.7158C53.2198 11.724 53.2422 11.737 53.2614 11.7542C53.2806 11.7714 53.2963 11.7923 53.3074 11.8157C53.3185 11.8391 53.3249 11.8645 53.3262 11.8905Z" fill="#263238"/>
<path d="M53.5695 11.4653C53.5445 11.4922 53.3929 11.377 53.1781 11.377C52.9632 11.377 52.8043 11.4862 52.7807 11.4593C52.7572 11.4323 52.794 11.4009 52.8631 11.35C52.9565 11.2843 53.0675 11.2493 53.181 11.2498C53.2931 11.2499 53.4023 11.2861 53.493 11.353C53.5592 11.4054 53.5857 11.4533 53.5695 11.4653Z" fill="#263238"/>
<path d="M51.2525 11.9937C51.2529 12.0466 51.233 12.0977 51.197 12.136C51.161 12.1742 51.1118 12.1967 51.0597 12.1987C51.0343 12.2005 51.0087 12.1972 50.9846 12.1889C50.9604 12.1806 50.9381 12.1675 50.9189 12.1504C50.8998 12.1333 50.8841 12.1125 50.8729 12.0892C50.8617 12.0658 50.8552 12.0405 50.8537 12.0146C50.8529 11.9614 50.8726 11.91 50.9087 11.8714C50.9447 11.8328 50.9942 11.81 51.0465 11.8081C51.0721 11.8063 51.0977 11.8097 51.122 11.818C51.1462 11.8264 51.1686 11.8396 51.1878 11.8569C51.207 11.8742 51.2226 11.8952 51.2337 11.9187C51.2448 11.9421 51.2512 11.9676 51.2525 11.9937Z" fill="#263238"/>
<path d="M51.4475 11.5747C51.4239 11.6016 51.2709 11.4864 51.056 11.4879C50.8412 11.4894 50.6822 11.5971 50.6587 11.5702C50.6351 11.5432 50.6734 11.5103 50.7426 11.4594C50.8357 11.3934 50.9469 11.3588 51.0604 11.3607C51.1724 11.36 51.2817 11.3957 51.3724 11.4624C51.4372 11.5148 51.4607 11.5627 51.4475 11.5747Z" fill="#263238"/>
<path d="M52.2299 13.1295C52.3436 13.0935 52.4613 13.0719 52.5802 13.0651C52.6346 13.0651 52.6861 13.0487 52.6964 13.0112C52.7011 12.9533 52.6883 12.8954 52.6596 12.8451L52.4978 12.4186C52.2726 11.8111 52.1107 11.3112 52.1343 11.3022C52.1578 11.2933 52.3609 11.7781 52.5846 12.3857C52.639 12.5354 52.6905 12.685 52.7406 12.8152C52.7749 12.883 52.7848 12.9608 52.7685 13.0352C52.7605 13.0549 52.7481 13.0725 52.7323 13.0865C52.7165 13.1006 52.6976 13.1106 52.6773 13.116C52.6472 13.125 52.616 13.1295 52.5846 13.1295C52.4669 13.1447 52.3477 13.1447 52.2299 13.1295Z" fill="#263238"/>
<path d="M51.5942 13.2791C51.6295 13.2791 51.6295 13.5155 51.8297 13.6846C52.0298 13.8537 52.2785 13.8343 52.28 13.8612C52.2814 13.8882 52.2255 13.9076 52.1196 13.9106C51.9824 13.9117 51.8491 13.8641 51.7428 13.7759C51.6411 13.6912 51.5761 13.5692 51.5618 13.4362C51.553 13.3374 51.578 13.2776 51.5942 13.2791Z" fill="#263238"/>
<path d="M51.5587 11.0778C51.5381 11.1376 51.3218 11.1122 51.0701 11.1466C50.8185 11.181 50.614 11.2514 50.5786 11.199C50.5639 11.1736 50.5992 11.1167 50.6802 11.0583C50.7896 10.9865 50.9136 10.941 51.0429 10.9252C51.1721 10.9094 51.3032 10.9237 51.4263 10.967C51.5249 11.003 51.5675 11.0493 51.5587 11.0778Z" fill="#263238"/>
<path d="M53.6222 10.8323C53.581 10.8862 53.3941 10.8532 53.1808 10.8727C52.9674 10.8921 52.7834 10.9475 52.7393 10.9011C52.7187 10.8772 52.7393 10.8248 52.8187 10.7694C52.9243 10.6994 53.0461 10.6586 53.1719 10.6512C53.2969 10.6386 53.4229 10.6603 53.5369 10.7141C53.609 10.7575 53.6399 10.8053 53.6222 10.8323Z" fill="#263238"/>
<path d="M49.2634 12.2465C49.2398 12.2361 48.301 11.9547 48.3289 12.9304C48.3569 13.9061 49.3149 13.6787 49.3163 13.6473C49.3178 13.6158 49.2634 12.2465 49.2634 12.2465Z" fill="#FFBE9D"/>
<path d="M49.0969 13.2867C49.0969 13.2867 49.0792 13.2986 49.0513 13.3136C49.0117 13.3301 48.9673 13.3301 48.9277 13.3136C48.8645 13.2756 48.8124 13.2212 48.7767 13.156C48.741 13.0908 48.723 13.0171 48.7246 12.9425C48.7199 12.8587 48.7334 12.7749 48.7643 12.697C48.7724 12.6664 48.7878 12.6382 48.8091 12.615C48.8304 12.5918 48.857 12.5742 48.8865 12.5639C48.9055 12.5581 48.9259 12.5593 48.9442 12.5672C48.9624 12.5752 48.9774 12.5893 48.9865 12.6073C48.9998 12.6342 48.9939 12.6536 48.9998 12.6551C49.0057 12.6566 49.0189 12.6387 49.0101 12.5983C49.0043 12.5745 48.9908 12.5534 48.9718 12.5384C48.9446 12.5185 48.9107 12.5105 48.8776 12.516C48.8385 12.5252 48.8024 12.5445 48.7728 12.572C48.7432 12.5995 48.721 12.6343 48.7084 12.6731C48.6695 12.7582 48.6523 12.8518 48.6584 12.9455C48.6559 13.0326 48.6789 13.1185 48.7245 13.1923C48.7701 13.2661 48.8362 13.3245 48.9144 13.36C48.9396 13.3664 48.9659 13.367 48.9913 13.3619C49.0168 13.3567 49.0408 13.3458 49.0616 13.3301C49.0954 13.3106 49.0998 13.2882 49.0969 13.2867Z" fill="#EB996E"/>
<path d="M49.8934 9.34621L50.3672 8.93019L51.8741 9.16514L52.9337 8.88828L53.2118 9.19806C53.0926 9.36118 53.3457 8.66531 53.1044 8.47974C52.5849 8.07868 52.1464 8.09365 51.4856 8.08167C50.8249 8.0697 49.5064 8.87781 49.034 9.33574C48.6558 9.70238 48.6587 10.0181 48.6587 10.0181C48.5984 10.5464 48.8883 11.145 49.0031 11.6643C49.0634 11.9307 49.1782 12.7388 49.1782 12.7388C49.3989 12.7388 49.4725 12.5607 49.4475 12.3392L49.4063 11.4697C49.6273 11.2926 49.7855 11.047 49.8566 10.7701C49.9278 10.4932 49.9082 10.2003 49.8007 9.93583C49.7506 9.85801 49.6285 9.49586 49.8934 9.34621Z" fill="#263238"/>
<path d="M49.6979 9.57976C49.7491 9.44293 49.8413 9.32595 49.9614 9.24537C50.0816 9.16479 50.2237 9.12471 50.3675 9.13081C50.6558 9.14992 50.9271 9.27615 51.1298 9.48548C51.1813 9.54191 51.2391 9.59212 51.3019 9.63513C51.3335 9.65494 51.3694 9.66642 51.4064 9.66851C51.4434 9.6706 51.4804 9.66324 51.5139 9.6471C51.5345 9.63663 51.5551 9.62017 51.5771 9.62615C51.5924 9.6325 51.6049 9.64417 51.6124 9.65907C51.667 9.74882 51.7436 9.82257 51.8347 9.87307C51.8805 9.89704 51.9326 9.90574 51.9835 9.89796C52.0345 9.89017 52.0818 9.86628 52.1187 9.82968C52.1714 9.87884 52.237 9.91131 52.3076 9.92313C52.3781 9.93495 52.4505 9.92561 52.516 9.89623C52.5814 9.86686 52.637 9.81874 52.6759 9.75775C52.7148 9.69676 52.7355 9.62555 52.7353 9.55282C52.8 9.56644 52.8672 9.561 52.9289 9.53715C52.9907 9.51329 53.0445 9.47201 53.084 9.41814C53.1538 9.33779 53.2051 9.2427 53.2344 9.13973C53.2636 9.03676 53.27 8.92847 53.2531 8.82268C53.2362 8.71689 53.1964 8.61623 53.1367 8.52796C53.0769 8.43968 52.9986 8.366 52.9074 8.31223C52.7627 8.23751 52.6055 8.1913 52.4439 8.17605C52.1922 8.14019 51.9386 8.1207 51.6845 8.11769C51.5727 8.11143 51.4607 8.1251 51.3534 8.15809C51.2063 8.21197 51.0856 8.33318 50.9326 8.35264C50.8323 8.35726 50.7321 8.34096 50.6383 8.30475C50.5026 8.25716 50.3593 8.23585 50.2159 8.2419C49.9349 8.26734 49.7023 8.47236 49.5169 8.69084C49.3769 8.83502 49.2756 9.01329 49.2226 9.20863C49.198 9.30671 49.2026 9.41002 49.2359 9.50542C49.2692 9.60082 49.3296 9.68399 49.4095 9.74438C49.4418 9.76694 49.4789 9.78142 49.5178 9.78662C49.5567 9.79182 49.5962 9.7876 49.6332 9.77431C49.6511 9.76677 49.6673 9.75571 49.681 9.74177C49.6947 9.72783 49.7056 9.71128 49.7129 9.69307C49.7203 9.67485 49.7241 9.65534 49.7241 9.63563C49.724 9.61593 49.7201 9.59644 49.7126 9.57827" fill="#263238"/>
<path d="M49.0343 11.8126C48.9313 11.0643 49.0549 10.1664 49.5891 9.52744C50.1233 8.88844 51.068 8.49786 51.6935 8.61907C52.1806 8.71335 53.2401 8.75226 53.6271 9.78933L53.5727 8.93334C53.5727 8.93334 53.1018 7.96062 51.7111 7.99054C50.3205 8.02047 49.7142 8.18509 49.0417 9.01714C48.8175 9.2707 48.6637 9.58042 48.5962 9.91444C48.5287 10.2485 48.5499 10.5948 48.6576 10.9177C48.7547 11.2276 48.8809 11.5272 49.0343 11.8126Z" fill="#3F7ED3"/>
<path d="M52.8646 8.20159C52.8469 8.19753 52.8296 8.19151 52.8131 8.18363C52.7808 8.17166 52.7337 8.15071 52.666 8.12976C52.4888 8.06476 52.3067 8.01471 52.1215 7.98011C51.8474 7.93356 51.5691 7.91701 51.2915 7.93073C50.9518 7.94686 50.6165 8.01497 50.2967 8.13275C49.9773 8.25607 49.6793 8.43035 49.4138 8.64904C49.2987 8.74441 49.1928 8.85064 49.0974 8.9663C49.0503 9.01868 49.0121 9.07405 48.9723 9.12642C48.9326 9.1788 48.8988 9.23118 48.8693 9.28356C48.7711 9.44627 48.6883 9.61815 48.6221 9.79685C48.5971 9.85821 48.5824 9.90909 48.5706 9.9465C48.5658 9.96425 48.5589 9.98134 48.55 9.99738L48.5632 9.945C48.575 9.91059 48.5868 9.8597 48.6103 9.79536C48.6718 9.61381 48.7517 9.43927 48.8487 9.27458C48.8781 9.2222 48.9149 9.16982 48.9503 9.11445C48.9856 9.05908 49.0282 9.00371 49.0753 8.94984C49.1721 8.83306 49.2789 8.72538 49.3947 8.62809C49.6593 8.40622 49.9574 8.22935 50.2776 8.10432C50.6004 7.985 50.9395 7.91736 51.2827 7.90379C51.5625 7.88993 51.843 7.90902 52.1185 7.96065C52.304 7.99438 52.4862 8.04445 52.663 8.1103C52.7263 8.13425 52.7719 8.15819 52.8102 8.17166L52.8646 8.20159Z" fill="#263238"/>
<path d="M49.1265 10.5599C49.1113 10.5558 49.0969 10.5493 49.0838 10.5405C49.047 10.5174 49.0121 10.4914 48.9793 10.4627C48.8708 10.3669 48.7877 10.2448 48.7378 10.1078C48.6879 9.97073 48.6728 9.82309 48.6939 9.67851C48.7005 9.63528 48.7108 9.59271 48.7248 9.55131C48.7351 9.52138 48.7424 9.50642 48.7439 9.50791C48.7454 9.50941 48.7277 9.57376 48.7174 9.68151C48.7043 9.82186 48.7219 9.96341 48.7689 10.096C48.8178 10.2281 48.8952 10.3472 48.9955 10.4447C49.0721 10.5195 49.1294 10.5555 49.1265 10.5599Z" fill="#263238"/>
<path d="M49.5331 9.70394C49.4871 9.68355 49.446 9.65345 49.4124 9.61565C49.3249 9.52876 49.2589 9.42211 49.2196 9.30438C49.1789 9.18676 49.1693 9.06033 49.1917 8.93774C49.1971 8.88489 49.2137 8.83386 49.2402 8.78809C49.2402 8.78809 49.227 8.84495 49.2137 8.93774C49.2002 9.05628 49.2127 9.17642 49.2505 9.28941C49.2894 9.4004 49.3499 9.50222 49.4286 9.58871C49.4889 9.66653 49.536 9.69945 49.5331 9.70394Z" fill="#263238"/>
<path d="M50.1909 9.07993C50.1531 9.06231 50.1187 9.03798 50.0893 9.0081C50.0138 8.93981 49.951 8.85819 49.9039 8.76717C49.8577 8.67402 49.8311 8.57207 49.8259 8.46787C49.8206 8.4257 49.8241 8.38284 49.8362 8.34216C49.8436 8.4823 49.8766 8.61981 49.9334 8.74771C50.0037 8.87002 50.0904 8.98182 50.1909 9.07993Z" fill="#263238"/>
<path d="M50.8249 7.97546C50.8509 8.00259 50.8714 8.03462 50.8853 8.06974C50.9264 8.14962 50.9585 8.23396 50.9809 8.32115C51.0029 8.40884 51.0157 8.49862 51.0192 8.58903C51.0226 8.62668 51.0196 8.66464 51.0104 8.70126C51.0001 8.70126 51.0001 8.53066 50.9486 8.33013C50.8971 8.1296 50.8161 7.97995 50.8249 7.97546Z" fill="#263238"/>
<path d="M52.0465 7.95166C52.0696 7.98126 52.0862 8.01542 52.0954 8.05192C52.1232 8.13828 52.1347 8.22914 52.1295 8.3198C52.1249 8.41039 52.1033 8.49928 52.0658 8.58168C52.0528 8.61734 52.0321 8.64957 52.0051 8.67596C52.0538 8.56226 52.0848 8.4416 52.0969 8.3183C52.0984 8.19423 52.0814 8.07064 52.0465 7.95166Z" fill="#263238"/>
<path d="M52.8303 8.17603C52.858 8.20542 52.88 8.23997 52.895 8.27779C52.9356 8.36814 52.9581 8.46582 52.9612 8.56511C52.9641 8.66399 52.9466 8.76239 52.9097 8.85394C52.8975 8.89309 52.8774 8.92925 52.8509 8.96019C52.8992 8.83414 52.9251 8.70037 52.9274 8.56511C52.9181 8.43056 52.8852 8.29879 52.8303 8.17603Z" fill="#263238"/>
<path d="M53.5851 8.84802C53.5977 8.87823 53.6033 8.91103 53.6013 8.9438C53.6069 9.10383 53.5545 9.26038 53.4541 9.38377C53.4144 9.43016 53.3835 9.45111 53.382 9.44812C53.4456 9.36125 53.4985 9.26676 53.5395 9.16678C53.5678 9.0629 53.5832 8.9558 53.5851 8.84802Z" fill="#263238"/>
<path d="M53.9668 9.68446C53.9667 9.76771 53.9398 9.84865 53.8903 9.91492C53.8504 9.98723 53.7877 10.0437 53.7122 10.075C53.7649 10.0184 53.8141 9.95839 53.8594 9.89547C53.9344 9.7952 53.9565 9.68297 53.9668 9.68446Z" fill="#263238"/>
<path d="M54.019 10.6259C54.0263 10.6259 54.019 10.6842 53.9675 10.7291C53.916 10.774 53.8615 10.7785 53.8615 10.7695C53.8615 10.7606 53.9042 10.7426 53.9454 10.7037C53.9866 10.6648 54.0087 10.6229 54.019 10.6259Z" fill="#263238"/>
<path d="M49.0236 11.4025C48.9142 11.387 48.8099 11.346 48.7188 11.2826C48.6276 11.2193 48.5521 11.1353 48.4982 11.0374C48.6398 11.2027 48.8207 11.3285 49.0236 11.4025Z" fill="#263238"/>
<path d="M49.1048 11.8738C49.1048 11.8812 49.0577 11.9299 48.9724 11.9344C48.887 11.9388 48.8252 11.8974 48.834 11.89C48.8429 11.8827 48.8958 11.9063 48.9709 11.9004C49.0459 11.8945 49.1004 11.8664 49.1048 11.8738Z" fill="#263238"/>
<g opacity="0.3">
<path d="M52.7493 8.16857C52.4485 7.96789 52.1112 7.83071 51.7573 7.76515C51.4034 7.6996 51.0401 7.70702 50.6891 7.78697C50.335 7.87894 50.0025 8.04153 49.7107 8.26529C49.4189 8.48904 49.1738 8.76951 48.9894 9.09041C48.9894 9.09041 49.8562 7.97553 51.0982 7.93662C52.3402 7.89771 52.7493 8.16857 52.7493 8.16857Z" fill="black"/>
</g>
<path d="M51.7901 11.9263C51.7843 11.8674 51.775 11.809 51.7621 11.7512C51.7209 11.5946 51.6292 11.4565 51.5016 11.3592C51.415 11.2925 51.3142 11.2474 51.2073 11.2275C51.0841 11.2047 50.9572 11.2155 50.8394 11.2589C50.7098 11.3074 50.5971 11.3938 50.5157 11.5073C50.4278 11.629 50.3804 11.7761 50.3804 11.9271C50.3804 12.0781 50.4278 12.2251 50.5157 12.3468C50.5971 12.4603 50.7098 12.5467 50.8394 12.5953C50.9495 12.6359 51.0679 12.6481 51.1837 12.6306C51.2996 12.6131 51.4094 12.5665 51.5031 12.495C51.6304 12.3974 51.722 12.2594 51.7636 12.1029C51.7767 12.0447 51.786 11.9857 51.7915 11.9263C51.7957 11.9867 51.7902 12.0473 51.7753 12.1059C51.7385 12.2682 51.6475 12.4126 51.5178 12.5144C51.4277 12.5842 51.3229 12.6318 51.2117 12.6536C51.0839 12.6792 50.9516 12.6688 50.8291 12.6237C50.7626 12.6002 50.7001 12.5664 50.6437 12.5234C50.585 12.4819 50.5329 12.4314 50.4892 12.3738C50.3966 12.2467 50.3466 12.0927 50.3466 11.9346C50.3466 11.7764 50.3966 11.6224 50.4892 11.4953C50.5323 11.435 50.5844 11.382 50.6437 11.3382C50.7001 11.2953 50.7626 11.2614 50.8291 11.2379C50.9436 11.1953 51.0669 11.183 51.1873 11.2021C51.3078 11.2212 51.4215 11.2711 51.5178 11.3472C51.6475 11.449 51.7385 11.5934 51.7753 11.7557C51.7889 11.8115 51.7939 11.869 51.7901 11.9263Z" fill="#455A64"/>
<path d="M53.9269 11.8409C53.9269 11.8409 53.9269 11.7766 53.8975 11.6658C53.8563 11.5092 53.7646 11.3711 53.637 11.2737C53.5505 11.2068 53.4497 11.1617 53.3427 11.142C53.2195 11.1192 53.0926 11.1301 52.9748 11.1735C52.9116 11.197 52.8521 11.2297 52.7982 11.2707C52.7108 11.3371 52.6399 11.4232 52.591 11.5223C52.5421 11.6214 52.5167 11.7308 52.5167 11.8417C52.5167 11.9525 52.5421 12.0619 52.591 12.161C52.6399 12.2601 52.7108 12.3463 52.7982 12.4126C52.8521 12.4536 52.9116 12.4864 52.9748 12.5098C53.0849 12.5505 53.2033 12.5627 53.3191 12.5452C53.435 12.5277 53.5448 12.4811 53.6385 12.4096C53.7658 12.312 53.8574 12.174 53.899 12.0175C53.9269 11.9068 53.9225 11.8409 53.9284 11.8409C53.9316 11.9013 53.9261 11.9617 53.9122 12.0205C53.8741 12.1827 53.7827 12.3268 53.6532 12.429C53.5631 12.4988 53.4583 12.5464 53.3471 12.5682C53.2193 12.5938 53.087 12.5834 52.9645 12.5383C52.8981 12.5145 52.8356 12.4807 52.7791 12.438C52.7018 12.3806 52.6364 12.3081 52.5868 12.2249C52.5371 12.1416 52.5041 12.0492 52.4898 11.9529C52.4754 11.8567 52.4799 11.7585 52.5031 11.664C52.5262 11.5695 52.5675 11.4806 52.6246 11.4024C52.7102 11.2841 52.8285 11.1945 52.9645 11.145C53.079 11.1024 53.2023 11.0901 53.3227 11.1092C53.4432 11.1283 53.5569 11.1782 53.6532 11.2543C53.7827 11.3566 53.8741 11.5007 53.9122 11.6628C53.9256 11.7211 53.9306 11.7811 53.9269 11.8409Z" fill="#455A64"/>
<path d="M52.5218 11.5641C52.5218 11.5641 52.4806 11.5357 52.41 11.5013C52.3175 11.4538 52.2145 11.4321 52.1111 11.4381C52.0078 11.4442 51.9078 11.4778 51.8213 11.5357C51.7537 11.5791 51.7198 11.6165 51.7169 11.612C51.739 11.5729 51.7704 11.54 51.8081 11.5162C51.8936 11.451 51.9958 11.4126 52.1024 11.4055C52.2104 11.3996 52.3177 11.4256 52.4114 11.4803C52.4542 11.499 52.4921 11.5277 52.5218 11.5641Z" fill="#455A64"/>
<path d="M50.4104 11.7916C50.4104 11.8005 50.1264 11.8993 49.7688 12.013C49.4112 12.1268 49.1198 12.2091 49.1184 12.2016C49.1169 12.1941 49.4024 12.0938 49.7585 11.9801C50.1146 11.8664 50.4074 11.7826 50.4104 11.7916Z" fill="#455A64"/>
<path d="M51.0501 12.5293C51.0078 12.5326 50.9652 12.527 50.9251 12.5129C50.827 12.4844 50.7369 12.4332 50.6616 12.3632C50.5861 12.2918 50.5277 12.2038 50.4909 12.1058C50.4738 12.0662 50.4652 12.0234 50.4659 11.9801C50.4837 12.0181 50.4995 12.0571 50.513 12.0968C50.598 12.2792 50.7503 12.4201 50.9368 12.4889C50.9753 12.5003 51.0131 12.5138 51.0501 12.5293Z" fill="white"/>
<path d="M52.8015 12.2914C52.8015 12.2914 52.7559 12.2824 52.7059 12.227C52.6451 12.154 52.6049 12.0655 52.5896 11.9711C52.5706 11.8778 52.5706 11.7816 52.5896 11.6883C52.5952 11.6494 52.611 11.6127 52.6352 11.582C52.6352 11.582 52.6235 11.6239 52.6117 11.6943C52.5979 11.784 52.5979 11.8754 52.6117 11.9651C52.6268 12.0542 52.6615 12.1386 52.7132 12.2121C52.7406 12.2407 52.7702 12.2672 52.8015 12.2914Z" fill="white"/>
<path d="M51.7658 13.33C51.7658 13.3225 51.7864 13.2851 51.8276 13.2447C51.8688 13.2043 51.9041 13.1758 51.9115 13.1833C51.9189 13.1908 51.8909 13.2282 51.8497 13.2686C51.8085 13.309 51.7732 13.336 51.7658 13.33Z" fill="#263238"/>
<path d="M51.8693 13.3943C51.8693 13.3943 51.8899 13.342 51.9297 13.2911C51.9694 13.2402 52.0077 13.2013 52.0135 13.2073C52.0194 13.2133 51.9944 13.2597 51.9547 13.3105C51.9149 13.3614 51.8767 13.4003 51.8693 13.3943Z" fill="#263238"/>
<path d="M51.9761 13.4736C51.9672 13.4736 51.985 13.4213 52.0131 13.3659C52.0413 13.3105 52.0724 13.2701 52.0813 13.2731C52.0901 13.2761 52.0724 13.327 52.0428 13.3823C52.0131 13.4377 51.9835 13.4781 51.9761 13.4736Z" fill="#263238"/>
<path d="M52.1365 13.4752C52.1276 13.4752 52.1231 13.4408 52.1261 13.4004C52.1291 13.3599 52.1394 13.327 52.1483 13.327C52.1572 13.327 52.1616 13.3614 52.1587 13.4019C52.1557 13.4423 52.1468 13.4752 52.1365 13.4752Z" fill="#263238"/>
<path d="M52.2904 13.5006C52.2801 13.5006 52.2726 13.4707 52.2726 13.4348C52.2726 13.3989 52.2801 13.3674 52.2904 13.3674C52.3008 13.3674 52.3067 13.3974 52.3067 13.4348C52.3067 13.4722 52.2993 13.5006 52.2904 13.5006Z" fill="#263238"/>
<path d="M52.4349 13.5141C52.4261 13.5141 52.4098 13.4797 52.3979 13.4318C52.3861 13.3839 52.3861 13.342 52.3979 13.3405C52.4098 13.339 52.4231 13.3764 52.4335 13.4243C52.4438 13.4722 52.4438 13.5126 52.4349 13.5141Z" fill="#263238"/>
<path d="M49.1181 13.6862C49.1248 13.745 49.1096 13.8043 49.0754 13.8523C49.0587 13.8807 49.036 13.9051 49.0091 13.9237C48.9821 13.9423 48.9515 13.9547 48.9194 13.9601C48.8796 13.9654 48.839 13.9596 48.8022 13.9432C48.7654 13.9269 48.7337 13.9006 48.7104 13.8673C48.6875 13.8347 48.6713 13.7978 48.6627 13.7587C48.6541 13.7196 48.6533 13.6792 48.6604 13.6398C48.6754 13.5755 48.7138 13.5194 48.7678 13.4827C48.7907 13.4646 48.8171 13.4516 48.8452 13.4446C48.8734 13.4376 48.9027 13.4368 48.9312 13.4423C48.8785 13.4513 48.8283 13.4717 48.784 13.5021C48.7367 13.5391 48.7043 13.5923 48.6928 13.6518C48.6826 13.7228 48.6994 13.795 48.7399 13.8538C48.76 13.8823 48.7873 13.9048 48.8188 13.919C48.8504 13.9332 48.8851 13.9386 48.9194 13.9346C48.9474 13.9306 48.9743 13.9205 48.9982 13.905C49.022 13.8896 49.0424 13.869 49.0577 13.8448C49.0876 13.7963 49.1081 13.7425 49.1181 13.6862Z" fill="#263238"/>
<path d="M47.1356 35.6846C47.3136 35.6846 54.6656 43.4664 54.6656 44.0066C54.6656 44.5469 55.7575 50.0285 56.2843 50.8725C56.8112 51.7166 57.1275 51.519 57.1275 51.519L59.5718 50.3608C59.5718 50.3608 58.218 41.8307 57.9207 40.8715C57.6235 39.9122 52.0168 32.3684 52.0168 32.3684L46.7191 33.3935L47.1356 35.6846Z" fill="#263238"/>
<path d="M44.4202 31.7937L42.8927 41.3862C42.8927 41.3862 38.1145 46.2513 37.8173 46.7931C37.8173 46.7931 37.2846 46.612 37.1065 47.0924C36.9644 47.5443 36.8538 48.0059 36.7754 48.4736L39.1476 50.4999C39.1476 50.4999 45.415 45.2158 46.008 44.4316C46.6011 43.6474 49.0851 38.477 49.5604 37.1511C50.0357 35.8253 50.5905 32.8846 50.5905 32.8846L44.4202 31.7937Z" fill="#263238"/>
<path d="M55.8969 42.2691C55.8763 42.3736 55.8406 42.4745 55.7909 42.5684C55.6858 42.8022 55.5597 43.0256 55.4142 43.2358C55.2704 43.4483 55.1047 43.6445 54.9197 43.821C54.8469 43.8991 54.7606 43.963 54.6652 44.0095C54.7324 43.9291 54.8047 43.8531 54.8815 43.782C55.0519 43.5943 55.2088 43.3942 55.3509 43.1834C55.6894 42.7046 55.8748 42.2556 55.8969 42.2691Z" fill="#455A64"/>
<path d="M43.75 42.0507C43.5623 42.0376 43.3847 41.9594 43.2468 41.8292C43.0946 41.7197 42.9828 41.5617 42.9289 41.3802C43.0431 41.5189 43.1654 41.6503 43.2953 41.7738C43.4411 41.8755 43.593 41.968 43.75 42.0507Z" fill="#455A64"/>
<path d="M38.8183 48.0456C38.5787 47.9214 38.3717 47.7408 38.2148 47.5187C38.0579 47.2966 37.9555 47.0396 37.9162 46.769C38.0156 47.0142 38.1368 47.2496 38.2782 47.4724C38.4397 47.6807 38.6205 47.8726 38.8183 48.0456Z" fill="#455A64"/>
<path d="M46.3921 33.2123C46.3873 33.2496 46.3769 33.286 46.3612 33.3201C46.3266 33.4157 46.2853 33.5088 46.2376 33.5984C45.9207 34.1984 45.4186 34.6758 44.8087 34.9572C44.7177 35 44.6238 35.036 44.5277 35.065C44.4936 35.0795 44.4572 35.0876 44.4202 35.0889C44.4202 35.0755 44.5674 35.0231 44.7852 34.9079C45.0743 34.7567 45.3417 34.5658 45.5798 34.3407C45.8167 34.1136 46.0222 33.8548 46.1905 33.5715C46.3186 33.353 46.3745 33.2063 46.3921 33.2123Z" fill="#455A64"/>
<path d="M50.1388 35.6636C50.1172 35.7473 50.0897 35.8293 50.0564 35.909C49.9917 36.0766 49.9093 36.2981 49.8048 36.5675C49.587 37.1197 49.2809 37.8829 48.9145 38.7134C48.5481 39.544 48.1905 40.2847 47.9285 40.8175L47.6136 41.446C47.5777 41.5245 47.5359 41.6001 47.4885 41.672C47.5155 41.5898 47.5485 41.5098 47.5871 41.4326L47.8814 40.7936C48.1316 40.2533 48.4804 39.5111 48.8453 38.682C49.2103 37.8529 49.5252 37.0942 49.7547 36.545C49.8681 36.2816 49.9608 36.0631 50.0299 35.897C50.0603 35.8165 50.0967 35.7385 50.1388 35.6636Z" fill="#455A64"/>
<path d="M48.8495 16.2153C48.8495 16.2153 47.2308 16.8782 46.8555 18.035C46.6642 18.6202 45.5488 22.8986 45.5488 22.8986C45.5488 22.8986 44.0772 31.1144 44.2803 31.8971L52.7021 33.2125C52.9107 32.9555 53.0158 32.6277 52.9964 32.2951L52.8595 29.8334L52.9581 19.2816C52.9594 19.203 52.954 19.1244 52.942 19.0467L52.6476 17.1012L52.7418 16.2617L48.9672 15.2471L48.8495 16.2153Z" fill="#3F7ED3"/>
<path d="M48.6241 15.5539C48.6343 15.4883 48.6579 15.4257 48.6934 15.37C48.7288 15.3144 48.7754 15.2669 48.83 15.2306C48.8847 15.1944 48.9462 15.1702 49.0106 15.1596C49.075 15.1491 49.1409 15.1523 49.2039 15.1693L52.6548 16.0956C52.7586 16.1236 52.8498 16.1871 52.913 16.2754C52.9762 16.3637 53.0077 16.4714 53.0021 16.5805L52.9932 16.7301C52.989 16.8019 52.9688 16.8717 52.9342 16.9344C52.8995 16.9971 52.8513 17.0509 52.7932 17.0918C52.7351 17.1328 52.6686 17.1597 52.5987 17.1707C52.5288 17.1817 52.4574 17.1763 52.3899 17.1551L48.9479 16.0806C48.8405 16.0474 48.7485 15.9757 48.689 15.8789C48.6295 15.7821 48.6065 15.6666 48.6241 15.5539Z" fill="#3F7ED3"/>
<path d="M52.7021 17.1132C52.6413 17.1078 52.5812 17.0963 52.5226 17.0788L52.0443 16.9561C51.6397 16.8483 51.0834 16.6957 50.4712 16.5221L49.6501 16.2856C49.547 16.2693 49.4452 16.2452 49.3455 16.2138C49.298 16.1985 49.2522 16.1784 49.2086 16.1539C49.185 16.1417 49.1636 16.1255 49.1453 16.106C49.1296 16.086 49.1158 16.0645 49.1041 16.0417C49.0688 15.9594 49.0576 15.8685 49.0718 15.7798C49.0815 15.7062 49.1008 15.6342 49.1292 15.5658C49.1675 15.4697 49.2212 15.3807 49.2881 15.3024C49.3367 15.25 49.369 15.2291 49.3705 15.2321C49.2847 15.3367 49.2166 15.455 49.1689 15.5823C49.1121 15.7199 49.1079 15.8741 49.1571 16.0148C49.1895 16.0896 49.2748 16.118 49.3661 16.1494C49.4624 16.1785 49.5608 16.2 49.6604 16.2138L50.483 16.4442C51.0952 16.6178 51.65 16.7795 52.0502 16.8932L52.5226 17.0428C52.5845 17.0604 52.6447 17.0839 52.7021 17.1132Z" fill="#263238"/>
<path d="M52.7368 17.7117C52.7449 17.7369 52.7499 17.763 52.7515 17.7895C52.7588 17.8493 52.7677 17.9227 52.778 18.0125C52.7986 18.207 52.8251 18.4884 52.8501 18.837C52.9045 19.5344 52.959 20.4981 52.9899 21.5636C53.0208 22.6291 53.0178 23.5959 52.9899 24.2947C52.9796 24.6434 52.9649 24.9263 52.9516 25.1208C52.9443 25.2121 52.9369 25.2854 52.9325 25.3453C52.9325 25.3717 52.9286 25.3979 52.9207 25.4231C52.9175 25.3973 52.9175 25.3711 52.9207 25.3453C52.9207 25.2839 52.9207 25.2106 52.9207 25.1193C52.9207 24.9248 52.9325 24.6419 52.9354 24.2933C52.9457 23.5959 52.9354 22.6306 52.9089 21.5651C52.8825 20.4996 52.8324 19.5374 52.7927 18.8415C52.7721 18.5003 52.7559 18.222 52.7427 18.0155C52.7427 17.9257 52.7353 17.8508 52.7324 17.791C52.7309 17.7645 52.7324 17.7379 52.7368 17.7117Z" fill="#263238"/>
<path d="M50.2873 15.5134C50.2304 15.6542 50.1846 15.7993 50.1504 15.9474C50.1397 16.0969 50.1397 16.2469 50.1504 16.3964C50.1071 16.3279 50.078 16.2512 50.0648 16.1709C50.0517 16.0906 50.0548 16.0085 50.0739 15.9295C50.0806 15.8492 50.1029 15.7711 50.1395 15.6996C50.1761 15.6282 50.2263 15.5649 50.2873 15.5134Z" fill="#263238"/>
<path d="M51.2681 15.7423C51.2754 15.7423 51.3107 15.7842 51.3402 15.871C51.3759 15.9867 51.3825 16.1097 51.3594 16.2286C51.3362 16.3476 51.2841 16.4588 51.2077 16.5519C51.1489 16.6207 51.0988 16.6492 51.093 16.6417C51.1785 16.5102 51.2431 16.3657 51.2843 16.2137C51.3022 16.0566 51.2967 15.8977 51.2681 15.7423Z" fill="#263238"/>
<path d="M52.2225 16.0117C52.2299 16.0117 52.2696 16.0476 52.3049 16.1314C52.3508 16.2429 52.3651 16.3652 52.3461 16.4845C52.3271 16.6038 52.2756 16.7153 52.1975 16.8064C52.1372 16.8752 52.0871 16.9006 52.0812 16.8932C52.1817 16.7734 52.2484 16.6282 52.2743 16.4731C52.3002 16.3179 52.2843 16.1585 52.2284 16.0117H52.2225Z" fill="#263238"/>
<path d="M51.7252 18.3866C51.4074 17.4318 50.6363 16.5983 49.665 16.4023C48.6938 16.2062 47.7814 16.4157 47.0883 17.2373L46.2054 19.1453C46.5968 18.9239 47.2237 17.6294 47.9536 17.1894C48.6835 16.7494 49.4958 16.7405 50.0962 17.3525C50.5377 17.8015 50.8688 18.454 50.8585 19.0945C50.8379 20.3485 50.3243 21.5248 49.9505 22.722C49.4708 24.2574 49.0911 25.8945 47.983 27.0483C47.0927 27.9746 45.9008 28.5269 44.7456 29.0581C44.4719 29.2871 43.8391 30.1191 44.1658 30.2553C44.4925 30.3915 45.68 29.956 46.017 29.8498C46.8573 29.5894 47.7299 29.3095 48.3715 28.696C48.9602 28.1258 49.2869 27.3312 49.5929 26.562C50.1816 25.0774 50.5671 23.5301 51.1572 22.044C51.6576 20.7795 52.1549 19.6796 51.7252 18.3866Z" fill="#455A64"/>
<path d="M50.3817 34.3647L49.7106 33.2124L47.465 34.0085C47.465 34.0085 47.6122 36.0378 47.9065 36.0961C47.995 36.1117 48.0857 36.1075 48.1724 36.0837C48.259 36.0599 48.3396 36.0172 48.4083 35.9585C48.4083 35.9585 48.5761 36.4882 48.9116 36.5107L49.0985 36.5196C49.1588 36.5675 49.5002 36.8189 49.7828 36.7262C49.7828 36.7262 50.0417 37.2978 50.2507 37.238C50.4597 37.1781 50.5951 36.4897 50.5951 36.4897L50.3817 34.3647Z" fill="#FFBE9D"/>
<path d="M48.3536 16.9141C47.9704 17.0505 47.6284 17.2853 47.3607 17.5958C47.0931 17.9062 46.9089 18.2818 46.8261 18.686C46.3847 20.8364 45.331 26.4678 45.3737 27.2609C45.4281 28.2695 47.3191 34.2465 47.3191 34.2465L49.9679 33.4354L48.7657 26.7012C48.7657 26.7012 50.6419 20.401 50.7891 19.4432C50.9509 18.3972 50.0533 16.3155 48.3536 16.9141Z" fill="#3F7ED3"/>
<path d="M48.3543 16.9186C48.4215 16.8916 48.4903 16.8691 48.5604 16.8513C48.7646 16.7946 48.9784 16.7834 49.1872 16.8184C49.5241 16.882 49.8314 17.0554 50.0628 17.3122C50.5524 17.8675 50.826 18.5853 50.8325 19.331C50.8295 19.4787 50.8112 19.6257 50.778 19.7695C50.7486 19.9191 50.7118 20.0688 50.6765 20.2184C50.5293 20.817 50.3468 21.465 50.1526 22.1504C49.7626 23.5212 49.3094 25.0551 48.8061 26.7117V26.6952L50.0113 33.4295V33.4639L49.9789 33.4744L48.7369 33.853L47.3242 34.2855L47.2874 34.2959L47.2771 34.26C46.8842 33.0344 46.5134 31.8372 46.172 30.6789C46.0028 30.0998 45.8379 29.5311 45.6893 28.9699C45.6157 28.6901 45.5422 28.4132 45.4789 28.1364C45.445 27.9987 45.4171 27.8595 45.3906 27.7218C45.3658 27.5839 45.3506 27.4444 45.345 27.3043C45.3523 27.0297 45.3764 26.7558 45.4171 26.4842C45.4539 26.2179 45.4907 25.956 45.5319 25.6971C45.6113 25.1808 45.6981 24.6825 45.782 24.2006C45.9513 23.2368 46.119 22.3434 46.2735 21.5308L46.6988 19.34C46.7492 19.0371 46.816 18.7374 46.8989 18.4421C46.981 18.1984 47.098 17.9685 47.2462 17.7597C47.4514 17.4707 47.7173 17.232 48.0247 17.0608C48.1302 16.9994 48.2416 16.9493 48.3573 16.9112C48.3573 16.9112 48.3293 16.9261 48.2734 16.9501C48.1904 16.9851 48.1098 17.0256 48.0321 17.0713C47.7305 17.2457 47.4703 17.4853 47.2698 17.7731C47.1254 17.9808 47.0114 18.2086 46.9313 18.4496C46.8522 18.7423 46.7879 19.039 46.7385 19.3385C46.6164 19.9835 46.4781 20.7182 46.3236 21.5308C46.169 22.3434 46.0087 23.2398 45.8424 24.2021C45.76 24.684 45.6761 25.1823 45.5966 25.6986C45.5554 25.956 45.5186 26.2179 45.4833 26.4842C45.4447 26.752 45.4216 27.0218 45.4141 27.2923C45.4235 27.4292 45.4422 27.5652 45.4701 27.6994C45.4951 27.8371 45.5245 27.9732 45.5584 28.1109C45.6202 28.3863 45.6952 28.6631 45.7688 28.9415C45.9159 29.5012 46.0837 30.0698 46.2529 30.6475C46.5958 31.8043 46.9666 33.0015 47.3596 34.2271L47.3125 34.2017L48.7252 33.7707L49.9672 33.3906L49.9407 33.4354C49.5139 31.0411 49.1092 28.7619 48.7414 26.7012V26.6922V26.6833C49.2461 25.0266 49.7038 23.4957 50.0981 22.1264C50.2939 21.4425 50.4763 20.7991 50.6279 20.199C50.7108 19.9151 50.7646 19.6232 50.7883 19.328C50.783 18.5928 50.5176 17.8842 50.0408 17.3317C49.8148 17.0778 49.5145 16.9046 49.1843 16.8378C48.9781 16.8007 48.7664 16.8084 48.5633 16.8603C48.5111 16.8713 48.4595 16.8853 48.4088 16.9022C48.3909 16.9087 48.3728 16.9142 48.3543 16.9186Z" fill="#263238"/>
<path d="M48.7989 26.6652C48.3777 26.3571 47.8754 26.1845 47.3568 26.1699C47.6186 26.1258 47.8872 26.148 48.1386 26.2344C48.3901 26.3208 48.6169 26.4687 48.7989 26.6652Z" fill="#263238"/>
<g opacity="0.3">
<path d="M46.6789 32.3609C45.4443 30.4992 44.7953 27.8968 45.5016 26.0457C45.3089 27.1546 45.4928 28.1677 45.818 29.2437C46.1432 30.3196 46.5317 31.3926 46.595 32.5165" fill="black"/>
</g>
<path d="M42.88 58.8758L39.2246 54.9535L36.2285 55.1256L34.1065 55.9786L32.76 58.8758" fill="#F5F5F5"/>
<path d="M36.2286 55.1256L39.3322 58.8758H42.8801L39.2248 54.9535L36.2286 55.1256Z" fill="#E0E0E0"/>
<path d="M32.76 58.8803C32.7649 58.8611 32.7718 58.8425 32.7806 58.8249L32.8468 58.6677C32.9116 58.5256 32.994 58.328 33.1117 58.0781L34.0771 55.9696V55.9576H34.0903L36.2094 55.0986H36.2211L37.6603 55.0148L39.2187 54.9265H39.2364L39.2482 54.94L41.8528 57.7534L42.6092 58.5825C42.6931 58.6752 42.7564 58.7501 42.8094 58.8069C42.8345 58.8311 42.8567 58.8582 42.8756 58.8877C42.8492 58.8653 42.8241 58.8413 42.8005 58.8159L42.5901 58.6004L41.8175 57.7863C41.1583 57.086 40.243 56.1102 39.1937 54.9924L39.2232 55.0043L37.6648 55.0941L36.2256 55.1749H36.2373L34.1139 56.0219L34.13 56.0055C33.7224 56.872 33.3825 57.5933 33.1411 58.1006L32.8601 58.6827L32.785 58.8324C32.7783 58.8491 32.7699 58.8652 32.76 58.8803Z" fill="#263238"/>
<path d="M16.2491 58.8758L17.6441 56.4126L20.1885 55.6913L22.568 57.749V58.8758" fill="#EBEBEB"/>
<path d="M17.6436 56.4126L22.5675 57.749L20.188 55.6913L17.6436 56.4126Z" fill="#E0E0E0"/>
<path d="M22.5677 58.8802C22.5622 58.8547 22.5597 58.8286 22.5604 58.8024C22.5604 58.7456 22.5604 58.6722 22.5604 58.5824C22.5604 58.3789 22.5604 58.1006 22.5501 57.7534L22.5574 57.7713L20.1691 55.7241L20.2044 55.7316L19.6187 55.8873L17.6527 56.441L17.6733 56.4245L16.6491 58.2008C16.5255 58.4103 16.4269 58.578 16.3548 58.7007L16.2753 58.8324C16.2661 58.8476 16.2558 58.8621 16.2444 58.8758C16.2492 58.8585 16.2561 58.8419 16.265 58.8264L16.3356 58.6902L16.6137 58.1799L17.6085 56.3961V56.3826H17.6232L19.5922 55.8169L20.172 55.6538H20.1911L20.2059 55.6673L22.578 57.7354L22.5869 57.7429V57.7549C22.5869 58.1021 22.578 58.3804 22.5751 58.5839C22.5751 58.6737 22.5751 58.7471 22.5751 58.8039C22.5756 58.8296 22.5732 58.8552 22.5677 58.8802Z" fill="#263238"/>
<path d="M66.7645 54.4476L63.2328 52.4019L57.0316 54.699L52.0223 58.8757L69.743 58.7829L66.7645 54.4476Z" fill="#F5F5F5"/>
<path d="M52.0223 58.8758L58.3766 55.1255L66.7645 54.4476L63.0915 52.2373L57.0316 54.699L52.0223 58.8758Z" fill="#E0E0E0"/>
<path d="M61.1515 58.8278L64.3257 56.616L67.2202 56.4065L64.798 56.9542L63.5443 58.8158L61.1515 58.8278Z" fill="#E0E0E0"/>
<path d="M52.0223 58.8803C52.0223 58.8803 52.0223 58.8713 52.0444 58.8578L52.1121 58.7965L52.3799 58.566L53.4012 57.7025L57.0095 54.6766L61.4242 52.8509L63.0547 52.1805L63.0724 52.173L63.0886 52.1835L66.7675 54.4282L68.9189 57.5828L69.5149 58.4657L69.6621 58.7007C69.6801 58.7267 69.6968 58.7537 69.7121 58.7815C69.7121 58.7815 69.6915 58.7575 69.6547 58.7052L69.4914 58.4777C69.3442 58.2727 69.1426 57.9779 68.8807 57.6052L66.7071 54.4626L66.7174 54.4716L63.0385 52.2343H63.0709L61.4419 52.9063L57.0183 54.7245H57.0272L53.4012 57.7295L52.3711 58.578L52.1136 58.8009L52.0415 58.8578L52.0223 58.8803Z" fill="#263238"/>
<path d="M67.3194 56.3991C67.244 56.4168 67.1671 56.4273 67.0898 56.4305L66.4585 56.4874L64.3277 56.655H64.3468L63.9981 56.8974C63.2181 57.4406 62.5103 57.93 61.9952 58.2802L61.3845 58.6857L61.2153 58.7949C61.1771 58.8189 61.155 58.8309 61.1535 58.8279C61.1694 58.8105 61.1872 58.7949 61.2065 58.7815L61.3669 58.6603L61.9658 58.2293C62.4735 57.8671 63.1769 57.3703 63.9568 56.8271L64.3056 56.5846H64.3144H64.3277L66.4585 56.444L67.0928 56.4095C67.168 56.4007 67.2437 56.3972 67.3194 56.3991Z" fill="#263238"/>
<path d="M83.463 56.7253L81.341 55.8708L77.8034 56.5248L76.089 58.8683L84.4843 58.8758L83.463 56.7253Z" fill="#F5F5F5"/>
<path d="M77.8029 56.5248C77.9059 56.5053 83.4625 56.7253 83.4625 56.7253L81.3405 55.8723L77.8029 56.5248Z" fill="#E0E0E0"/>
<path d="M76.09 58.8684C76.0966 58.8517 76.1055 58.8361 76.1165 58.822L76.2048 58.6933L76.5462 58.2099L77.7764 56.5039L77.7837 56.4934H77.797L80.4296 56.0026L81.3346 55.835H81.345H81.3553L83.4743 56.694H83.4861V56.7044L84.2219 58.2757L84.4191 58.7127L84.4691 58.8279C84.4756 58.8413 84.4805 58.8553 84.4838 58.8698C84.4742 58.8586 84.4662 58.846 84.4603 58.8324L84.4029 58.7202C84.3499 58.6154 84.2778 58.4703 84.1895 58.2907C84.0041 57.9106 83.748 57.3763 83.4346 56.7329L83.4508 56.7478L81.3273 55.9008H81.3479L80.4429 56.0684L77.8102 56.5488L77.8308 56.5368C77.3158 57.2297 76.8861 57.8103 76.5771 58.2249L76.2209 58.6963L76.1253 58.819C76.1027 58.8529 76.0909 58.8694 76.09 58.8684Z" fill="#263238"/>
<path d="M99.2192 58.8802C99.2192 58.9012 77.1457 58.9191 49.9098 58.9191C22.674 58.9191 0.594543 58.8967 0.594543 58.8802C0.594543 58.8638 22.6681 58.8413 49.9098 58.8413C77.1516 58.8413 99.2192 58.8533 99.2192 58.8802Z" fill="#263238"/>
<path d="M38.6639 60.0639C38.6639 60.0864 35.5015 60.1028 31.6003 60.1028C27.6992 60.1028 24.5368 60.0864 24.5368 60.0639C24.5368 60.0415 27.6977 60.025 31.6003 60.025C35.503 60.025 38.6639 60.043 38.6639 60.0639Z" fill="#263238"/>
<path d="M33.425 61.0008C33.425 61.0218 32.4258 61.0397 31.1956 61.0397C29.9653 61.0397 28.9647 61.0218 28.9647 61.0008C28.9647 60.9799 29.9639 60.9619 31.1956 60.9619C32.4273 60.9619 33.425 60.9754 33.425 61.0008Z" fill="#263238"/>
</svg>
