<svg width="291" height="41" viewBox="0 0 291 41" fill="none" xmlns="http://www.w3.org/2000/svg">
<path d="M140.716 25.084C139.94 25.084 139.232 24.904 138.592 24.544C137.952 24.176 137.444 23.668 137.068 23.02C136.7 22.364 136.516 21.628 136.516 20.812C136.516 19.996 136.7 19.264 137.068 18.616C137.444 17.96 137.952 17.452 138.592 17.092C139.232 16.724 139.94 16.54 140.716 16.54C141.5 16.54 142.212 16.724 142.852 17.092C143.492 17.452 143.996 17.956 144.364 18.604C144.732 19.252 144.916 19.988 144.916 20.812C144.916 21.636 144.732 22.372 144.364 23.02C143.996 23.668 143.492 24.176 142.852 24.544C142.212 24.904 141.5 25.084 140.716 25.084ZM140.716 24.136C141.3 24.136 141.824 24 142.288 23.728C142.76 23.456 143.128 23.068 143.392 22.564C143.664 22.06 143.8 21.476 143.8 20.812C143.8 20.14 143.664 19.556 143.392 19.06C143.128 18.556 142.764 18.168 142.3 17.896C141.836 17.624 141.308 17.488 140.716 17.488C140.124 17.488 139.596 17.624 139.132 17.896C138.668 18.168 138.3 18.556 138.028 19.06C137.764 19.556 137.632 20.14 137.632 20.812C137.632 21.476 137.764 22.06 138.028 22.564C138.3 23.068 138.668 23.456 139.132 23.728C139.604 24 140.132 24.136 140.716 24.136ZM147.45 19.492C147.642 19.116 147.914 18.824 148.266 18.616C148.626 18.408 149.062 18.304 149.574 18.304V19.432H149.286C148.062 19.432 147.45 20.096 147.45 21.424V25H146.358V18.424H147.45V19.492Z" fill="#ACACAC"/>
<line y1="20.5" x2="122" y2="20.5" stroke="#E1E1E1"/>
<line x1="163" y1="20.5" x2="291" y2="20.5" stroke="#E1E1E1"/>
<circle cx="142.5" cy="20.5" r="20" stroke="#E1E1E1"/>
</svg>
