<svg width="230" height="222" viewBox="0 0 230 222" fill="none" xmlns="http://www.w3.org/2000/svg">
<path d="M173.617 0.000244141H48V77.0576H173.617V0.000244141Z" fill="#E6E6E6"/>
<path d="M176.844 0H49.5068V77.0573H176.844V0Z" fill="#F0F0F0"/>
<path d="M173.617 77.0629H48V83.0258H173.617V77.0629Z" fill="#E6E6E6"/>
<path d="M182.218 77.0629H54.8809V83.0258H182.218V77.0629Z" fill="#F0F0F0"/>
<path d="M172.324 72.5688V4.49408L54.0265 4.49408V72.5688L172.324 72.5688Z" fill="#FAFAFA"/>
<path d="M62.708 72.5688L89.2264 4.49408H101.741L75.2228 72.5688H62.708Z" fill="white"/>
<path d="M77.916 72.5688L104.434 4.49408H109.31L82.7915 72.5688H77.916Z" fill="white"/>
<path d="M124.311 72.5688L150.829 4.49408H155.704L129.192 72.5688H124.311Z" fill="white"/>
<path d="M172.317 72.5688V4.49408H171.742V72.5688H172.317Z" fill="#E6E6E6"/>
<path d="M87.8271 119.305L88.011 120.738H132.27L132.092 119.305H87.8271Z" fill="#E6E6E6"/>
<path d="M90.1302 118.113L84.2998 94.4975H126.103L131.933 118.113H90.1302Z" fill="white"/>
<path d="M100.729 119.305L100.906 120.738H149.643L149.465 119.305H100.729Z" fill="#F0F0F0"/>
<path d="M95.2536 127.219L163.587 127.219V120.737L95.2536 120.737V127.219Z" fill="#F0F0F0"/>
<path d="M94.5475 127.219H90.8643V177.358H94.5475V127.219Z" fill="#F0F0F0"/>
<path d="M127.205 127.219H121.902V177.358H127.205V127.219Z" fill="#E6E6E6"/>
<path d="M128.878 127.219H125.194V177.358H128.878V127.219Z" fill="#F0F0F0"/>
<path d="M115 221.353C178.513 221.353 230 218.364 230 214.677C230 210.989 178.513 208 115 208C51.4872 208 0 210.989 0 214.677C0 218.364 51.4872 221.353 115 221.353Z" fill="#F5F5F5"/>
<path d="M139.52 39.1284H62.4727C61.65 39.1228 60.8348 39.2849 60.0776 39.6047C59.3203 39.9246 58.637 40.3953 58.0698 40.988C57.5026 41.5806 57.0636 42.2826 56.7799 43.0505C56.4961 43.8185 56.3736 44.6361 56.42 45.4529L63.6387 194.379C63.7416 196.075 64.4862 197.671 65.723 198.844C66.9598 200.017 68.5971 200.681 70.3062 200.703H147.332C148.155 200.709 148.97 200.547 149.727 200.227C150.485 199.907 151.168 199.436 151.735 198.844C152.302 198.251 152.741 197.549 153.025 196.781C153.309 196.013 153.431 195.196 153.385 194.379L146.166 45.4529C146.064 43.7599 145.322 42.1679 144.09 40.9952C142.857 39.8226 141.225 39.1559 139.52 39.1284Z" fill="#606060"/>
<path d="M70.0896 196.487C69.5222 196.473 68.9805 196.249 68.57 195.859C68.1594 195.47 67.9095 194.942 67.8689 194.379L60.6608 45.453C60.6479 45.1812 60.6905 44.9096 60.7861 44.6546C60.8818 44.3997 61.0284 44.1666 61.2171 43.9696C61.4059 43.7725 61.6328 43.6156 61.8843 43.5082C62.1357 43.4009 62.4064 43.3453 62.6801 43.3449H139.706C140.274 43.3568 140.817 43.5798 141.228 43.97C141.639 44.3601 141.889 44.8892 141.927 45.453L149.146 194.379C149.158 194.65 149.116 194.922 149.021 195.176C148.925 195.431 148.779 195.664 148.591 195.861C148.403 196.058 148.177 196.215 147.926 196.322C147.675 196.43 147.405 196.486 147.132 196.487H70.0896Z" fill="#79A2FF"/>
<path opacity="0.2" d="M130.615 58.5706H78.1447L83.2592 164.037C83.5088 168.357 85.3989 172.423 88.5473 175.411C91.6957 178.399 95.8676 180.086 100.219 180.133H152.69L147.581 74.6665C147.334 70.344 145.444 66.2766 142.294 63.288C139.144 60.2994 134.969 58.6131 130.615 58.5706Z" fill="#3F7ED3"/>
<path d="M143.468 58.5706H78.1603C82.5126 58.6157 86.6852 60.303 89.8339 63.2912C92.9825 66.2794 94.8722 70.3454 95.1206 74.6665L99.2918 160.521C99.5414 164.842 101.431 168.907 104.58 171.895C107.728 174.883 111.9 176.571 116.252 176.617H149.181C151.278 176.639 153.357 176.232 155.288 175.42C157.219 174.609 158.962 173.411 160.409 171.902C161.855 170.392 162.973 168.603 163.694 166.645C164.415 164.687 164.723 162.603 164.599 160.521L160.433 74.6665C160.186 70.344 158.296 66.2766 155.146 63.288C151.996 60.2994 147.821 58.6131 143.468 58.5706Z" fill="#FAFAFA"/>
<path d="M131.666 160.522C131.79 162.602 131.483 164.685 130.763 166.642C130.044 168.599 128.927 170.388 127.482 171.898C126.038 173.407 124.296 174.605 122.366 175.417C120.436 176.229 118.359 176.638 116.264 176.618H181.566C183.662 176.638 185.739 176.229 187.669 175.417C189.6 174.606 191.341 173.408 192.786 171.898C194.231 170.389 195.348 168.6 196.069 166.643C196.789 164.686 197.097 162.602 196.973 160.522H131.666Z" fill="#E6E6E6"/>
<path d="M152.664 111.861H106.511C106.187 111.858 105.877 111.732 105.643 111.51C105.409 111.288 105.268 110.986 105.249 110.665C105.24 110.51 105.264 110.356 105.317 110.211C105.371 110.065 105.454 109.933 105.561 109.82C105.669 109.708 105.798 109.619 105.941 109.559C106.084 109.498 106.238 109.467 106.394 109.468H152.547C152.874 109.467 153.19 109.59 153.428 109.812C153.667 110.035 153.811 110.34 153.83 110.665C153.839 110.821 153.815 110.978 153.76 111.124C153.705 111.271 153.62 111.405 153.51 111.517C153.401 111.629 153.269 111.718 153.123 111.777C152.977 111.837 152.821 111.865 152.664 111.861Z" fill="#3F7ED3"/>
<path d="M153.024 119.328H106.871C106.547 119.325 106.237 119.199 106.003 118.977C105.769 118.755 105.628 118.453 105.61 118.132C105.601 117.977 105.624 117.823 105.678 117.678C105.732 117.532 105.815 117.4 105.922 117.288C106.029 117.175 106.158 117.086 106.301 117.026C106.445 116.965 106.599 116.935 106.754 116.936H152.913C153.235 116.94 153.544 117.066 153.777 117.288C154.01 117.51 154.15 117.812 154.169 118.132C154.178 118.286 154.154 118.441 154.101 118.586C154.047 118.731 153.964 118.864 153.857 118.976C153.749 119.088 153.62 119.177 153.477 119.238C153.334 119.299 153.18 119.329 153.024 119.328Z" fill="#3F7ED3"/>
<path d="M153.391 126.79H107.232C106.909 126.787 106.599 126.662 106.364 126.439C106.13 126.217 105.99 125.915 105.971 125.594C105.962 125.44 105.985 125.285 106.039 125.14C106.093 124.994 106.176 124.862 106.283 124.75C106.39 124.638 106.52 124.548 106.663 124.488C106.806 124.427 106.96 124.397 107.116 124.398H153.301C153.624 124.401 153.934 124.527 154.168 124.749C154.403 124.971 154.543 125.273 154.562 125.594C154.571 125.751 154.547 125.908 154.492 126.055C154.436 126.202 154.351 126.336 154.241 126.448C154.131 126.561 153.998 126.649 153.852 126.708C153.706 126.767 153.548 126.795 153.391 126.79Z" fill="#3F7ED3"/>
<path d="M153.75 134.271H107.597C107.274 134.266 106.964 134.14 106.731 133.919C106.497 133.697 106.356 133.395 106.336 133.075C106.327 132.92 106.35 132.765 106.404 132.62C106.458 132.475 106.541 132.342 106.648 132.23C106.755 132.118 106.884 132.029 107.027 131.969C107.171 131.908 107.325 131.877 107.48 131.878H153.634C153.957 131.882 154.267 132.007 154.501 132.229C154.736 132.451 154.876 132.753 154.895 133.075C154.904 133.229 154.88 133.384 154.827 133.529C154.773 133.674 154.69 133.807 154.583 133.919C154.475 134.031 154.346 134.12 154.203 134.181C154.06 134.241 153.906 134.272 153.75 134.271Z" fill="#3F7ED3"/>
<path d="M135.762 141.738H107.957C107.634 141.735 107.324 141.61 107.09 141.388C106.855 141.165 106.715 140.863 106.696 140.542C106.687 140.388 106.711 140.233 106.764 140.088C106.818 139.943 106.901 139.81 107.008 139.698C107.116 139.586 107.245 139.497 107.388 139.436C107.531 139.376 107.685 139.345 107.841 139.346H135.645C135.969 139.349 136.279 139.475 136.513 139.697C136.747 139.919 136.888 140.221 136.907 140.542C136.915 140.697 136.892 140.851 136.838 140.996C136.785 141.142 136.702 141.274 136.594 141.386C136.487 141.499 136.358 141.588 136.215 141.648C136.071 141.709 135.917 141.739 135.762 141.738Z" fill="#3F7ED3"/>
<path d="M138.968 96.3809C144.43 90.8176 144.098 81.6874 138.227 75.9881C132.356 70.2888 123.169 70.1785 117.707 75.7419C112.246 81.3052 112.578 90.4354 118.449 96.1347C124.32 101.834 133.507 101.944 138.968 96.3809Z" fill="#3F7ED3"/>
<path d="M140.304 86.0511C140.404 88.0097 140.001 89.9614 139.133 91.7221C138.191 93.6101 136.734 95.196 134.927 96.2979C133.121 97.3997 131.039 97.9729 128.92 97.9517C126.727 97.9353 124.577 97.3524 122.68 96.2603C120.782 95.1682 119.203 93.6043 118.097 91.7221C117.065 90.0004 116.473 88.0531 116.374 86.0511C116.283 84.5131 116.51 82.9727 117.042 81.5257C117.575 80.0787 118.401 78.7561 119.469 77.64C120.537 76.5239 121.825 75.6382 123.252 75.0379C124.679 74.4376 126.215 74.1356 127.764 74.1506C130.98 74.1903 134.062 75.4399 136.388 77.648C138.715 79.856 140.114 82.8585 140.304 86.0511Z" fill="white"/>
<path opacity="0.4" d="M139.133 91.7231C138.192 93.6112 136.734 95.197 134.928 96.2989C133.121 97.4008 131.039 97.974 128.92 97.9528C126.728 97.9363 124.577 97.3535 122.68 96.2613C120.783 95.1692 119.203 93.6053 118.097 91.7231C121.147 89.6418 124.765 88.5383 128.464 88.5609C132.253 88.5679 135.959 89.6663 139.133 91.7231Z" fill="#407BFF"/>
<path opacity="0.4" d="M132.044 85.7661C134.052 83.7207 133.931 80.3648 131.773 78.2705C129.616 76.1763 126.239 76.1366 124.231 78.182C122.223 80.2273 122.345 83.5832 124.502 85.6775C126.659 87.7718 130.036 87.8114 132.044 85.7661Z" fill="#407BFF"/>
</svg>
