<svg width="264" height="264" viewBox="0 0 264 264" fill="none" xmlns="http://www.w3.org/2000/svg">
<path d="M132.683 257.128C202.19 257.128 258.536 223.015 258.536 180.934C258.536 138.854 202.19 104.741 132.683 104.741C63.1768 104.741 6.83075 138.854 6.83075 180.934C6.83075 223.015 63.1768 257.128 132.683 257.128Z" fill="#F5F5F5"/>
<path d="M201.831 187.459L181.325 175.62C180.214 174.978 178.413 174.978 177.302 175.62L176.026 176.356L161.864 168.18C160.822 167.579 159.134 167.579 158.093 168.18L156.663 169.006L144.069 161.735C143.097 161.174 141.521 161.174 140.549 161.735L138.995 162.632L128.142 156.366C127.24 155.844 125.776 155.844 124.874 156.366L123.225 157.317L111.249 150.402C110.416 149.922 109.065 149.922 108.232 150.402L71.6249 171.538C70.7917 172.018 70.7917 172.799 71.6249 173.28L85.0412 181.025C85.0981 181.067 85.1498 181.111 85.2159 181.149L101.877 190.768C101.917 190.792 101.964 190.809 102.007 190.829L115.784 198.784C115.832 198.811 115.886 198.831 115.936 198.856L128.361 206.029C128.407 206.06 128.443 206.093 128.493 206.122L148.999 217.962C150.11 218.603 151.911 218.603 153.022 217.962L201.831 189.781C202.942 189.14 202.942 188.1 201.831 187.459Z" fill="#E0E0E0"/>
<path d="M211.233 28.0959L215.073 30.313C215.054 30.1414 215.041 29.9714 215.041 29.8045V28.6921C215.041 26.7121 216.43 25.91 218.145 26.8995C218.84 27.3002 219.479 27.9354 219.995 28.6789C220.276 26.1893 222.229 25.2622 224.602 26.6318C227.167 28.1128 229.246 31.7143 229.246 34.6764V36.3407C229.246 37.1078 229.104 37.7541 228.853 38.2689L232.042 40.1106C232.993 40.6597 233.764 41.995 233.764 43.0932C233.764 44.1915 232.993 44.6366 232.042 44.0875L211.233 32.0734C210.282 31.5242 209.511 30.1889 209.511 29.0907C209.511 27.9919 210.282 27.5468 211.233 28.0959Z" fill="#EBEBEB"/>
<path d="M179.442 33.6215L184.515 36.5503C184.49 36.3238 184.472 36.0988 184.472 35.8787V34.4092C184.472 31.7941 186.308 30.7338 188.573 32.0417C189.49 32.5713 190.335 33.4103 191.017 34.3918C191.388 31.1034 193.968 29.8785 197.102 31.6874C200.49 33.6436 203.237 38.4014 203.237 42.3139V44.5125C203.237 45.5258 203.05 46.3795 202.718 47.0596L206.931 49.4921C208.187 50.2176 209.206 51.9816 209.206 53.432C209.206 54.883 208.187 55.4706 206.931 54.7457L179.442 38.8751C178.186 38.1496 177.168 36.3855 177.168 34.9351C177.167 33.4842 178.186 32.896 179.442 33.6215Z" fill="#EBEBEB"/>
<path d="M126.214 201.207V203.025C126.214 204.257 127.08 205.756 128.148 206.373L147.857 217.752C148.924 218.368 150.656 218.368 151.723 217.752L198.635 190.667C199.703 190.051 200.568 188.552 200.568 187.319V185.501C200.568 184.268 199.703 182.769 198.635 182.153L178.926 170.774C177.858 170.157 176.127 170.157 175.059 170.774L128.148 197.859C127.08 198.475 126.214 199.974 126.214 201.207Z" fill="#6584EF"/>
<path opacity="0.2" d="M149.791 211.931V218.213C149.09 218.213 148.393 218.061 147.857 217.753L128.146 206.373C127.079 205.757 126.213 204.257 126.213 203.025V201.208C126.213 200.051 126.977 198.663 127.95 197.984C127.084 198.605 127.151 199.515 128.146 200.091L147.857 211.472C148.389 211.78 149.09 211.931 149.791 211.931Z" fill="black"/>
<path d="M200.57 185.501V187.318C200.57 188.551 199.704 190.051 198.637 190.667L151.724 217.753C151.188 218.061 150.491 218.213 149.791 218.213V211.931C150.491 211.931 151.192 211.78 151.724 211.472L198.637 184.385C199.633 183.809 199.7 182.898 198.834 182.278C199.807 182.956 200.57 184.345 200.57 185.501Z" fill="#79A2FF"/>
<path d="M72.0399 89.5875V90.9509C72.0399 91.8756 72.689 93.0001 73.4898 93.4622L88.2719 101.997C89.0728 102.459 90.3708 102.459 91.1717 101.997L126.356 81.683C127.157 81.221 127.806 80.0965 127.806 79.1717V77.8084C127.806 76.8836 127.157 75.7591 126.356 75.2971L111.574 66.7625C110.773 66.3004 109.475 66.3004 108.674 66.7625L73.4898 87.0762C72.6895 87.5383 72.0399 88.6628 72.0399 89.5875Z" fill="#6584EF"/>
<path opacity="0.2" d="M89.7222 97.6304V102.342C89.1965 102.342 88.6741 102.228 88.2723 101.997L73.4891 93.4617C72.6888 92.9996 72.0392 91.8745 72.0392 90.9503V89.5875C72.0392 88.7203 72.6118 87.6789 73.3417 87.17C72.6921 87.6354 72.7424 88.3185 73.4891 88.7504L88.2723 97.2855C88.6708 97.5166 89.1965 97.6304 89.7222 97.6304Z" fill="black"/>
<path d="M127.807 77.8078V79.1706C127.807 80.0948 127.158 81.2198 126.357 81.6819L91.1721 101.997C90.7703 102.228 90.2479 102.342 89.7222 102.342V97.6304C90.2479 97.6304 90.7736 97.5166 91.1721 97.2855L126.357 76.9707C127.104 76.5388 127.154 75.8557 126.505 75.3902C127.235 75.8992 127.807 76.9406 127.807 77.8078Z" fill="#79A2FF"/>
<path d="M110.804 170.059V171.763C110.804 172.918 111.616 174.324 112.617 174.902L131.094 185.57C132.096 186.148 133.718 186.148 134.719 185.57L178.699 160.178C179.7 159.6 180.511 158.194 180.511 157.039V155.335C180.511 154.179 179.7 152.773 178.699 152.196L160.221 141.528C159.22 140.949 157.597 140.949 156.597 141.528L112.617 166.919C111.616 167.497 110.804 168.903 110.804 170.059Z" fill="#6584EF"/>
<path opacity="0.2" d="M132.79 180.112V186C132.176 185.983 131.568 185.843 131.094 185.57L112.616 174.9C111.617 174.325 110.802 172.918 110.802 171.763V170.061C110.802 168.978 111.511 167.689 112.415 167.048C111.623 167.634 111.69 168.476 112.616 169.012L131.094 179.682C131.568 179.956 132.171 180.095 132.79 180.112Z" fill="black"/>
<path d="M96.996 141.681V143.272C96.996 144.35 97.7533 145.662 98.6875 146.201L115.933 156.159C116.868 156.698 118.382 156.698 119.317 156.159L160.365 132.46C161.299 131.92 162.056 130.608 162.056 129.53V127.939C162.056 126.86 161.299 125.549 160.365 125.009L143.119 115.052C142.185 114.513 140.67 114.513 139.736 115.052L98.6875 138.751C97.7533 139.29 96.996 140.602 96.996 141.681Z" fill="#6584EF"/>
<path opacity="0.2" d="M117.627 151.064V156.561C117.013 156.561 116.4 156.428 115.931 156.16L98.6864 146.204C97.7545 145.662 96.9955 144.351 96.9955 143.274V141.683C96.9955 140.668 97.6652 139.451 98.5134 138.865C97.76 139.401 97.8158 140.199 98.6864 140.707L115.931 150.663C116.4 150.931 117.013 151.064 117.627 151.064Z" fill="black"/>
<path d="M84.2526 115.161V116.638C84.2526 117.639 84.9557 118.857 85.8235 119.358L101.837 128.604C102.705 129.104 104.111 129.104 104.979 128.604L143.095 106.597C143.962 106.096 144.665 104.879 144.665 103.877V102.4C144.665 101.399 143.962 100.18 143.094 99.6797L127.08 90.4341C126.213 89.9335 124.806 89.9335 123.939 90.4341L85.823 112.44C84.9563 112.942 84.2526 114.16 84.2526 115.161Z" fill="#6584EF"/>
<path opacity="0.2" d="M103.318 123.875V128.976C102.783 128.965 102.247 128.842 101.84 128.602L85.823 119.361C84.958 118.858 84.2548 117.642 84.2548 116.637V115.164C84.2548 114.271 84.8073 113.216 85.5384 112.641C84.9691 113.138 85.064 113.813 85.823 114.254L101.84 123.501C102.247 123.741 102.777 123.864 103.318 123.875Z" fill="black"/>
<path d="M121.353 43.9857C126.732 42.3573 130.194 39.4559 132.134 33.6023C132.134 33.6023 129.112 36.334 123.765 36.334C118.418 36.334 113.293 34.5041 108.529 34.5041C103.765 34.5041 99.0323 36.334 99.0323 36.334V52.5593C99.0323 52.5593 103.092 49.7467 108.529 49.7467C113.293 49.7467 118.418 51.5766 123.765 51.5766C126.137 51.5766 128.065 51.0693 129.448 50.4403C132.134 49.2187 134.401 46.6884 134.401 46.6884C134.401 46.6884 127.6 48.1824 121.353 43.9857Z" fill="#6584EF"/>
<path d="M99.03 31.6518C99.0244 31.4861 98.9139 31.3209 98.6946 31.1948C98.2448 30.9353 97.5159 30.9353 97.0661 31.1948C96.8468 31.3214 96.7369 31.4861 96.7307 31.6518H96.7285V81.0264C96.7285 81.3864 97.2436 81.6783 97.8793 81.6783C98.5149 81.6783 99.03 81.3864 99.03 81.0264H99.0322V31.6518H99.03Z" fill="#455A64"/>
<path d="M97.8793 32.3103C98.518 32.3103 99.0357 32.017 99.0357 31.6552C99.0357 31.2933 98.518 31 97.8793 31C97.2407 31 96.723 31.2933 96.723 31.6552C96.723 32.017 97.2407 32.3103 97.8793 32.3103Z" fill="#37474F"/>
<path d="M76.785 179.295C76.7269 179.292 76.6688 179.271 76.6218 179.23C71.4643 174.722 65.216 175.352 65.1536 175.36C65.0079 175.374 64.878 175.272 64.8622 175.126C64.8463 174.982 64.9504 174.851 65.095 174.835C65.1595 174.827 71.6317 174.166 76.9692 178.832C77.079 178.928 77.0901 179.095 76.9946 179.205C76.9397 179.267 76.862 179.298 76.785 179.295Z" fill="#FAFAFA"/>
<path d="M234.251 156.121C235.883 156.46 237.617 156.288 239.136 155.517C242.502 153.81 243.518 149.828 241.396 146.652L210.429 99.9541C209.414 98.436 207.746 97.4094 205.861 97.1378C203.985 96.8674 202.078 97.3717 200.631 98.5168L185.513 110.478L173.828 92.1508C172.08 89.4092 168.371 88.6224 165.551 90.3699C162.748 92.1067 161.861 95.7073 163.562 98.4351L178.639 122.611C179.579 124.117 181.142 125.171 182.928 125.498C184.722 125.827 186.565 125.39 187.976 124.296L203.22 112.482L229.359 152.853C230.484 154.574 232.294 155.714 234.251 156.121Z" fill="url(#paint0_linear_11_9616)"/>
<path d="M159.006 100.785L177.276 89.59L158.084 79.2452L156.661 79.0004L157.745 100.439L159.006 100.785Z" fill="url(#paint1_linear_11_9616)"/>
<path d="M232.828 155.876C234.46 156.215 236.194 156.043 237.714 155.272C241.079 153.565 242.095 149.583 239.973 146.407L209.006 99.7092C207.991 98.1911 206.323 97.1645 204.438 96.8929C202.562 96.6225 200.655 97.1268 199.208 98.2719L184.09 110.233L172.405 91.9059C170.657 89.1643 166.948 88.3776 164.128 90.1251C161.325 91.8618 160.438 95.4625 162.139 98.1902L177.217 122.367C178.156 123.872 179.719 124.926 181.505 125.254C183.299 125.582 185.142 125.145 186.553 124.051L201.798 112.237L227.936 152.608C229.061 154.329 230.871 155.469 232.828 155.876Z" fill="url(#paint2_linear_11_9616)"/>
<path d="M157.742 100.439L175.852 89.3448L156.659 79L157.742 100.439Z" fill="url(#paint3_linear_11_9616)"/>
<defs>
<linearGradient id="paint0_linear_11_9616" x1="187.597" y1="117.538" x2="245.041" y2="196.739" gradientUnits="userSpaceOnUse">
<stop offset="0.0036" stop-color="#BCD1FF"/>
<stop offset="1" stop-color="#BCD1FF"/>
</linearGradient>
<linearGradient id="paint1_linear_11_9616" x1="197.944" y1="148.077" x2="230.604" y2="205.02" gradientUnits="userSpaceOnUse">
<stop offset="0.0036" stop-color="#B4CAFA"/>
<stop offset="1" stop-color="#FFC444"/>
</linearGradient>
<linearGradient id="paint2_linear_11_9616" x1="223.309" y1="153.798" x2="162.317" y2="67.4476" gradientUnits="userSpaceOnUse">
<stop stop-color="#5275EC"/>
<stop offset="0.9964" stop-color="#6F9CFF"/>
</linearGradient>
<linearGradient id="paint3_linear_11_9616" x1="181.953" y1="118.172" x2="152.373" y2="74.4704" gradientUnits="userSpaceOnUse">
<stop stop-color="#6791FA"/>
<stop offset="0.9964" stop-color="#729EFE"/>
</linearGradient>
</defs>
</svg>
