<svg width="310" height="179" viewBox="0 0 310 179" fill="none" xmlns="http://www.w3.org/2000/svg">
<path d="M278.939 160.413H258.403V160.568H278.939V160.413Z" fill="#EBEBEB"/>
<path d="M205.356 162.095H199.967V162.25H205.356V162.095Z" fill="#EBEBEB"/>
<path d="M257.782 154.655H245.883V154.81H257.782V154.655Z" fill="#EBEBEB"/>
<path d="M59.3042 155.697H32.5246V155.852H59.3042V155.697Z" fill="#EBEBEB"/>
<path d="M68.7512 155.697H64.8247V155.852H68.7512V155.697Z" fill="#EBEBEB"/>
<path d="M139.591 158.315H81.512V158.47H139.591V158.315Z" fill="#EBEBEB"/>
<path d="M310 150.433H0V150.588H310V150.433Z" fill="#EBEBEB"/>
<path d="M92.4947 63.7684H78.6048V122.644H92.4947V63.7684Z" fill="#E6E6E6"/>
<path d="M115.645 43.6934H101.755V122.644H115.645V43.6934Z" fill="#E0E0E0"/>
<path d="M138.795 63.7684H124.905V122.644H138.795V63.7684Z" fill="#EBEBEB"/>
<path d="M46.1943 83.8427H32.3045V122.644H46.1943V83.8427Z" fill="#F0F0F0"/>
<path d="M69.3445 74.1509H55.4547V122.644H69.3445V74.1509Z" fill="#EBEBEB"/>
<path d="M161.945 83.8427H148.055V122.644H161.945V83.8427Z" fill="#F5F5F5"/>
<path d="M277.696 23.6178H263.806V122.644H277.696V23.6178Z" fill="#E0E0E0"/>
<path d="M185.095 63.7684H171.205V122.644H185.095V63.7684Z" fill="#F0F0F0"/>
<path d="M254.545 43.6934H240.655V122.644H254.545V43.6934Z" fill="#E6E6E6"/>
<path d="M231.395 54.0753H217.505V122.644H231.395V54.0753Z" fill="#EBEBEB"/>
<path d="M208.245 74.1509H194.355V122.644H208.245V74.1509Z" fill="#F0F0F0"/>
<path d="M155 178.096C221.391 178.096 275.211 174.953 275.211 171.076C275.211 167.199 221.391 164.056 155 164.056C88.6092 164.056 34.7888 167.199 34.7888 171.076C34.7888 174.953 88.6092 178.096 155 178.096Z" fill="#F5F5F5"/>
<path d="M175.594 63.8192H134.662V171.529H175.594V63.8192Z" fill="#3F7ED3"/>
<path opacity="0.5" d="M175.727 63.8192H145.205V171.529H175.727V63.8192Z" fill="#9CC6FF"/>
<path d="M229.068 100.546H188.137V171.529H229.068V100.546Z" fill="#3F7ED3"/>
<path opacity="0.3" d="M229.069 100.373H198.547V171.529H229.069V100.373Z" fill="#9CC6FF"/>
<path d="M121.863 83.0281H80.9311V171.529H121.863V83.0281Z" fill="#3F7ED3"/>
<path opacity="0.4" d="M121.863 82.8136H91.3415V171.529H121.863V82.8136Z" fill="#9CC6FF"/>
<path d="M96.8626 171.647C96.8068 172.965 100.979 174.212 106.182 174.433C111.385 174.654 115.648 173.765 115.704 172.447C115.76 171.129 111.588 169.881 106.385 169.66C101.182 169.439 96.9184 170.328 96.8626 171.647Z" fill="#3F7ED3"/>
<path d="M96.96 169.251L96.8587 171.637L115.7 172.437L115.802 170.05L96.96 169.251Z" fill="#3F7ED3"/>
<path d="M96.9637 169.26C96.9079 170.578 101.08 171.826 106.283 172.046C111.486 172.267 115.749 171.378 115.805 170.06C115.861 168.742 111.689 167.494 106.486 167.274C101.283 167.052 97.0195 167.942 96.9637 169.26Z" fill="#3F7ED3"/>
<path opacity="0.4" d="M96.9637 169.26C96.9079 170.578 101.08 171.826 106.283 172.046C111.486 172.267 115.749 171.378 115.805 170.06C115.861 168.742 111.689 167.494 106.486 167.274C101.283 167.052 97.0195 167.942 96.9637 169.26Z" fill="white"/>
<path d="M98.1658 169.219C98.1627 169.296 98.1925 169.39 98.2458 169.454C98.8757 168.679 102.32 168.224 106.437 168.399C110.565 168.574 113.958 169.32 114.509 170.145C114.568 170.085 114.606 169.995 114.609 169.917C114.647 169.025 111 168.13 106.456 167.937C101.924 167.744 98.2037 168.326 98.1658 169.219Z" fill="#3F7ED3"/>
<path opacity="0.4" d="M98.1658 169.219C98.1627 169.296 98.1925 169.39 98.2458 169.454C98.8757 168.679 102.32 168.224 106.437 168.399C110.565 168.574 113.958 169.32 114.509 170.145C114.568 170.085 114.606 169.995 114.609 169.917C114.647 169.025 111 168.13 106.456 167.937C101.924 167.744 98.2037 168.326 98.1658 169.219Z" fill="#3F7ED3"/>
<path opacity="0.4" d="M98.2458 169.454C98.8082 170.279 102.201 171.025 106.318 171.2C110.446 171.375 113.89 170.92 114.509 170.145C113.958 169.32 110.565 168.574 106.437 168.399C102.32 168.224 98.8757 168.679 98.2458 169.454Z" fill="#3F7ED3"/>
<path d="M94.8823 168.033C94.8265 169.351 98.9991 170.599 104.202 170.82C109.405 171.041 113.668 170.152 113.724 168.834C113.779 167.515 109.607 166.268 104.404 166.047C99.2019 165.825 94.9387 166.715 94.8823 168.033Z" fill="#3F7ED3"/>
<path d="M94.9853 165.651L94.8841 168.038L113.726 168.838L113.827 166.451L94.9853 165.651Z" fill="#3F7ED3"/>
<path d="M94.984 165.646C94.9282 166.964 99.1002 168.212 104.303 168.433C109.506 168.654 113.769 167.765 113.825 166.447C113.881 165.128 109.709 163.881 104.506 163.66C99.3035 163.439 95.0398 164.328 94.984 165.646Z" fill="#3F7ED3"/>
<path opacity="0.4" d="M94.984 165.646C94.9282 166.964 99.1002 168.212 104.303 168.433C109.506 168.654 113.769 167.765 113.825 166.447C113.881 165.128 109.709 163.881 104.506 163.66C99.3035 163.439 95.0398 164.328 94.984 165.646Z" fill="white"/>
<path d="M96.1862 165.605C96.1831 165.682 96.2128 165.776 96.2662 165.84C96.8961 165.065 100.341 164.61 104.457 164.785C108.585 164.96 111.978 165.706 112.529 166.531C112.588 166.471 112.626 166.381 112.629 166.303C112.667 165.411 109.021 164.516 104.477 164.323C99.9446 164.131 96.224 164.713 96.1862 165.605Z" fill="#3F7ED3"/>
<path opacity="0.4" d="M96.1862 165.605C96.1831 165.682 96.2128 165.776 96.2662 165.84C96.8961 165.065 100.341 164.61 104.457 164.785C108.585 164.96 111.978 165.706 112.529 166.531C112.588 166.471 112.626 166.381 112.629 166.303C112.667 165.411 109.021 164.516 104.477 164.323C99.9446 164.131 96.224 164.713 96.1862 165.605Z" fill="#3F7ED3"/>
<path opacity="0.4" d="M96.2662 165.84C96.8279 166.665 100.222 167.411 104.338 167.586C108.466 167.762 111.91 167.307 112.529 166.532C111.978 165.706 108.584 164.96 104.456 164.786C100.341 164.61 96.8961 165.065 96.2662 165.84Z" fill="#3F7ED3"/>
<path d="M95.139 163.68C95.0832 164.998 99.2558 166.246 104.458 166.466C109.661 166.687 113.924 165.798 113.98 164.48C114.036 163.162 109.864 161.914 104.661 161.693C99.4585 161.473 95.1948 162.362 95.139 163.68Z" fill="#3F7ED3"/>
<path d="M95.2393 161.292L95.138 163.678L113.98 164.478L114.081 162.091L95.2393 161.292Z" fill="#3F7ED3"/>
<path d="M95.2401 161.293C95.1843 162.611 99.3563 163.859 104.56 164.08C109.763 164.301 114.026 163.412 114.082 162.094C114.138 160.775 109.966 159.528 104.763 159.307C99.5596 159.086 95.2965 159.976 95.2401 161.293Z" fill="#3F7ED3"/>
<path opacity="0.4" d="M95.2401 161.293C95.1843 162.611 99.3563 163.859 104.56 164.08C109.763 164.301 114.026 163.412 114.082 162.094C114.138 160.775 109.966 159.528 104.763 159.307C99.5596 159.086 95.2965 159.976 95.2401 161.293Z" fill="white"/>
<path d="M96.4422 161.253C96.4391 161.33 96.4689 161.423 96.5222 161.487C97.1521 160.712 100.597 160.257 104.713 160.432C108.841 160.607 112.234 161.353 112.785 162.178C112.844 162.118 112.882 162.028 112.885 161.95C112.923 161.058 109.277 160.163 104.733 159.97C100.201 159.778 96.4801 160.36 96.4422 161.253Z" fill="#3F7ED3"/>
<path opacity="0.4" d="M96.4422 161.253C96.4391 161.33 96.4689 161.423 96.5222 161.487C97.1521 160.712 100.597 160.257 104.713 160.432C108.841 160.607 112.234 161.353 112.785 162.178C112.844 162.118 112.882 162.028 112.885 161.95C112.923 161.058 109.277 160.163 104.733 159.97C100.201 159.778 96.4801 160.36 96.4422 161.253Z" fill="#3F7ED3"/>
<path opacity="0.4" d="M96.5222 161.487C97.0839 162.312 100.478 163.058 104.594 163.233C108.722 163.409 112.166 162.954 112.785 162.179C112.234 161.353 108.84 160.607 104.712 160.433C100.597 160.257 97.1521 160.712 96.5222 161.487Z" fill="#3F7ED3"/>
<path d="M93.1594 160.067C93.1036 161.385 97.2755 162.632 102.479 162.854C107.682 163.074 111.945 162.185 112.001 160.867C112.056 159.549 107.884 158.301 102.681 158.08C97.4783 157.859 93.2152 158.749 93.1594 160.067Z" fill="#3F7ED3"/>
<path d="M93.2653 157.689L93.1638 160.075L112.005 160.877L112.107 158.49L93.2653 157.689Z" fill="#3F7ED3"/>
<path d="M93.261 157.68C93.2052 158.998 97.3772 160.245 102.581 160.467C107.784 160.687 112.047 159.798 112.103 158.48C112.159 157.162 107.987 155.915 102.784 155.693C97.5799 155.473 93.3168 156.362 93.261 157.68Z" fill="#3F7ED3"/>
<path opacity="0.4" d="M93.261 157.68C93.2052 158.998 97.3772 160.245 102.581 160.467C107.784 160.687 112.047 159.798 112.103 158.48C112.159 157.162 107.987 155.915 102.784 155.693C97.5799 155.473 93.3168 156.362 93.261 157.68Z" fill="white"/>
<path d="M94.4626 157.639C94.4595 157.716 94.4892 157.809 94.5426 157.874C95.1725 157.099 98.6172 156.644 102.733 156.819C106.861 156.994 110.255 157.739 110.806 158.565C110.865 158.505 110.902 158.414 110.906 158.337C110.943 157.444 107.297 156.55 102.753 156.357C98.221 156.165 94.5004 156.747 94.4626 157.639Z" fill="#3F7ED3"/>
<path opacity="0.4" d="M94.4626 157.639C94.4595 157.716 94.4892 157.809 94.5426 157.874C95.1725 157.099 98.6172 156.644 102.733 156.819C106.861 156.994 110.255 157.739 110.806 158.565C110.865 158.505 110.902 158.414 110.906 158.337C110.943 157.444 107.297 156.55 102.753 156.357C98.221 156.165 94.5004 156.747 94.4626 157.639Z" fill="#3F7ED3"/>
<path opacity="0.4" d="M94.5426 157.874C95.1049 158.7 98.4982 159.445 102.615 159.62C106.743 159.795 110.187 159.34 110.806 158.565C110.255 157.74 106.861 156.995 102.733 156.819C98.6172 156.644 95.1725 157.099 94.5426 157.874Z" fill="#3F7ED3"/>
<path d="M96.1825 157.004C96.1267 158.322 100.299 159.57 105.502 159.79C110.705 160.011 114.968 159.122 115.024 157.804C115.079 156.486 110.907 155.238 105.704 155.017C100.501 154.796 96.2383 155.686 96.1825 157.004Z" fill="#3F7ED3"/>
<path d="M96.2825 154.615L96.1812 157.002L115.023 157.801L115.124 155.415L96.2825 154.615Z" fill="#3F7ED3"/>
<path d="M96.2835 154.617C96.2277 155.935 100.4 157.183 105.603 157.404C110.806 157.625 115.069 156.736 115.125 155.417C115.181 154.099 111.009 152.852 105.805 152.631C100.603 152.41 96.34 153.3 96.2835 154.617Z" fill="#3F7ED3"/>
<path opacity="0.4" d="M96.2835 154.617C96.2277 155.935 100.4 157.183 105.603 157.404C110.806 157.625 115.069 156.736 115.125 155.417C115.181 154.099 111.009 152.852 105.805 152.631C100.603 152.41 96.34 153.3 96.2835 154.617Z" fill="white"/>
<path d="M97.4857 154.576C97.4826 154.654 97.5124 154.747 97.5657 154.811C98.1956 154.036 101.64 153.581 105.757 153.756C109.884 153.931 113.278 154.677 113.829 155.502C113.888 155.442 113.926 155.352 113.929 155.274C113.967 154.382 110.32 153.487 105.776 153.294C101.244 153.102 97.5235 153.684 97.4857 154.576Z" fill="#3F7ED3"/>
<path opacity="0.4" d="M97.4857 154.576C97.4826 154.654 97.5124 154.747 97.5657 154.811C98.1956 154.036 101.64 153.581 105.757 153.756C109.884 153.931 113.278 154.677 113.829 155.502C113.888 155.442 113.926 155.352 113.929 155.274C113.967 154.382 110.32 153.487 105.776 153.294C101.244 153.102 97.5235 153.684 97.4857 154.576Z" fill="#3F7ED3"/>
<path opacity="0.4" d="M97.5657 154.811C98.1274 155.636 101.521 156.382 105.637 156.557C109.765 156.732 113.21 156.277 113.829 155.502C113.278 154.677 109.884 153.932 105.757 153.756C101.64 153.581 98.1956 154.036 97.5657 154.811Z" fill="#3F7ED3"/>
<path d="M94.2028 153.391C94.147 154.708 98.319 155.956 103.522 156.178C108.725 156.398 112.988 155.509 113.044 154.191C113.1 152.873 108.928 151.626 103.725 151.404C98.5217 151.183 94.2586 152.073 94.2028 153.391Z" fill="#3F7ED3"/>
<path d="M94.3005 150.995L94.1992 153.382L113.041 154.181L113.142 151.795L94.3005 150.995Z" fill="#3F7ED3"/>
<path d="M94.3039 151.004C94.2481 152.322 98.4201 153.569 103.623 153.791C108.826 154.011 113.089 153.122 113.145 151.804C113.201 150.486 109.029 149.239 103.826 149.017C98.6234 148.796 94.3597 149.686 94.3039 151.004Z" fill="#3F7ED3"/>
<path opacity="0.4" d="M94.3039 151.004C94.2481 152.322 98.4201 153.569 103.623 153.791C108.826 154.011 113.089 153.122 113.145 151.804C113.201 150.486 109.029 149.239 103.826 149.017C98.6234 148.796 94.3597 149.686 94.3039 151.004Z" fill="white"/>
<path d="M95.506 150.963C95.5029 151.04 95.5327 151.133 95.586 151.198C96.2159 150.423 99.6607 149.968 103.777 150.142C107.905 150.318 111.298 151.063 111.849 151.888C111.908 151.829 111.946 151.738 111.949 151.661C111.987 150.769 108.341 149.874 103.797 149.681C99.2645 149.488 95.5439 150.071 95.506 150.963Z" fill="#3F7ED3"/>
<path opacity="0.4" d="M95.506 150.963C95.5029 151.04 95.5327 151.133 95.586 151.198C96.2159 150.423 99.6607 149.968 103.777 150.142C107.905 150.318 111.298 151.063 111.849 151.888C111.908 151.829 111.946 151.738 111.949 151.661C111.987 150.769 108.341 149.874 103.797 149.681C99.2645 149.488 95.5439 150.071 95.506 150.963Z" fill="#3F7ED3"/>
<path opacity="0.4" d="M95.586 151.198C96.1484 152.023 99.5416 152.769 103.658 152.944C107.786 153.119 111.23 152.664 111.849 151.889C111.298 151.064 107.905 150.319 103.777 150.143C99.6607 149.968 96.2159 150.423 95.586 151.198Z" fill="#3F7ED3"/>
<path d="M68.7611 170.491C68.7053 171.81 72.8773 173.057 78.0803 173.278C83.2834 173.499 87.5465 172.61 87.6023 171.292C87.6581 169.974 83.4861 168.726 78.2831 168.505C73.08 168.284 68.8169 169.173 68.7611 170.491Z" fill="#3F7ED3"/>
<path d="M68.86 168.096L68.7587 170.483L87.6003 171.282L87.7016 168.896L68.86 168.096Z" fill="#3F7ED3"/>
<path d="M68.8628 168.104C68.807 169.423 72.979 170.67 78.182 170.891C83.385 171.112 87.6482 170.223 87.704 168.905C87.7598 167.587 83.5878 166.339 78.3847 166.118C73.1817 165.897 68.9186 166.786 68.8628 168.104Z" fill="#3F7ED3"/>
<path opacity="0.4" d="M68.8628 168.104C68.807 169.423 72.979 170.67 78.182 170.891C83.385 171.112 87.6482 170.223 87.704 168.905C87.7598 167.587 83.5878 166.339 78.3847 166.118C73.1817 165.897 68.9186 166.786 68.8628 168.104Z" fill="white"/>
<path d="M70.0643 168.064C70.0612 168.141 70.091 168.234 70.1443 168.299C70.7742 167.524 74.219 167.068 78.3351 167.243C82.4631 167.419 85.8564 168.164 86.4075 168.989C86.4664 168.93 86.5043 168.839 86.5074 168.762C86.5452 167.869 82.899 166.974 78.355 166.781C73.8228 166.589 70.1022 167.171 70.0643 168.064Z" fill="#3F7ED3"/>
<path opacity="0.4" d="M70.0643 168.064C70.0612 168.141 70.091 168.234 70.1443 168.299C70.7742 167.524 74.219 167.068 78.3351 167.243C82.4631 167.419 85.8564 168.164 86.4075 168.989C86.4664 168.93 86.5043 168.839 86.5074 168.762C86.5452 167.869 82.899 166.974 78.355 166.781C73.8228 166.589 70.1022 167.171 70.0643 168.064Z" fill="#3F7ED3"/>
<path opacity="0.4" d="M70.1443 168.299C70.7067 169.124 74.0999 169.87 78.2161 170.044C82.3441 170.22 85.7882 169.765 86.4075 168.99C85.8564 168.165 82.4631 167.419 78.3351 167.244C74.219 167.068 70.7742 167.524 70.1443 168.299Z" fill="#3F7ED3"/>
<path d="M76.9581 168.165C76.6531 169.448 80.5126 171.465 85.5786 172.67C90.6452 173.875 94.9995 173.811 95.3045 172.528C95.6096 171.244 91.7501 169.227 86.6841 168.022C81.6174 166.817 77.2632 166.881 76.9581 168.165Z" fill="#3F7ED3"/>
<path d="M77.5219 165.847L76.9691 168.171L95.3166 172.535L95.8694 170.211L77.5219 165.847Z" fill="#3F7ED3"/>
<path d="M77.5105 165.841C77.2055 167.124 81.065 169.142 86.1316 170.346C91.1983 171.551 95.5525 171.487 95.8576 170.204C96.1626 168.92 92.3031 166.904 87.2371 165.698C82.1705 164.494 77.8156 164.557 77.5105 165.841Z" fill="#3F7ED3"/>
<path opacity="0.4" d="M77.5105 165.841C77.2055 167.124 81.065 169.142 86.1316 170.346C91.1983 171.551 95.5525 171.487 95.8576 170.204C96.1626 168.92 92.3031 166.904 87.2371 165.698C82.1705 164.494 77.8156 164.557 77.5105 165.841Z" fill="white"/>
<path d="M78.6985 166.029C78.6805 166.104 78.6923 166.202 78.7326 166.274C79.4983 165.633 82.9665 165.84 86.9748 166.793C90.9943 167.749 94.1848 169.125 94.5686 170.04C94.6374 169.993 94.692 169.911 94.7093 169.836C94.9158 168.967 91.5058 167.396 87.0815 166.344C82.6683 165.295 78.9049 165.159 78.6985 166.029Z" fill="#3F7ED3"/>
<path opacity="0.4" d="M78.6985 166.029C78.6805 166.104 78.6923 166.202 78.7326 166.274C79.4983 165.633 82.9665 165.84 86.9748 166.793C90.9943 167.749 94.1848 169.125 94.5686 170.04C94.6374 169.993 94.692 169.911 94.7093 169.836C94.9158 168.967 91.5058 167.396 87.0815 166.344C82.6683 165.295 78.9049 165.159 78.6985 166.029Z" fill="#3F7ED3"/>
<path opacity="0.4" d="M78.7326 166.274C79.1275 167.191 82.318 168.568 86.3263 169.521C90.3458 170.477 93.8141 170.684 94.5686 170.041C94.1842 169.126 90.9943 167.75 86.9748 166.794C82.9665 165.84 79.4983 165.633 78.7326 166.274Z" fill="#3F7ED3"/>
<path d="M100.873 152.608C105.565 152.608 109.369 148.804 109.369 144.112C109.369 139.419 105.565 135.615 100.873 135.615C96.1803 135.615 92.3763 139.419 92.3763 144.112C92.3763 148.804 96.1803 152.608 100.873 152.608Z" fill="#3F7ED3"/>
<path d="M101.893 152.608C106.585 152.608 110.389 148.804 110.389 144.112C110.389 139.419 106.585 135.615 101.893 135.615C97.2002 135.615 93.3962 139.419 93.3962 144.112C93.3962 148.804 97.2002 152.608 101.893 152.608Z" fill="#3F7ED3"/>
<path opacity="0.5" d="M101.893 152.608C106.585 152.608 110.389 148.804 110.389 144.112C110.389 139.419 106.585 135.615 101.893 135.615C97.2002 135.615 93.3962 139.419 93.3962 144.112C93.3962 148.804 97.2002 152.608 101.893 152.608Z" fill="white"/>
<path d="M106.386 148.606C108.869 146.124 108.869 142.098 106.386 139.615C103.903 137.132 99.8777 137.132 97.3947 139.615C94.9117 142.098 94.9117 146.124 97.3947 148.606C99.8777 151.089 103.903 151.089 106.386 148.606Z" fill="#3F7ED3"/>
<path d="M220.888 172.808C220.841 174.126 216.583 175.044 211.379 174.857C206.175 174.67 201.994 173.45 202.042 172.132C202.089 170.814 206.347 169.896 211.55 170.083C216.755 170.27 220.935 171.49 220.888 172.808Z" fill="#3F7ED3"/>
<path d="M202.129 169.725L202.043 172.112L220.89 172.787L220.976 170.4L202.129 169.725Z" fill="#3F7ED3"/>
<path d="M220.974 170.421C220.926 171.739 216.669 172.657 211.465 172.47C206.26 172.283 202.08 171.063 202.127 169.744C202.175 168.426 206.432 167.509 211.636 167.695C216.841 167.883 221.021 169.102 220.974 170.421Z" fill="#3F7ED3"/>
<path opacity="0.4" d="M220.974 170.421C220.926 171.739 216.669 172.657 211.465 172.47C206.26 172.283 202.08 171.063 202.127 169.744C202.175 168.426 206.432 167.509 211.636 167.695C216.841 167.883 221.021 169.102 220.974 170.421Z" fill="white"/>
<path d="M219.779 170.286C219.776 170.363 219.739 170.454 219.681 170.513C219.114 169.691 215.715 168.968 211.597 168.821C207.468 168.672 204.027 169.15 203.413 169.93C203.359 169.866 203.329 169.773 203.331 169.695C203.364 168.803 207.069 168.196 211.614 168.359C216.147 168.522 219.811 169.393 219.779 170.286Z" fill="#3F7ED3"/>
<path opacity="0.4" d="M219.779 170.286C219.776 170.363 219.739 170.454 219.681 170.513C219.114 169.691 215.715 168.968 211.597 168.821C207.468 168.672 204.027 169.15 203.413 169.93C203.359 169.866 203.329 169.773 203.331 169.695C203.364 168.803 207.069 168.196 211.614 168.359C216.147 168.522 219.811 169.393 219.779 170.286Z" fill="#3F7ED3"/>
<path opacity="0.4" d="M219.681 170.514C219.056 171.293 215.614 171.771 211.497 171.623C207.368 171.475 203.969 170.752 203.413 169.93C204.027 169.151 207.469 168.673 211.597 168.821C215.715 168.969 219.113 169.692 219.681 170.514Z" fill="#3F7ED3"/>
<path d="M223.144 169.361C223.097 170.679 218.84 171.596 213.635 171.41C208.431 171.223 204.25 170.003 204.297 168.684C204.345 167.366 208.602 166.448 213.806 166.635C219.011 166.822 223.192 168.042 223.144 169.361Z" fill="#3F7ED3"/>
<path d="M204.396 166.288L204.31 168.676L223.157 169.353L223.243 166.965L204.396 166.288Z" fill="#3F7ED3"/>
<path d="M223.23 166.973C223.183 168.291 218.925 169.209 213.721 169.022C208.517 168.835 204.336 167.615 204.384 166.297C204.431 164.978 208.688 164.061 213.892 164.247C219.097 164.435 223.278 165.655 223.23 166.973Z" fill="#3F7ED3"/>
<path opacity="0.4" d="M223.23 166.973C223.183 168.291 218.925 169.209 213.721 169.022C208.517 168.835 204.336 167.615 204.384 166.297C204.431 164.978 208.688 164.061 213.892 164.247C219.097 164.435 223.278 165.655 223.23 166.973Z" fill="white"/>
<path d="M222.035 166.838C222.033 166.915 221.995 167.006 221.936 167.066C221.369 166.244 217.97 165.521 213.853 165.373C209.724 165.225 206.283 165.703 205.67 166.483C205.616 166.419 205.585 166.325 205.588 166.248C205.62 165.355 209.325 164.748 213.87 164.912C218.404 165.075 222.067 165.946 222.035 166.838Z" fill="#3F7ED3"/>
<path opacity="0.4" d="M222.035 166.838C222.033 166.915 221.995 167.006 221.936 167.066C221.369 166.244 217.97 165.521 213.853 165.373C209.724 165.225 206.283 165.703 205.67 166.483C205.616 166.419 205.585 166.325 205.588 166.248C205.62 165.355 209.325 164.748 213.87 164.912C218.404 165.075 222.067 165.946 222.035 166.838Z" fill="#3F7ED3"/>
<path opacity="0.4" d="M221.937 167.066C221.312 167.845 217.87 168.323 213.753 168.175C209.624 168.027 206.226 167.304 205.67 166.483C206.283 165.703 209.724 165.225 213.853 165.373C217.971 165.521 221.369 166.244 221.937 167.066Z" fill="#3F7ED3"/>
<path d="M223.229 165.001C223.182 166.319 218.924 167.236 213.72 167.05C208.516 166.863 204.335 165.643 204.382 164.324C204.429 163.006 208.687 162.089 213.891 162.275C219.096 162.462 223.277 163.682 223.229 165.001Z" fill="#3F7ED3"/>
<path d="M204.481 161.929L204.395 164.316L223.242 164.993L223.328 162.606L204.481 161.929Z" fill="#3F7ED3"/>
<path d="M223.315 162.613C223.268 163.931 219.01 164.849 213.806 164.662C208.601 164.476 204.421 163.255 204.469 161.937C204.516 160.619 208.773 159.701 213.977 159.888C219.182 160.075 223.362 161.295 223.315 162.613Z" fill="#3F7ED3"/>
<path opacity="0.4" d="M223.315 162.613C223.268 163.931 219.01 164.849 213.806 164.662C208.601 164.476 204.421 163.255 204.469 161.937C204.516 160.619 208.773 159.701 213.977 159.888C219.182 160.075 223.362 161.295 223.315 162.613Z" fill="white"/>
<path d="M222.12 162.479C222.117 162.555 222.08 162.647 222.021 162.706C221.454 161.885 218.055 161.161 213.938 161.014C209.809 160.865 206.368 161.343 205.754 162.123C205.7 162.059 205.67 161.965 205.672 161.888C205.704 160.996 209.409 160.389 213.954 160.552C218.489 160.715 222.152 161.586 222.12 162.479Z" fill="#3F7ED3"/>
<path opacity="0.4" d="M222.12 162.479C222.117 162.555 222.08 162.647 222.021 162.706C221.454 161.885 218.055 161.161 213.938 161.014C209.809 160.865 206.368 161.343 205.754 162.123C205.7 162.059 205.67 161.965 205.672 161.888C205.704 160.996 209.409 160.389 213.954 160.552C218.489 160.715 222.152 161.586 222.12 162.479Z" fill="#3F7ED3"/>
<path opacity="0.4" d="M222.022 162.706C221.397 163.485 217.955 163.963 213.838 163.815C209.709 163.667 206.311 162.944 205.754 162.123C206.368 161.343 209.809 160.865 213.938 161.014C218.056 161.161 221.454 161.885 222.022 162.706Z" fill="#3F7ED3"/>
<path d="M225.485 161.553C225.438 162.871 221.181 163.789 215.976 163.602C210.772 163.415 206.591 162.195 206.639 160.877C206.686 159.558 210.944 158.641 216.148 158.827C221.352 159.015 225.533 160.235 225.485 161.553Z" fill="#3F7ED3"/>
<path d="M206.726 158.471L206.64 160.858L225.487 161.533L225.573 159.146L206.726 158.471Z" fill="#3F7ED3"/>
<path d="M225.572 159.166C225.524 160.484 221.267 161.402 216.063 161.215C210.858 161.028 206.678 159.808 206.725 158.49C206.772 157.171 211.03 156.254 216.234 156.44C221.438 156.627 225.619 157.847 225.572 159.166Z" fill="#3F7ED3"/>
<path opacity="0.4" d="M225.572 159.166C225.524 160.484 221.267 161.402 216.063 161.215C210.858 161.028 206.678 159.808 206.725 158.49C206.772 157.171 211.03 156.254 216.234 156.44C221.438 156.627 225.619 157.847 225.572 159.166Z" fill="white"/>
<path d="M224.376 159.031C224.374 159.108 224.336 159.199 224.278 159.258C223.711 158.437 220.312 157.713 216.195 157.566C212.065 157.418 208.624 157.896 208.011 158.675C207.957 158.611 207.926 158.518 207.929 158.441C207.961 157.548 211.666 156.941 216.211 157.104C220.745 157.267 224.408 158.138 224.376 159.031Z" fill="#3F7ED3"/>
<path opacity="0.4" d="M224.376 159.031C224.374 159.108 224.336 159.199 224.278 159.258C223.711 158.437 220.312 157.713 216.195 157.566C212.065 157.418 208.624 157.896 208.011 158.675C207.957 158.611 207.926 158.518 207.929 158.441C207.961 157.548 211.666 156.941 216.211 157.104C220.745 157.267 224.408 158.138 224.376 159.031Z" fill="#3F7ED3"/>
<path opacity="0.4" d="M224.278 159.259C223.653 160.038 220.212 160.516 216.094 160.368C211.966 160.22 208.567 159.497 208.011 158.676C208.624 157.896 212.065 157.418 216.195 157.566C220.312 157.714 223.711 158.437 224.278 159.259Z" fill="#3F7ED3"/>
<path d="M150.638 170.157C150.583 171.475 154.754 172.723 159.958 172.944C165.161 173.165 169.424 172.276 169.479 170.958C169.535 169.64 165.363 168.392 160.16 168.171C154.958 167.949 150.695 168.839 150.638 170.157Z" fill="#3F7ED3"/>
<path d="M150.734 167.761L150.633 170.148L169.475 170.948L169.576 168.561L150.734 167.761Z" fill="#3F7ED3"/>
<path d="M150.74 167.77C150.684 169.088 154.856 170.336 160.059 170.557C165.262 170.778 169.525 169.889 169.581 168.571C169.638 167.253 165.465 166.005 160.262 165.784C155.059 165.563 150.796 166.453 150.74 167.77Z" fill="#3F7ED3"/>
<path opacity="0.4" d="M150.74 167.77C150.684 169.088 154.856 170.336 160.059 170.557C165.262 170.778 169.525 169.889 169.581 168.571C169.638 167.253 165.465 166.005 160.262 165.784C155.059 165.563 150.796 166.453 150.74 167.77Z" fill="white"/>
<path d="M151.942 167.729C151.939 167.806 151.969 167.901 152.022 167.964C152.652 167.189 156.097 166.734 160.213 166.909C164.341 167.085 167.734 167.83 168.285 168.655C168.344 168.596 168.381 168.505 168.385 168.428C168.423 167.535 164.777 166.641 160.233 166.448C155.701 166.255 151.98 166.837 151.942 167.729Z" fill="#3F7ED3"/>
<path opacity="0.4" d="M151.942 167.729C151.939 167.806 151.969 167.901 152.022 167.964C152.652 167.189 156.097 166.734 160.213 166.909C164.341 167.085 167.734 167.83 168.285 168.655C168.344 168.596 168.381 168.505 168.385 168.428C168.423 167.535 164.777 166.641 160.233 166.448C155.701 166.255 151.98 166.837 151.942 167.729Z" fill="#3F7ED3"/>
<path opacity="0.4" d="M152.022 167.964C152.584 168.79 155.978 169.535 160.094 169.71C164.222 169.886 167.666 169.431 168.285 168.656C167.734 167.83 164.34 167.085 160.212 166.91C156.097 166.734 152.652 167.189 152.022 167.964Z" fill="#3F7ED3"/>
<path d="M148.659 166.544C148.603 167.862 152.775 169.11 157.978 169.331C163.181 169.552 167.444 168.662 167.5 167.344C167.556 166.026 163.384 164.779 158.181 164.557C152.978 164.336 148.715 165.226 148.659 166.544Z" fill="#3F7ED3"/>
<path d="M148.763 164.162L148.661 166.549L167.503 167.349L167.604 164.962L148.763 164.162Z" fill="#3F7ED3"/>
<path d="M148.76 164.157C148.705 165.475 152.877 166.723 158.08 166.944C163.283 167.165 167.546 166.275 167.602 164.957C167.657 163.639 163.485 162.392 158.282 162.17C153.079 161.95 148.816 162.839 148.76 164.157Z" fill="#3F7ED3"/>
<path opacity="0.4" d="M148.76 164.157C148.705 165.475 152.877 166.723 158.08 166.944C163.283 167.165 167.546 166.275 167.602 164.957C167.657 163.639 163.485 162.392 158.282 162.17C153.079 161.95 148.816 162.839 148.76 164.157Z" fill="white"/>
<path d="M149.962 164.116C149.959 164.193 149.989 164.287 150.042 164.351C150.672 163.576 154.117 163.121 158.233 163.296C162.361 163.471 165.754 164.216 166.305 165.042C166.364 164.982 166.402 164.892 166.405 164.814C166.443 163.922 162.797 163.027 158.253 162.834C153.721 162.642 150 163.224 149.962 164.116Z" fill="#3F7ED3"/>
<path opacity="0.4" d="M149.962 164.116C149.959 164.193 149.989 164.287 150.042 164.351C150.672 163.576 154.117 163.121 158.233 163.296C162.361 163.471 165.754 164.216 166.305 165.042C166.364 164.982 166.402 164.892 166.405 164.814C166.443 163.922 162.797 163.027 158.253 162.834C153.721 162.642 150 163.224 149.962 164.116Z" fill="#3F7ED3"/>
<path opacity="0.4" d="M150.042 164.351C150.604 165.176 153.998 165.922 158.114 166.097C162.242 166.272 165.686 165.817 166.305 165.042C165.755 164.217 162.361 163.471 158.233 163.296C154.117 163.121 150.672 163.576 150.042 164.351Z" fill="#3F7ED3"/>
<path d="M148.915 162.191C148.86 163.508 153.032 164.756 158.235 164.978C163.438 165.199 167.701 164.309 167.757 162.991C167.812 161.673 163.64 160.426 158.437 160.204C153.234 159.984 148.971 160.873 148.915 162.191Z" fill="#3F7ED3"/>
<path d="M149.015 159.802L148.914 162.189L167.755 162.989L167.857 160.602L149.015 159.802Z" fill="#3F7ED3"/>
<path d="M149.017 159.804C148.961 161.122 153.133 162.37 158.336 162.591C163.539 162.812 167.802 161.922 167.858 160.604C167.914 159.286 163.742 158.039 158.539 157.818C153.336 157.597 149.073 158.486 149.017 159.804Z" fill="#3F7ED3"/>
<path opacity="0.4" d="M149.017 159.804C148.961 161.122 153.133 162.37 158.336 162.591C163.539 162.812 167.802 161.922 167.858 160.604C167.914 159.286 163.742 158.039 158.539 157.818C153.336 157.597 149.073 158.486 149.017 159.804Z" fill="white"/>
<path d="M150.219 159.763C150.215 159.84 150.245 159.934 150.299 159.997C150.928 159.222 154.373 158.767 158.489 158.942C162.617 159.118 166.011 159.863 166.562 160.688C166.621 160.629 166.658 160.538 166.662 160.461C166.699 159.568 163.053 158.673 158.509 158.48C153.977 158.289 150.256 158.871 150.219 159.763Z" fill="#3F7ED3"/>
<path opacity="0.4" d="M150.219 159.763C150.215 159.84 150.245 159.934 150.299 159.997C150.928 159.222 154.373 158.767 158.489 158.942C162.617 159.118 166.011 159.863 166.562 160.688C166.621 160.629 166.658 160.538 166.662 160.461C166.699 159.568 163.053 158.673 158.509 158.48C153.977 158.289 150.256 158.871 150.219 159.763Z" fill="#3F7ED3"/>
<path opacity="0.4" d="M150.299 159.998C150.861 160.823 154.254 161.569 158.37 161.744C162.498 161.919 165.942 161.464 166.562 160.689C166.011 159.864 162.617 159.118 158.489 158.943C154.373 158.768 150.929 159.223 150.299 159.998Z" fill="#3F7ED3"/>
<path d="M146.936 158.578C146.88 159.896 151.052 161.143 156.255 161.364C161.458 161.585 165.721 160.696 165.777 159.378C165.833 158.06 161.661 156.812 156.458 156.591C151.255 156.37 146.991 157.259 146.936 158.578Z" fill="#3F7ED3"/>
<path d="M147.044 156.199L146.942 158.586L165.784 159.387L165.885 157.001L147.044 156.199Z" fill="#3F7ED3"/>
<path d="M147.037 156.191C146.982 157.509 151.154 158.756 156.357 158.977C161.56 159.198 165.823 158.309 165.879 156.991C165.934 155.673 161.762 154.425 156.559 154.204C151.356 153.983 147.093 154.872 147.037 156.191Z" fill="#3F7ED3"/>
<path opacity="0.4" d="M147.037 156.191C146.982 157.509 151.154 158.756 156.357 158.977C161.56 159.198 165.823 158.309 165.879 156.991C165.934 155.673 161.762 154.425 156.559 154.204C151.356 153.983 147.093 154.872 147.037 156.191Z" fill="white"/>
<path d="M148.239 156.15C148.236 156.227 148.266 156.32 148.319 156.385C148.949 155.61 152.394 155.155 156.51 155.329C160.638 155.505 164.031 156.25 164.582 157.075C164.641 157.016 164.678 156.925 164.682 156.848C164.72 155.955 161.074 155.06 156.53 154.867C151.997 154.675 148.277 155.257 148.239 156.15Z" fill="#3F7ED3"/>
<path opacity="0.4" d="M148.239 156.15C148.236 156.227 148.266 156.32 148.319 156.385C148.949 155.61 152.394 155.155 156.51 155.329C160.638 155.505 164.031 156.25 164.582 157.075C164.641 157.016 164.678 156.925 164.682 156.848C164.72 155.955 161.074 155.06 156.53 154.867C151.997 154.675 148.277 155.257 148.239 156.15Z" fill="#3F7ED3"/>
<path opacity="0.4" d="M148.319 156.385C148.881 157.21 152.274 157.956 156.391 158.131C160.519 158.306 163.963 157.851 164.583 157.076C164.032 156.251 160.638 155.505 156.51 155.33C152.394 155.155 148.949 155.61 148.319 156.385Z" fill="#3F7ED3"/>
<path d="M149.958 155.515C149.902 156.832 154.075 158.08 159.277 158.301C164.48 158.522 168.744 157.633 168.799 156.315C168.855 154.996 164.683 153.749 159.48 153.528C154.278 153.307 150.015 154.197 149.958 155.515Z" fill="#3F7ED3"/>
<path d="M150.058 153.126L149.957 155.513L168.799 156.312L168.9 153.925L150.058 153.126Z" fill="#3F7ED3"/>
<path d="M150.06 153.128C150.004 154.446 154.176 155.694 159.379 155.915C164.582 156.135 168.845 155.246 168.901 153.928C168.957 152.61 164.785 151.363 159.582 151.142C154.379 150.921 150.116 151.81 150.06 153.128Z" fill="#3F7ED3"/>
<path opacity="0.4" d="M150.06 153.128C150.004 154.446 154.176 155.694 159.379 155.915C164.582 156.135 168.845 155.246 168.901 153.928C168.957 152.61 164.785 151.363 159.582 151.142C154.379 150.921 150.116 151.81 150.06 153.128Z" fill="white"/>
<path d="M151.262 153.087C151.259 153.164 151.289 153.258 151.342 153.322C151.972 152.547 155.417 152.092 159.533 152.267C163.661 152.442 167.054 153.187 167.605 154.012C167.664 153.953 167.702 153.862 167.705 153.785C167.743 152.893 164.097 151.997 159.553 151.805C155.02 151.612 151.3 152.195 151.262 153.087Z" fill="#3F7ED3"/>
<path opacity="0.4" d="M151.262 153.087C151.259 153.164 151.289 153.258 151.342 153.322C151.972 152.547 155.417 152.092 159.533 152.267C163.661 152.442 167.054 153.187 167.605 154.012C167.664 153.953 167.702 153.862 167.705 153.785C167.743 152.893 164.097 151.997 159.553 151.805C155.02 151.612 151.3 152.195 151.262 153.087Z" fill="#3F7ED3"/>
<path opacity="0.4" d="M151.342 153.322C151.904 154.147 155.298 154.893 159.414 155.068C163.542 155.243 166.986 154.788 167.605 154.013C167.054 153.188 163.66 152.443 159.532 152.267C155.417 152.092 151.972 152.547 151.342 153.322Z" fill="#3F7ED3"/>
<path d="M147.979 151.901C147.923 153.219 152.095 154.467 157.298 154.688C162.501 154.909 166.765 154.02 166.82 152.702C166.876 151.384 162.704 150.136 157.501 149.915C152.298 149.694 148.035 150.583 147.979 151.901Z" fill="#3F7ED3"/>
<path d="M148.075 149.506L147.974 151.893L166.815 152.692L166.917 150.305L148.075 149.506Z" fill="#3F7ED3"/>
<path d="M148.08 149.514C148.024 150.833 152.196 152.081 157.399 152.301C162.602 152.522 166.866 151.633 166.921 150.315C166.977 148.997 162.805 147.749 157.602 147.528C152.399 147.307 148.136 148.196 148.08 149.514Z" fill="#3F7ED3"/>
<path opacity="0.4" d="M148.08 149.514C148.024 150.833 152.196 152.081 157.399 152.301C162.602 152.522 166.866 151.633 166.921 150.315C166.977 148.997 162.805 147.749 157.602 147.528C152.399 147.307 148.136 148.196 148.08 149.514Z" fill="white"/>
<path d="M149.282 149.473C149.279 149.55 149.309 149.644 149.362 149.708C149.992 148.933 153.437 148.478 157.553 148.653C161.681 148.828 165.074 149.573 165.626 150.399C165.684 150.339 165.722 150.249 165.725 150.172C165.763 149.279 162.117 148.384 157.573 148.191C153.041 147.999 149.32 148.581 149.282 149.473Z" fill="#3F7ED3"/>
<path opacity="0.4" d="M149.282 149.473C149.279 149.55 149.309 149.644 149.362 149.708C149.992 148.933 153.437 148.478 157.553 148.653C161.681 148.828 165.074 149.573 165.626 150.399C165.684 150.339 165.722 150.249 165.725 150.172C165.763 149.279 162.117 148.384 157.573 148.191C153.041 147.999 149.32 148.581 149.282 149.473Z" fill="#3F7ED3"/>
<path opacity="0.4" d="M149.362 149.708C149.925 150.533 153.318 151.279 157.434 151.454C161.562 151.629 165.006 151.174 165.626 150.399C165.074 149.574 161.681 148.829 157.553 148.653C153.437 148.478 149.992 148.933 149.362 149.708Z" fill="#3F7ED3"/>
<path d="M168.792 149.336C168.848 150.654 164.676 151.901 159.473 152.123C154.27 152.343 150.007 151.454 149.951 150.136C149.895 148.818 154.067 147.571 159.27 147.349C164.473 147.129 168.736 148.018 168.792 149.336Z" fill="#3F7ED3"/>
<path d="M168.683 146.955L149.841 147.755L149.942 150.141L168.784 149.342L168.683 146.955Z" fill="#3F7ED3"/>
<path d="M168.691 146.949C168.746 148.267 164.574 149.514 159.371 149.736C154.168 149.956 149.905 149.067 149.849 147.749C149.794 146.431 153.966 145.184 159.169 144.963C164.371 144.742 168.634 145.631 168.691 146.949Z" fill="#3F7ED3"/>
<path opacity="0.4" d="M168.691 146.949C168.746 148.267 164.574 149.514 159.371 149.736C154.168 149.956 149.905 149.067 149.849 147.749C149.794 146.431 153.966 145.184 159.169 144.963C164.371 144.742 168.634 145.631 168.691 146.949Z" fill="white"/>
<path d="M167.489 146.908C167.492 146.985 167.462 147.079 167.409 147.143C166.779 146.368 163.334 145.913 159.218 146.088C155.09 146.263 151.697 147.008 151.145 147.834C151.087 147.774 151.049 147.684 151.046 147.606C151.008 146.714 154.654 145.819 159.198 145.626C163.73 145.434 167.451 146.016 167.489 146.908Z" fill="#3F7ED3"/>
<path opacity="0.4" d="M167.489 146.908C167.492 146.985 167.462 147.079 167.409 147.143C166.779 146.368 163.334 145.913 159.218 146.088C155.09 146.263 151.697 147.008 151.145 147.834C151.087 147.774 151.049 147.684 151.046 147.606C151.008 146.714 154.654 145.819 159.198 145.626C163.73 145.434 167.451 146.016 167.489 146.908Z" fill="#3F7ED3"/>
<path opacity="0.4" d="M167.409 147.143C166.846 147.968 163.453 148.714 159.336 148.889C155.208 149.064 151.764 148.609 151.145 147.834C151.697 147.009 155.09 146.264 159.218 146.088C163.334 145.913 166.779 146.368 167.409 147.143Z" fill="#3F7ED3"/>
<path d="M170.772 145.722C170.827 147.041 166.655 148.288 161.452 148.509C156.249 148.73 151.986 147.841 151.93 146.523C151.875 145.205 156.047 143.957 161.25 143.736C166.453 143.515 170.716 144.404 170.772 145.722Z" fill="#3F7ED3"/>
<path d="M170.674 143.333L151.832 144.133L151.933 146.519L170.775 145.72L170.674 143.333Z" fill="#3F7ED3"/>
<path d="M170.671 143.335C170.726 144.654 166.554 145.902 161.351 146.122C156.148 146.343 151.885 145.454 151.829 144.136C151.774 142.818 155.946 141.57 161.149 141.349C166.351 141.128 170.614 142.017 170.671 143.335Z" fill="#3F7ED3"/>
<path opacity="0.4" d="M170.671 143.335C170.726 144.654 166.554 145.902 161.351 146.122C156.148 146.343 151.885 145.454 151.829 144.136C151.774 142.818 155.946 141.57 161.149 141.349C166.351 141.128 170.614 142.017 170.671 143.335Z" fill="white"/>
<path d="M169.468 143.295C169.471 143.371 169.442 143.465 169.388 143.529C168.758 142.754 165.314 142.299 161.198 142.474C157.07 142.649 153.676 143.394 153.125 144.22C153.066 144.16 153.029 144.07 153.025 143.992C152.987 143.099 156.634 142.205 161.178 142.012C165.71 141.82 169.43 142.402 169.468 143.295Z" fill="#3F7ED3"/>
<path opacity="0.4" d="M169.468 143.295C169.471 143.371 169.442 143.465 169.388 143.529C168.758 142.754 165.314 142.299 161.198 142.474C157.07 142.649 153.676 143.394 153.125 144.22C153.066 144.16 153.029 144.07 153.025 143.992C152.987 143.099 156.634 142.205 161.178 142.012C165.71 141.82 169.43 142.402 169.468 143.295Z" fill="#3F7ED3"/>
<path opacity="0.4" d="M169.388 143.53C168.827 144.355 165.433 145.101 161.317 145.275C157.189 145.451 153.745 144.996 153.126 144.221C153.676 143.396 157.07 142.65 161.198 142.475C165.314 142.299 168.758 142.755 169.388 143.53Z" fill="#3F7ED3"/>
<path d="M170.516 141.369C170.571 142.688 166.399 143.935 161.196 144.156C155.993 144.377 151.73 143.488 151.674 142.17C151.619 140.852 155.79 139.604 160.994 139.383C166.196 139.162 170.459 140.051 170.516 141.369Z" fill="#3F7ED3"/>
<path d="M170.412 138.985L151.57 139.784L151.672 142.171L170.513 141.371L170.412 138.985Z" fill="#3F7ED3"/>
<path d="M170.414 138.983C170.47 140.301 166.298 141.549 161.095 141.77C155.892 141.991 151.629 141.102 151.573 139.784C151.517 138.465 155.689 137.218 160.892 136.997C166.095 136.775 170.358 137.665 170.414 138.983Z" fill="#3F7ED3"/>
<path opacity="0.4" d="M170.414 138.983C170.47 140.301 166.298 141.549 161.095 141.77C155.892 141.991 151.629 141.102 151.573 139.784C151.517 138.465 155.689 137.218 160.892 136.997C166.095 136.775 170.358 137.665 170.414 138.983Z" fill="white"/>
<path d="M169.212 138.942C169.215 139.018 169.186 139.112 169.132 139.177C168.502 138.402 165.058 137.946 160.941 138.121C156.814 138.297 153.42 139.042 152.869 139.867C152.81 139.808 152.772 139.717 152.769 139.64C152.731 138.747 156.378 137.852 160.922 137.659C165.454 137.467 169.174 138.049 169.212 138.942Z" fill="#3F7ED3"/>
<path opacity="0.4" d="M169.212 138.942C169.215 139.018 169.186 139.112 169.132 139.177C168.502 138.402 165.058 137.946 160.941 138.121C156.814 138.297 153.42 139.042 152.869 139.867C152.81 139.808 152.772 139.717 152.769 139.64C152.731 138.747 156.378 137.852 160.922 137.659C165.454 137.467 169.174 138.049 169.212 138.942Z" fill="#3F7ED3"/>
<path opacity="0.4" d="M169.132 139.177C168.57 140.002 165.176 140.748 161.06 140.922C156.932 141.098 153.488 140.643 152.868 139.868C153.419 139.043 156.813 138.297 160.941 138.122C165.057 137.946 168.502 138.402 169.132 139.177Z" fill="#3F7ED3"/>
<path d="M172.495 137.756C172.551 139.074 168.379 140.322 163.176 140.543C157.973 140.764 153.71 139.875 153.654 138.557C153.598 137.238 157.77 135.991 162.973 135.77C168.176 135.548 172.439 136.438 172.495 137.756Z" fill="#3F7ED3"/>
<path d="M172.403 135.363L153.561 136.164L153.663 138.551L172.504 137.749L172.403 135.363Z" fill="#3F7ED3"/>
<path d="M172.393 135.369C172.449 136.687 168.277 137.935 163.074 138.156C157.871 138.377 153.608 137.488 153.552 136.17C153.497 134.851 157.668 133.604 162.872 133.383C168.075 133.162 172.338 134.051 172.393 135.369Z" fill="#3F7ED3"/>
<path opacity="0.4" d="M172.393 135.369C172.449 136.687 168.277 137.935 163.074 138.156C157.871 138.377 153.608 137.488 153.552 136.17C153.497 134.851 157.668 133.604 162.872 133.383C168.075 133.162 172.338 134.051 172.393 135.369Z" fill="white"/>
<path d="M171.192 135.328C171.195 135.406 171.165 135.499 171.112 135.563C170.482 134.788 167.037 134.333 162.921 134.508C158.793 134.683 155.4 135.429 154.849 136.254C154.79 136.194 154.753 136.104 154.749 136.026C154.711 135.134 158.357 134.239 162.901 134.046C167.433 133.854 171.154 134.436 171.192 135.328Z" fill="#3F7ED3"/>
<path opacity="0.4" d="M171.192 135.328C171.195 135.406 171.165 135.499 171.112 135.563C170.482 134.788 167.037 134.333 162.921 134.508C158.793 134.683 155.4 135.429 154.849 136.254C154.79 136.194 154.753 136.104 154.749 136.026C154.711 135.134 158.357 134.239 162.901 134.046C167.433 133.854 171.154 134.436 171.192 135.328Z" fill="#3F7ED3"/>
<path opacity="0.4" d="M171.112 135.563C170.55 136.389 167.156 137.134 163.04 137.309C158.912 137.485 155.467 137.029 154.848 136.254C155.399 135.429 158.793 134.684 162.92 134.509C167.037 134.333 170.481 134.788 171.112 135.563Z" fill="#3F7ED3"/>
<path d="M169.472 134.693C169.528 136.011 165.355 137.259 160.153 137.48C154.95 137.7 150.687 136.811 150.631 135.493C150.575 134.175 154.747 132.927 159.95 132.706C165.153 132.485 169.416 133.375 169.472 134.693Z" fill="#3F7ED3"/>
<path d="M169.374 132.304L150.533 133.103L150.634 135.49L169.476 134.69L169.374 132.304Z" fill="#3F7ED3"/>
<path d="M169.371 132.306C169.427 133.624 165.255 134.872 160.052 135.093C154.849 135.314 150.586 134.425 150.53 133.107C150.474 131.789 154.646 130.541 159.849 130.32C165.051 130.099 169.315 130.988 169.371 132.306Z" fill="#3F7ED3"/>
<path opacity="0.4" d="M169.371 132.306C169.427 133.624 165.255 134.872 160.052 135.093C154.849 135.314 150.586 134.425 150.53 133.107C150.474 131.789 154.646 130.541 159.849 130.32C165.051 130.099 169.315 130.988 169.371 132.306Z" fill="white"/>
<path d="M168.169 132.265C168.172 132.342 168.142 132.437 168.089 132.5C167.459 131.725 164.014 131.27 159.898 131.445C155.77 131.621 152.377 132.366 151.826 133.191C151.767 133.132 151.729 133.041 151.726 132.964C151.688 132.071 155.334 131.177 159.878 130.984C164.41 130.791 168.131 131.373 168.169 132.265Z" fill="#3F7ED3"/>
<path opacity="0.4" d="M168.169 132.265C168.172 132.342 168.142 132.437 168.089 132.5C167.459 131.725 164.014 131.27 159.898 131.445C155.77 131.621 152.377 132.366 151.826 133.191C151.767 133.132 151.729 133.041 151.726 132.964C151.688 132.071 155.334 131.177 159.878 130.984C164.41 130.791 168.131 131.373 168.169 132.265Z" fill="#3F7ED3"/>
<path opacity="0.4" d="M168.089 132.5C167.527 133.326 164.133 134.071 160.017 134.246C155.889 134.422 152.445 133.967 151.826 133.191C152.376 132.366 155.769 131.621 159.898 131.445C164.014 131.27 167.459 131.725 168.089 132.5Z" fill="#3F7ED3"/>
<path d="M171.452 131.079C171.508 132.397 167.336 133.645 162.132 133.866C156.929 134.087 152.666 133.198 152.611 131.88C152.555 130.562 156.727 129.314 161.93 129.093C167.133 128.872 171.396 129.762 171.452 131.079Z" fill="#3F7ED3"/>
<path d="M171.343 128.699L152.501 129.499L152.603 131.886L171.444 131.086L171.343 128.699Z" fill="#3F7ED3"/>
<path d="M171.35 128.693C171.406 130.011 167.234 131.259 162.031 131.48C156.827 131.701 152.564 130.811 152.509 129.493C152.453 128.175 156.625 126.928 161.828 126.706C167.031 126.486 171.294 127.375 171.35 128.693Z" fill="#3F7ED3"/>
<path opacity="0.4" d="M171.35 128.693C171.406 130.011 167.234 131.259 162.031 131.48C156.827 131.701 152.564 130.811 152.509 129.493C152.453 128.175 156.625 126.928 161.828 126.706C167.031 126.486 171.294 127.375 171.35 128.693Z" fill="white"/>
<path d="M170.148 128.652C170.152 128.73 170.122 128.823 170.068 128.887C169.439 128.112 165.994 127.657 161.878 127.832C157.75 128.007 154.356 128.752 153.805 129.578C153.746 129.518 153.709 129.428 153.705 129.35C153.668 128.458 157.314 127.563 161.858 127.37C166.39 127.178 170.111 127.76 170.148 128.652Z" fill="#3F7ED3"/>
<path opacity="0.4" d="M170.148 128.652C170.152 128.73 170.122 128.823 170.068 128.887C169.439 128.112 165.994 127.657 161.878 127.832C157.75 128.007 154.356 128.752 153.805 129.578C153.746 129.518 153.709 129.428 153.705 129.35C153.668 128.458 157.314 127.563 161.858 127.37C166.39 127.178 170.111 127.76 170.148 128.652Z" fill="#3F7ED3"/>
<path opacity="0.4" d="M170.068 128.887C169.506 129.712 166.113 130.458 161.997 130.633C157.869 130.808 154.425 130.353 153.806 129.578C154.357 128.753 157.75 128.007 161.878 127.832C165.994 127.657 169.439 128.112 170.068 128.887Z" fill="#3F7ED3"/>
<path d="M163.61 128.351C168.004 126.703 170.23 121.806 168.582 117.413C166.935 113.019 162.037 110.793 157.644 112.44C153.25 114.088 151.024 118.985 152.672 123.379C154.319 127.772 159.216 129.999 163.61 128.351Z" fill="#3F7ED3"/>
<path d="M169.293 124.346C167.352 128.618 162.314 130.506 158.042 128.565C153.771 126.623 151.882 121.585 153.824 117.313C155.766 113.042 160.803 111.153 165.075 113.095C169.347 115.037 171.235 120.074 169.293 124.346Z" fill="#3F7ED3"/>
<path opacity="0.4" d="M169.293 124.346C167.352 128.618 162.314 130.506 158.042 128.565C153.771 126.623 151.882 121.585 153.824 117.313C155.766 113.042 160.803 111.153 165.075 113.095C169.347 115.037 171.235 120.074 169.293 124.346Z" fill="white"/>
<path d="M167.347 123.461C165.893 126.657 162.124 128.071 158.927 126.618C155.73 125.165 154.317 121.395 155.77 118.198C157.223 115.001 160.993 113.588 164.19 115.041C167.387 116.494 168.8 120.264 167.347 123.461Z" fill="#3F7ED3"/>
<path d="M241.614 168.923C241.421 169.695 238.791 169.703 235.74 168.939C232.689 168.175 230.373 166.929 230.567 166.156C230.76 165.384 233.39 165.376 236.441 166.14C239.492 166.904 241.807 168.15 241.614 168.923Z" fill="#3F7ED3"/>
<path d="M230.901 164.763L230.55 166.163L241.597 168.929L241.947 167.529L230.901 164.763Z" fill="#3F7ED3"/>
<path d="M241.965 167.524C241.771 168.296 239.141 168.304 236.09 167.54C233.04 166.776 230.724 165.53 230.917 164.757C231.111 163.985 233.741 163.977 236.791 164.741C239.842 165.505 242.158 166.75 241.965 167.524Z" fill="#3F7ED3"/>
<path opacity="0.4" d="M241.965 167.524C241.771 168.296 239.141 168.304 236.09 167.54C233.04 166.776 230.724 165.53 230.917 164.757C231.111 163.985 233.741 163.977 236.791 164.741C239.842 165.505 242.158 166.75 241.965 167.524Z" fill="white"/>
<path d="M241.275 167.294C241.264 167.339 241.231 167.388 241.189 167.416C240.957 166.859 239.04 166.005 236.627 165.401C234.206 164.795 232.114 164.645 231.653 165.028C231.629 164.983 231.623 164.925 231.634 164.879C231.765 164.356 234.03 164.463 236.694 165.13C239.352 165.796 241.407 166.77 241.275 167.294Z" fill="#3F7ED3"/>
<path opacity="0.4" d="M241.275 167.294C241.264 167.339 241.231 167.388 241.189 167.416C240.957 166.859 239.04 166.005 236.627 165.401C234.206 164.795 232.114 164.645 231.653 165.028C231.629 164.983 231.623 164.925 231.634 164.879C231.765 164.356 234.03 164.463 236.694 165.13C239.352 165.796 241.407 166.77 241.275 167.294Z" fill="#3F7ED3"/>
<path opacity="0.4" d="M241.189 167.416C240.722 167.798 238.629 167.648 236.216 167.043C233.795 166.437 231.879 165.583 231.654 165.028C232.114 164.645 234.207 164.795 236.627 165.401C239.04 166.005 240.957 166.86 241.189 167.416Z" fill="#3F7ED3"/>
<path d="M246.922 171.462C246.957 172.259 244.437 173.012 241.295 173.145C238.153 173.278 235.578 172.741 235.545 171.945C235.511 171.149 238.03 170.396 241.173 170.263C244.314 170.129 246.888 170.667 246.922 171.462Z" fill="#3F7ED3"/>
<path d="M246.871 170.012L235.493 170.496L235.554 171.937L246.932 171.453L246.871 170.012Z" fill="#3F7ED3"/>
<path d="M246.861 170.022C246.895 170.818 244.375 171.571 241.233 171.704C238.091 171.838 235.517 171.301 235.483 170.505C235.449 169.708 237.969 168.955 241.111 168.822C244.253 168.689 246.827 169.225 246.861 170.022Z" fill="#3F7ED3"/>
<path opacity="0.4" d="M246.861 170.022C246.895 170.818 244.375 171.571 241.233 171.704C238.091 171.838 235.517 171.301 235.483 170.505C235.449 169.708 237.969 168.955 241.111 168.822C244.253 168.689 246.827 169.225 246.861 170.022Z" fill="white"/>
<path d="M246.135 169.997C246.137 170.043 246.119 170.1 246.087 170.138C245.706 169.67 243.626 169.395 241.14 169.501C238.647 169.607 236.598 170.057 236.266 170.555C236.231 170.519 236.208 170.465 236.206 170.418C236.183 169.88 238.385 169.339 241.129 169.222C243.865 169.106 246.112 169.457 246.135 169.997Z" fill="#3F7ED3"/>
<path opacity="0.4" d="M246.135 169.997C246.137 170.043 246.119 170.1 246.087 170.138C245.706 169.67 243.626 169.395 241.14 169.501C238.647 169.607 236.598 170.057 236.266 170.555C236.231 170.519 236.208 170.465 236.206 170.418C236.183 169.88 238.385 169.339 241.129 169.222C243.865 169.106 246.112 169.457 246.135 169.997Z" fill="#3F7ED3"/>
<path opacity="0.4" d="M246.087 170.138C245.747 170.637 243.698 171.087 241.212 171.192C238.719 171.298 236.64 171.023 236.266 170.555C236.599 170.057 238.648 169.607 241.14 169.501C243.626 169.396 245.707 169.671 246.087 170.138Z" fill="#3F7ED3"/>
<path d="M240.181 169.648C237.058 173.151 231.687 173.459 228.184 170.336C224.682 167.214 224.374 161.843 227.497 158.34C230.62 154.838 235.99 154.53 239.493 157.652C242.995 160.775 243.303 166.146 240.181 169.648Z" fill="#3F7ED3"/>
<path d="M240.941 170.327C237.818 173.83 232.448 174.138 228.945 171.015C225.443 167.892 225.134 162.521 228.257 159.018C231.38 155.516 236.751 155.208 240.254 158.331C243.756 161.453 244.064 166.824 240.941 170.327Z" fill="#3F7ED3"/>
<path opacity="0.4" d="M240.941 170.327C237.818 173.83 232.448 174.138 228.945 171.015C225.443 167.892 225.134 162.521 228.257 159.018C231.38 155.516 236.751 155.208 240.254 158.331C243.756 161.453 244.064 166.824 240.941 170.327Z" fill="white"/>
<path d="M239.345 168.904C237.009 171.526 232.989 171.756 230.368 169.419C227.747 167.082 227.516 163.063 229.854 160.442C232.191 157.821 236.21 157.591 238.831 159.927C241.452 162.263 241.682 166.283 239.345 168.904Z" fill="#3F7ED3"/>
<path d="M129.444 172.251C129.41 173.047 131.93 173.8 135.072 173.934C138.214 174.067 140.788 173.53 140.822 172.734C140.856 171.938 138.337 171.185 135.195 171.051C132.053 170.918 129.478 171.456 129.444 172.251Z" fill="#3F7ED3"/>
<path d="M129.508 170.816L129.447 172.257L140.825 172.74L140.886 171.299L129.508 170.816Z" fill="#3F7ED3"/>
<path d="M129.506 170.81C129.472 171.606 131.991 172.36 135.133 172.493C138.276 172.626 140.85 172.089 140.883 171.293C140.917 170.497 138.398 169.744 135.255 169.61C132.114 169.477 129.539 170.014 129.506 170.81Z" fill="#3F7ED3"/>
<path opacity="0.4" d="M129.506 170.81C129.472 171.606 131.991 172.36 135.133 172.493C138.276 172.626 140.85 172.089 140.883 171.293C140.917 170.497 138.398 169.744 135.255 169.61C132.114 169.477 129.539 170.014 129.506 170.81Z" fill="white"/>
<path d="M130.231 170.785C130.229 170.832 130.247 170.888 130.279 170.927C130.66 170.459 132.74 170.185 135.226 170.29C137.719 170.396 139.768 170.846 140.1 171.345C140.135 171.309 140.158 171.254 140.16 171.208C140.183 170.669 137.981 170.128 135.237 170.012C132.501 169.895 130.254 170.247 130.231 170.785Z" fill="#3F7ED3"/>
<path opacity="0.4" d="M130.231 170.785C130.229 170.832 130.247 170.888 130.279 170.927C130.66 170.459 132.74 170.185 135.226 170.29C137.719 170.396 139.768 170.846 140.1 171.345C140.135 171.309 140.158 171.254 140.16 171.208C140.183 170.669 137.981 170.128 135.237 170.012C132.501 169.895 130.254 170.247 130.231 170.785Z" fill="#3F7ED3"/>
<path opacity="0.4" d="M130.279 170.927C130.619 171.426 132.668 171.876 135.154 171.982C137.647 172.088 139.726 171.813 140.1 171.345C139.768 170.847 137.718 170.397 135.226 170.291C132.74 170.185 130.66 170.459 130.279 170.927Z" fill="#3F7ED3"/>
<path d="M128.249 170.069C128.215 170.865 130.734 171.619 133.877 171.752C137.019 171.885 139.593 171.348 139.626 170.552C139.661 169.756 137.141 169.003 133.999 168.87C130.857 168.736 128.282 169.273 128.249 170.069Z" fill="#3F7ED3"/>
<path d="M128.315 168.637L128.254 170.079L139.632 170.563L139.693 169.121L128.315 168.637Z" fill="#3F7ED3"/>
<path d="M128.31 168.628C128.276 169.424 130.796 170.177 133.937 170.31C137.08 170.444 139.654 169.907 139.687 169.111C139.721 168.315 137.202 167.561 134.06 167.428C130.918 167.295 128.344 167.832 128.31 168.628Z" fill="#3F7ED3"/>
<path opacity="0.4" d="M128.31 168.628C128.276 169.424 130.796 170.177 133.937 170.31C137.08 170.444 139.654 169.907 139.687 169.111C139.721 168.315 137.202 167.561 134.06 167.428C130.918 167.295 128.344 167.832 128.31 168.628Z" fill="white"/>
<path d="M129.036 168.603C129.034 168.649 129.052 168.706 129.084 168.745C129.465 168.277 131.545 168.002 134.03 168.108C136.523 168.214 138.572 168.664 138.905 169.162C138.94 169.126 138.963 169.072 138.965 169.025C138.988 168.486 136.786 167.946 134.042 167.829C131.305 167.713 129.059 168.064 129.036 168.603Z" fill="#3F7ED3"/>
<path opacity="0.4" d="M129.036 168.603C129.034 168.649 129.052 168.706 129.084 168.745C129.465 168.277 131.545 168.002 134.03 168.108C136.523 168.214 138.572 168.664 138.905 169.162C138.94 169.126 138.963 169.072 138.965 169.025C138.988 168.486 136.786 167.946 134.042 167.829C131.305 167.713 129.059 168.064 129.036 168.603Z" fill="#3F7ED3"/>
<path opacity="0.4" d="M129.084 168.745C129.424 169.243 131.473 169.694 133.958 169.799C136.451 169.905 138.531 169.63 138.905 169.162C138.572 168.664 136.523 168.214 134.03 168.108C131.545 168.002 129.465 168.277 129.084 168.745Z" fill="#3F7ED3"/>
<path d="M128.403 167.44C128.37 168.237 130.889 168.99 134.031 169.123C137.173 169.256 139.747 168.72 139.781 167.923C139.816 167.127 137.296 166.374 134.154 166.241C131.012 166.107 128.437 166.644 128.403 167.44Z" fill="#3F7ED3"/>
<path d="M128.47 166.008L128.409 167.449L139.786 167.933L139.848 166.492L128.47 166.008Z" fill="#3F7ED3"/>
<path d="M128.465 165.999C128.431 166.795 130.95 167.548 134.092 167.682C137.235 167.816 139.809 167.279 139.842 166.483C139.876 165.686 137.357 164.933 134.215 164.8C131.073 164.667 128.499 165.204 128.465 165.999Z" fill="#3F7ED3"/>
<path opacity="0.4" d="M128.465 165.999C128.431 166.795 130.95 167.548 134.092 167.682C137.235 167.816 139.809 167.279 139.842 166.483C139.876 165.686 137.357 164.933 134.215 164.8C131.073 164.667 128.499 165.204 128.465 165.999Z" fill="white"/>
<path d="M129.191 165.975C129.189 166.021 129.207 166.078 129.239 166.117C129.62 165.649 131.7 165.374 134.185 165.479C136.678 165.585 138.727 166.036 139.06 166.534C139.096 166.498 139.119 166.444 139.121 166.397C139.143 165.858 136.941 165.318 134.198 165.201C131.46 165.084 129.213 165.435 129.191 165.975Z" fill="#3F7ED3"/>
<path opacity="0.4" d="M129.191 165.975C129.189 166.021 129.207 166.078 129.239 166.117C129.62 165.649 131.7 165.374 134.185 165.479C136.678 165.585 138.727 166.036 139.06 166.534C139.096 166.498 139.119 166.444 139.121 166.397C139.143 165.858 136.941 165.318 134.198 165.201C131.46 165.084 129.213 165.435 129.191 165.975Z" fill="#3F7ED3"/>
<path opacity="0.4" d="M129.239 166.116C129.579 166.615 131.628 167.065 134.113 167.17C136.606 167.276 138.686 167.001 139.06 166.533C138.727 166.035 136.678 165.585 134.185 165.479C131.699 165.373 129.619 165.649 129.239 166.116Z" fill="#3F7ED3"/>
<path d="M127.208 165.259C127.174 166.055 129.694 166.808 132.836 166.941C135.978 167.075 138.552 166.538 138.586 165.742C138.62 164.946 136.101 164.192 132.958 164.059C129.816 163.925 127.242 164.463 127.208 165.259Z" fill="#3F7ED3"/>
<path d="M127.267 163.812L127.205 165.253L138.583 165.736L138.644 164.295L127.267 163.812Z" fill="#3F7ED3"/>
<path d="M127.269 163.817C127.236 164.613 129.755 165.367 132.897 165.5C136.039 165.633 138.613 165.096 138.647 164.3C138.681 163.504 136.161 162.751 133.019 162.617C129.878 162.484 127.303 163.021 127.269 163.817Z" fill="#3F7ED3"/>
<path opacity="0.4" d="M127.269 163.817C127.236 164.613 129.755 165.367 132.897 165.5C136.039 165.633 138.613 165.096 138.647 164.3C138.681 163.504 136.161 162.751 133.019 162.617C129.878 162.484 127.303 163.021 127.269 163.817Z" fill="white"/>
<path d="M127.995 163.792C127.993 163.839 128.011 163.895 128.043 163.934C128.424 163.466 130.504 163.192 132.989 163.297C135.482 163.403 137.531 163.853 137.864 164.352C137.899 164.316 137.922 164.261 137.924 164.215C137.947 163.676 135.745 163.135 133.001 163.019C130.264 162.902 128.018 163.254 127.995 163.792Z" fill="#3F7ED3"/>
<path opacity="0.4" d="M127.995 163.792C127.993 163.839 128.011 163.895 128.043 163.934C128.424 163.466 130.504 163.192 132.989 163.297C135.482 163.403 137.531 163.853 137.864 164.352C137.899 164.316 137.922 164.261 137.924 164.215C137.947 163.676 135.745 163.135 133.001 163.019C130.264 162.902 128.018 163.254 127.995 163.792Z" fill="#3F7ED3"/>
<path opacity="0.4" d="M128.043 163.934C128.382 164.433 130.432 164.883 132.917 164.989C135.41 165.095 137.49 164.82 137.864 164.352C137.531 163.854 135.482 163.404 132.989 163.298C130.504 163.192 128.424 163.466 128.043 163.934Z" fill="#3F7ED3"/>
<path d="M129.033 163.409C129 164.205 131.519 164.958 134.661 165.091C137.803 165.225 140.377 164.688 140.411 163.892C140.445 163.096 137.926 162.342 134.784 162.209C131.642 162.076 129.067 162.613 129.033 163.409Z" fill="#3F7ED3"/>
<path d="M129.1 161.976L129.039 163.418L140.417 163.902L140.478 162.46L129.1 161.976Z" fill="#3F7ED3"/>
<path d="M129.095 161.968C129.06 162.764 131.58 163.517 134.722 163.65C137.864 163.784 140.439 163.247 140.472 162.451C140.506 161.655 137.987 160.901 134.844 160.768C131.703 160.635 129.129 161.172 129.095 161.968Z" fill="#3F7ED3"/>
<path opacity="0.4" d="M129.095 161.968C129.06 162.764 131.58 163.517 134.722 163.65C137.864 163.784 140.439 163.247 140.472 162.451C140.506 161.655 137.987 160.901 134.844 160.768C131.703 160.635 129.129 161.172 129.095 161.968Z" fill="white"/>
<path d="M129.821 161.943C129.819 161.989 129.837 162.046 129.869 162.085C130.25 161.617 132.33 161.342 134.815 161.448C137.308 161.554 139.357 162.004 139.69 162.502C139.725 162.466 139.748 162.412 139.75 162.365C139.773 161.826 137.571 161.286 134.827 161.169C132.09 161.053 129.843 161.404 129.821 161.943Z" fill="#3F7ED3"/>
<path opacity="0.4" d="M129.821 161.943C129.819 161.989 129.837 162.046 129.869 162.085C130.25 161.617 132.33 161.342 134.815 161.448C137.308 161.554 139.357 162.004 139.69 162.502C139.725 162.466 139.748 162.412 139.75 162.365C139.773 161.826 137.571 161.286 134.827 161.169C132.09 161.053 129.843 161.404 129.821 161.943Z" fill="#3F7ED3"/>
<path opacity="0.4" d="M129.869 162.085C130.209 162.583 132.258 163.033 134.743 163.139C137.236 163.245 139.316 162.97 139.69 162.502C139.357 162.004 137.308 161.554 134.815 161.448C132.329 161.342 130.249 161.617 129.869 162.085Z" fill="#3F7ED3"/>
<path d="M121.013 172.125C121.206 172.897 123.836 172.905 126.887 172.141C129.937 171.377 132.253 170.131 132.06 169.358C131.867 168.586 129.237 168.578 126.186 169.342C123.135 170.106 120.819 171.352 121.013 172.125Z" fill="#3F7ED3"/>
<path d="M131.698 167.95L120.652 170.716L121.002 172.116L132.049 169.35L131.698 167.95Z" fill="#3F7ED3"/>
<path d="M120.663 170.725C120.856 171.498 123.486 171.505 126.536 170.741C129.587 169.978 131.903 168.732 131.71 167.959C131.516 167.186 128.886 167.179 125.836 167.943C122.785 168.707 120.469 169.953 120.663 170.725Z" fill="#3F7ED3"/>
<path opacity="0.4" d="M120.663 170.725C120.856 171.498 123.486 171.505 126.536 170.741C129.587 169.978 131.903 168.732 131.71 167.959C131.516 167.186 128.886 167.179 125.836 167.943C122.785 168.707 120.469 169.953 120.663 170.725Z" fill="white"/>
<path d="M121.351 170.496C121.363 170.541 121.396 170.59 121.438 170.618C121.67 170.061 123.586 169.207 126 168.603C128.421 167.997 130.513 167.847 130.974 168.23C130.998 168.186 131.004 168.127 130.992 168.082C130.862 167.558 128.597 167.666 125.933 168.332C123.275 168.998 121.22 169.973 121.351 170.496Z" fill="#3F7ED3"/>
<path opacity="0.4" d="M121.351 170.496C121.363 170.541 121.396 170.59 121.438 170.618C121.67 170.061 123.586 169.207 126 168.603C128.421 167.997 130.513 167.847 130.974 168.23C130.998 168.186 131.004 168.127 130.992 168.082C130.862 167.558 128.597 167.666 125.933 168.332C123.275 168.998 121.22 169.973 121.351 170.496Z" fill="#3F7ED3"/>
<path opacity="0.4" d="M121.438 170.618C121.904 171 123.998 170.85 126.411 170.245C128.831 169.64 130.747 168.785 130.973 168.23C130.512 167.847 128.419 167.997 125.999 168.603C123.586 169.207 121.67 170.061 121.438 170.618Z" fill="#3F7ED3"/>
<path d="M115.737 172.252C115.703 173.048 118.222 173.801 121.364 173.934C124.507 174.068 127.081 173.531 127.115 172.735C127.149 171.939 124.629 171.185 121.487 171.052C118.345 170.918 115.771 171.456 115.737 172.252Z" fill="#3F7ED3"/>
<path d="M115.804 170.82L115.742 172.261L127.12 172.745L127.182 171.304L115.804 170.82Z" fill="#3F7ED3"/>
<path d="M115.798 170.81C115.764 171.606 118.284 172.36 121.426 172.493C124.568 172.626 127.142 172.089 127.176 171.293C127.21 170.497 124.69 169.744 121.548 169.61C118.406 169.477 115.832 170.014 115.798 170.81Z" fill="#3F7ED3"/>
<path opacity="0.4" d="M115.798 170.81C115.764 171.606 118.284 172.36 121.426 172.493C124.568 172.626 127.142 172.089 127.176 171.293C127.21 170.497 124.69 169.744 121.548 169.61C118.406 169.477 115.832 170.014 115.798 170.81Z" fill="white"/>
<path d="M116.524 170.785C116.522 170.832 116.54 170.888 116.572 170.927C116.953 170.459 119.033 170.185 121.519 170.29C124.012 170.396 126.061 170.846 126.393 171.345C126.429 171.309 126.451 171.254 126.453 171.208C126.476 170.668 124.274 170.128 121.531 170.012C118.793 169.895 116.547 170.247 116.524 170.785Z" fill="#3F7ED3"/>
<path opacity="0.4" d="M116.524 170.785C116.522 170.832 116.54 170.888 116.572 170.927C116.953 170.459 119.033 170.185 121.519 170.29C124.012 170.396 126.061 170.846 126.393 171.345C126.429 171.309 126.451 171.254 126.453 171.208C126.476 170.668 124.274 170.128 121.531 170.012C118.793 169.895 116.547 170.247 116.524 170.785Z" fill="#3F7ED3"/>
<path opacity="0.4" d="M116.572 170.927C116.912 171.426 118.961 171.876 121.447 171.981C123.939 172.087 126.019 171.813 126.393 171.345C126.06 170.846 124.011 170.396 121.519 170.29C119.033 170.185 116.952 170.459 116.572 170.927Z" fill="#3F7ED3"/>
<path d="M174.503 172.186C174.469 173.004 177.06 173.779 180.29 173.916C183.521 174.053 186.167 173.502 186.202 172.683C186.237 171.865 183.646 171.09 180.416 170.953C177.185 170.815 174.538 171.368 174.503 172.186Z" fill="#3F7ED3"/>
<path d="M174.573 170.712L174.51 172.195L186.21 172.692L186.273 171.21L174.573 170.712Z" fill="#3F7ED3"/>
<path d="M174.566 170.704C174.531 171.523 177.122 172.298 180.353 172.435C183.584 172.572 186.231 172.02 186.265 171.201C186.3 170.382 183.71 169.608 180.479 169.47C177.248 169.333 174.601 169.886 174.566 170.704Z" fill="#3F7ED3"/>
<path opacity="0.4" d="M174.566 170.704C174.531 171.523 177.122 172.298 180.353 172.435C183.584 172.572 186.231 172.02 186.265 171.201C186.3 170.382 183.71 169.608 180.479 169.47C177.248 169.333 174.601 169.886 174.566 170.704Z" fill="white"/>
<path d="M175.312 170.679C175.311 170.726 175.329 170.785 175.362 170.824C175.753 170.343 177.892 170.061 180.448 170.169C183.011 170.278 185.118 170.741 185.46 171.253C185.497 171.217 185.519 171.16 185.522 171.112C185.546 170.558 183.281 170.002 180.46 169.883C177.646 169.764 175.336 170.124 175.312 170.679Z" fill="#3F7ED3"/>
<path opacity="0.4" d="M175.312 170.679C175.311 170.726 175.329 170.785 175.362 170.824C175.753 170.343 177.892 170.061 180.448 170.169C183.011 170.278 185.118 170.741 185.46 171.253C185.497 171.217 185.519 171.16 185.522 171.112C185.546 170.558 183.281 170.002 180.46 169.883C177.646 169.764 175.336 170.124 175.312 170.679Z" fill="#3F7ED3"/>
<path opacity="0.4" d="M175.362 170.824C175.711 171.337 177.818 171.8 180.374 171.908C182.937 172.017 185.076 171.735 185.461 171.253C185.118 170.741 183.012 170.278 180.449 170.168C177.892 170.061 175.753 170.343 175.362 170.824Z" fill="#3F7ED3"/>
<path d="M173.274 169.942C173.239 170.761 175.83 171.535 179.06 171.673C182.291 171.81 184.938 171.257 184.973 170.439C185.007 169.621 182.417 168.846 179.186 168.709C175.956 168.572 173.309 169.124 173.274 169.942Z" fill="#3F7ED3"/>
<path d="M173.332 168.454L173.27 169.935L184.969 170.432L185.032 168.95L173.332 168.454Z" fill="#3F7ED3"/>
<path d="M173.337 168.46C173.302 169.279 175.893 170.054 179.124 170.191C182.355 170.328 185.002 169.776 185.037 168.957C185.071 168.139 182.481 167.364 179.25 167.227C176.019 167.09 173.372 167.642 173.337 168.46Z" fill="#3F7ED3"/>
<path opacity="0.4" d="M173.337 168.46C173.302 169.279 175.893 170.054 179.124 170.191C182.355 170.328 185.002 169.776 185.037 168.957C185.071 168.139 182.481 167.364 179.25 167.227C176.019 167.09 173.372 167.642 173.337 168.46Z" fill="white"/>
<path d="M174.083 168.435C174.081 168.483 174.1 168.541 174.133 168.581C174.524 168.1 176.663 167.817 179.218 167.925C181.782 168.034 183.889 168.497 184.231 169.01C184.267 168.973 184.291 168.917 184.293 168.868C184.316 168.314 182.052 167.759 179.23 167.639C176.417 167.52 174.107 167.881 174.083 168.435Z" fill="#3F7ED3"/>
<path opacity="0.4" d="M174.083 168.435C174.081 168.483 174.1 168.541 174.133 168.581C174.524 168.1 176.663 167.817 179.218 167.925C181.782 168.034 183.889 168.497 184.231 169.01C184.267 168.973 184.291 168.917 184.293 168.868C184.316 168.314 182.052 167.759 179.23 167.639C176.417 167.52 174.107 167.881 174.083 168.435Z" fill="#3F7ED3"/>
<path opacity="0.4" d="M174.133 168.581C174.482 169.093 176.589 169.556 179.145 169.664C181.708 169.774 183.847 169.491 184.231 169.01C183.888 168.498 181.782 168.034 179.218 167.925C176.663 167.817 174.524 168.1 174.133 168.581Z" fill="#3F7ED3"/>
<path d="M175.91 168.281C175.875 169.1 178.466 169.874 181.696 170.012C184.927 170.149 187.574 169.596 187.608 168.778C187.643 167.959 185.052 167.184 181.822 167.047C178.592 166.91 175.944 167.463 175.91 168.281Z" fill="#3F7ED3"/>
<path d="M175.979 166.807L175.916 168.288L187.615 168.786L187.678 167.304L175.979 166.807Z" fill="#3F7ED3"/>
<path d="M175.973 166.799C175.938 167.618 178.529 168.393 181.76 168.53C184.991 168.667 187.637 168.115 187.672 167.296C187.707 166.478 185.116 165.703 181.886 165.566C178.654 165.429 176.007 165.981 175.973 166.799Z" fill="#3F7ED3"/>
<path opacity="0.4" d="M175.973 166.799C175.938 167.618 178.529 168.393 181.76 168.53C184.991 168.667 187.637 168.115 187.672 167.296C187.707 166.478 185.116 165.703 181.886 165.566C178.654 165.429 176.007 165.981 175.973 166.799Z" fill="white"/>
<path d="M176.719 166.774C176.717 166.822 176.736 166.88 176.769 166.92C177.16 166.439 179.299 166.156 181.855 166.264C184.418 166.373 186.525 166.836 186.867 167.349C186.903 167.312 186.926 167.256 186.929 167.207C186.952 166.653 184.688 166.098 181.867 165.978C179.053 165.858 176.743 166.22 176.719 166.774Z" fill="#3F7ED3"/>
<path opacity="0.4" d="M176.719 166.774C176.717 166.822 176.736 166.88 176.769 166.92C177.16 166.439 179.299 166.156 181.855 166.264C184.418 166.373 186.525 166.836 186.867 167.349C186.903 167.312 186.926 167.256 186.929 167.207C186.952 166.653 184.688 166.098 181.867 165.978C179.053 165.858 176.743 166.22 176.719 166.774Z" fill="#3F7ED3"/>
<path opacity="0.4" d="M176.769 166.92C177.118 167.432 179.225 167.895 181.781 168.003C184.344 168.113 186.483 167.83 186.867 167.349C186.525 166.837 184.418 166.373 181.855 166.264C179.299 166.156 177.16 166.439 176.769 166.92Z" fill="#3F7ED3"/>
<path d="M175.941 166.037C175.906 166.856 178.497 167.631 181.728 167.768C184.958 167.905 187.605 167.352 187.64 166.535C187.675 165.716 185.084 164.941 181.853 164.804C178.623 164.667 175.976 165.219 175.941 166.037Z" fill="#3F7ED3"/>
<path d="M175.999 164.549L175.937 166.031L187.636 166.528L187.699 165.046L175.999 164.549Z" fill="#3F7ED3"/>
<path d="M176.004 164.556C175.97 165.374 178.561 166.149 181.791 166.286C185.022 166.423 187.669 165.871 187.704 165.052C187.738 164.234 185.148 163.459 181.917 163.322C178.686 163.185 176.039 163.737 176.004 164.556Z" fill="#3F7ED3"/>
<path opacity="0.4" d="M176.004 164.556C175.97 165.374 178.561 166.149 181.791 166.286C185.022 166.423 187.669 165.871 187.704 165.052C187.738 164.234 185.148 163.459 181.917 163.322C178.686 163.185 176.039 163.737 176.004 164.556Z" fill="white"/>
<path d="M176.75 164.53C176.748 164.578 176.767 164.636 176.8 164.676C177.191 164.195 179.33 163.912 181.886 164.021C184.449 164.13 186.556 164.592 186.898 165.105C186.934 165.068 186.957 165.012 186.96 164.964C186.983 164.409 184.719 163.854 181.897 163.734C179.084 163.615 176.774 163.976 176.75 164.53Z" fill="#3F7ED3"/>
<path opacity="0.4" d="M176.75 164.53C176.748 164.578 176.767 164.636 176.8 164.676C177.191 164.195 179.33 163.912 181.886 164.021C184.449 164.13 186.556 164.592 186.898 165.105C186.934 165.068 186.957 165.012 186.96 164.964C186.983 164.409 184.719 163.854 181.897 163.734C179.084 163.615 176.774 163.976 176.75 164.53Z" fill="#3F7ED3"/>
<path opacity="0.4" d="M176.8 164.676C177.149 165.189 179.257 165.651 181.813 165.76C184.376 165.869 186.515 165.587 186.898 165.106C186.556 164.593 184.449 164.13 181.886 164.021C179.33 163.912 177.192 164.195 176.8 164.676Z" fill="#3F7ED3"/>
<path d="M173.537 164.204C173.503 165.022 176.094 165.797 179.324 165.934C182.555 166.071 185.201 165.52 185.236 164.701C185.271 163.883 182.681 163.108 179.45 162.971C176.22 162.833 173.572 163.386 173.537 164.204Z" fill="#3F7ED3"/>
<path d="M173.6 162.718L173.537 164.2L185.236 164.698L185.299 163.216L173.6 162.718Z" fill="#3F7ED3"/>
<path d="M173.601 162.722C173.566 163.541 176.156 164.316 179.387 164.453C182.618 164.59 185.265 164.038 185.299 163.219C185.334 162.4 182.743 161.625 179.513 161.488C176.282 161.351 173.635 161.903 173.601 162.722Z" fill="#3F7ED3"/>
<path opacity="0.4" d="M173.601 162.722C173.566 163.541 176.156 164.316 179.387 164.453C182.618 164.59 185.265 164.038 185.299 163.219C185.334 162.4 182.743 161.625 179.513 161.488C176.282 161.351 173.635 161.903 173.601 162.722Z" fill="white"/>
<path d="M174.346 162.697C174.345 162.745 174.363 162.803 174.396 162.843C174.787 162.361 176.926 162.079 179.482 162.187C182.045 162.296 184.152 162.759 184.495 163.272C184.531 163.235 184.554 163.179 184.557 163.13C184.58 162.576 182.316 162.02 179.495 161.901C176.68 161.781 174.37 162.143 174.346 162.697Z" fill="#3F7ED3"/>
<path opacity="0.4" d="M174.346 162.697C174.345 162.745 174.363 162.803 174.396 162.843C174.787 162.361 176.926 162.079 179.482 162.187C182.045 162.296 184.152 162.759 184.495 163.272C184.531 163.235 184.554 163.179 184.557 163.13C184.58 162.576 182.316 162.02 179.495 161.901C176.68 161.781 174.37 162.143 174.346 162.697Z" fill="#3F7ED3"/>
<path opacity="0.4" d="M174.397 162.843C174.746 163.355 176.853 163.818 179.409 163.926C181.972 164.035 184.111 163.753 184.495 163.272C184.152 162.759 182.046 162.296 179.482 162.187C176.926 162.079 174.787 162.361 174.397 162.843Z" fill="#3F7ED3"/>
<path d="M188.64 168.671C188.301 169.392 190.334 171.06 193.18 172.397C196.027 173.735 198.608 174.234 198.947 173.513C199.287 172.792 197.254 171.124 194.407 169.787C191.561 168.449 188.979 167.949 188.64 168.671Z" fill="#3F7ED3"/>
<path d="M189.25 167.349L188.637 168.655L198.944 173.497L199.558 172.191L189.25 167.349Z" fill="#3F7ED3"/>
<path d="M189.254 167.365C188.915 168.086 190.948 169.754 193.794 171.092C196.64 172.43 199.222 172.929 199.561 172.208C199.9 171.487 197.867 169.819 195.021 168.481C192.174 167.143 189.592 166.644 189.254 167.365Z" fill="#3F7ED3"/>
<path opacity="0.4" d="M189.254 167.365C188.915 168.086 190.948 169.754 193.794 171.092C196.64 172.43 199.222 172.929 199.561 172.208C199.9 171.487 197.867 169.819 195.021 168.481C192.174 167.143 189.592 166.644 189.254 167.365Z" fill="white"/>
<path d="M189.933 167.623C189.913 167.665 189.908 167.724 189.923 167.772C190.455 167.488 192.479 168.038 194.731 169.096C196.989 170.157 198.705 171.364 198.819 171.952C198.866 171.933 198.908 171.891 198.928 171.849C199.157 171.36 197.335 170.011 194.849 168.843C192.37 167.679 190.162 167.134 189.933 167.623Z" fill="#3F7ED3"/>
<path opacity="0.4" d="M189.933 167.623C189.913 167.665 189.908 167.724 189.923 167.772C190.455 167.488 192.479 168.038 194.731 169.096C196.989 170.157 198.705 171.364 198.819 171.952C198.866 171.933 198.908 171.891 198.928 171.849C199.157 171.36 197.335 170.011 194.849 168.843C192.37 167.679 190.162 167.134 189.933 167.623Z" fill="#3F7ED3"/>
<path opacity="0.4" d="M189.922 167.772C190.042 168.363 191.759 169.57 194.01 170.629C196.268 171.689 198.293 172.24 198.818 171.953C198.704 171.365 196.988 170.157 194.73 169.096C192.479 168.038 190.454 167.488 189.922 167.772Z" fill="#3F7ED3"/>
<path d="M182.661 171.226C182.627 172.022 185.146 172.776 188.288 172.909C191.431 173.042 194.005 172.505 194.039 171.709C194.073 170.913 191.553 170.16 188.411 170.027C185.269 169.893 182.695 170.431 182.661 171.226Z" fill="#3F7ED3"/>
<path d="M182.73 169.794L182.669 171.236L194.046 171.72L194.108 170.278L182.73 169.794Z" fill="#3F7ED3"/>
<path d="M182.722 169.785C182.688 170.581 185.208 171.335 188.35 171.468C191.492 171.601 194.066 171.064 194.1 170.268C194.134 169.472 191.615 168.719 188.473 168.586C185.33 168.452 182.756 168.989 182.722 169.785Z" fill="#3F7ED3"/>
<path opacity="0.4" d="M182.722 169.785C182.688 170.581 185.208 171.335 188.35 171.468C191.492 171.601 194.066 171.064 194.1 170.268C194.134 169.472 191.615 168.719 188.473 168.586C185.33 168.452 182.756 168.989 182.722 169.785Z" fill="white"/>
<path d="M183.448 169.761C183.446 169.807 183.464 169.863 183.496 169.902C183.877 169.434 185.957 169.16 188.443 169.265C190.936 169.371 192.985 169.821 193.318 170.32C193.353 170.284 193.376 170.229 193.378 170.183C193.401 169.644 191.199 169.103 188.455 168.987C185.717 168.87 183.47 169.222 183.448 169.761Z" fill="#3F7ED3"/>
<path opacity="0.4" d="M183.448 169.761C183.446 169.807 183.464 169.863 183.496 169.902C183.877 169.434 185.957 169.16 188.443 169.265C190.936 169.371 192.985 169.821 193.318 170.32C193.353 170.284 193.376 170.229 193.378 170.183C193.401 169.644 191.199 169.103 188.455 168.987C185.717 168.87 183.47 169.222 183.448 169.761Z" fill="#3F7ED3"/>
<path opacity="0.4" d="M183.496 169.902C183.836 170.401 185.885 170.851 188.37 170.956C190.863 171.063 192.943 170.788 193.317 170.32C192.984 169.821 190.935 169.371 188.442 169.265C185.957 169.16 183.876 169.434 183.496 169.902Z" fill="#3F7ED3"/>
<path d="M81.7211 23.0901V26.8349C84.136 27.0277 86.3339 27.985 88.0742 29.4661L90.7216 26.8187C88.2956 24.6686 85.1658 23.2959 81.7211 23.0901Z" fill="#407BFF"/>
<path d="M79.9132 49.1679C74.446 48.7314 70.0874 44.3728 69.6503 38.905H65.9055C66.355 46.4368 72.382 52.4632 79.9132 52.9127V49.1679Z" fill="#407BFF"/>
<path d="M69.6504 37.0978C70.0875 31.6306 74.4461 27.2721 79.9133 26.8356V23.0908C72.3821 23.5403 66.3557 29.5673 65.9062 37.0984H69.6504V37.0978Z" fill="#407BFF"/>
<path opacity="0.2" d="M69.6504 37.0978C70.0875 31.6306 74.4461 27.2721 79.9133 26.8356V23.0908C72.3821 23.5403 66.3557 29.5673 65.9062 37.0984H69.6504V37.0978Z" fill="black"/>
<path d="M91.9995 28.0972L89.3521 30.7446C91.0168 32.7001 92.023 35.2328 92.023 38.0017C92.023 43.8861 87.4865 48.7072 81.7211 49.1679V52.9127C89.5517 52.4452 95.7585 45.9495 95.7585 38.0011C95.7585 34.2005 94.3369 30.7334 91.9995 28.0972Z" fill="#407BFF"/>
<g opacity="0.8">
<path d="M81.7211 23.0901V26.8349C84.136 27.0277 86.3339 27.985 88.0742 29.4661L90.7216 26.8187C88.2956 24.6686 85.1658 23.2959 81.7211 23.0901Z" fill="white"/>
</g>
<g opacity="0.6">
<path d="M79.9132 49.1679C74.446 48.7314 70.0874 44.3728 69.6503 38.905H65.9055C66.355 46.4368 72.382 52.4632 79.9132 52.9127V49.1679Z" fill="white"/>
</g>
<g opacity="0.7">
<path d="M69.6504 37.0978C70.0875 31.6306 74.4461 27.2721 79.9133 26.8356V23.0908C72.3821 23.5403 66.3557 29.5673 65.9062 37.0984H69.6504V37.0978Z" fill="white"/>
</g>
<path opacity="0.5" d="M91.9995 28.0972L89.3521 30.7446C91.0168 32.7001 92.023 35.2328 92.023 38.0017C92.023 43.8861 87.4865 48.7072 81.7211 49.1679V52.9127C89.5517 52.4452 95.7585 45.9495 95.7585 38.0011C95.7585 34.2005 94.3369 30.7334 91.9995 28.0972Z" fill="white"/>
<path d="M107.99 19.14L112.733 25.5731L140.061 14.2284L166.701 23.7051L190.839 8.09596L192.57 10.3931L198.301 1.00688L185.451 0L187.424 2.6009L163.266 18.06L137.02 8.7513L107.99 19.14Z" fill="#407BFF"/>
<g opacity="0.5">
<path d="M107.99 19.14L112.733 25.5731L140.061 14.2284L166.701 23.7051L190.839 8.09596L192.57 10.3931L198.301 1.00688L185.451 0L187.424 2.6009L163.266 18.06L137.02 8.7513L107.99 19.14Z" fill="white"/>
</g>
<path d="M220.713 12.0009C217.391 12.0009 214.699 14.6923 214.699 18.0143C214.699 21.3319 217.391 24.0276 220.713 24.0276C224.03 24.0276 226.726 21.3313 226.726 18.0143C226.726 14.6929 224.03 12.0009 220.713 12.0009ZM220.713 21.0188C219.052 21.0188 217.704 19.6752 217.704 18.0143C217.704 16.3533 219.052 15.0054 220.713 15.0054C222.374 15.0054 223.717 16.3533 223.717 18.0143C223.717 19.6759 222.374 21.0188 220.713 21.0188Z" fill="#407BFF"/>
<path d="M235.876 29.6448C232.554 29.6448 229.863 32.3363 229.863 35.6582C229.863 38.9758 232.554 41.6716 235.876 41.6716C239.193 41.6716 241.889 38.9752 241.889 35.6582C241.89 32.3363 239.194 29.6448 235.876 29.6448ZM235.876 38.6627C234.215 38.6627 232.867 37.3192 232.867 35.6582C232.867 33.9972 234.215 32.6494 235.876 32.6494C237.537 32.6494 238.88 33.9972 238.88 35.6582C238.88 37.3192 237.537 38.6627 235.876 38.6627Z" fill="#407BFF"/>
<path d="M222.97 41.6741H218.973L232.868 12.0034H236.864L222.97 41.6741Z" fill="#407BFF"/>
<g opacity="0.5">
<path d="M220.713 12.0009C217.391 12.0009 214.699 14.6923 214.699 18.0143C214.699 21.3319 217.391 24.0276 220.713 24.0276C224.03 24.0276 226.726 21.3313 226.726 18.0143C226.726 14.6929 224.03 12.0009 220.713 12.0009ZM220.713 21.0188C219.052 21.0188 217.704 19.6752 217.704 18.0143C217.704 16.3533 219.052 15.0054 220.713 15.0054C222.374 15.0054 223.717 16.3533 223.717 18.0143C223.717 19.6759 222.374 21.0188 220.713 21.0188Z" fill="white"/>
<path d="M235.876 29.6448C232.554 29.6448 229.863 32.3363 229.863 35.6582C229.863 38.9758 232.554 41.6716 235.876 41.6716C239.193 41.6716 241.889 38.9752 241.889 35.6582C241.89 32.3363 239.194 29.6448 235.876 29.6448ZM235.876 38.6627C234.215 38.6627 232.867 37.3192 232.867 35.6582C232.867 33.9972 234.215 32.6494 235.876 32.6494C237.537 32.6494 238.88 33.9972 238.88 35.6582C238.88 37.3192 237.537 38.6627 235.876 38.6627Z" fill="white"/>
<path d="M222.97 41.6741H218.973L232.868 12.0034H236.864L222.97 41.6741Z" fill="white"/>
</g>
<path d="M104 142.099V141.346H100V142.099H101.675C101.766 142.227 101.869 142.411 101.936 142.641H100V143.394H101.969C101.713 144.102 100 144.123 100 144.123V144.664L102.323 147.346H103.51L101.755 144.876C101.755 144.876 102.963 144.408 103.085 143.394H104V142.641H103.035C102.983 142.413 102.907 142.236 102.827 142.099H104Z" fill="#A9BAF6"/>
<path d="M164 118.225V117.346H159V118.225H161.094C161.207 118.374 161.337 118.588 161.42 118.856H159V119.735H161.461C161.141 120.561 159 120.586 159 120.586V121.217L161.903 124.346H163.387L161.194 121.464C161.194 121.464 162.704 120.918 162.856 119.735H164V118.856H162.793C162.729 118.591 162.634 118.384 162.534 118.225H164Z" fill="#A9BAF6"/>
<path d="M237 163.225V162.346H232V163.225H234.094C234.207 163.374 234.337 163.588 234.42 163.856H232V164.735H234.461C234.141 165.561 232 165.586 232 165.586V166.217L234.903 169.346H236.387L234.194 166.464C234.194 166.464 235.704 165.918 235.856 164.735H237V163.856H235.793C235.729 163.591 235.634 163.384 235.534 163.225H237Z" fill="#A9BAF6"/>
</svg>
