<svg width="179" height="232" viewBox="0 0 179 232" fill="none" xmlns="http://www.w3.org/2000/svg">
<path d="M142 50.1509H140.843V18.3852C140.843 15.9708 140.368 13.58 139.447 11.3495C138.525 9.11886 137.173 7.09209 135.47 5.38487C133.766 3.67765 131.744 2.32341 129.518 1.39947C127.293 0.475535 124.907 -5.80769e-06 122.498 0H55.345C52.9359 -5.80769e-06 50.5504 0.475535 48.3247 1.39947C46.099 2.32341 44.0766 3.67765 42.3731 5.38487C40.6696 7.09209 39.3184 9.11886 38.3964 11.3495C37.4745 13.58 37 15.9708 37 18.3852V192.654C37 195.069 37.4745 197.46 38.3964 199.69C39.3184 201.921 40.6696 203.948 42.3731 205.655C44.0766 207.362 46.099 208.716 48.3247 209.64C50.5504 210.564 52.9359 211.04 55.345 211.04H122.498C124.907 211.04 127.293 210.564 129.518 209.64C131.744 208.716 133.766 207.362 135.47 205.655C137.173 203.948 138.525 201.921 139.447 199.69C140.368 197.46 140.843 195.069 140.843 192.654V72.7623H142V50.1509Z" fill="#2F2E41"/>
<path d="M136.938 18.5127V192.524C136.935 194.559 136.482 196.569 135.613 198.408C134.743 200.247 133.477 201.87 131.907 203.161C131.56 203.446 131.198 203.713 130.823 203.96C128.577 205.46 125.937 206.259 123.238 206.255H55.7617C54.6678 206.257 53.5778 206.126 52.5154 205.865C49.5336 205.136 46.8823 203.425 44.9867 201.006C43.091 198.587 42.0608 195.6 42.0612 192.524V18.5127C42.0615 14.8712 43.5051 11.379 46.0743 8.80415C48.6436 6.22927 52.1282 4.78256 55.7617 4.78223H63.9493C63.5461 5.77257 63.3923 6.84708 63.5012 7.91108C63.6101 8.97508 63.9784 9.9959 64.5738 10.8836C65.1692 11.7713 65.9733 12.4986 66.9152 13.0014C67.8572 13.5043 68.9081 13.7672 69.9753 13.767H108.445C109.512 13.7659 110.562 13.5022 111.503 12.9991C112.445 12.496 113.248 11.7689 113.844 10.8817C114.439 9.99447 114.808 8.9743 114.918 7.91079C115.028 6.84727 114.876 5.77296 114.475 4.78223H123.238C126.871 4.78256 130.356 6.22926 132.925 8.80415C135.494 11.379 136.938 14.8712 136.938 18.5127Z" fill="#3F7ED3"/>
<path d="M75.3394 135.912C75.3394 135.912 81.963 154.352 76.8113 164.677C71.6596 175.003 84.9068 186.804 84.9068 186.804C84.9068 186.804 119.496 169.103 115.081 160.252C110.665 151.401 103.306 139.6 104.777 132.225L75.3394 135.912Z" fill="#FFB8B8"/>
<path d="M88.2186 142.921C101.225 142.921 111.769 132.354 111.769 119.319C111.769 106.284 101.225 95.7168 88.2186 95.7168C75.212 95.7168 64.6681 106.284 64.6681 119.319C64.6681 132.354 75.212 142.921 88.2186 142.921Z" fill="#FFB8B8"/>
<path d="M134.007 202.14C133.388 202.932 132.684 203.653 131.907 204.291C131.56 204.576 131.198 204.843 130.823 205.089C128.649 206.539 126.045 206.995 123.238 206.995H63.6383L64.6685 178.326L71.2933 163.575C72.7805 164.744 74.3722 165.773 76.048 166.649C76.4446 166.863 76.8644 167.077 77.3038 167.288C83.5086 170.292 93.6518 172.934 103.484 165.577C106.579 163.263 109.642 159.955 112.546 155.357L130.904 165.788L131.868 177.087L134.007 202.14Z" fill="white"/>
<path d="M78.7111 152.533L77.7897 162.184L77.3038 167.284L76.5767 174.878L73.4704 207.381H55.7617C54.6678 207.383 53.5778 207.252 52.5154 206.991L45.533 174.633L45.7351 174.5L78.7111 152.533Z" fill="#2F2E41"/>
<path d="M136.938 159.166V193.652C136.935 195.688 136.482 197.697 135.613 199.536C134.743 201.375 133.477 202.998 131.907 204.289C131.56 204.574 131.198 204.841 130.823 205.088C128.577 206.588 125.937 207.387 123.238 207.383H99.5417C100.059 196.485 100.972 185.848 102.042 176.583C102.5 172.636 102.986 168.938 103.484 165.576C105.086 154.736 106.804 147.376 108.036 146.383L116.185 151.771L136.938 159.166Z" fill="#2F2E41"/>
<path d="M62.4603 201.19L61.6127 207.385H55.7617C54.6678 207.387 53.5778 207.256 52.5154 206.995C49.5336 206.267 46.8823 204.556 44.9867 202.136C43.091 199.717 42.0608 196.73 42.0612 193.655V192.408L44.7982 174.637L45.7351 174.504L49.9495 173.9L62.4603 201.19Z" fill="#2F2E41"/>
<path d="M136.938 163.66V193.65C136.935 195.685 136.482 197.694 135.613 199.533C134.743 201.373 133.477 202.996 131.907 204.287C131.56 204.572 131.198 204.838 130.823 205.085L127.223 189.383L131.868 177.083L136.938 163.66Z" fill="#2F2E41"/>
<path d="M110.676 97.9718C107.115 92.1761 101.541 87.9053 95.0261 85.9814L90.2412 89.8176L92.1015 85.343C90.5371 85.1039 88.9537 85.0121 87.3722 85.0691L83.0671 90.6165L84.8489 85.2591C77.4099 86.2096 70.3378 90.2705 66.0509 96.4652C60.5714 104.383 59.6468 115.395 65.0361 123.375C66.5155 118.819 68.3111 114.543 69.7905 109.987C70.1319 110.133 71.4255 110.124 73.2958 110.004L75.0958 105.795L75.5986 109.826C81.1774 109.339 89.4522 108.27 94.7411 107.29L94.2269 104.197L97.3038 106.767C98.9242 106.393 99.8862 106.054 99.8067 105.795C103.74 112.15 107.638 116.209 111.571 122.564C113.064 113.6 115.7 106.149 110.676 97.9718Z" fill="#2F2E41"/>
<path d="M109.372 121.773C110.253 121.773 110.967 120.342 110.967 118.577C110.967 116.813 110.253 115.382 109.372 115.382C108.492 115.382 107.778 116.813 107.778 118.577C107.778 120.342 108.492 121.773 109.372 121.773Z" fill="#FFB8B8"/>
<path opacity="0.2" d="M55.6765 53.9289C54.1386 53.9289 52.6353 53.4718 51.3566 52.6156C50.0779 51.7593 49.0813 50.5423 48.4928 49.1184C47.9043 47.6945 47.7503 46.1277 48.0503 44.6161C48.3504 43.1044 49.0909 41.7159 50.1783 40.6261C51.2658 39.5363 52.6512 38.7942 54.1595 38.4935C55.6678 38.1928 57.2312 38.3471 58.652 38.9369C60.0728 39.5267 61.2872 40.5255 62.1416 41.807C62.996 43.0885 63.452 44.5951 63.452 46.1363C63.4496 48.2023 62.6297 50.183 61.172 51.6439C59.7143 53.1047 57.7379 53.9265 55.6765 53.9289ZM55.6765 39.123C54.2924 39.123 52.9394 39.5343 51.7886 40.305C50.6378 41.0756 49.7408 42.1709 49.2112 43.4524C48.6815 44.7339 48.543 46.1441 48.813 47.5045C49.083 48.865 49.7495 50.1146 50.7282 51.0955C51.7068 52.0763 52.9538 52.7442 54.3112 53.0148C55.6687 53.2855 57.0758 53.1466 58.3545 52.6157C59.6332 52.0849 60.7261 51.186 61.4951 50.0327C62.264 48.8794 62.6744 47.5234 62.6744 46.1363C62.6724 44.2769 61.9344 42.4943 60.6225 41.1795C59.3106 39.8647 57.5318 39.1251 55.6765 39.123Z" fill="black"/>
<path opacity="0.2" d="M52.5663 45.3573C53.2104 45.3573 53.7326 44.834 53.7326 44.1884C53.7326 43.5429 53.2104 43.0195 52.5663 43.0195C51.9221 43.0195 51.3999 43.5429 51.3999 44.1884C51.3999 44.834 51.9221 45.3573 52.5663 45.3573Z" fill="black"/>
<path opacity="0.2" d="M58.3979 45.3573C59.0421 45.3573 59.5642 44.834 59.5642 44.1884C59.5642 43.5429 59.0421 43.0195 58.3979 43.0195C57.7538 43.0195 57.2316 43.5429 57.2316 44.1884C57.2316 44.834 57.7538 45.3573 58.3979 45.3573Z" fill="black"/>
<path opacity="0.2" d="M58.3979 48.8617H52.5663C52.4632 48.8617 52.3643 48.8206 52.2913 48.7475C52.2184 48.6744 52.1775 48.5753 52.1775 48.4719C52.1775 48.3685 52.2184 48.2693 52.2913 48.1962C52.3643 48.1231 52.4632 48.082 52.5663 48.082H58.3979C58.501 48.082 58.5999 48.1231 58.6728 48.1962C58.7457 48.2693 58.7867 48.3685 58.7867 48.4719C58.7867 48.5753 58.7457 48.6744 58.6728 48.7475C58.5999 48.8206 58.501 48.8617 58.3979 48.8617Z" fill="black"/>
<path opacity="0.2" d="M123.323 53.9289C121.786 53.9289 120.282 53.4718 119.004 52.6156C117.725 51.7593 116.728 50.5423 116.14 49.1184C115.551 47.6945 115.397 46.1277 115.697 44.6161C115.997 43.1044 116.738 41.7159 117.825 40.6261C118.913 39.5363 120.298 38.7942 121.807 38.4935C123.315 38.1928 124.878 38.3471 126.299 38.9369C127.72 39.5267 128.934 40.5255 129.789 41.807C130.643 43.0885 131.099 44.5951 131.099 46.1363C131.097 48.2023 130.277 50.183 128.819 51.6439C127.361 53.1048 125.385 53.9265 123.323 53.9289ZM123.323 39.123C121.939 39.123 120.586 39.5343 119.436 40.305C118.285 41.0756 117.388 42.1709 116.858 43.4524C116.329 44.7339 116.19 46.1441 116.46 47.5045C116.73 48.865 117.396 50.1146 118.375 51.0955C119.354 52.0763 120.601 52.7442 121.958 53.0148C123.316 53.2855 124.723 53.1466 126.001 52.6157C127.28 52.0849 128.373 51.186 129.142 50.0327C129.911 48.8794 130.321 47.5234 130.321 46.1363C130.319 44.2769 129.581 42.4943 128.269 41.1795C126.958 39.8647 125.179 39.1251 123.323 39.123Z" fill="black"/>
<path opacity="0.2" d="M120.213 45.3573C120.857 45.3573 121.38 44.834 121.38 44.1884C121.38 43.5429 120.857 43.0195 120.213 43.0195C119.569 43.0195 119.047 43.5429 119.047 44.1884C119.047 44.834 119.569 45.3573 120.213 45.3573Z" fill="black"/>
<path opacity="0.2" d="M126.045 45.3573C126.689 45.3573 127.211 44.834 127.211 44.1884C127.211 43.5429 126.689 43.0195 126.045 43.0195C125.401 43.0195 124.879 43.5429 124.879 44.1884C124.879 44.834 125.401 45.3573 126.045 45.3573Z" fill="black"/>
<path opacity="0.2" d="M126.045 49.6411C125.977 49.641 125.91 49.6231 125.851 49.5891C125.037 49.0716 124.093 48.7968 123.129 48.7968C122.165 48.7968 121.221 49.0716 120.407 49.5891C120.363 49.6148 120.314 49.6314 120.264 49.6382C120.213 49.6449 120.161 49.6415 120.112 49.6282C120.063 49.6149 120.016 49.592 119.976 49.5608C119.935 49.5296 119.901 49.4906 119.876 49.4462C119.85 49.4017 119.834 49.3527 119.827 49.3019C119.82 49.251 119.824 49.1994 119.837 49.1499C119.851 49.1004 119.874 49.054 119.905 49.0134C119.936 48.9728 119.975 48.9388 120.019 48.9133C120.952 48.3298 122.03 48.0205 123.129 48.0205C124.229 48.0205 125.306 48.3298 126.239 48.9133C126.313 48.9562 126.371 49.0224 126.404 49.1018C126.437 49.1811 126.443 49.2691 126.421 49.3521C126.398 49.4351 126.35 49.5084 126.282 49.5606C126.214 49.6129 126.13 49.6412 126.045 49.6411Z" fill="black"/>
<path d="M89.8888 61.955C86.7664 61.955 83.7143 61.0271 81.1182 59.2886C78.5221 57.5502 76.4986 55.0792 75.3038 52.1883C74.1089 49.2973 73.7963 46.1162 74.4054 43.0472C75.0146 39.9782 76.5181 37.1591 78.7259 34.9464C80.9337 32.7338 83.7466 31.227 86.8089 30.6165C89.8712 30.006 93.0454 30.3194 95.9301 31.5168C98.8147 32.7143 101.28 34.7421 103.015 37.3439C104.75 39.9457 105.675 43.0046 105.675 46.1337C105.671 50.3283 104.006 54.3497 101.046 57.3158C98.0868 60.2818 94.0742 61.9502 89.8888 61.955ZM89.8888 31.8946C87.0787 31.8946 84.3317 32.7297 81.9952 34.2944C79.6587 35.859 77.8376 38.0828 76.7623 40.6847C75.6869 43.2865 75.4055 46.1495 75.9538 48.9117C76.502 51.6738 77.8552 54.2109 79.8422 56.2023C81.8292 58.1937 84.3608 59.5498 87.1169 60.0993C89.873 60.6487 92.7298 60.3667 95.3259 59.289C97.9221 58.2112 100.141 56.3862 101.702 54.0446C103.263 51.703 104.097 48.95 104.097 46.1337C104.093 42.3586 102.594 38.7393 99.9306 36.0699C97.267 33.4004 93.6556 31.8989 89.8888 31.8946Z" fill="white"/>
<path d="M83.5741 44.552C84.8819 44.552 85.9421 43.4895 85.9421 42.1788C85.9421 40.8682 84.8819 39.8057 83.5741 39.8057C82.2663 39.8057 81.2061 40.8682 81.2061 42.1788C81.2061 43.4895 82.2663 44.552 83.5741 44.552Z" fill="white"/>
<path d="M95.4141 44.552C96.7219 44.552 97.7821 43.4895 97.7821 42.1788C97.7821 40.8682 96.7219 39.8057 95.4141 39.8057C94.1063 39.8057 93.0461 40.8682 93.0461 42.1788C93.0461 43.4895 94.1063 44.552 95.4141 44.552Z" fill="white"/>
<path d="M89.8972 53.8618C87.774 53.8618 85.5231 53.0904 83.1447 51.5477C82.9694 51.4335 82.8465 51.2541 82.803 51.0491C82.7595 50.8441 82.799 50.6302 82.9127 50.4544C83.0265 50.2785 83.2053 50.1551 83.4098 50.1113C83.6143 50.0674 83.8278 50.1067 84.0034 50.2205C88.1871 52.9386 91.7519 52.9583 94.9038 50.2808C95.0635 50.1454 95.2703 50.0792 95.4787 50.0965C95.6871 50.1139 95.8801 50.2134 96.0154 50.3733C96.1506 50.5332 96.217 50.7404 96.1999 50.9493C96.1828 51.1582 96.0837 51.3517 95.9244 51.4875C94.062 53.0704 92.0475 53.8618 89.8972 53.8618Z" fill="white"/>
<path d="M115.937 72.2395H105.675V70.6577H114.358V61.9561H115.937V72.2395Z" fill="white"/>
<path d="M65.4195 30.3122H63.8408V20.0283H74.1021V21.6105H65.4195V30.3122Z" fill="white"/>
<ellipse cx="89.5" cy="225" rx="89.5" ry="7" fill="#F1F1F1"/>
</svg>
