<svg width="17" height="17" viewBox="0 0 17 17" fill="none" xmlns="http://www.w3.org/2000/svg">
    <path d="M13.436 0H3.53601C2.59894 0.00237603 1.70094 0.375716 1.03833 1.03833C0.375716 1.70094 0.00237603 2.59894 0 3.53601V13.436C0.00237603 14.3731 0.375716 15.2711 1.03833 15.9337C1.70094 16.5963 2.59894 16.9697 3.53601 16.972H13.436C14.3731 16.9697 15.2711 16.5963 15.9337 15.9337C16.5963 15.2711 16.9696 14.3731 16.972 13.436V3.53601C16.9696 2.59894 16.5963 1.70094 15.9337 1.03833C15.2711 0.375716 14.3731 0.00237603 13.436 0ZM4.94904 15.561V14.854C4.94904 13.9161 5.32158 13.0165 5.9848 12.3533C6.64802 11.69 7.5476 11.3175 8.48553 11.3175C9.42347 11.3175 10.323 11.69 10.9862 12.3533C11.6494 13.0165 12.022 13.9161 12.022 14.854V15.561H4.94904ZM15.558 13.439C15.5575 14.0016 15.3338 14.541 14.9359 14.9388C14.5381 15.3367 13.9987 15.5605 13.436 15.561V14.854C13.4493 14.1956 13.331 13.5411 13.0882 12.929C12.8454 12.3168 12.4829 11.7593 12.0219 11.2889C11.561 10.8186 11.0108 10.445 10.4036 10.1899C9.79648 9.93487 9.14457 9.80347 8.48602 9.80347C7.82747 9.80347 7.17551 9.93487 6.56836 10.1899C5.96121 10.445 5.4111 10.8186 4.95013 11.2889C4.48917 11.7593 4.12667 12.3168 3.88385 12.929C3.64103 13.5411 3.52278 14.1956 3.53601 14.854V15.561C2.97338 15.5605 2.43397 15.3367 2.03613 14.9388C1.6383 14.541 1.41453 14.0016 1.414 13.439V3.53894C1.41453 2.97631 1.6383 2.4369 2.03613 2.03906C2.43397 1.64123 2.97338 1.41752 3.53601 1.41699H13.436C13.9987 1.41752 14.5381 1.64123 14.9359 2.03906C15.3338 2.4369 15.5575 2.97631 15.558 3.53894V13.439Z" fill="currentColor"/>
    <path d="M8.48353 2.82901C8.06595 2.83027 7.65388 2.92392 7.2768 3.1033C6.89972 3.28269 6.56699 3.5433 6.30256 3.86649C6.03813 4.18967 5.84855 4.56743 5.74738 4.97256C5.64621 5.3777 5.63597 5.80019 5.71741 6.20975C5.79886 6.6193 5.96997 7.00574 6.21845 7.34134C6.46693 7.67694 6.78659 7.95336 7.15455 8.15079C7.5225 8.34821 7.9296 8.46184 8.34662 8.48331C8.76365 8.50478 9.18025 8.43365 9.56653 8.27506C10.0832 8.05789 10.5248 7.69385 10.8366 7.22806C11.1213 6.8022 11.2851 6.30688 11.3103 5.7952C11.3355 5.28351 11.2213 4.77459 10.9797 4.32278C10.7382 3.87098 10.3786 3.49329 9.93909 3.23001C9.49962 2.96673 8.99687 2.82782 8.48456 2.82803L8.48353 2.82901ZM8.48353 7.07303C8.2038 7.07365 7.93023 6.9912 7.69745 6.83609C7.46468 6.68098 7.28322 6.46021 7.17609 6.20181C7.06896 5.94342 7.04097 5.65899 7.09571 5.38467C7.15045 5.11036 7.28542 4.85852 7.48353 4.66104C7.68167 4.46342 7.93337 4.32814 8.20753 4.272C8.40133 4.23285 8.60124 4.23485 8.79426 4.27774C8.98727 4.32063 9.16914 4.40349 9.32813 4.52103C9.48712 4.63857 9.6197 4.78816 9.71729 4.96011C9.81489 5.13207 9.87532 5.32255 9.89472 5.51932C9.91412 5.71609 9.89198 5.91475 9.82984 6.10245C9.7677 6.29015 9.66692 6.46272 9.53394 6.60904C9.40096 6.75536 9.23873 6.87219 9.05781 6.95194C8.87688 7.03168 8.68125 7.07358 8.48353 7.07303Z" fill="currentColor"/>
</svg>
