<svg width="40" height="40" viewBox="0 0 40 40" fill="none" xmlns="http://www.w3.org/2000/svg">
<rect width="40" height="40" fill="white"/>
<path fill-rule="evenodd" clip-rule="evenodd" d="M21.8598 16.7731L21.2229 13.7773C23.9539 14.2995 28.3331 19.9979 29.7473 22.5905C30.5122 23.9927 31.1406 25.4686 31.6233 26.9971C32.6542 30.9365 31.6617 34.6193 27.4933 35.4805C24.1056 35.9695 20.679 36.1138 17.2636 35.9112C14.3155 35.7554 9.73974 35.7554 8.54711 32.6497C6.62015 27.6292 10.1551 21.6469 13.3712 17.9915C13.7837 17.5168 14.2228 17.0672 14.6862 16.6448C15.8104 15.4509 17.1479 14.4899 18.6259 13.814L17.1689 16.5898L19.2834 13.7223H20.3974L21.8598 16.7731Z" fill="#F5C678"/>
<path d="M21.7349 23.7266H21.2355C21.1669 23.3606 21.0229 23.0139 20.813 22.7097H21.7349C21.7954 22.7089 21.8551 22.6954 21.9104 22.6702C21.9657 22.645 22.0154 22.6086 22.0565 22.5631C22.1412 22.4642 22.1884 22.3374 22.1896 22.2058C22.1915 22.0736 22.1439 21.9457 22.0565 21.8485C22.0154 21.803 21.9657 21.7665 21.9104 21.7413C21.8551 21.7161 21.7954 21.7028 21.7349 21.702H18.0963C18.0358 21.7028 17.9761 21.7161 17.9208 21.7413C17.8655 21.7665 17.8158 21.803 17.7747 21.8485C17.6873 21.9457 17.6396 22.0736 17.6416 22.2058C17.6428 22.3374 17.69 22.4642 17.7747 22.5631C17.8158 22.6086 17.8655 22.645 17.9208 22.6702C17.9761 22.6954 18.0358 22.7089 18.0963 22.7097H19.0057C19.2974 22.7179 19.5789 22.8207 19.81 23.0035C20.041 23.1862 20.2095 23.4394 20.2912 23.7266H18.0963C18.0358 23.7274 17.9761 23.7409 17.9208 23.7661C17.8655 23.7913 17.8158 23.8277 17.7747 23.8732C17.69 23.9721 17.6428 24.0989 17.6416 24.2305C17.6396 24.3627 17.6873 24.4906 17.7747 24.5878C17.8158 24.6333 17.8655 24.6698 17.9208 24.6949C17.9761 24.7201 18.0358 24.7335 18.0963 24.7343H20.2787C20.1861 25.0206 20.013 25.2725 19.7811 25.4581C19.5562 25.6305 19.2829 25.7237 19.0021 25.7238H18.0963C18.0358 25.7246 17.9761 25.738 17.9208 25.7632C17.8655 25.7884 17.8158 25.8248 17.7747 25.8703C17.69 25.9692 17.6428 26.096 17.6416 26.2276V26.2368C17.6397 26.3055 17.6506 26.3738 17.6737 26.4383C17.6952 26.5 17.7293 26.5563 17.7738 26.6033L20.503 29.6266C20.5452 29.6721 20.5951 29.7093 20.6504 29.7365C20.7056 29.7605 20.765 29.7729 20.825 29.7729C20.885 29.7729 20.9444 29.7605 20.9997 29.7365C21.0549 29.7093 21.1048 29.6721 21.1471 29.6266C21.2317 29.5276 21.2789 29.4008 21.2802 29.2692C21.2821 29.1371 21.2345 29.0091 21.1471 28.9119L19.1638 26.7132C19.6623 26.6742 20.1326 26.4607 20.4958 26.1085C20.8737 25.7398 21.1301 25.2595 21.2293 24.7343H21.734C21.7946 24.7343 21.8548 24.725 21.9127 24.7068C21.9701 24.6798 22.0224 24.6426 22.0672 24.5969C22.1127 24.55 22.148 24.4938 22.1709 24.432C22.1955 24.3679 22.2079 24.2995 22.2075 24.2305C22.2078 24.1645 22.1954 24.099 22.1709 24.038C22.1479 23.9763 22.1126 23.9202 22.0672 23.8732C22.0273 23.8218 21.9736 23.7836 21.9127 23.7633C21.8567 23.7379 21.7961 23.7254 21.7349 23.7266Z" fill="white"/>
<path d="M21.7349 23.7266H21.2355C21.1669 23.3606 21.0229 23.0139 20.813 22.7097H21.7349C21.7954 22.7089 21.8551 22.6954 21.9104 22.6702C21.9657 22.645 22.0154 22.6086 22.0565 22.5631C22.1412 22.4642 22.1884 22.3374 22.1896 22.2058C22.1915 22.0736 22.1439 21.9457 22.0565 21.8485C22.0154 21.803 21.9657 21.7665 21.9104 21.7413C21.8551 21.7161 21.7954 21.7028 21.7349 21.702H18.0963C18.0358 21.7028 17.9761 21.7161 17.9208 21.7413C17.8655 21.7665 17.8158 21.803 17.7747 21.8485C17.6873 21.9457 17.6396 22.0736 17.6416 22.2058C17.6428 22.3374 17.69 22.4642 17.7747 22.5631C17.8158 22.6086 17.8655 22.645 17.9208 22.6702C17.9761 22.6954 18.0358 22.7089 18.0963 22.7097H19.0057C19.2974 22.7179 19.5789 22.8207 19.81 23.0035C20.041 23.1862 20.2095 23.4394 20.2912 23.7266H18.0963C18.0358 23.7274 17.9761 23.7409 17.9208 23.7661C17.8655 23.7913 17.8158 23.8277 17.7747 23.8732C17.69 23.9721 17.6428 24.0989 17.6416 24.2305C17.6396 24.3627 17.6873 24.4906 17.7747 24.5878C17.8158 24.6333 17.8655 24.6698 17.9208 24.6949C17.9761 24.7201 18.0358 24.7335 18.0963 24.7343H20.2787C20.1861 25.0206 20.013 25.2725 19.7811 25.4581C19.5562 25.6305 19.2829 25.7237 19.0021 25.7238H18.0963C18.0358 25.7246 17.9761 25.738 17.9208 25.7632C17.8655 25.7884 17.8158 25.8248 17.7747 25.8703C17.69 25.9692 17.6428 26.096 17.6416 26.2276V26.2368C17.6397 26.3055 17.6506 26.3738 17.6737 26.4383C17.6952 26.5 17.7293 26.5563 17.7738 26.6033L20.503 29.6266C20.5452 29.6721 20.5951 29.7093 20.6504 29.7365C20.7056 29.7605 20.765 29.7729 20.825 29.7729C20.885 29.7729 20.9444 29.7605 20.9997 29.7365C21.0549 29.7093 21.1048 29.6721 21.1471 29.6266C21.2317 29.5276 21.2789 29.4008 21.2802 29.2692C21.2821 29.1371 21.2345 29.0091 21.1471 28.9119L19.1638 26.7132C19.6623 26.6742 20.1326 26.4607 20.4958 26.1085C20.8737 25.7398 21.1301 25.2595 21.2293 24.7343H21.734C21.7946 24.7343 21.8548 24.725 21.9127 24.7068C21.9701 24.6798 22.0224 24.6426 22.0672 24.5969C22.1127 24.55 22.148 24.4938 22.1709 24.432C22.1955 24.3679 22.2079 24.2995 22.2075 24.2305C22.2078 24.1645 22.1954 24.099 22.1709 24.038C22.1479 23.9763 22.1126 23.9202 22.0672 23.8732C22.0273 23.8218 21.9736 23.7836 21.9127 23.7633C21.8567 23.7379 21.7961 23.7254 21.7349 23.7266Z" fill="white" fill-opacity="0.2"/>
<path d="M16.3895 5.08319C16.7576 6.57649 17.1891 8.05143 17.6715 9.50808L16.0527 6.37497C15.3094 6.68646 13.8953 7.52925 13.8953 8.50035C13.9028 8.76538 14.0026 9.01891 14.1767 9.21497L17.4463 13.2368C18.4044 12.7185 19.5154 12.5814 20.5659 12.852L21.7389 11.551C21.5567 11.9908 21.3315 12.4763 21.1529 12.9161C21.5472 13.0596 21.9532 13.167 22.366 13.2368L25.5875 9.38898C25.7279 9.23966 25.8345 9.06047 25.8998 8.86415C25.9651 8.66782 25.9875 8.45917 25.9654 8.25298C25.8605 7.715 25.566 7.23555 25.1381 6.90629C24.9706 6.74874 24.7914 6.60481 24.6021 6.47573C24.1527 7.04374 23.899 7.46511 23.1424 8.48201L24.5458 5.05568C23.0271 3.74561 17.7554 3.54409 16.3895 5.08319Z" fill="#E7B96E"/>
</svg>
