<svg width="30" height="35" viewBox="0 0 30 35" fill="none" xmlns="http://www.w3.org/2000/svg">
<path d="M10.7944 6.46749C10.9 6.53036 10.9922 6.6133 11.0656 6.71157C11.1389 6.80984 11.1921 6.92152 11.2221 7.04023C11.252 7.15893 11.2582 7.28234 11.2401 7.40339C11.2221 7.52445 11.1802 7.64079 11.1169 7.74576L6.34312 15.652H23.6569L18.8812 7.74576C18.7534 7.53375 18.7156 7.27997 18.7761 7.04024C18.8366 6.80052 18.9904 6.59449 19.2037 6.46749C19.4171 6.34048 19.6724 6.30289 19.9137 6.363C20.1549 6.4231 20.3622 6.57598 20.49 6.78799L25.8431 15.652H29.0625C29.3111 15.652 29.5496 15.7502 29.7254 15.9249C29.9012 16.0996 30 16.3366 30 16.5837V18.4471C30 18.6942 29.9012 18.9312 29.7254 19.1059C29.5496 19.2806 29.3111 19.3788 29.0625 19.3788H0.9375C0.68886 19.3788 0.450403 19.2806 0.274587 19.1059C0.0987721 18.9312 0 18.6942 0 18.4471V16.5837C0 16.3366 0.0987721 16.0996 0.274587 15.9249C0.450403 15.7502 0.68886 15.652 0.9375 15.652H4.15688L9.50625 6.78799C9.56952 6.68299 9.65297 6.59141 9.75186 6.51848C9.85075 6.44555 9.96312 6.39269 10.0826 6.36293C10.202 6.33317 10.3262 6.32708 10.448 6.34502C10.5698 6.36296 10.6869 6.40458 10.7925 6.46749H10.7944ZM4.6275 33.2161L1.76813 21.2421H28.2319L25.3725 33.2161C25.2985 33.521 25.1234 33.7922 24.8755 33.9862C24.6275 34.1802 24.3212 34.2857 24.0056 34.2857H5.99438C5.6785 34.2861 5.3717 34.1808 5.12339 33.9868C4.87509 33.7927 4.69975 33.5213 4.62563 33.2161H4.6275Z" fill="#DDDDDD"/>
<ellipse cx="14.998" cy="5.96278" rx="6" ry="5.96278" fill="#DDDDDD"/>
<path d="M17.2186 4.63682H16.765C16.7025 4.33337 16.5714 4.04803 16.3815 3.80244H17.2186C17.3282 3.80244 17.4333 3.75918 17.5108 3.68217C17.5883 3.60517 17.6318 3.50072 17.6318 3.39182C17.6318 3.28292 17.5883 3.17848 17.5108 3.10147C17.4333 3.02446 17.3282 2.9812 17.2186 2.9812H13.9132C13.8036 2.9812 13.6985 3.02446 13.621 3.10147C13.5435 3.17848 13.5 3.28292 13.5 3.39182C13.5 3.50072 13.5435 3.60517 13.621 3.68217C13.6985 3.75918 13.8036 3.80244 13.9132 3.80244H14.7395C15.2825 3.80244 15.7394 4.15311 15.9072 4.63682H13.9132C13.8036 4.63682 13.6985 4.68008 13.621 4.75708C13.5435 4.83409 13.5 4.93853 13.5 5.04744C13.5 5.15634 13.5435 5.26078 13.621 5.33779C13.6985 5.41479 13.8036 5.45806 13.9132 5.45806H15.8989C15.8122 5.69449 15.6544 5.89877 15.4471 6.04328C15.2398 6.1878 14.9928 6.26559 14.7395 6.26615H13.9132C13.8036 6.26615 13.6985 6.30942 13.621 6.38642C13.5435 6.46343 13.5 6.56787 13.5 6.67677L13.5017 6.68334C13.5003 6.73825 13.5103 6.79285 13.5309 6.84382C13.5515 6.89479 13.5823 6.94106 13.6215 6.97981L16.1006 9.44352C16.1388 9.48196 16.1844 9.51247 16.2346 9.5333C16.2848 9.55412 16.3387 9.56485 16.3931 9.56485C16.4475 9.56485 16.5014 9.55412 16.5516 9.5333C16.6018 9.51247 16.6474 9.48196 16.6856 9.44352C16.7631 9.36652 16.8066 9.2621 16.8066 9.15322C16.8066 9.04433 16.7631 8.93991 16.6856 8.86291L14.8842 7.07261C15.331 7.04237 15.7559 6.86839 16.0945 6.57696C16.433 6.28552 16.6669 5.89248 16.7608 5.45723H17.2195C17.2752 5.45966 17.3309 5.45083 17.3831 5.43128C17.4354 5.41173 17.4831 5.38187 17.5234 5.34349C17.5637 5.30512 17.5957 5.25903 17.6176 5.208C17.6395 5.15697 17.6508 5.10207 17.6507 5.0466C17.6506 4.99113 17.6393 4.93625 17.6173 4.88526C17.5953 4.83428 17.5632 4.78825 17.5228 4.74995C17.4824 4.71166 17.4346 4.68189 17.3824 4.66245C17.3301 4.643 17.2744 4.63428 17.2186 4.63682Z" fill="white"/>
<path d="M10.5019 28.3232V32.7953M14.2519 25.3418V32.7953M18.0019 23.8511V32.7953" stroke="white" stroke-width="1.17392" stroke-linejoin="round"/>
</svg>
