<svg width="18" height="18" viewBox="0 0 18 18" fill="none" xmlns="http://www.w3.org/2000/svg">
<path d="M15.4794 11.4354L12.7249 15.9236C12.4512 16.3705 12.0889 16.7566 11.6603 17.058C11.2317 17.3595 10.7458 17.57 10.2328 17.6765C9.71967 17.783 9.19022 17.7832 8.67703 17.6772C8.16384 17.5713 7.67775 17.3613 7.24883 17.0602C6.58744 17.5569 5.76999 17.8002 4.94465 17.7459C4.11931 17.6917 3.34073 17.3435 2.75002 16.7646C2.15931 16.1856 1.7956 15.4142 1.72478 14.5901C1.65396 13.766 1.88071 12.9438 2.36398 12.2726L1.40337 11.3149C0.993413 10.9056 0.681436 10.4088 0.49094 9.86174C0.300445 9.31467 0.236388 8.73155 0.30347 8.15617C0.370551 7.58078 0.567048 7.02806 0.878284 6.53949C1.18952 6.05092 1.60738 5.6392 2.10049 5.33521L6.31255 2.73525C7.45378 2.005 8.79523 1.65097 10.1482 1.72301C11.5011 1.79504 12.7974 2.2895 13.8547 3.13681L15.0662 1.92727C15.1337 1.85756 15.2143 1.80196 15.3035 1.76372C15.3926 1.72548 15.4885 1.70537 15.5855 1.70455C15.6825 1.70374 15.7787 1.72224 15.8685 1.75897C15.9583 1.79571 16.0399 1.84994 16.1085 1.91852C16.1773 1.98663 16.2315 2.068 16.2679 2.15771C16.3048 2.24711 16.3233 2.34297 16.3224 2.43966C16.3216 2.53659 16.3014 2.63239 16.263 2.7214C16.2246 2.8104 16.1687 2.89083 16.0988 2.95792L14.8882 4.16647C15.7004 5.18081 16.1907 6.41487 16.296 7.71001C16.4014 9.00516 16.117 10.3032 15.4794 11.4354ZM6.13558 16.0413L3.4199 13.3285C3.20762 13.7075 3.12578 14.1457 3.18692 14.5758C3.24805 15.0059 3.4488 15.4039 3.75829 15.7087C4.07072 16.0049 4.46779 16.1961 4.89415 16.2558C5.3205 16.3154 5.7539 16.2404 6.13558 16.0413ZM13.3812 4.66527C12.5693 3.84765 11.5017 3.33312 10.3564 3.20749C9.21102 3.08186 8.05725 3.35274 7.08747 3.97494L2.86859 6.57489C2.56283 6.76345 2.30375 7.01877 2.11076 7.32175C1.91776 7.62473 1.79584 7.96748 1.75421 8.32429C1.71258 8.6811 1.75229 9.04269 1.87035 9.38196C1.98841 9.72124 2.18182 10.0294 2.43597 10.2833L7.76027 15.5998C8.01512 15.8545 8.32439 16.0482 8.6648 16.1664C9.00521 16.2845 9.36797 16.324 9.72583 16.2819C10.0837 16.2398 10.4273 16.1172 10.731 15.9233C11.0347 15.7294 11.2906 15.4692 11.4793 15.1623L14.2222 10.6955C14.7573 9.73496 14.9648 8.62608 14.813 7.53702C14.6612 6.44796 14.1586 5.43809 13.3812 4.66043V4.66527ZM14.3156 17.7554C14.1615 17.7559 14.0112 17.7075 13.8864 17.6172C13.7615 17.527 13.6685 17.3996 13.6205 17.2531C13.5726 17.1067 13.5722 16.9489 13.6195 16.8022C13.6668 16.6556 13.7594 16.5278 13.8839 16.437C15.1625 15.4781 16.0281 14.0684 16.3049 12.4943C16.3246 12.3996 16.3628 12.3098 16.4174 12.2301C16.4719 12.1503 16.5417 12.0821 16.6228 12.0295C16.7042 11.9771 16.7951 11.9412 16.8902 11.9236C16.9869 11.906 17.086 11.908 17.1819 11.9294C17.2766 11.9498 17.3663 11.9892 17.4454 12.0451C17.5651 12.1283 17.6569 12.2456 17.709 12.3817C17.761 12.5179 17.7708 12.6665 17.7371 12.8083C17.379 14.7284 16.3134 16.4441 14.7511 17.6164C14.6246 17.7082 14.4719 17.757 14.3156 17.7554ZM0.9765 4.43483C0.841748 4.43425 0.709765 4.39644 0.59515 4.32558C0.480534 4.25471 0.387775 4.15356 0.32703 4.03327C0.266929 3.9128 0.241178 3.77808 0.252671 3.64394C0.264164 3.5098 0.312413 3.38144 0.392131 3.27295C1.58409 1.68308 3.33719 0.607271 5.29449 0.264609C5.48402 0.225929 5.68117 0.264136 5.84254 0.370807C6.00391 0.477477 6.11631 0.643894 6.15499 0.83343C6.19367 1.02297 6.15549 1.22011 6.04882 1.38148C5.94215 1.54285 5.77576 1.65522 5.58623 1.6939C3.97825 1.95989 2.53549 2.83755 1.55992 4.14315C1.49256 4.23457 1.40459 4.30884 1.30319 4.35997C1.2015 4.40971 1.08971 4.43533 0.9765 4.43483Z" fill="#3C5BFA"/>
</svg>
