<svg width="16" height="20" viewBox="0 0 16 20" fill="none" xmlns="http://www.w3.org/2000/svg">
<path d="M6.22105 1.81818H1.77605C1.3049 1.81953 0.853423 2.01152 0.520268 2.35221C0.187114 2.69289 -0.000633741 3.15457 -0.00195312 3.63636V16.3616C-0.00116166 16.8437 0.186354 17.3059 0.519565 17.6471C0.852776 17.9882 1.30455 18.1805 1.77605 18.1818H6.22105V20H7.99805V0H6.22105V1.81818ZM6.22105 15.4545H1.77605L6.22105 10V15.4545ZM14.221 1.81818H9.77705V3.63636H14.222V15.4545L9.77705 10V18.1808H14.222C14.693 18.1789 15.1441 17.9865 15.4769 17.6457C15.8096 17.3048 15.997 16.8432 15.998 16.3616V3.63636C15.9967 3.15492 15.8093 2.69355 15.4765 2.35292C15.1438 2.0123 14.6929 1.82007 14.222 1.81818H14.221Z" fill="#3F7ED3"/>
</svg>
