<svg width="17" height="16" viewBox="0 0 17 16" fill="none" xmlns="http://www.w3.org/2000/svg">
<path fill-rule="evenodd" clip-rule="evenodd" d="M8.99231 0.56897C8.99231 0.436361 9.045 0.309185 9.13876 0.215416C9.23253 0.121648 9.3597 0.0689697 9.49231 0.0689697L15.8083 0.0689697C15.9409 0.0689697 16.0681 0.121648 16.1619 0.215416C16.2556 0.309185 16.3083 0.436361 16.3083 0.56897V4.65197C16.3083 4.78458 16.2556 4.91176 16.1619 5.00552C16.0681 5.09929 15.9409 5.15197 15.8083 5.15197H9.49231C9.3597 5.15197 9.23253 5.09929 9.13876 5.00552C9.045 4.91176 8.99231 4.78458 8.99231 4.65197V0.56897ZM8.99231 6.88497C8.99231 6.75236 9.045 6.62518 9.13876 6.53142C9.23253 6.43765 9.3597 6.38497 9.49231 6.38497H15.8083C15.9409 6.38497 16.0681 6.43765 16.1619 6.53142C16.2556 6.62518 16.3083 6.75236 16.3083 6.88497V15.431C16.3083 15.5636 16.2556 15.6908 16.1619 15.7845C16.0681 15.8783 15.9409 15.931 15.8083 15.931H9.49231C9.3597 15.931 9.23253 15.8783 9.13876 15.7845C9.045 15.6908 8.99231 15.5636 8.99231 15.431V6.88497Z" fill="#3F7ED3"/>
<path fill-rule="evenodd" clip-rule="evenodd" d="M7.25829 0.0689697H0.946289C0.813681 0.0689697 0.686504 0.121648 0.592736 0.215416C0.498967 0.309185 0.446289 0.436361 0.446289 0.56897L0.446289 9.10997C0.446289 9.24258 0.498967 9.36975 0.592736 9.46352C0.686504 9.55729 0.813681 9.60997 0.946289 9.60997H7.25829C7.3909 9.60997 7.51807 9.55729 7.61184 9.46352C7.70561 9.36975 7.75829 9.24258 7.75829 9.10997V0.56897C7.75829 0.436361 7.70561 0.309185 7.61184 0.215416C7.51807 0.121648 7.3909 0.0689697 7.25829 0.0689697Z" fill="#3F7ED3"/>
<path fill-rule="evenodd" clip-rule="evenodd" d="M7.25829 10.844H0.946289C0.813681 10.844 0.686504 10.8967 0.592736 10.9904C0.498967 11.0842 0.446289 11.2114 0.446289 11.344L0.446289 15.431C0.446289 15.5636 0.498967 15.6908 0.592736 15.7845C0.686504 15.8783 0.813681 15.931 0.946289 15.931H7.25829C7.3909 15.931 7.51807 15.8783 7.61184 15.7845C7.70561 15.6908 7.75829 15.5636 7.75829 15.431V11.344C7.75829 11.2114 7.70561 11.0842 7.61184 10.9904C7.51807 10.8967 7.3909 10.844 7.25829 10.844Z" fill="#3F7ED3"/>
</svg>
