<svg width="15" height="18" viewBox="0 0 15 18" fill="none" xmlns="http://www.w3.org/2000/svg">
<path d="M9.65909 6.53846L9.38636 13.9231M5.61364 13.9231L5.34091 6.53846M13.1945 3.90508C13.4639 3.94746 13.7325 3.9928 14 4.04106M13.1945 3.90508L12.3532 15.2954C12.2821 16.2573 11.512 17 10.5857 17H4.41433C3.48801 17 2.71787 16.2573 2.64682 15.2954L1.80549 3.90508M13.1945 3.90508C12.2913 3.76302 11.3775 3.65424 10.4545 3.57996M1 4.04106C1.26754 3.9928 1.53605 3.94746 1.80549 3.90508M1.80549 3.90508C2.70873 3.76302 3.62245 3.65424 4.54545 3.57996M10.4545 3.57996V2.82826C10.4545 1.86057 9.73706 1.0527 8.80834 1.02176C8.37393 1.00729 7.93778 1 7.5 1C7.06222 1 6.62607 1.00729 6.19166 1.02176C5.26294 1.0527 4.54545 1.86057 4.54545 2.82826V3.57996M10.4545 3.57996C9.47959 3.5015 8.49428 3.46154 7.5 3.46154C6.50572 3.46154 5.52041 3.5015 4.54545 3.57996" stroke="#3F7ED3" stroke-width="1.5" stroke-linecap="round" stroke-linejoin="round"/>
</svg>
