<svg width="24" height="24" viewBox="0 0 24 24" fill="none" xmlns="http://www.w3.org/2000/svg">
<rect width="24" height="24" fill="#F4F7FF"/>
<path d="M22.2328 16.3519C21.9432 16.1986 21.6067 16.1384 21.276 16.1807C20.9454 16.223 20.6393 16.3654 20.4059 16.5856L18.7742 15.7164L20.675 12.6804C20.7075 12.6272 20.7246 12.5672 20.7246 12.5061C20.7246 12.445 20.7075 12.3849 20.675 12.3317L18.7742 9.29576L20.4025 8.42969C20.6366 8.65002 20.9436 8.79221 21.275 8.83384C21.6063 8.87547 21.9433 8.81418 22.2328 8.65963C22.4797 8.53047 22.6823 8.33986 22.8174 8.10956C22.9526 7.87926 23.0148 7.61855 22.997 7.35719C22.9793 7.09582 22.8822 6.84434 22.7169 6.63143C22.5517 6.41852 22.3248 6.25276 22.0623 6.15308C21.7998 6.0534 21.5123 6.02381 21.2324 6.06769C20.9526 6.11157 20.6917 6.22715 20.4797 6.40124C20.2676 6.57533 20.1129 6.80091 20.0331 7.05224C19.9534 7.30357 19.9518 7.57052 20.0286 7.82263L18.3969 8.69185L16.4961 5.65967C16.4633 5.60623 16.4157 5.56177 16.3583 5.53081C16.3008 5.49985 16.2354 5.4835 16.1688 5.48343H12.3713V3.74435C12.7276 3.65976 13.0383 3.45815 13.2449 3.17734C13.4516 2.89653 13.5402 2.5558 13.4939 2.21906C13.4477 1.88232 13.2699 1.57269 12.9939 1.34826C12.7179 1.12382 12.3626 1 11.9947 1C11.6268 1 11.2715 1.12382 10.9955 1.34826C10.7195 1.57269 10.5417 1.88232 10.4955 2.21906C10.4493 2.5558 10.5378 2.89653 10.7445 3.17734C10.9512 3.45815 11.2618 3.65976 11.6181 3.74435V5.48343H7.8172C7.75083 5.48438 7.68584 5.50109 7.62851 5.53196C7.57118 5.56283 7.52342 5.60682 7.48989 5.65967L5.5932 8.69185L3.95738 7.82263C4.03376 7.58485 4.03638 7.33209 3.96492 7.09301C3.91392 6.91621 3.82558 6.75044 3.70497 6.60521C3.58436 6.45998 3.43384 6.33815 3.26207 6.24671C3.09031 6.15526 2.90067 6.09602 2.70402 6.07235C2.50737 6.04869 2.30759 6.06108 2.11615 6.10882C1.89328 6.16481 1.68736 6.26733 1.51429 6.40846C1.34123 6.54959 1.20565 6.72554 1.11806 6.92272C1.03046 7.1199 0.993212 7.33302 1.00915 7.5456C1.02508 7.75819 1.09378 7.96455 1.20996 8.14873C1.32613 8.33291 1.48667 8.48997 1.67914 8.60779C1.87161 8.72559 2.09087 8.80099 2.31997 8.82815C2.54907 8.85531 2.78187 8.8335 3.00037 8.76441C3.21887 8.69532 3.41722 8.58079 3.58009 8.42969L5.2118 9.29576L3.31099 12.3317C3.27664 12.3844 3.25848 12.4446 3.25848 12.5061C3.25848 12.5675 3.27664 12.6278 3.31099 12.6804L5.2118 15.7164L3.58009 16.5856C3.41768 16.4333 3.2194 16.3177 3.00066 16.2476C2.78192 16.1775 2.54862 16.1549 2.31886 16.1815C2.0891 16.2081 1.86909 16.2832 1.6759 16.4009C1.48272 16.5187 1.32155 16.676 1.20494 16.8606C1.08834 17.0451 1.01942 17.252 1.00355 17.4651C0.98767 17.6782 1.02525 17.8919 1.1134 18.0894C1.20154 18.287 1.33788 18.4631 1.51178 18.6041C1.68569 18.7452 1.89249 18.8474 2.11615 18.9027C2.24437 18.9356 2.37678 18.9526 2.50987 18.9532C2.77452 18.9515 3.03411 18.8862 3.26308 18.7637C3.43534 18.6727 3.5861 18.5508 3.70652 18.4052C3.82693 18.2596 3.91456 18.0933 3.96423 17.916C4.03569 17.6769 4.03309 17.4241 3.95671 17.1864L5.59251 16.3171L7.48922 19.3531C7.52296 19.4055 7.57083 19.4489 7.6282 19.4792C7.68556 19.5094 7.75045 19.5254 7.81651 19.5256H11.6174V21.2646C11.2624 21.3492 10.953 21.5503 10.7473 21.8303C10.5415 22.1102 10.4534 22.4498 10.4996 22.7854C10.5458 23.1209 10.7231 23.4294 10.9982 23.653C11.2733 23.8766 11.6274 24 11.994 24C12.3607 24 12.7148 23.8766 12.9899 23.653C13.265 23.4294 13.4422 23.1209 13.4884 22.7854C13.5346 22.4498 13.4466 22.1102 13.2408 21.8303C13.035 21.5503 12.7256 21.3492 12.3706 21.2646V19.5256H16.1681C16.2344 19.5263 16.2997 19.5107 16.3572 19.4803C16.4147 19.45 16.4624 19.4061 16.4954 19.3531L18.3962 16.3171L20.0279 17.1864C19.9653 17.3928 19.9553 17.6097 19.9987 17.8203C20.042 18.0309 20.1376 18.2294 20.2779 18.4002C20.4182 18.571 20.5994 18.7096 20.8074 18.8051C21.0154 18.9006 21.2445 18.9505 21.4768 18.9507C21.6099 18.9496 21.7422 18.9326 21.8706 18.9002C22.0617 18.8531 22.241 18.7717 22.398 18.6608C22.5551 18.5498 22.687 18.4113 22.786 18.2533C22.8858 18.0949 22.9507 17.9199 22.9768 17.7383C23.003 17.5567 22.99 17.3721 22.9386 17.1952C22.8872 17.0182 22.7984 16.8524 22.6772 16.7073C22.5561 16.5621 22.405 16.4405 22.2328 16.3494V16.3519Z" fill="#E76F51"/>
<path d="M15.3764 9.73429V8.78406H9.19434V9.73429H11.7834C11.9232 9.89561 12.0834 10.1274 12.1866 10.4173H9.19434V11.3675H12.237C11.8411 12.2611 9.19434 12.288 9.19434 12.288V12.971L12.7839 16.3561H14.6186L11.9064 13.2382C11.9064 13.2382 13.7735 12.6476 13.9617 11.3675H15.3764V10.4173H13.8843C13.8053 10.1305 13.6872 9.90626 13.5641 9.73429H15.3764Z" fill="white"/>
</svg>
