<svg width="28" height="22" viewBox="0 0 28 22" fill="none" xmlns="http://www.w3.org/2000/svg">
<path d="M23 17.7476V12.7451L16.988 16.1966C16.0787 16.7188 15.0485 16.9936 14 16.9936C12.9515 16.9936 11.9213 16.7188 11.012 16.1966L5 12.7466V17.7476C4.99983 17.8462 5.01908 17.9438 5.05665 18.0349C5.09423 18.126 5.1494 18.2089 5.219 18.2786L5.222 18.2801L5.225 18.2846L5.2355 18.2936L5.27 18.3266L5.39 18.4376C5.53662 18.5663 5.68719 18.6903 5.8415 18.8096C6.38028 19.2233 6.95278 19.5911 7.553 19.9091C9.53819 20.9622 11.7528 21.5084 14 21.4991C16.2472 21.5084 18.4618 20.9622 20.447 19.9091C21.0467 19.5911 21.6187 19.2233 22.157 18.8096C22.3549 18.657 22.5461 18.4959 22.73 18.3266L22.7645 18.2936C22.838 18.2228 22.8967 18.138 22.9371 18.0443C22.9776 17.9506 22.9989 17.8497 23 17.7476ZM0.876501 8.64863L11.759 14.8961C12.4409 15.2878 13.2136 15.4938 14 15.4938C14.7864 15.4938 15.5591 15.2878 16.241 14.8961L26 9.29363V16.2476C26 16.4465 26.079 16.6373 26.2197 16.778C26.3603 16.9186 26.5511 16.9976 26.75 16.9976C26.9489 16.9976 27.1397 16.9186 27.2803 16.778C27.421 16.6373 27.5 16.4465 27.5 16.2476V7.99763C27.5001 7.86241 27.4636 7.72968 27.3944 7.6135C27.3252 7.49731 27.2259 7.40199 27.107 7.33763L16.241 1.09913C15.5592 0.707065 14.7865 0.500732 14 0.500732C13.2135 0.500732 12.4408 0.707065 11.759 1.09913L0.876501 7.34813C0.762144 7.41386 0.667141 7.50858 0.60108 7.62274C0.535017 7.73691 0.500235 7.86648 0.500235 7.99838C0.500235 8.13028 0.535017 8.25985 0.60108 8.37401C0.667141 8.48818 0.762144 8.5829 0.876501 8.64863Z" fill="#CDCDCD"/>
</svg>
