<svg width="30" height="30" viewBox="0 0 30 30" fill="none" xmlns="http://www.w3.org/2000/svg">
<path d="M14.9969 4.35394C13.6717 4.35394 12.3764 4.74689 11.2746 5.4831C10.1727 6.2193 9.31399 7.2657 8.80689 8.48996C8.29978 9.71423 8.1671 11.0614 8.42562 12.361C8.68414 13.6607 9.32225 14.8545 10.2593 15.7916C11.1963 16.7286 12.3901 17.3667 13.6898 17.6252C14.9894 17.8837 16.3366 17.751 17.5609 17.2439C18.7851 16.7368 19.8315 15.8781 20.5677 14.7763C21.3039 13.6745 21.6969 12.3791 21.6969 11.0539C21.6942 9.2778 20.9875 7.57517 19.7316 6.31925C18.4757 5.06333 16.773 4.35659 14.9969 4.35394ZM14.9969 5.14294C16.2042 5.14437 17.3822 5.51502 18.3728 6.20516C19.3634 6.8953 20.1192 7.87191 20.5389 9.00394L19.0249 9.45294C18.7225 8.69133 18.2102 8.03114 17.5475 7.54905C16.8849 7.06697 16.099 6.78277 15.2813 6.72947C14.4636 6.67617 13.6475 6.85596 12.9279 7.24794C12.2083 7.63993 11.6146 8.22803 11.2159 8.94394L9.77088 8.30194C10.2724 7.34998 11.024 6.5528 11.9449 5.99618C12.8657 5.43956 13.9209 5.14456 14.9969 5.14294ZM14.9969 7.50894C15.6988 7.50855 16.3851 7.71637 16.9689 8.10612C17.5527 8.49588 18.0078 9.05004 18.2765 9.69849C18.5453 10.3469 18.6156 11.0605 18.4787 11.749C18.3418 12.4375 18.0038 13.0698 17.5073 13.5661C17.0109 14.0624 16.3785 14.4003 15.69 14.537C15.0015 14.6737 14.2879 14.6031 13.6395 14.3342C12.9911 14.0653 12.4371 13.61 12.0475 13.0261C11.6579 12.4422 11.4503 11.7559 11.4509 11.0539C11.4525 10.114 11.8266 9.21295 12.4912 8.54829C13.1559 7.88363 14.0569 7.51053 14.9969 7.50894ZM14.9969 16.9719C14.0446 16.974 13.106 16.7456 12.2611 16.3061C11.4163 15.8666 10.6905 15.2291 10.1455 14.4482C9.60058 13.6672 9.25278 12.766 9.13181 11.8214C9.01085 10.8768 9.12032 9.91702 9.45088 9.02394L10.8939 9.66494C10.6932 10.2605 10.6244 10.8925 10.6922 11.5173C10.76 12.142 10.9629 12.7446 11.2867 13.2831C11.6105 13.8217 12.0476 14.2834 12.5676 14.6363C13.0876 14.9892 13.6781 15.2248 14.2982 15.3268C14.9183 15.4289 15.5531 15.3948 16.1588 15.2271C16.7644 15.0594 17.3263 14.762 17.8056 14.3556C18.2849 13.9491 18.6701 13.4433 18.9345 12.8732C19.1989 12.3031 19.3362 11.6824 19.3369 11.0539C19.3367 10.7689 19.3085 10.4845 19.2529 10.2049L20.7669 9.75594C20.9648 10.6217 20.9648 11.521 20.7667 12.3867C20.5687 13.2525 20.1777 14.0623 19.623 14.7559C19.0684 15.4495 18.3643 16.0089 17.5633 16.3924C16.7622 16.776 15.885 16.9747 14.9969 16.9719Z" fill="url(#paint0_linear_372_3357)"/>
<mask id="path-2-inside-1_372_3357" fill="white">
<path d="M25.6446 9.47696C25.9565 9.47696 26.2614 9.38447 26.5207 9.21119C26.7801 9.0379 26.9822 8.79161 27.1016 8.50345C27.2209 8.21529 27.2522 7.89821 27.1913 7.5923C27.1305 7.28639 26.9803 7.0054 26.7597 6.78485C26.5392 6.5643 26.2582 6.41411 25.9523 6.35326C25.6464 6.29241 25.3293 6.32364 25.0411 6.443C24.753 6.56236 24.5067 6.76449 24.3334 7.02382C24.1601 7.28316 24.0676 7.58806 24.0676 7.89996C24.0676 7.91896 24.0676 7.93596 24.0736 7.95396L22.8096 8.32896C22.2768 6.7928 21.3027 5.44792 20.0093 4.46265C18.7159 3.47738 17.1606 2.89549 15.5381 2.78982C13.9156 2.68414 12.298 3.05937 10.8877 3.86855C9.47746 4.67772 8.33718 5.88489 7.60961 7.33896L5.90461 6.58296C5.95683 6.26466 5.91007 5.93799 5.77064 5.64713C5.6312 5.35627 5.40582 5.11523 5.12497 4.95659C4.84412 4.79796 4.52133 4.72938 4.20024 4.76014C3.87915 4.79089 3.57524 4.91948 3.3296 5.12854C3.08396 5.33759 2.90843 5.61703 2.82674 5.92907C2.74505 6.24111 2.76113 6.57071 2.87282 6.87332C2.98451 7.17592 3.18641 7.43694 3.45124 7.62108C3.71607 7.80523 4.03105 7.90362 4.35361 7.90296C4.59029 7.90198 4.82368 7.8475 5.03633 7.7436C5.24898 7.6397 5.43539 7.48906 5.58161 7.30296L7.28861 8.06196C6.78311 9.34729 6.61045 10.7395 6.78667 12.1094C6.96288 13.4792 7.48226 14.7824 8.29661 15.898V26.434H6.71961V16.182H3.56561V27.222H26.4336V13.817H23.2766V26.434H21.7016V19.334H18.5476V26.434H16.7576C17.1481 26.0015 17.3644 25.4396 17.3646 24.857V22.097C17.3648 21.8972 17.3142 21.7006 17.2177 21.5257C17.1211 21.3508 16.9818 21.2033 16.8126 21.097C16.9149 20.9207 16.9694 20.7208 16.9706 20.517V19.087C18.0279 18.833 19.0244 18.3721 19.9025 17.7309C20.7806 17.0896 21.5229 16.2807 22.0866 15.3509C22.6502 14.421 23.024 13.3887 23.1864 12.3136C23.3488 11.2384 23.2965 10.1418 23.0326 9.08696L24.2986 8.71196C24.4376 8.94515 24.6347 9.13836 24.8706 9.27278C25.1064 9.40719 25.3731 9.47823 25.6446 9.47896V9.47696ZM4.35361 7.11396C4.19756 7.11396 4.04502 7.06768 3.91527 6.98099C3.78552 6.89429 3.68439 6.77107 3.62467 6.6269C3.56495 6.48273 3.54933 6.32408 3.57977 6.17103C3.61022 6.01798 3.68536 5.8774 3.7957 5.76705C3.90605 5.65671 4.04663 5.58156 4.19969 5.55112C4.35274 5.52068 4.51138 5.5363 4.65555 5.59602C4.79972 5.65574 4.92294 5.75686 5.00964 5.88661C5.09634 6.01636 5.14261 6.16891 5.14261 6.32496C5.14261 6.42857 5.1222 6.53117 5.08255 6.6269C5.0429 6.72262 4.98478 6.8096 4.91152 6.88287C4.83825 6.95613 4.75127 7.01425 4.65555 7.0539C4.55982 7.09355 4.45722 7.11396 4.35361 7.11396ZM5.93061 26.434H4.35361V16.971H5.93061V26.434ZM24.0676 14.605H25.6446V26.434H24.0676V14.605ZM9.08461 16.84C9.55778 17.3213 10.0877 17.7434 10.6626 18.097V26.434H9.08461V16.84ZM13.1846 21.099C13.0155 21.2053 12.8761 21.3528 12.7795 21.5277C12.683 21.7026 12.6324 21.8992 12.6326 22.099V24.859C12.6328 25.4416 12.8491 26.0035 13.2396 26.436H11.4506V18.526C11.9557 18.7668 12.4841 18.9555 13.0276 19.089V20.519C13.0289 20.7228 13.0833 20.9227 13.1856 21.099H13.1846ZM19.3346 20.125H20.9116V26.433H19.3366L19.3346 20.125ZM13.4206 24.856V22.097C13.4206 21.9925 13.4621 21.8922 13.536 21.8184C13.6099 21.7445 13.7101 21.703 13.8146 21.703H16.1806C16.2851 21.703 16.3853 21.7445 16.4592 21.8184C16.5331 21.8922 16.5746 21.9925 16.5746 22.097V24.857C16.5746 25.2752 16.4085 25.6763 16.1127 25.9721C15.817 26.2678 15.4159 26.434 14.9976 26.434C14.5794 26.434 14.1782 26.2678 13.8825 25.9721C13.5868 25.6763 13.4206 25.2742 13.4206 24.856ZM16.1806 20.519C16.1806 20.6235 16.1391 20.7237 16.0652 20.7976C15.9913 20.8714 15.8911 20.913 15.7866 20.913H14.2106C14.1061 20.913 14.0059 20.8714 13.932 20.7976C13.8581 20.7237 13.8166 20.6235 13.8166 20.519V19.242C14.2081 19.302 14.6035 19.3338 14.9996 19.337C15.3957 19.3338 15.7911 19.302 16.1826 19.242L16.1806 20.519ZM14.9976 18.548C13.5161 18.5476 12.068 18.1079 10.8364 17.2845C9.60475 16.4612 8.64493 15.2911 8.07826 13.9223C7.51159 12.5534 7.36353 11.0473 7.65279 9.59431C7.94206 8.14133 8.65567 6.80675 9.70338 5.75932C10.7511 4.71188 12.0859 3.99863 13.5389 3.70975C14.992 3.42087 16.4981 3.56933 17.8668 4.13637C19.2354 4.7034 20.4053 5.66354 21.2283 6.89539C22.0513 8.12723 22.4906 9.57546 22.4906 11.057C22.4882 13.043 21.6982 14.9469 20.2939 16.3513C18.8896 17.7556 16.9856 18.5456 14.9996 18.548H14.9976ZM25.6446 7.11396C25.8007 7.11396 25.9532 7.16023 26.083 7.24693C26.2127 7.33363 26.3138 7.45685 26.3736 7.60102C26.4333 7.74519 26.4489 7.90383 26.4185 8.05688C26.388 8.20994 26.3129 8.35052 26.2025 8.46087C26.0922 8.57121 25.9516 8.64635 25.7985 8.6768C25.6455 8.70724 25.4868 8.69162 25.3427 8.6319C25.1985 8.57218 25.0753 8.47105 24.9886 8.3413C24.9019 8.21155 24.8556 8.05901 24.8556 7.90296C24.8556 7.6937 24.9387 7.49302 25.0867 7.34505C25.2347 7.19708 25.4354 7.11396 25.6446 7.11396Z"/>
</mask>
<path d="M25.6446 9.47696C25.9565 9.47696 26.2614 9.38447 26.5207 9.21119C26.7801 9.0379 26.9822 8.79161 27.1016 8.50345C27.2209 8.21529 27.2522 7.89821 27.1913 7.5923C27.1305 7.28639 26.9803 7.0054 26.7597 6.78485C26.5392 6.5643 26.2582 6.41411 25.9523 6.35326C25.6464 6.29241 25.3293 6.32364 25.0411 6.443C24.753 6.56236 24.5067 6.76449 24.3334 7.02382C24.1601 7.28316 24.0676 7.58806 24.0676 7.89996C24.0676 7.91896 24.0676 7.93596 24.0736 7.95396L22.8096 8.32896C22.2768 6.7928 21.3027 5.44792 20.0093 4.46265C18.7159 3.47738 17.1606 2.89549 15.5381 2.78982C13.9156 2.68414 12.298 3.05937 10.8877 3.86855C9.47746 4.67772 8.33718 5.88489 7.60961 7.33896L5.90461 6.58296C5.95683 6.26466 5.91007 5.93799 5.77064 5.64713C5.6312 5.35627 5.40582 5.11523 5.12497 4.95659C4.84412 4.79796 4.52133 4.72938 4.20024 4.76014C3.87915 4.79089 3.57524 4.91948 3.3296 5.12854C3.08396 5.33759 2.90843 5.61703 2.82674 5.92907C2.74505 6.24111 2.76113 6.57071 2.87282 6.87332C2.98451 7.17592 3.18641 7.43694 3.45124 7.62108C3.71607 7.80523 4.03105 7.90362 4.35361 7.90296C4.59029 7.90198 4.82368 7.8475 5.03633 7.7436C5.24898 7.6397 5.43539 7.48906 5.58161 7.30296L7.28861 8.06196C6.78311 9.34729 6.61045 10.7395 6.78667 12.1094C6.96288 13.4792 7.48226 14.7824 8.29661 15.898V26.434H6.71961V16.182H3.56561V27.222H26.4336V13.817H23.2766V26.434H21.7016V19.334H18.5476V26.434H16.7576C17.1481 26.0015 17.3644 25.4396 17.3646 24.857V22.097C17.3648 21.8972 17.3142 21.7006 17.2177 21.5257C17.1211 21.3508 16.9818 21.2033 16.8126 21.097C16.9149 20.9207 16.9694 20.7208 16.9706 20.517V19.087C18.0279 18.833 19.0244 18.3721 19.9025 17.7309C20.7806 17.0896 21.5229 16.2807 22.0866 15.3509C22.6502 14.421 23.024 13.3887 23.1864 12.3136C23.3488 11.2384 23.2965 10.1418 23.0326 9.08696L24.2986 8.71196C24.4376 8.94515 24.6347 9.13836 24.8706 9.27278C25.1064 9.40719 25.3731 9.47823 25.6446 9.47896V9.47696ZM4.35361 7.11396C4.19756 7.11396 4.04502 7.06768 3.91527 6.98099C3.78552 6.89429 3.68439 6.77107 3.62467 6.6269C3.56495 6.48273 3.54933 6.32408 3.57977 6.17103C3.61022 6.01798 3.68536 5.8774 3.7957 5.76705C3.90605 5.65671 4.04663 5.58156 4.19969 5.55112C4.35274 5.52068 4.51138 5.5363 4.65555 5.59602C4.79972 5.65574 4.92294 5.75686 5.00964 5.88661C5.09634 6.01636 5.14261 6.16891 5.14261 6.32496C5.14261 6.42857 5.1222 6.53117 5.08255 6.6269C5.0429 6.72262 4.98478 6.8096 4.91152 6.88287C4.83825 6.95613 4.75127 7.01425 4.65555 7.0539C4.55982 7.09355 4.45722 7.11396 4.35361 7.11396ZM5.93061 26.434H4.35361V16.971H5.93061V26.434ZM24.0676 14.605H25.6446V26.434H24.0676V14.605ZM9.08461 16.84C9.55778 17.3213 10.0877 17.7434 10.6626 18.097V26.434H9.08461V16.84ZM13.1846 21.099C13.0155 21.2053 12.8761 21.3528 12.7795 21.5277C12.683 21.7026 12.6324 21.8992 12.6326 22.099V24.859C12.6328 25.4416 12.8491 26.0035 13.2396 26.436H11.4506V18.526C11.9557 18.7668 12.4841 18.9555 13.0276 19.089V20.519C13.0289 20.7228 13.0833 20.9227 13.1856 21.099H13.1846ZM19.3346 20.125H20.9116V26.433H19.3366L19.3346 20.125ZM13.4206 24.856V22.097C13.4206 21.9925 13.4621 21.8922 13.536 21.8184C13.6099 21.7445 13.7101 21.703 13.8146 21.703H16.1806C16.2851 21.703 16.3853 21.7445 16.4592 21.8184C16.5331 21.8922 16.5746 21.9925 16.5746 22.097V24.857C16.5746 25.2752 16.4085 25.6763 16.1127 25.9721C15.817 26.2678 15.4159 26.434 14.9976 26.434C14.5794 26.434 14.1782 26.2678 13.8825 25.9721C13.5868 25.6763 13.4206 25.2742 13.4206 24.856ZM16.1806 20.519C16.1806 20.6235 16.1391 20.7237 16.0652 20.7976C15.9913 20.8714 15.8911 20.913 15.7866 20.913H14.2106C14.1061 20.913 14.0059 20.8714 13.932 20.7976C13.8581 20.7237 13.8166 20.6235 13.8166 20.519V19.242C14.2081 19.302 14.6035 19.3338 14.9996 19.337C15.3957 19.3338 15.7911 19.302 16.1826 19.242L16.1806 20.519ZM14.9976 18.548C13.5161 18.5476 12.068 18.1079 10.8364 17.2845C9.60475 16.4612 8.64493 15.2911 8.07826 13.9223C7.51159 12.5534 7.36353 11.0473 7.65279 9.59431C7.94206 8.14133 8.65567 6.80675 9.70338 5.75932C10.7511 4.71188 12.0859 3.99863 13.5389 3.70975C14.992 3.42087 16.4981 3.56933 17.8668 4.13637C19.2354 4.7034 20.4053 5.66354 21.2283 6.89539C22.0513 8.12723 22.4906 9.57546 22.4906 11.057C22.4882 13.043 21.6982 14.9469 20.2939 16.3513C18.8896 17.7556 16.9856 18.5456 14.9996 18.548H14.9976ZM25.6446 7.11396C25.8007 7.11396 25.9532 7.16023 26.083 7.24693C26.2127 7.33363 26.3138 7.45685 26.3736 7.60102C26.4333 7.74519 26.4489 7.90383 26.4185 8.05688C26.388 8.20994 26.3129 8.35052 26.2025 8.46087C26.0922 8.57121 25.9516 8.64635 25.7985 8.6768C25.6455 8.70724 25.4868 8.69162 25.3427 8.6319C25.1985 8.57218 25.0753 8.47105 24.9886 8.3413C24.9019 8.21155 24.8556 8.05901 24.8556 7.90296C24.8556 7.6937 24.9387 7.49302 25.0867 7.34505C25.2347 7.19708 25.4354 7.11396 25.6446 7.11396Z" stroke="#2994D5" stroke-width="2.4" stroke-linecap="round" mask="url(#path-2-inside-1_372_3357)"/>
<path d="M15.0732 13.024C15.0932 13.0422 15.1193 13.0522 15.1462 13.052H15.2718L15.151 12.9402L15.1462 12.9454L15.1454 12.9463L15.0732 13.024ZM15.0732 13.024L13.6072 11.662M15.0732 13.024L15.1454 12.945L15.1462 12.9441L15.1503 12.9396L15.1462 12.9358L15.1453 12.935L14.2067 12.0663L13.7147 11.611H13.6802C13.6914 11.611 13.7024 11.6106 13.7134 11.6098L13.6853 11.5838L13.6844 11.583L13.6836 11.5823L13.6826 11.5813L13.681 11.583L13.6802 11.5837L13.679 11.5851L13.6072 11.662M15.8822 13.052H15.784L15.882 12.9461L15.8822 13.052ZM15.8822 13.052C15.9037 13.0519 15.9246 13.0454 15.9423 13.0334C15.96 13.0213 15.9737 13.0042 15.9815 12.9842C15.9894 12.9643 15.9911 12.9425 15.9864 12.9216C15.9817 12.9007 15.9709 12.8816 15.9552 12.867L15.8822 12.7994V12.9447L15.9552 12.867L15.8833 12.9447L15.8828 12.9453L15.8824 12.9456L15.8822 12.9459V13.052ZM13.6072 11.662L13.679 11.5847L13.6797 11.584L13.6799 11.5837L13.6802 11.5834L13.6806 11.583L13.6824 11.5811L13.6072 11.662ZM15.4046 13.052H15.7815L15.882 12.945L15.8817 12.7989L15.6123 12.5496L15.6015 12.5396C15.5212 12.5951 15.4592 12.6732 15.4234 12.764C15.3873 12.8556 15.3794 12.9559 15.4008 13.052H15.4046ZM15.5068 12.452L15.1728 12.1429C15.1304 12.1562 15.0875 12.1679 15.0442 12.178L15.3391 12.452H15.5068ZM14.6142 11.626L14.6124 11.7769L14.5383 11.708L14.4356 11.6126C14.4956 11.615 14.5553 11.613 14.6145 11.6066C14.6211 11.6059 14.6277 11.6051 14.6343 11.6043L14.6142 11.626ZM15.2884 11.4324L15.2182 11.3674C15.2246 11.3625 15.231 11.3575 15.2374 11.3525C15.2892 11.3117 15.3372 11.2671 15.3812 11.2191C15.5451 11.0402 15.6528 10.8151 15.688 10.5721L15.6959 10.518H15.8437C15.8161 10.8175 15.6788 11.0967 15.4575 11.3015C15.4047 11.3503 15.3481 11.394 15.2884 11.4324Z" stroke="#2994D5" stroke-width="1.2" stroke-linecap="round"/>
<defs>
<linearGradient id="paint0_linear_372_3357" x1="20.7681" y1="5.6569" x2="8.29687" y2="17.7558" gradientUnits="userSpaceOnUse">
<stop stop-color="#0F4285"/>
<stop offset="1" stop-color="#3F7ED3"/>
</linearGradient>
</defs>
</svg>
