<svg width="30" height="26" viewBox="0 0 30 26" fill="none" xmlns="http://www.w3.org/2000/svg">
<path d="M30 19.4494V18.576C29.9997 18.2286 29.8586 17.8955 29.6078 17.6499C29.357 17.4043 29.0169 17.2662 28.6622 17.2659H28.1396C28.1906 17.1257 28.2166 16.978 28.2163 16.8291V15.9557C28.216 15.6084 28.075 15.2753 27.8242 15.0297C27.5733 14.784 27.2333 14.6459 26.8786 14.6456H25.6894C25.9982 13.4756 26.1546 12.2719 26.155 11.0634V5.41828C26.1549 5.31257 26.1158 5.21047 26.0447 5.13091C25.9736 5.05135 25.8755 4.99974 25.7685 4.98565C23.8508 4.73381 21.9926 4.15606 20.2778 3.27841C18.686 2.46479 17.2402 1.4028 15.9969 0.134119C15.9559 0.0925604 15.9069 0.0593397 15.8527 0.036359C15.7985 0.0133784 15.7403 0.0010895 15.6812 0.000195522C15.6212 -0.00157285 15.5615 0.0086695 15.5057 0.0302956C15.4499 0.0519216 15.3991 0.0844762 15.3566 0.125967C14.2824 1.16618 13.0784 2.06944 11.7732 2.81434C9.85666 3.90538 7.7516 4.64198 5.56303 4.98739C5.45864 5.00411 5.36371 5.05662 5.29521 5.13555C5.2267 5.21448 5.18908 5.31469 5.18905 5.41828V11.0634C5.18945 12.4873 5.40627 13.9032 5.83236 15.2646C5.74699 15.2968 5.65509 15.3091 5.56402 15.3003C5.47295 15.2915 5.38525 15.2619 5.30796 15.2139C5.13513 15.1054 4.94108 15.0334 4.73821 15.0025C4.53535 14.9716 4.32813 14.9825 4.12982 15.0345C3.9315 15.0866 3.74645 15.1785 3.58649 15.3045C3.42653 15.4306 3.29518 15.5879 3.20085 15.7665C3.14982 15.8638 3.07127 15.9446 2.97459 15.9993C2.87791 16.0541 2.76718 16.0804 2.65564 16.0751C2.45046 16.0656 2.24552 16.0982 2.05396 16.1708C1.86239 16.2434 1.68841 16.3544 1.54317 16.4966C1.39792 16.6389 1.28462 16.8092 1.2105 16.9969C1.13638 17.1845 1.10309 17.3852 1.11276 17.5861C1.11783 17.6953 1.09085 17.8036 1.035 17.8983C0.979153 17.9929 0.89678 18.0699 0.797639 18.1201C0.615276 18.2125 0.454612 18.3412 0.325914 18.4979C0.197217 18.6546 0.103317 18.8359 0.050215 19.0301C-0.00288672 19.2244 -0.0140221 19.4274 0.0175206 19.6261C0.0490633 19.8248 0.12259 20.0149 0.233402 20.1842C0.293363 20.2763 0.325217 20.3833 0.325217 20.4925C0.325217 20.6018 0.293363 20.7087 0.233402 20.8009C0.1226 20.9701 0.0490802 21.1602 0.0175432 21.3588C-0.0139939 21.5575 -0.00285429 21.7604 0.0502498 21.9547C0.103354 22.1489 0.197254 22.3301 0.325947 22.4868C0.45464 22.6434 0.615294 22.7721 0.797639 22.8644C0.89678 22.9148 0.979134 22.9919 1.03497 23.0866C1.09081 23.1813 1.1178 23.2897 1.11276 23.399C1.10324 23.6001 1.13674 23.801 1.2111 23.9887C1.28546 24.1765 1.39904 24.3469 1.54457 24.4892C1.69011 24.6314 1.86437 24.7423 2.05621 24.8148C2.24805 24.8873 2.45323 24.9197 2.65861 24.91C2.77015 24.9047 2.88088 24.931 2.97756 24.9857C3.07425 25.0405 3.15279 25.1213 3.20382 25.2186C3.29818 25.3968 3.42944 25.5539 3.58921 25.6797C3.74898 25.8055 3.93377 25.8973 4.13179 25.9493C4.32982 26.0013 4.53673 26.0123 4.73934 25.9816C4.94195 25.951 5.13581 25.8793 5.30856 25.7712C5.4027 25.7124 5.51203 25.6812 5.62367 25.6812C5.73532 25.6812 5.84465 25.7124 5.93879 25.7712C6.11154 25.8793 6.3054 25.951 6.50801 25.9816C6.71062 26.0123 6.91753 26.0013 7.11555 25.9493C7.31358 25.8973 7.49837 25.8055 7.65814 25.6797C7.81791 25.5539 7.94917 25.3968 8.04353 25.2186C8.09489 25.1214 8.17359 25.0408 8.27032 24.9861C8.36705 24.9314 8.47776 24.905 8.58934 24.91C8.79444 24.9192 8.99926 24.8864 9.1907 24.8137C9.38214 24.741 9.55601 24.63 9.70119 24.4879C9.84638 24.3457 9.9597 24.1754 10.0339 23.9879C10.1081 23.8004 10.1416 23.5998 10.1322 23.399C10.1272 23.2897 10.1542 23.1813 10.21 23.0866C10.2658 22.9919 10.3482 22.9148 10.4473 22.8644C10.5718 22.8013 10.6863 22.7209 10.7874 22.6257C10.9824 22.7952 11.1804 22.9617 11.382 23.1218C12.6398 24.124 14.0138 24.9777 15.4755 25.6652C15.5359 25.6939 15.6022 25.7089 15.6693 25.7089C15.7365 25.7089 15.8028 25.6939 15.8632 25.6652C17.1976 25.0368 18.4597 24.2707 19.6279 23.3798H19.6719C19.6212 23.52 19.5952 23.6677 19.5952 23.8165V24.6899C19.5957 25.0372 19.7368 25.3702 19.9876 25.6158C20.2383 25.8614 20.5783 25.9995 20.933 26H28.6622C29.0169 25.9997 29.357 25.8616 29.6078 25.6159C29.8586 25.3703 29.9997 25.0373 30 24.6899V23.8165C29.9997 23.4691 29.8586 23.136 29.6078 22.8904C29.357 22.6448 29.0169 22.5067 28.6622 22.5063H28.1396C28.1906 22.3662 28.2166 22.2184 28.2163 22.0696V21.1962C28.2166 21.0474 28.1906 20.8997 28.1396 20.7595H28.6622C29.0169 20.7592 29.357 20.6211 29.6078 20.3754C29.8586 20.1298 29.9997 19.7968 30 19.4494ZM7.35384 18.8479L4.94112 21.2108L3.89291 20.1836C3.80926 20.1017 3.6958 20.0557 3.5775 20.0557C3.4592 20.0557 3.34574 20.1017 3.26209 20.1836C3.17843 20.2656 3.13144 20.3767 3.13144 20.4925C3.13144 20.6084 3.17843 20.7195 3.26209 20.8014L4.626 22.1372C4.70979 22.2189 4.8232 22.2647 4.94142 22.2647C5.05964 22.2647 5.17304 22.2189 5.25683 22.1372L7.98407 19.4657C8.06534 19.3834 8.11034 19.2731 8.10938 19.1586C8.10842 19.0441 8.06158 18.9345 7.97894 18.8535C7.8963 18.7725 7.78448 18.7265 7.66756 18.7255C7.55064 18.7244 7.43798 18.7684 7.35384 18.8479Z" fill="#DDDDDD"/>
<path d="M3 20.8363L4.39848 22.2135L6.72928 19.9181L7.6616 19" stroke="white" stroke-width="0.788123" stroke-linecap="round" stroke-linejoin="round"/>
<path d="M17.0395 10.3089H16.4247C16.3401 9.88569 16.1624 9.48777 15.905 9.14527H17.0395C17.188 9.14527 17.3304 9.08494 17.4354 8.97755C17.5404 8.87016 17.5994 8.72451 17.5994 8.57264C17.5994 8.42076 17.5404 8.27511 17.4354 8.16772C17.3304 8.06033 17.188 8 17.0395 8H12.5599C12.4114 8 12.269 8.06033 12.164 8.16772C12.059 8.27511 12 8.42076 12 8.57264C12 8.72451 12.059 8.87016 12.164 8.97755C12.269 9.08494 12.4114 9.14527 12.5599 9.14527H13.6798C14.4156 9.14527 15.0349 9.6343 15.2622 10.3089H12.5599C12.4114 10.3089 12.269 10.3692 12.164 10.4766C12.059 10.584 12 10.7296 12 10.8815C12 11.0334 12.059 11.179 12.164 11.2864C12.269 11.3938 12.4114 11.4541 12.5599 11.4541H15.251C15.1334 11.7839 14.9197 12.0687 14.6387 12.2703C14.3577 12.4718 14.023 12.5803 13.6798 12.5811H12.5599C12.4114 12.5811 12.269 12.6414 12.164 12.7488C12.059 12.8562 12 13.0018 12 13.1537L12.0022 13.1629C12.0005 13.2395 12.014 13.3156 12.0419 13.3867C12.0698 13.4578 12.1115 13.5223 12.1646 13.5763L15.5243 17.0121C15.5761 17.0657 15.6379 17.1083 15.7059 17.1373C15.774 17.1664 15.847 17.1813 15.9207 17.1813C15.9944 17.1813 16.0674 17.1664 16.1355 17.1373C16.2035 17.1083 16.2653 17.0657 16.3171 17.0121C16.4221 16.9047 16.4811 16.7591 16.4811 16.6073C16.4811 16.4554 16.4221 16.3098 16.3171 16.2024L13.8758 13.7057C14.4814 13.6636 15.0571 13.4209 15.516 13.0145C15.9748 12.6081 16.2918 12.06 16.4191 11.453H17.0406C17.1162 11.4564 17.1916 11.4441 17.2624 11.4168C17.3332 11.3895 17.3978 11.3479 17.4525 11.2944C17.5071 11.2409 17.5505 11.1766 17.5802 11.1054C17.6098 11.0343 17.6251 10.9577 17.625 10.8803C17.6249 10.803 17.6095 10.7264 17.5797 10.6553C17.5499 10.5842 17.5064 10.52 17.4516 10.4666C17.3969 10.4132 17.3322 10.3717 17.2613 10.3446C17.1905 10.3175 17.115 10.3053 17.0395 10.3089Z" fill="white"/>
<path d="M19 16H26.5M20.8646 18.7544H28.3015M18.1091 21.0497H26.5M20.8646 23.8041H28" stroke="white" stroke-width="0.788123" stroke-linecap="round" stroke-linejoin="round"/>
</svg>
