<svg width="40" height="25" viewBox="0 0 40 25" fill="none" xmlns="http://www.w3.org/2000/svg">
<ellipse cx="33.7805" cy="17.1791" rx="6.21995" ry="6.95182" fill="#B1B1B1"/>
<ellipse cx="32.5364" cy="17.1791" rx="6.21995" ry="6.95182" fill="url(#paint0_linear_1_260)"/>
<path d="M36.2678 14.0548V13.0079H30.0479V14.0548H32.6528C32.7934 14.2325 32.9547 14.4879 33.0585 14.8072H30.0479V15.8541H33.1092C32.7109 16.8386 30.0479 16.8682 30.0479 16.8682V17.6207L33.6594 21.3501H35.5053L32.7766 17.9151C32.7766 17.9151 34.6551 17.2644 34.8444 15.8541H36.2678V14.8072H34.7666C34.6871 14.4913 34.5682 14.2442 34.4444 14.0548H36.2678Z" fill="#C0C0C0"/>
<g clip-path="url(#clip0_1_260)">
<path fill-rule="evenodd" clip-rule="evenodd" d="M6.6735 15.5851L8.41487 8.8375C8.4786 8.5907 8.68213 8.42993 8.90417 8.42993H16.3281C16.5748 8.42993 16.7804 8.62466 16.8277 8.88053L18.6143 15.619C18.6924 15.9157 18.5382 16.2236 18.2689 16.3119C18.2216 16.3278 18.1743 16.3346 18.127 16.3346V16.3368H7.15253C6.87087 16.3368 6.64472 16.0855 6.64472 15.7775C6.64266 15.7051 6.65294 15.644 6.6735 15.5851Z" fill="#FAC900"/>
<path fill-rule="evenodd" clip-rule="evenodd" d="M8.1476 0L8.09209 0.0498143C8.46009 0.547958 8.61429 1.13667 8.55056 1.81369C8.48888 2.49072 8.22778 3.03188 7.77547 3.43719L7.8207 3.49832C8.27301 3.09075 8.80754 2.9232 9.42432 2.99565C10.0411 3.06585 10.5325 3.35115 10.8984 3.84702L10.9539 3.79721C10.5839 3.29907 10.4317 2.71035 10.4955 2.03333C10.5571 1.35631 10.8182 0.815143 11.2705 0.409836L11.2253 0.346436C10.773 0.751743 10.2385 0.921565 9.62374 0.851372C9.00902 0.783443 8.5156 0.498143 8.1476 0Z" fill="#FAC900"/>
<path fill-rule="evenodd" clip-rule="evenodd" d="M15.0726 2.27274L15.0224 2.31688C15.3549 2.75832 15.4942 3.28001 15.4366 3.87996C15.3809 4.47992 15.145 4.95948 14.7363 5.31865L14.7772 5.37282C15.1859 5.01165 15.6688 4.86316 16.2261 4.92737C16.7834 4.98957 17.2273 5.2424 17.558 5.68183L17.6081 5.63768C17.2738 5.19625 17.1363 4.67455 17.1939 4.0746C17.2496 3.47465 17.4855 2.99509 17.8942 2.63592L17.8533 2.57973C17.4447 2.9389 16.9617 3.08939 16.4063 3.02719C15.8509 2.96699 15.4051 2.71417 15.0726 2.27274Z" fill="#FAC900"/>
<path fill-rule="evenodd" clip-rule="evenodd" d="M0.0287828 24.2528L1.77014 17.5052C1.83388 17.2584 2.03741 17.0954 2.25945 17.0954H9.68337C9.93213 17.0954 10.1357 17.2901 10.183 17.546L11.9695 24.2845C12.0477 24.5811 11.8935 24.8913 11.6242 24.9774C11.5769 24.9932 11.5296 25 11.4823 25V25.0023H0.509867C0.228207 25.0023 0 24.7509 0 24.443C0 24.3751 0.0102796 24.3139 0.0287828 24.2528Z" fill="#FAC900"/>
<path fill-rule="evenodd" clip-rule="evenodd" d="M13.3035 24.2528L15.0428 17.5052C15.1065 17.2584 15.31 17.0954 15.5321 17.0954H22.956C23.2027 17.0954 23.4083 17.2901 23.4556 17.546L25.2442 24.2845C25.3223 24.5811 25.1681 24.8913 24.8988 24.9774C24.8515 24.9932 24.8043 25 24.757 25V25.0023H13.7825C13.5008 25.0023 13.2747 24.7509 13.2747 24.443C13.2726 24.3751 13.2829 24.3139 13.3035 24.2528Z" fill="#FAC900"/>
<path fill-rule="evenodd" clip-rule="evenodd" d="M6.66117 15.601L8.40253 8.85338C8.46626 8.60657 8.6698 8.44354 8.89184 8.44354H16.3158C16.5625 8.44354 16.7681 8.63827 16.8153 8.89414L16.8441 9.00056H9.66897C9.44694 9.00056 9.2434 9.16359 9.17967 9.41039L7.43831 16.158C7.41775 16.2168 7.40952 16.2802 7.40952 16.3459V16.3504H7.14431C6.86265 16.3504 6.6365 16.0991 6.6365 15.7912C6.63033 15.721 6.64061 15.6576 6.66117 15.601Z" fill="#E6BD00"/>
<path fill-rule="evenodd" clip-rule="evenodd" d="M0.0287828 24.2528L1.77014 17.5052C1.83388 17.2584 2.03741 17.0976 2.25945 17.0976H9.68337C9.93008 17.0976 10.1357 17.2924 10.183 17.5482L10.2117 17.6524H3.03659C2.81455 17.6524 2.61101 17.8154 2.54728 18.0599L0.805919 24.8075C0.78536 24.8664 0.777137 24.9298 0.777137 24.9955V25H0.507811C0.226151 25 0 24.7487 0 24.4407C0 24.3728 0.0102796 24.3116 0.0287828 24.2528Z" fill="#E3B600"/>
<path fill-rule="evenodd" clip-rule="evenodd" d="M0.0287828 24.2528L1.77014 17.5052C1.83388 17.2584 2.03741 17.0976 2.25945 17.0976H9.68337C9.93008 17.0976 10.1357 17.2924 10.183 17.5482L10.2117 17.6524H3.03659C2.81455 17.6524 2.61101 17.8154 2.54728 18.0599L0.805919 24.8075C0.78536 24.8664 0.777137 24.9298 0.777137 24.9955V25H0.507811C0.226151 25 0 24.7487 0 24.4407C0 24.3728 0.0102796 24.3116 0.0287828 24.2528Z" fill="#E6BD00"/>
<path fill-rule="evenodd" clip-rule="evenodd" d="M13.3035 24.2528L15.0448 17.5052C15.1085 17.2584 15.3121 17.0977 15.5341 17.0977H22.958C23.2068 17.0977 23.4103 17.2924 23.4576 17.5482L23.4864 17.6524H16.3071C16.0851 17.6524 15.8816 17.8154 15.8178 18.06L14.0765 24.8076C14.0559 24.8664 14.0477 24.9298 14.0477 24.9955V25H13.7825C13.5008 25 13.2747 24.7487 13.2747 24.4407C13.2726 24.3728 13.2829 24.3117 13.3035 24.2528Z" fill="#E6BD00"/>
<path fill-rule="evenodd" clip-rule="evenodd" d="M1.38569 7.24799L1.33018 7.2978C1.69819 7.79594 1.85238 8.38466 1.78865 9.06168C1.72697 9.73644 1.46587 10.2776 1.01357 10.6852L1.0588 10.7463C1.5111 10.3387 2.04564 10.1712 2.66241 10.2436C3.27919 10.3138 3.77055 10.5991 4.1365 11.095L4.19201 11.0452C3.82195 10.5471 3.66981 9.95834 3.73354 9.28132C3.79522 8.60429 4.05632 8.06313 4.50862 7.65782L4.46339 7.59669C4.01109 8.00199 3.47655 8.17182 2.86183 8.10162C2.24506 8.03143 1.7537 7.74613 1.38569 7.24799Z" fill="#FAC900"/>
</g>
<ellipse cx="25.4547" cy="6.19872" rx="4.01914" ry="4.33886" fill="#B1B1B1"/>
<ellipse cx="24.651" cy="6.19866" rx="4.01914" ry="4.33886" fill="url(#paint1_linear_1_260)"/>
<path d="M27.0631 4.24867V3.59528H23.0439V4.24867H24.7272C24.8181 4.35959 24.9222 4.51899 24.9893 4.71829H23.0439V5.37168H25.0221C24.7647 5.98614 23.0439 6.00464 23.0439 6.00464V6.47426L25.3776 8.8019H26.5704L24.8072 6.65804C24.8072 6.65804 26.021 6.25193 26.1433 5.37168H27.0631V4.71829H26.093C26.0417 4.52111 25.9649 4.36692 25.8849 4.24867H27.0631Z" fill="#C0C0C0"/>
<defs>
<linearGradient id="paint0_linear_1_260" x1="36.8903" y1="20.655" x2="27.3788" y2="13.3606" gradientUnits="userSpaceOnUse">
<stop stop-color="#D9D9D9"/>
<stop offset="0.491838" stop-color="#F7F7F7"/>
<stop offset="1" stop-color="#D9D9D9"/>
</linearGradient>
<linearGradient id="paint1_linear_1_260" x1="27.4644" y1="8.36809" x2="21.4777" y2="3.61475" gradientUnits="userSpaceOnUse">
<stop stop-color="#D9D9D9"/>
<stop offset="0.491838" stop-color="#F7F7F7"/>
<stop offset="1" stop-color="#D9D9D9"/>
</linearGradient>
<clipPath id="clip0_1_260">
<rect width="25.2631" height="25" fill="white"/>
</clipPath>
</defs>
</svg>
