<svg width="18" height="18" viewBox="0 0 18 18" fill="none" xmlns="http://www.w3.org/2000/svg">
<path fill-rule="evenodd" clip-rule="evenodd" d="M6.42903 14.1438V16.9048H6.39703C6.39702 17.0495 6.36819 17.1927 6.31222 17.3261C6.25625 17.4595 6.17425 17.5804 6.07103 17.6818C5.86155 17.8878 5.57883 18.0022 5.28503 17.9998H3.56203C2.74037 18.0024 1.95127 17.6788 1.36812 17.0999C0.784965 16.5211 0.455468 15.7345 0.452026 14.9128V7.08279C0.460208 6.75075 0.542587 6.42475 0.693127 6.12869C0.843666 5.83263 1.05855 5.57402 1.32203 5.37179L7.18703 0.671778C7.68096 0.249571 8.30635 0.0123119 8.95604 0.000635504C9.60572 -0.0110409 10.2392 0.203627 10.748 0.607813L16.742 5.36679C16.9939 5.57517 17.1968 5.83654 17.3361 6.13229C17.4754 6.42803 17.5478 6.75087 17.548 7.07778V14.9158C17.5478 15.3213 17.4672 15.7228 17.3108 16.097C17.1544 16.4712 16.9254 16.8107 16.637 17.0958C16.0515 17.6749 15.2605 17.9985 14.437 17.9958H12.673C12.3819 17.9937 12.1034 17.8771 11.8975 17.6713C11.6917 17.4655 11.5751 17.1869 11.573 16.8958V14.1448C11.5724 13.9772 11.5387 13.8114 11.474 13.6569C11.4093 13.5023 11.3147 13.362 11.1958 13.244C11.0768 13.126 10.9358 13.0325 10.7807 12.969C10.6256 12.9055 10.4596 12.8731 10.292 12.8738H7.70203C7.36517 12.8746 7.04229 13.0085 6.80381 13.2464C6.56533 13.4843 6.43061 13.8069 6.42903 14.1438ZM7.19903 4.72781C7.02001 4.72781 6.84832 4.79891 6.72173 4.9255C6.59514 5.05209 6.52402 5.22377 6.52402 5.4028C6.52402 5.58182 6.59514 5.7535 6.72173 5.88009C6.84832 6.00668 7.02001 6.07778 7.19903 6.07778H10.799C10.978 6.07778 11.1497 6.00668 11.2763 5.88009C11.4029 5.7535 11.474 5.58182 11.474 5.4028C11.474 5.22377 11.4029 5.05209 11.2763 4.9255C11.1497 4.79891 10.978 4.72781 10.799 4.72781H7.19903Z" fill="#CDCDCD"/>
</svg>
