<svg width="52" height="52" viewBox="0 0 52 52" fill="none" xmlns="http://www.w3.org/2000/svg">
<path opacity="0.1" d="M26 52C40.3594 52 52 40.3594 52 26C52 11.6406 40.3594 0 26 0C11.6406 0 0 11.6406 0 26C0 40.3594 11.6406 52 26 52Z" fill="#6D64B3"/>
<path d="M26 46C37.0457 46 46 37.0457 46 26C46 14.9543 37.0457 6 26 6C14.9543 6 6 14.9543 6 26C6 37.0457 14.9543 46 26 46Z" fill="#5C59C3"/>
<path d="M33.3427 20.334H28.6227V21.383H32.8227V33.97H19.1817V21.383H23.3817V20.334H18.6617C18.5228 20.3342 18.3897 20.3895 18.2915 20.4877C18.1933 20.586 18.138 20.7191 18.1377 20.858V34.494C18.138 34.6329 18.1933 34.766 18.2915 34.8642C18.3897 34.9624 18.5228 35.0177 18.6617 35.018H33.3427C33.4816 35.0177 33.6147 34.9624 33.7129 34.8642C33.8111 34.766 33.8664 34.6329 33.8667 34.494V20.858C33.8664 20.7191 33.8111 20.586 33.7129 20.4877C33.6147 20.3895 33.4816 20.3342 33.3427 20.334Z" fill="white"/>
<path d="M29.5236 26.58C29.4263 26.4806 29.2934 26.4239 29.1543 26.4224C29.0151 26.4209 28.8811 26.4747 28.7816 26.572L26.5236 28.78V17.504C26.5236 17.3649 26.4684 17.2315 26.37 17.1331C26.2716 17.0348 26.1382 16.9795 25.9991 16.9795C25.86 16.9795 25.7266 17.0348 25.6282 17.1331C25.5299 17.2315 25.4746 17.3649 25.4746 17.504V28.78L23.2236 26.57C23.1744 26.5219 23.1161 26.4839 23.0522 26.4583C22.9883 26.4327 22.92 26.4199 22.8511 26.4207C22.7823 26.4215 22.7142 26.4358 22.6509 26.4629C22.5876 26.49 22.5303 26.5292 22.4821 26.5785C22.434 26.6277 22.396 26.686 22.3704 26.7499C22.3448 26.8138 22.332 26.8821 22.3328 26.951C22.3336 27.0199 22.3479 27.0879 22.375 27.1512C22.4021 27.2145 22.4414 27.2719 22.4906 27.32L25.6376 30.398C25.7371 30.4953 25.8711 30.549 26.0103 30.5475C26.1494 30.546 26.2822 30.4894 26.3796 30.39L29.5176 27.32C29.6161 27.2224 29.672 27.0899 29.6732 26.9512C29.6743 26.8126 29.6205 26.6791 29.5236 26.58Z" fill="white"/>
</svg>
