<svg width="30" height="30" viewBox="0 0 30 30" fill="none" xmlns="http://www.w3.org/2000/svg">
<path d="M30 15C30 23.2843 23.2843 30 15 30C6.71573 30 0 23.2843 0 15C0 6.71573 6.71573 0 15 0C23.2843 0 30 6.71573 30 15ZM3.45749 15C3.45749 21.3748 8.62525 26.5425 15 26.5425C21.3748 26.5425 26.5425 21.3748 26.5425 15C26.5425 8.62525 21.3748 3.45749 15 3.45749C8.62525 3.45749 3.45749 8.62525 3.45749 15Z" fill="#F0F0F0"/>
<g clip-path="url(#clip0_233_21922)">
<path d="M-2.71436 11H33.8571V19H-2.71436V11Z" fill="#E6E7E8"/>
<path d="M28.1428 2.42857H2.99993C-0.786927 2.42857 -2.71436 5.24286 -2.71436 8.71428V11H33.8571V8.71428C33.8571 5.24286 31.9296 2.42857 28.1428 2.42857Z" fill="#FF9933"/>
<path d="M-2.71436 21.2857C-2.71436 24.7571 -0.786927 27.5714 2.99993 27.5714H28.1428C31.9296 27.5714 33.8571 24.7571 33.8571 21.2857V19H-2.71436V21.2857Z" fill="#128807"/>
<path fill-rule="evenodd" clip-rule="evenodd" d="M14.6903 11.3331C15.4204 11.3331 16.1341 11.5497 16.7411 11.9555C17.3481 12.3612 17.8211 12.9379 18.1002 13.6125C18.3794 14.2872 18.4521 15.0295 18.3092 15.7455C18.1664 16.4615 17.8144 17.119 17.2977 17.6349C16.781 18.1507 16.1229 18.5018 15.4067 18.6435C14.6905 18.7852 13.9483 18.7114 13.2741 18.4312C12.5999 18.151 12.024 17.6771 11.6192 17.0695C11.2143 16.4619 10.9989 15.7478 11 15.0177C11.0017 14.04 11.3912 13.1029 12.083 12.4122C12.7749 11.7214 13.7126 11.3333 14.6903 11.3331ZM12.2303 12.9303C12.2937 13.0023 12.3051 13.0794 12.2629 13.144C12.2449 13.1737 12.2173 13.1964 12.1846 13.208C12.1595 13.2173 12.1325 13.2204 12.1059 13.2171C12.0793 13.2137 12.054 13.2039 12.032 13.1886C11.9327 13.3308 11.8453 13.481 11.7709 13.6377C11.8571 13.6943 11.8857 13.7651 11.8571 13.8434C11.8419 13.8833 11.8116 13.9156 11.7729 13.9335C11.7342 13.9514 11.69 13.9536 11.6497 13.9394C11.6086 14.0217 11.5177 14.3691 11.5166 14.4423C11.5544 14.4495 11.5884 14.47 11.6126 14.5C11.6381 14.5298 11.6512 14.5683 11.6491 14.6074C11.6383 14.7149 11.572 14.7606 11.4709 14.7646C11.4549 14.868 11.4566 15.2143 11.4726 15.2823C11.58 15.2937 11.6366 15.3406 11.6457 15.4223C11.6583 15.5103 11.616 15.5674 11.5131 15.6074C11.544 15.7771 11.588 15.944 11.6457 16.1074C11.686 16.0953 11.7292 16.0967 11.7686 16.1114C11.8069 16.128 11.8371 16.1566 11.8531 16.196C11.8674 16.2269 11.8703 16.2589 11.8629 16.2926C11.8575 16.3176 11.8464 16.3411 11.8305 16.3611C11.8145 16.3812 11.7941 16.3972 11.7709 16.408C11.8474 16.5669 11.932 16.7166 12.032 16.8571C12.1211 16.8131 12.1989 16.8234 12.2514 16.8863C12.2746 16.9121 12.2877 16.9453 12.2886 16.98C12.2904 17.0056 12.2859 17.0313 12.2755 17.0548C12.2652 17.0783 12.2492 17.0989 12.2291 17.1149C12.3434 17.2486 12.4651 17.3709 12.5977 17.4834C12.6726 17.4177 12.7503 17.4074 12.8171 17.4543C12.8474 17.4754 12.8686 17.5034 12.8783 17.5377C12.8853 17.562 12.8867 17.5875 12.8826 17.6124C12.8784 17.6373 12.8688 17.661 12.8543 17.6817C12.9989 17.7811 13.148 17.8669 13.304 17.9411C13.3646 17.856 13.4337 17.8274 13.5086 17.856C13.5412 17.8677 13.5695 17.889 13.5897 17.9171C13.6183 17.9629 13.6223 18.0131 13.6057 18.0669C13.7703 18.1251 13.936 18.1697 14.1074 18.2C14.1411 18.1034 14.1994 18.0583 14.2771 18.064C14.3131 18.0669 14.3457 18.0777 14.3743 18.1023C14.4143 18.1389 14.4331 18.1851 14.4297 18.2423C14.6057 18.2549 14.7777 18.256 14.9486 18.2423C14.9611 18.132 15.0051 18.0766 15.0937 18.064C15.1274 18.0594 15.1616 18.0662 15.1909 18.0834C15.2123 18.0955 15.2307 18.1123 15.2447 18.1325C15.2588 18.1527 15.2681 18.1757 15.272 18.2C15.4446 18.168 15.612 18.124 15.7737 18.0663C15.7594 17.9583 15.7857 17.8937 15.8583 17.86C15.8847 17.8486 15.9136 17.8441 15.9423 17.8469C15.972 17.8491 15.9989 17.8583 16.0206 17.8777C16.0417 17.8954 16.0594 17.9171 16.08 17.9394C16.2358 17.8659 16.3852 17.7797 16.5269 17.6817C16.4686 17.5903 16.5029 17.5029 16.5503 17.464C16.5668 17.4498 16.586 17.4391 16.6068 17.4324C16.6275 17.4257 16.6494 17.4232 16.6711 17.4251C16.6928 17.427 16.7139 17.4331 16.7332 17.4432C16.7525 17.4534 16.7696 17.4672 16.7834 17.484C16.9154 17.3709 17.0394 17.248 17.1503 17.116C17.0857 17.0423 17.0731 16.9646 17.1206 16.8977C17.1398 16.8678 17.1692 16.8458 17.2034 16.836C17.2278 16.8283 17.2536 16.8263 17.2789 16.8301C17.3042 16.834 17.3282 16.8436 17.3491 16.8583C17.4491 16.7143 17.536 16.5651 17.6103 16.4086C17.5269 16.3526 17.4966 16.2869 17.5217 16.212C17.5308 16.1787 17.551 16.1495 17.5789 16.1291C17.6011 16.1137 17.6265 16.1035 17.6533 16.0996C17.6801 16.0956 17.7074 16.0979 17.7331 16.1063C17.7703 16.0257 17.8629 15.6863 17.868 15.604C17.8285 15.5968 17.7928 15.5757 17.7674 15.5446C17.7541 15.5291 17.7441 15.5111 17.7381 15.4917C17.7322 15.4722 17.7303 15.4517 17.7326 15.4314C17.7347 15.3952 17.7497 15.361 17.7749 15.3349C17.7921 15.3167 17.8131 15.3027 17.8364 15.2938C17.8598 15.2849 17.8848 15.2814 17.9097 15.2834C17.924 15.1106 17.924 14.9369 17.9097 14.764C17.8006 14.7531 17.7486 14.7109 17.7343 14.6246C17.7279 14.5919 17.7327 14.5581 17.748 14.5286C17.7598 14.5057 17.7767 14.486 17.7974 14.4708C17.8181 14.4556 17.8421 14.4455 17.8674 14.4411C17.8374 14.2704 17.7929 14.1026 17.7343 13.9394C17.6286 13.9571 17.5634 13.9286 17.5286 13.8554C17.5195 13.8359 17.5145 13.8147 17.5137 13.7932C17.5129 13.7716 17.5164 13.7502 17.524 13.73C17.5316 13.7099 17.5432 13.6914 17.558 13.6758C17.5728 13.6601 17.5906 13.6476 17.6103 13.6389C17.5363 13.4818 17.4489 13.3313 17.3491 13.1891C17.2571 13.2331 17.1823 13.2229 17.1297 13.16C17.1064 13.1334 17.0934 13.0994 17.0931 13.064C17.0921 13.0389 17.0969 13.0139 17.1072 12.991C17.1175 12.968 17.1331 12.9478 17.1526 12.932C17.0397 12.7999 16.9169 12.6767 16.7851 12.5634C16.7063 12.6309 16.6297 12.6394 16.5646 12.5926C16.535 12.5728 16.5133 12.5433 16.5034 12.5091C16.4963 12.4852 16.4948 12.4599 16.4989 12.4352C16.5031 12.4106 16.5128 12.3872 16.5274 12.3669C16.385 12.2676 16.2346 12.1802 16.0777 12.1057C16.0189 12.1903 15.9526 12.2183 15.8777 12.1931C15.8445 12.1825 15.8155 12.1617 15.7949 12.1337C15.7798 12.1114 15.7702 12.0859 15.7668 12.0592C15.7634 12.0325 15.7664 12.0054 15.7754 11.98C15.6124 11.921 15.4445 11.8765 15.2737 11.8469C15.2411 11.9394 15.1823 11.9874 15.1063 11.9829C15.0708 11.9817 15.0366 11.9689 15.0091 11.9463C14.9888 11.9291 14.9729 11.9072 14.9628 11.8825C14.9528 11.8579 14.9489 11.8311 14.9514 11.8046C14.7788 11.7899 14.6052 11.7901 14.4326 11.8051C14.4206 11.908 14.376 11.9669 14.3 11.9794C14.2658 11.9867 14.2302 11.9823 14.1989 11.9669C14.1755 11.9553 14.1552 11.9383 14.1397 11.9174C14.1242 11.8964 14.1139 11.872 14.1097 11.8463C13.9389 11.8774 13.7709 11.9223 13.6074 11.9806C13.6257 12.0817 13.5971 12.148 13.5274 12.184C13.4971 12.1994 13.4651 12.2057 13.4297 12.1994C13.4031 12.1958 13.3779 12.1853 13.3565 12.169C13.3352 12.1526 13.3185 12.131 13.308 12.1063C13.2103 12.1429 12.8994 12.3229 12.8583 12.368C12.9006 12.4526 12.8909 12.5274 12.8326 12.5811C12.8161 12.5957 12.7969 12.6068 12.776 12.6138C12.7552 12.6207 12.7332 12.6234 12.7113 12.6217C12.6894 12.62 12.668 12.6139 12.6485 12.6038C12.629 12.5937 12.6117 12.5798 12.5977 12.5629C12.4659 12.6756 12.343 12.7984 12.2303 12.9303Z" fill="#010088"/>
<path fill-rule="evenodd" clip-rule="evenodd" d="M16.2732 17.7583C16.2663 17.7509 16.2595 17.7457 16.2543 17.7377C15.9221 17.2299 15.589 16.7226 15.2549 16.216C15.2475 16.2017 15.2389 16.1874 15.2321 16.1714C15.1543 15.9903 15.0783 15.8091 14.9989 15.6286C14.9962 15.6193 14.9926 15.6103 14.9881 15.6017C14.9561 15.6137 14.9269 15.6274 14.8926 15.6406L14.9041 15.6697C14.9755 15.8451 15.0441 16.0211 15.1166 16.1966C15.1361 16.2434 15.1441 16.2926 15.1543 16.3417C15.2103 16.604 15.2629 16.8674 15.3195 17.1303L15.5126 18.0691C15.5136 18.0714 15.5139 18.0738 15.5136 18.0762C15.5133 18.0786 15.5124 18.0809 15.5109 18.0829L15.5029 18.0629C15.3463 17.5834 15.1858 17.1046 15.0286 16.6251C14.9972 16.5314 14.9692 16.4389 14.9349 16.3451C14.9189 16.2983 14.9138 16.2503 14.9063 16.2017C14.8863 16.0657 14.8692 15.9286 14.8469 15.7926C14.8441 15.76 14.8389 15.728 14.8343 15.6966C14.8329 15.6835 14.8309 15.6705 14.8281 15.6577C14.7938 15.6611 14.7623 15.6657 14.7281 15.6697C14.7281 15.6834 14.7292 15.6977 14.7303 15.712C14.7503 15.8794 14.7675 16.0474 14.7915 16.2143C14.8041 16.3057 14.7978 16.3954 14.7926 16.4869C14.7892 16.564 14.7841 16.6411 14.7806 16.7189C14.7703 16.8754 14.7623 17.0314 14.7515 17.1874L14.7343 17.5097C14.7246 17.6926 14.7132 17.8749 14.7035 18.0566C14.6989 18.108 14.6978 18.1606 14.6926 18.2109L14.6789 18.0377L14.6612 17.6629L14.6406 17.3286C14.6349 17.2143 14.6275 17.1006 14.6212 16.9863C14.6161 16.9114 14.6132 16.8366 14.6086 16.7629C14.6023 16.6446 14.5949 16.5263 14.5892 16.4091C14.5836 16.3467 14.5851 16.2838 14.5938 16.2217C14.6058 16.1371 14.6149 16.0509 14.6252 15.9651C14.6366 15.8806 14.6463 15.7954 14.6566 15.712C14.6578 15.6989 14.6578 15.6851 14.6595 15.6697L14.5595 15.6566C14.5566 15.6794 14.5515 15.7017 14.5475 15.7246C14.5237 15.8991 14.4994 16.0736 14.4743 16.248C14.4675 16.316 14.4406 16.3789 14.4178 16.4423C14.2418 16.9783 14.0652 17.5149 13.8869 18.0503C13.8829 18.06 13.8812 18.0691 13.8738 18.0783C13.8738 18.0714 13.8738 18.0663 13.8766 18.06C13.9503 17.6989 14.0246 17.3371 14.1012 16.976C14.1503 16.736 14.2012 16.4966 14.2498 16.2571L14.2635 16.2177C14.3372 16.0366 14.4081 15.8537 14.4835 15.6726C14.4861 15.6619 14.49 15.6515 14.4949 15.6417C14.4634 15.6282 14.4318 15.6151 14.4001 15.6023C14.3961 15.6126 14.3898 15.6211 14.3863 15.6314C14.3075 15.8131 14.2303 15.9954 14.1515 16.1771C14.1466 16.1908 14.1404 16.204 14.1332 16.2166C13.796 16.7274 13.4598 17.2388 13.1246 17.7509C13.12 17.7586 13.114 17.7654 13.1069 17.7709C13.1098 17.7617 13.1149 17.7543 13.1183 17.7463L13.9446 16.108C13.9517 16.0931 13.9606 16.0791 13.9709 16.0663L14.3241 15.5926C14.3315 15.5846 14.3361 15.5771 14.3429 15.5686C14.3138 15.5474 14.2903 15.528 14.2612 15.5057C14.2549 15.5131 14.2492 15.5194 14.2441 15.5269C14.1206 15.6817 13.9989 15.8377 13.8783 15.992C13.8646 16.0063 13.8521 16.0211 13.8366 16.0343C13.3863 16.4371 12.9361 16.8377 12.4841 17.2411C12.4749 17.2486 12.4658 17.2566 12.4543 17.2617C12.4595 17.2566 12.4623 17.2503 12.4658 17.2463C12.8366 16.832 13.2046 16.4183 13.5738 16.004C13.5949 15.9811 13.6161 15.9583 13.6361 15.9337C13.6783 15.8846 13.7258 15.8411 13.7772 15.8023L14.1875 15.4794C14.1966 15.4726 14.2035 15.4651 14.2138 15.4583C14.1935 15.4309 14.1725 15.404 14.1509 15.3777C14.1418 15.3834 14.1343 15.3891 14.1258 15.3954C13.9686 15.5131 13.8109 15.6297 13.6538 15.748C13.6362 15.7613 13.6174 15.7729 13.5978 15.7829C13.0612 16.0537 12.5218 16.3246 11.9841 16.5954C11.9738 16.6 11.9641 16.6057 11.9521 16.6057L11.9738 16.5903L12.9772 15.9331C13.1521 15.8183 13.3275 15.7034 13.5012 15.588C13.5161 15.5794 13.5315 15.572 13.5446 15.5651C13.7269 15.488 13.9086 15.4103 14.0892 15.3326C14.0978 15.3291 14.1063 15.3257 14.1166 15.3206L14.0783 15.2263C14.0675 15.2291 14.0606 15.232 14.0521 15.2349C13.8669 15.3086 13.6835 15.3834 13.4972 15.4566C13.4589 15.4709 13.4172 15.4777 13.3766 15.4863L12.1281 15.7457C11.9709 15.7794 11.8109 15.8126 11.6532 15.8451C11.6468 15.8467 11.6402 15.8458 11.6343 15.8429C11.6778 15.8291 11.7212 15.8137 11.7641 15.7994C12.3035 15.6217 12.8423 15.4446 13.3801 15.2657C13.4223 15.2514 13.4675 15.2474 13.5103 15.2406C13.6841 15.2166 13.8572 15.1914 14.0292 15.1669C14.0398 15.165 14.0502 15.1627 14.0606 15.16C14.0572 15.1269 14.0521 15.0937 14.0492 15.0594L13.9658 15.0686L13.6206 15.1103C13.5561 15.1189 13.4921 15.1257 13.4286 15.1337C13.4132 15.1354 13.3983 15.136 13.3835 15.1354L13.0201 15.1143L12.8052 15.1023L12.4349 15.0806L11.8949 15.0509C11.7646 15.044 11.6378 15.0354 11.5081 15.0263C11.5286 15.0246 11.5515 15.0211 11.5738 15.0211L12.0166 14.996L12.6018 14.9629L13.0863 14.9354L13.3903 14.9171C13.4023 14.9166 13.4166 14.9183 13.4286 14.9194L13.7772 14.9611L14.0241 14.9909H14.0492C14.0521 14.9583 14.0572 14.9274 14.0606 14.892C14.0395 14.8874 14.0155 14.884 13.9943 14.88C13.8418 14.8589 13.6903 14.8366 13.5378 14.8143C13.5061 14.8107 13.4745 14.8065 13.4429 14.8017C13.4254 14.7994 13.4082 14.7953 13.3915 14.7897C12.9372 14.6406 12.4858 14.4903 12.0321 14.3411C11.9058 14.2998 11.7797 14.2579 11.6538 14.2154C11.6429 14.2126 11.6326 14.2077 11.6235 14.2011L11.7029 14.2171L12.6726 14.4189C12.9321 14.4731 13.1955 14.5269 13.4549 14.5817C13.4705 14.5852 13.4858 14.5899 13.5006 14.596C13.6835 14.668 13.8646 14.7423 14.0492 14.8154L14.0766 14.8263C14.0892 14.7949 14.1029 14.7646 14.1166 14.732C14.1073 14.7264 14.0976 14.7217 14.0875 14.7177C13.9058 14.6411 13.7246 14.5629 13.5435 14.4846C13.5293 14.4786 13.5155 14.4715 13.5023 14.4634C12.9898 14.128 12.4795 13.7909 11.9663 13.4549C11.9596 13.4511 11.9542 13.4453 11.9509 13.4383L11.9715 13.4497C12.4823 13.7069 12.9938 13.964 13.5058 14.2206C13.5903 14.2629 13.6726 14.3137 13.7481 14.3714C13.8726 14.468 13.9995 14.5606 14.1263 14.6554C14.1349 14.6617 14.1423 14.6674 14.1515 14.6731L14.2143 14.5937L14.1921 14.5743L13.7275 14.2091C13.7115 14.1966 13.6989 14.1834 13.6852 14.1697C13.2806 13.7166 12.8755 13.2629 12.4721 12.8097C12.4662 12.805 12.4617 12.7989 12.4589 12.792C12.4709 12.7931 12.4755 12.8011 12.4806 12.8063C12.7258 13.0234 12.9686 13.2406 13.2121 13.4577L13.8418 14.0189C13.8532 14.0291 13.8641 14.0417 13.8743 14.0531L14.2349 14.5114C14.2441 14.5217 14.2509 14.5326 14.2612 14.5463L14.3441 14.4829C14.3389 14.4749 14.3321 14.4686 14.3281 14.4611C14.2103 14.304 14.0932 14.1463 13.9743 13.9897C13.9621 13.9713 13.9508 13.9522 13.9406 13.9326C13.6663 13.3926 13.3943 12.8503 13.1218 12.3097C13.1166 12.2994 13.1115 12.2914 13.1103 12.2806C13.1155 12.2863 13.1206 12.2914 13.1241 12.2966L13.7081 13.1891L14.1212 13.8177C14.1355 13.8417 14.1515 13.8669 14.1606 13.8931C14.2378 14.0691 14.3121 14.2457 14.3869 14.4217C14.3921 14.4297 14.3955 14.4383 14.4006 14.4486L14.4955 14.4091L14.4852 14.3851C14.4138 14.2069 14.3441 14.0286 14.2715 13.8514C14.2515 13.8063 14.2441 13.7594 14.2343 13.7126C14.1721 13.4149 14.1121 13.1166 14.0498 12.8183C13.9886 12.5314 13.9303 12.2469 13.8703 11.9589C13.8692 11.9571 13.8703 11.9549 13.8726 11.9491L13.9229 12.1017C14.1023 12.6406 14.2801 13.1806 14.4561 13.7206C14.4709 13.7629 14.4761 13.8091 14.4823 13.8531C14.5035 14.0029 14.5246 14.1537 14.5486 14.3046C14.5526 14.3331 14.5543 14.3617 14.5601 14.3931L14.6595 14.3806V14.3429C14.6452 14.2234 14.6298 14.1034 14.6161 13.9846C14.6075 13.9149 14.6012 13.8469 14.5915 13.7789C14.5858 13.7331 14.5858 13.6869 14.5915 13.6411C14.5955 13.5634 14.6012 13.4863 14.6046 13.4091L14.6326 12.9434C14.6378 12.86 14.6395 12.7754 14.6446 12.692C14.6521 12.5834 14.6578 12.4731 14.6641 12.364C14.6692 12.284 14.6732 12.2034 14.6766 12.124C14.6812 12.0297 14.6886 11.936 14.6966 11.8423C14.6989 11.868 14.7001 11.8943 14.7012 11.9217C14.7092 12.0366 14.7149 12.1514 14.7218 12.2669L14.7515 12.7903L14.7692 13.084C14.7783 13.2537 14.7863 13.424 14.7961 13.5937C14.7989 13.6194 14.8001 13.6434 14.8018 13.6686C14.8092 13.7349 14.7961 13.8006 14.7903 13.8663L14.7538 14.1657C14.7481 14.2223 14.7395 14.2789 14.7326 14.336C14.7315 14.3497 14.7315 14.3646 14.7275 14.3811C14.7629 14.3863 14.7949 14.3897 14.8303 14.3943C14.8355 14.3697 14.8378 14.3469 14.8418 14.3229C14.8692 14.1371 14.8955 13.9514 14.9218 13.7646C14.9241 13.7509 14.9298 13.7366 14.9332 13.7223C15.1195 13.1634 15.3023 12.604 15.4875 12.044C15.4966 12.0183 15.5035 11.9937 15.5178 11.9691C15.5162 11.9822 15.5141 11.9951 15.5115 12.008C15.4281 12.4126 15.3412 12.816 15.2583 13.2194C15.2212 13.4086 15.1818 13.5983 15.1423 13.7874C15.1396 13.8031 15.1346 13.8183 15.1275 13.8326L14.9069 14.384C14.9029 14.392 14.9001 14.4006 14.8961 14.4109C14.9303 14.424 14.9583 14.4371 14.9915 14.4503L15.0046 14.4229L15.2349 13.8817C15.2441 13.8634 15.2509 13.8457 15.2629 13.8309L16.2601 12.3097C16.2663 12.3017 16.2715 12.2937 16.2812 12.288C16.2772 12.296 16.2743 12.304 16.2692 12.312L15.4492 13.9406C15.4406 13.956 15.4321 13.9714 15.4218 13.9851C15.3029 14.1434 15.1835 14.3017 15.0663 14.4589C15.0607 14.4679 15.0544 14.4765 15.0475 14.4846L15.1286 14.548C15.135 14.5412 15.141 14.5339 15.1463 14.5263C15.2675 14.372 15.3881 14.2171 15.5109 14.0629C15.5244 14.0455 15.5396 14.0294 15.5561 14.0149C16.0075 13.6114 16.4595 13.2086 16.9115 12.8063C16.9189 12.8 16.9241 12.7937 16.9361 12.7903L16.9212 12.8086C16.7366 13.0171 16.5521 13.2246 16.3646 13.432C16.1418 13.6806 15.9218 13.9286 15.7006 14.1771C15.6892 14.1897 15.6755 14.2006 15.6635 14.2109L15.1989 14.576L15.1761 14.5943C15.1978 14.6217 15.2172 14.648 15.2401 14.6754L15.2646 14.6571L15.7406 14.3006C15.7528 14.2919 15.7654 14.2839 15.7783 14.2766C16.3269 14.0011 16.8721 13.7269 17.4172 13.4514C17.4263 13.4474 17.4338 13.444 17.4435 13.444C17.4183 13.4606 17.3949 13.4766 17.3698 13.492C16.8766 13.816 16.3835 14.14 15.8886 14.464C15.8749 14.472 15.8623 14.48 15.8475 14.4863C15.6652 14.5651 15.4812 14.6429 15.3006 14.7211L15.2715 14.7326C15.2869 14.7646 15.2978 14.7949 15.3115 14.8269L15.3378 14.8183C15.5212 14.7457 15.7035 14.6697 15.8886 14.5994C15.9343 14.5811 15.9846 14.5731 16.0343 14.5629L16.8761 14.388C17.1378 14.3343 17.3972 14.2794 17.6595 14.2251C17.6835 14.22 17.7058 14.2149 17.7309 14.2103C17.7372 14.2103 17.7429 14.2091 17.7521 14.2126L17.6721 14.2389C17.1138 14.4234 16.5572 14.6074 15.9989 14.7897C15.9566 14.8046 15.9098 14.8086 15.8658 14.8154C15.7406 14.8343 15.6172 14.8509 15.4955 14.8686C15.4509 14.8749 15.4069 14.8817 15.3623 14.8874L15.3298 14.8931C15.3332 14.9269 15.3383 14.9583 15.3406 14.9949L15.4269 14.9857L15.7355 14.9491C15.8126 14.9394 15.8932 14.9286 15.9738 14.9211C16.0098 14.9183 16.0463 14.9217 16.0835 14.9234C16.1618 14.9269 16.2401 14.9337 16.3218 14.9371L16.7835 14.9646C16.8521 14.9686 16.9206 14.9714 16.9915 14.976L17.4623 15.0029C17.5738 15.0097 17.6886 15.0149 17.7995 15.0217C17.827 15.0233 17.8544 15.0258 17.8818 15.0291L17.7983 15.036L17.4526 15.0549L17.0246 15.08L16.7018 15.0971C16.5532 15.1063 16.4018 15.1149 16.2521 15.1246C16.1698 15.128 16.0852 15.136 16.0023 15.1366C15.9549 15.1377 15.9052 15.1286 15.8589 15.1234C15.7574 15.1115 15.6558 15.0993 15.5543 15.0869L15.3595 15.0634H15.3406C15.3383 15.0966 15.3332 15.1291 15.3298 15.164C15.5312 15.1938 15.7327 15.223 15.9343 15.2514C15.9938 15.2589 16.0458 15.2823 16.1018 15.3L17.7269 15.8366C17.7375 15.8388 17.7474 15.8433 17.7561 15.8497C17.7423 15.8474 17.7292 15.8451 17.7155 15.844L16.3041 15.5497L15.9315 15.472C15.9195 15.4686 15.9035 15.464 15.8903 15.4577C15.7069 15.3851 15.5229 15.3109 15.3383 15.2371L15.3138 15.2286C15.3004 15.2599 15.2865 15.2909 15.2721 15.3217L15.3023 15.336C15.4846 15.4137 15.6658 15.4909 15.8469 15.5691C15.8612 15.5754 15.8755 15.5829 15.8903 15.5931L17.4115 16.5897C17.4189 16.5954 17.4286 16.6023 17.4349 16.6131C17.4275 16.6086 17.4189 16.6057 17.4126 16.6011L16.6201 16.2034C16.3435 16.0629 16.0646 15.9234 15.7852 15.7829C15.7674 15.774 15.7507 15.7631 15.7355 15.7503C15.5783 15.6331 15.4195 15.5154 15.2623 15.3971C15.2554 15.3912 15.2479 15.3859 15.2401 15.3811C15.2183 15.4074 15.1989 15.4331 15.1761 15.4606L15.1978 15.4777C15.3509 15.6 15.5069 15.7223 15.6606 15.844C15.6781 15.8565 15.694 15.8711 15.7081 15.8874L16.9189 17.2423C16.9239 17.2491 16.9277 17.2566 16.9303 17.2646C16.9241 17.2577 16.9155 17.2531 16.9092 17.248C16.4549 16.8417 16.0001 16.4377 15.5446 16.032C15.5343 16.0228 15.5251 16.0125 15.5172 16.0011L15.1469 15.5291C15.1418 15.5217 15.1355 15.5149 15.1292 15.5074C15.1029 15.5291 15.0772 15.5486 15.0509 15.5714C15.0532 15.5783 15.0583 15.5857 15.0629 15.5926L15.4223 16.0714C15.4326 16.0854 15.4418 16.1001 15.4498 16.1154C15.7223 16.656 15.9943 17.1977 16.2663 17.7389C16.2708 17.7462 16.2737 17.7544 16.2749 17.7629H16.2732V17.7583Z" fill="#010088"/>
<path fill-rule="evenodd" clip-rule="evenodd" d="M16.2673 17.7583C16.2733 17.7642 16.2769 17.7708 16.2816 17.7761C16.2786 17.7773 16.2786 17.7791 16.2751 17.7797C16.2739 17.7714 16.2697 17.766 16.2685 17.7583H16.2673Z" fill="#010088"/>
</g>
<defs>
<clipPath id="clip0_233_21922">
<rect x="3" y="3" width="24" height="24" rx="12" fill="white"/>
</clipPath>
</defs>
</svg>
