<svg width="18" height="18" viewBox="0 0 18 18" fill="none" xmlns="http://www.w3.org/2000/svg">
<path fill-rule="evenodd" clip-rule="evenodd" d="M4.79951 0H13.2085C16.2725 0 18.0005 1.73599 18.0005 4.79999V13.2C18.0005 16.264 16.2725 18 13.2085 18H4.79951C1.73551 18 -0.000488281 16.264 -0.000488281 13.2V4.79999C-0.000488281 1.73599 1.73551 0 4.79951 0ZM4.08751 7.38397C4.08751 7.18506 4.16652 6.99435 4.30717 6.8537C4.44783 6.71305 4.6386 6.63397 4.83751 6.63397C5.03642 6.63397 5.22719 6.71305 5.36784 6.8537C5.5085 6.99435 5.58751 7.18506 5.58751 7.38397V13.568C5.58751 13.7669 5.5085 13.9577 5.36784 14.0983C5.22719 14.239 5.03642 14.318 4.83751 14.318C4.6386 14.318 4.44783 14.239 4.30717 14.0983C4.16652 13.9577 4.08751 13.7669 4.08751 13.568V7.38397ZM9.03151 3.68402C8.83338 3.68561 8.64395 3.76561 8.5047 3.90656C8.36545 4.0475 8.28771 4.23784 8.28851 4.43597V13.572C8.28851 13.7709 8.36753 13.9617 8.50818 14.1024C8.64883 14.243 8.8396 14.322 9.03851 14.322C9.23743 14.322 9.42819 14.243 9.56885 14.1024C9.7095 13.9617 9.78851 13.7709 9.78851 13.572V4.43597C9.78918 4.33634 9.77001 4.2376 9.73213 4.14545C9.69425 4.05329 9.63842 3.96959 9.56787 3.89923C9.49732 3.82887 9.41347 3.77323 9.32121 3.7356C9.22896 3.69796 9.13015 3.67906 9.03052 3.67999L9.03151 3.68402ZM12.4235 10.652C12.4235 10.4531 12.5025 10.2623 12.6432 10.1216C12.7838 9.98099 12.9746 9.90198 13.1735 9.90198C13.3724 9.90198 13.5632 9.98099 13.7038 10.1216C13.8445 10.2623 13.9235 10.4531 13.9235 10.652V13.572C13.9235 13.7709 13.8445 13.9617 13.7038 14.1024C13.5632 14.243 13.3724 14.322 13.1735 14.322C12.9746 14.322 12.7838 14.243 12.6432 14.1024C12.5025 13.9617 12.4235 13.7709 12.4235 13.572V10.652Z" fill="#CDCDCD"/>
</svg>
