<svg width="22" height="24" viewBox="0 0 22 24" fill="none" xmlns="http://www.w3.org/2000/svg">
<path fill-rule="evenodd" clip-rule="evenodd" d="M8.87886 2.37868C9.44147 1.81607 10.2045 1.5 11.0002 1.5C11.7958 1.5 12.5589 1.81607 13.1215 2.37868C13.6841 2.94129 14.0002 3.70435 14.0002 4.5V7.5H8.00018V4.5C8.00018 3.70435 8.31625 2.94129 8.87886 2.37868ZM6.50018 7.5H8.00018V9.75C8.00018 9.94891 7.92117 10.1397 7.78051 10.2803C7.63986 10.421 7.4491 10.5 7.25018 10.5C7.05127 10.5 6.86051 10.421 6.71985 10.2803C6.5792 10.1397 6.50018 9.94891 6.50018 9.75V7.5ZM15.5002 7.5V9.75C15.5002 9.94891 15.4212 10.1397 15.2805 10.2803C15.1399 10.421 14.9491 10.5 14.7502 10.5C14.5513 10.5 14.3605 10.421 14.2199 10.2803C14.0792 10.1397 14.0002 9.94891 14.0002 9.75V7.5H15.5002ZM15.5002 7.5H17.9602C18.4986 7.50048 19.019 7.69402 19.4269 8.04549C19.8348 8.39696 20.1031 8.88305 20.1832 9.4155L21.7252 19.695C21.805 20.2285 21.7688 20.7729 21.619 21.2912C21.4693 21.8094 21.2095 22.2892 20.8573 22.6979C20.5052 23.1065 20.069 23.4344 19.5786 23.6591C19.0882 23.8838 18.5551 24.0001 18.0157 24H3.98318C3.44387 23.9999 2.91093 23.8835 2.4207 23.6587C1.93048 23.4338 1.49452 23.1059 1.14255 22.6973C0.790589 22.2887 0.530906 21.8089 0.38122 21.2908C0.231534 20.7727 0.195366 20.2284 0.275184 19.695L1.81568 9.4155C1.89577 8.8828 2.16432 8.39651 2.57252 8.045C2.98073 7.6935 3.5015 7.50012 4.04018 7.5H6.50018V4.5C6.50018 3.30653 6.97429 2.16193 7.8182 1.31802C8.66212 0.474106 9.80671 0 11.0002 0C12.1937 0 13.3383 0.474106 14.1822 1.31802C15.0261 2.16193 15.5002 3.30653 15.5002 4.5V7.5ZM8.00024 16.4C7.66887 16.4 7.40024 16.6686 7.40024 17C7.40024 17.3314 7.66887 17.6 8.00024 17.6H14.0002C14.3316 17.6 14.6002 17.3314 14.6002 17C14.6002 16.6686 14.3316 16.4 14.0002 16.4H8.00024Z" fill="#CDCDCD"/>
</svg>
