<svg width="27" height="32" viewBox="0 0 27 32" fill="none" xmlns="http://www.w3.org/2000/svg">
<path d="M15.9111 2.62397V2.09294C15.9111 1.81126 16.0196 1.54113 16.2126 1.34195C16.4056 1.14278 16.6674 1.03088 16.9403 1.03088C17.2133 1.03088 17.4751 1.14278 17.6681 1.34195C17.8611 1.54113 17.9695 1.81126 17.9695 2.09294V2.62397" fill="#91A5F4"/>
<path d="M19.4861 14.9999L21.2182 17.3076L26.0679 23.7691C28.3519 26.8117 26.1788 31.1536 22.3729 31.1536H9.67122C5.86535 31.1536 3.69221 26.8117 5.9762 23.7691L10.8259 17.3076L12.558 14.9999L13.7127 9.23071L14.29 5.76919L13.7127 3.46151L13.1353 1.73076V1.15384C13.1353 0.847821 13.257 0.554338 13.4735 0.337952C13.6901 0.121565 13.9838 0 14.29 0C14.5963 0 14.89 0.121565 15.1065 0.337952C15.323 0.554338 15.4447 0.847821 15.4447 1.15384V1.73076H17.7541V1.15384C17.7541 0.847821 17.8757 0.554338 18.0923 0.337952C18.3088 0.121565 18.6025 0 18.9088 0C19.215 0 19.5087 0.121565 19.7253 0.337952C19.9418 0.554338 20.0635 0.847821 20.0635 1.15384V1.73076L19.4861 3.46151L18.9088 5.76919L19.4861 14.9999Z" fill="#91A5F4"/>
<path d="M19.3329 11.8659C19.164 11.732 18.9581 11.6573 18.7452 11.6525C18.9478 11.6472 19.1441 11.5787 19.3082 11.456L19.1991 9.64943C19.059 9.57314 18.9035 9.53202 18.7452 9.52942C18.8979 9.52722 19.0481 9.48946 19.1847 9.41896L18.9984 6.34325L19.2557 5.2812H16.8999C16.3972 5.28134 15.908 5.11423 15.5047 4.80466C15.1015 4.4951 14.8057 4.05959 14.6613 3.56279L14.3917 2.63349V2.10246C14.3917 1.60648 14.7282 1.20821 15.1739 1.09139C15.0792 1.06165 14.9855 1.03085 14.8816 1.03085C14.6086 1.03085 14.3469 1.14274 14.1538 1.34192C13.9608 1.54109 13.8524 1.81123 13.8524 2.0929V2.62393L14.367 4.21702L14.6243 5.27907L14.8816 6.34113L14.367 9.52729L13.3378 14.8376L11.794 16.9617L7.47137 22.9092C5.43562 25.7098 7.37257 29.7063 10.7648 29.7063H11.1765C7.86453 29.6065 6.00065 25.6833 8.00964 22.9187L12.3323 16.9712L13.8761 14.8471L14.084 13.7755H18.7442C19.0107 13.7755 19.2485 13.664 19.4306 13.493L19.3329 11.8659Z" fill="#91A5F4"/>
<path d="M19.513 14.8378L19.0622 7.40346H14.8816L14.7787 6.97864L14.367 9.52757L14.2651 10.0544L13.3378 14.8378L11.794 16.962L7.47137 22.9095C5.43562 25.7101 7.37257 29.7066 10.7648 29.7066H12.8232C9.43096 29.7066 7.6875 25.8492 9.52977 22.9095C10.1411 21.9334 11.2341 19.8922 12.1676 18.1069C12.5168 17.439 13.0347 16.8812 13.6664 16.4926C14.2981 16.104 15.02 15.8992 15.7554 15.8999H19.4718C19.7047 15.8959 19.9291 15.8088 20.1068 15.6535L19.513 14.8378Z" fill="#A1B2F4"/>
<path d="M14.4753 17.4927C14.3944 17.493 14.3146 17.4735 14.2425 17.4359C14.1703 17.3983 14.1077 17.3436 14.06 17.2763C14.0122 17.209 13.9805 17.1309 13.9676 17.0485C13.9546 16.9662 13.9607 16.8818 13.9854 16.8024L14.6111 14.7558V14.3065C14.6111 14.1659 14.6652 14.031 14.7615 13.9314C14.8578 13.8318 14.9884 13.7758 15.1247 13.7755L17.7224 13.7712H17.7234C17.7911 13.771 17.8581 13.7845 17.9207 13.8111C17.9832 13.8377 18.0401 13.8768 18.0879 13.9262C18.1358 13.9755 18.1737 14.0342 18.1994 14.0987C18.2252 14.1633 18.2383 14.2325 18.238 14.3023V14.7558L18.8638 16.8024C18.8841 16.8689 18.8916 16.9389 18.8857 17.0084C18.8798 17.0779 18.8607 17.1455 18.8295 17.2074C18.7983 17.2693 18.7556 17.3242 18.7038 17.3691C18.6521 17.4139 18.5922 17.4478 18.5278 17.4688C18.4633 17.4898 18.3954 17.4975 18.3281 17.4914C18.2608 17.4853 18.1952 17.4656 18.1353 17.4334C18.0753 17.4012 18.022 17.3572 17.9786 17.3037C17.9351 17.2503 17.9023 17.1886 17.8819 17.122L17.2325 14.9979C17.217 14.9463 17.2091 14.8926 17.2088 14.8386V14.8354L15.6403 14.8386C15.6403 14.8926 15.6323 14.9463 15.6167 14.9979L14.9662 17.122C14.9328 17.2294 14.8673 17.323 14.7791 17.3896C14.6909 17.4562 14.5846 17.4923 14.4753 17.4927Z" fill="#91A5F4"/>
<path d="M16.4257 17.4928C16.2893 17.4928 16.1584 17.4369 16.0619 17.3373C15.9653 17.2377 15.9111 17.1026 15.9111 16.9618V14.8377C15.9111 14.6968 15.9653 14.5618 16.0619 14.4622C16.1584 14.3626 16.2893 14.3066 16.4257 14.3066C16.5622 14.3066 16.6931 14.3626 16.7896 14.4622C16.8861 14.5618 16.9403 14.6968 16.9403 14.8377V16.9618C16.9403 17.1026 16.8861 17.2377 16.7896 17.3373C16.6931 17.4369 16.5622 17.4928 16.4257 17.4928Z" fill="#91A5F4"/>
<path d="M20.5006 9.52744C20.5006 9.24577 20.3921 8.97563 20.1991 8.77645C20.0061 8.57728 19.7443 8.46538 19.4714 8.46538C19.7443 8.46538 20.0061 8.35349 20.1991 8.15432C20.3921 7.95514 20.5006 7.685 20.5006 7.40333C20.5006 7.12165 20.3921 6.85152 20.1991 6.65234C20.0061 6.45317 19.7443 6.34127 19.4714 6.34127H14.8822L14.3676 4.21716H12.9874C12.7963 4.21702 12.6089 4.27192 12.4464 4.37568C12.2838 4.47944 12.1525 4.62794 12.0673 4.80448L11.6073 5.75396C11.5218 5.93034 11.3905 6.07871 11.228 6.18244C11.0655 6.28617 10.8782 6.34117 10.6872 6.34127H8.19238V13.7757H10.8961C11.1688 13.7757 11.4313 13.8872 11.6237 14.0868L12.0498 14.5265C12.2428 14.7257 12.5045 14.8377 12.7775 14.8377H19.4714C19.7443 14.8377 20.0061 14.7258 20.1991 14.5266C20.3921 14.3275 20.5006 14.0573 20.5006 13.7757C20.5006 13.494 20.3921 13.2238 20.1991 13.0247C20.0061 12.8255 19.7443 12.7136 19.4714 12.7136C19.7443 12.7136 20.0061 12.6017 20.1991 12.4025C20.3921 12.2034 20.5006 11.9332 20.5006 11.6516C20.5006 11.3699 20.3921 11.0997 20.1991 10.9006C20.0061 10.7014 19.7443 10.5895 19.4714 10.5895C19.7443 10.5895 20.0061 10.4776 20.1991 10.2784C20.3921 10.0793 20.5006 9.80911 20.5006 9.52744Z" fill="#BBC9FF"/>
<path d="M17.208 1.08714C17.1206 1.06165 17.0341 1.03085 16.9384 1.03085C16.6654 1.03085 16.4037 1.14274 16.2106 1.34192C16.0176 1.54109 15.9092 1.81123 15.9092 2.0929V2.62393H16.4485V2.0929C16.4485 1.60542 16.7737 1.2114 17.208 1.08714ZM19.2664 1.08714C19.179 1.06165 19.0925 1.03085 18.9968 1.03085C18.7238 1.03085 18.462 1.14274 18.269 1.34192C18.076 1.54109 17.9676 1.81123 17.9676 2.0929V2.62393H18.5069V2.0929C18.5069 1.60542 18.8321 1.2114 19.2664 1.08714ZM15.1496 1.08714C15.0622 1.06165 14.9757 1.03085 14.88 1.03085C14.607 1.03085 14.3453 1.14274 14.1522 1.34192C13.9592 1.54109 13.8508 1.81123 13.8508 2.0929V2.62393H14.3901V2.0929C14.3901 1.60542 14.7153 1.2114 15.1496 1.08714Z" fill="#91A5F4"/>
<path d="M18.4822 21.7279H17.9172C17.8394 21.3354 17.6761 20.9664 17.4396 20.6488H18.4822C18.6187 20.6488 18.7496 20.5929 18.8461 20.4933C18.9426 20.3937 18.9968 20.2586 18.9968 20.1178C18.9968 19.9769 18.9426 19.8419 18.8461 19.7423C18.7496 19.6427 18.6187 19.5868 18.4822 19.5868H14.3654C14.2289 19.5868 14.098 19.6427 14.0015 19.7423C13.905 19.8419 13.8508 19.9769 13.8508 20.1178C13.8508 20.2586 13.905 20.3937 14.0015 20.4933C14.098 20.5929 14.2289 20.6488 14.3654 20.6488H15.3946C16.0708 20.6488 16.6399 21.1023 16.8489 21.7279H14.3654C14.2289 21.7279 14.098 21.7838 14.0015 21.8834C13.905 21.983 13.8508 22.118 13.8508 22.2589C13.8508 22.3997 13.905 22.5348 14.0015 22.6344C14.098 22.734 14.2289 22.7899 14.3654 22.7899H16.8386C16.7305 23.0957 16.5341 23.3599 16.2758 23.5467C16.0176 23.7336 15.71 23.8342 15.3946 23.835H14.3654C14.2289 23.835 14.098 23.8909 14.0015 23.9905C13.905 24.0901 13.8508 24.2252 13.8508 24.366L13.8529 24.3745C13.8512 24.4455 13.8636 24.5161 13.8893 24.582C13.9149 24.6479 13.9533 24.7078 14.0021 24.7579L17.0897 27.9441C17.1373 27.9938 17.1941 28.0332 17.2566 28.0602C17.3192 28.0871 17.3863 28.101 17.454 28.101C17.5218 28.101 17.5889 28.0871 17.6514 28.0602C17.714 28.0332 17.7707 27.9938 17.8184 27.9441C17.9148 27.8445 17.969 27.7094 17.969 27.5686C17.969 27.4278 17.9148 27.2928 17.8184 27.1932L15.5747 24.8779C16.1313 24.8388 16.6604 24.6138 17.0821 24.2369C17.5037 23.86 17.7951 23.3517 17.912 22.7889H18.4832C18.5527 22.792 18.622 22.7806 18.6871 22.7553C18.7521 22.73 18.8115 22.6914 18.8617 22.6418C18.9119 22.5921 18.9518 22.5325 18.9791 22.4665C19.0064 22.4005 19.0204 22.3295 19.0203 22.2578C19.0202 22.1861 19.0061 22.1151 18.9787 22.0492C18.9513 21.9832 18.9113 21.9237 18.861 21.8742C18.8107 21.8246 18.7512 21.7861 18.6861 21.761C18.621 21.7359 18.5516 21.7246 18.4822 21.7279Z" fill="white"/>
<path d="M17.0547 12.7136H19.4702C19.7432 12.7136 20.005 12.8254 20.198 13.0246C20.391 13.2238 20.4994 13.4939 20.4994 13.7756C20.4994 14.0573 20.391 14.3274 20.198 14.5266C20.005 14.7258 19.7432 14.8377 19.4702 14.8377H17.0547V12.7136ZM17.0547 10.5894H19.4702C19.7432 10.5894 20.005 10.7013 20.198 10.9005C20.391 11.0997 20.4994 11.3698 20.4994 11.6515C20.4994 11.9332 20.391 12.2033 20.198 12.4025C20.005 12.6017 19.7432 12.7136 19.4702 12.7136H17.0547V10.5894ZM17.0547 8.46533H19.4702C19.7432 8.46533 20.005 8.57723 20.198 8.7764C20.391 8.97557 20.4994 9.24571 20.4994 9.52739C20.4994 9.80906 20.391 10.0792 20.198 10.2784C20.005 10.4775 19.7432 10.5894 19.4702 10.5894H17.0547" fill="#BBC9FF"/>
<path d="M12.6972 14.3063C12.562 14.3065 12.4281 14.279 12.3033 14.2256C12.1784 14.1722 12.065 14.0939 11.9695 13.9951L11.5435 13.5554C11.3505 13.3563 11.0887 13.2443 10.8158 13.2443H8.19238V13.7753H10.8961C11.1688 13.7753 11.4313 13.8868 11.6237 14.0865L12.0498 14.5262C12.2428 14.7254 12.5045 14.8373 12.7775 14.8373H18.5266L18.4041 14.3063H12.6972Z" fill="#BBC9FF"/>
<path d="M2.05865 5.81041H8.70624C8.84272 5.81041 8.97361 5.86635 9.07012 5.96594C9.16662 6.06553 9.22084 6.2006 9.22084 6.34143V14.8379C9.22084 14.9787 9.16662 15.1138 9.07012 15.2134C8.97361 15.313 8.84272 15.3689 8.70624 15.3689H2.05865" fill="#91A5F4"/>
<path d="M7.20464 12.2263V5.81041H2.05865V15.3689H8.70624C8.84272 15.3689 8.97361 15.313 9.07012 15.2134C9.16662 15.1138 9.22084 14.9787 9.22084 14.8379V14.3068C8.68611 14.3068 8.17328 14.0876 7.79517 13.6975C7.41706 13.3073 7.20464 12.7781 7.20464 12.2263Z" fill="#A1B2F4"/>
<path d="M0 5.27895H5.61839C5.75487 5.27895 5.88576 5.33489 5.98226 5.43448C6.07877 5.53407 6.13299 5.66914 6.13299 5.80997V15.3685C6.13299 15.4382 6.11968 15.5073 6.09382 15.5717C6.06796 15.6361 6.03005 15.6947 5.98226 15.744C5.93448 15.7933 5.87775 15.8324 5.81532 15.8591C5.75288 15.8858 5.68597 15.8995 5.61839 15.8995H0" fill="#91A5F4"/>
<path d="M5.61839 5.27895H4.07459V11.6513C4.07459 12.2146 3.85773 12.7549 3.4717 13.1533C3.08568 13.5516 2.56212 13.7754 2.0162 13.7754H0V15.8995H5.61839C5.75487 15.8995 5.88576 15.8436 5.98226 15.744C6.07877 15.6444 6.13299 15.5093 6.13299 15.3685V5.80997C6.13299 5.66914 6.07877 5.53407 5.98226 5.43448C5.88576 5.33489 5.75487 5.27895 5.61839 5.27895Z" fill="#91A5F4"/>
<path d="M7.67671 14.3063C7.96091 14.3063 8.19131 14.0686 8.19131 13.7753C8.19131 13.482 7.96091 13.2443 7.67671 13.2443C7.3925 13.2443 7.16211 13.482 7.16211 13.7753C7.16211 14.0686 7.3925 14.3063 7.67671 14.3063Z" fill="#EFF2FA"/>
<path d="M17.8605 8.46096H17.312C17.2437 8.46096 17.1783 8.43299 17.13 8.38319C17.0818 8.3334 17.0547 8.26586 17.0547 8.19545C17.0547 8.12503 17.0818 8.05749 17.13 8.0077C17.1783 7.95791 17.2437 7.92993 17.312 7.92993H17.8605C17.9288 7.92993 17.9942 7.95791 18.0425 8.0077C18.0907 8.05749 18.1178 8.12503 18.1178 8.19545C18.1178 8.26586 18.0907 8.3334 18.0425 8.38319C17.9942 8.43299 17.9288 8.46096 17.8605 8.46096ZM17.8605 10.5851H17.312C17.2437 10.5851 17.1783 10.5571 17.13 10.5073C17.0818 10.4575 17.0547 10.39 17.0547 10.3196C17.0547 10.2491 17.0818 10.1816 17.13 10.1318C17.1783 10.082 17.2437 10.054 17.312 10.054H17.8605C17.9288 10.054 17.9942 10.082 18.0425 10.1318C18.0907 10.1816 18.1178 10.2491 18.1178 10.3196C18.1178 10.39 18.0907 10.4575 18.0425 10.5073C17.9942 10.5571 17.9288 10.5851 17.8605 10.5851ZM17.8605 12.7092H17.312C17.2437 12.7092 17.1783 12.6812 17.13 12.6314C17.0818 12.5816 17.0547 12.5141 17.0547 12.4437C17.0547 12.3732 17.0818 12.3057 17.13 12.2559C17.1783 12.2061 17.2437 12.1782 17.312 12.1782H17.8605C17.9288 12.1782 17.9942 12.2061 18.0425 12.2559C18.0907 12.3057 18.1178 12.3732 18.1178 12.4437C18.1178 12.5141 18.0907 12.5816 18.0425 12.6314C17.9942 12.6812 17.9288 12.7092 17.8605 12.7092Z" fill="#BBC9FF"/>
</svg>
