<svg width="62" height="36" viewBox="0 0 62 36" fill="none" xmlns="http://www.w3.org/2000/svg">
<g clip-path="url(#clip0_223_20927)">
<path d="M45.5294 0H5.29412C2.37026 0 0 2.37026 0 5.29412V30.7059C0 33.6297 2.37026 36 5.29412 36H45.5294C48.4533 36 50.8235 33.6297 50.8235 30.7059V5.29412C50.8235 2.37026 48.4533 0 45.5294 0Z" fill="white"/>
<path d="M45.529 0.634766H5.2937C2.7207 0.634766 0.634872 2.72059 0.634872 5.29359V30.7054C0.634872 33.2784 2.7207 35.3642 5.2937 35.3642H45.529C48.102 35.3642 50.1878 33.2784 50.1878 30.7054V5.29359C50.1878 2.72059 48.102 0.634766 45.529 0.634766Z" stroke="#3F7ED3" stroke-width="1.58824" stroke-linecap="round"/>
<mask id="path-3-inside-1_223_20927" fill="white">
<path d="M36.5053 23.3624C38.5478 21.0034 41.1948 17.7432 41.1948 12.1241C41.1789 11.9344 41.0924 11.7575 40.9522 11.6286C40.8121 11.4998 40.6287 11.4282 40.4383 11.4282C40.2479 11.4282 40.0645 11.4998 39.9244 11.6286C39.7842 11.7575 39.6976 11.9344 39.6818 12.1241C39.7164 15.7064 38.3611 19.1628 35.9007 21.7668C35.3848 20.2241 35.1293 18.6064 35.1447 16.9798C35.1288 16.7901 35.0422 16.6133 34.9021 16.4844C34.762 16.3555 34.5786 16.284 34.3882 16.284C34.1978 16.284 34.0144 16.3555 33.8742 16.4844C33.7341 16.6133 33.6475 16.7901 33.6316 16.9798C33.6446 17.9139 33.3816 18.831 32.8756 19.6163C32.5728 19.6163 32.1948 18.6454 32.1196 17.6744C32.0949 17.4945 32.0035 17.3303 31.8635 17.2146C31.7234 17.0989 31.545 17.0401 31.3636 17.0497C31.2725 17.0386 31.1801 17.0461 31.0921 17.0719C31.004 17.0976 30.9221 17.141 30.8513 17.1995C30.7806 17.258 30.7225 17.3302 30.6806 17.4119C30.6387 17.4935 30.6139 17.5829 30.6076 17.6744C30.3811 18.854 29.7754 20.5184 29.0946 20.5184C28.7918 20.5184 28.6404 20.4485 28.5652 20.3067C28.3345 19.985 28.227 19.5912 28.2623 19.197C28.2623 18.9196 28.3375 18.6422 28.3375 18.3648C28.3334 18.1843 28.2607 18.0122 28.1342 17.8834C28.0078 17.7546 27.8371 17.6787 27.6567 17.6712C27.4761 17.6581 27.2962 17.7056 27.1455 17.806C26.9948 17.9065 26.8819 18.0543 26.8245 18.2261C26.7802 18.4783 26.7551 18.7335 26.7493 18.9895C26.5979 20.169 26.1447 22.527 24.5565 22.527C24.3522 22.5531 24.1447 22.5214 23.9575 22.4355C23.7704 22.3496 23.611 22.2129 23.4976 22.041C23.31 21.6887 23.2119 21.2956 23.2119 20.8964C23.2119 20.4972 23.31 20.1042 23.4976 19.7518V19.6819C23.5728 19.6121 23.5728 19.4702 23.6491 19.4045C23.8337 18.9071 24.1628 18.4763 24.5941 18.1673C25.0254 17.8582 25.5392 17.6851 26.0695 17.6702C26.1662 17.6794 26.2637 17.6684 26.3558 17.6378C26.448 17.6071 26.5327 17.5576 26.6045 17.4923C26.6764 17.427 26.7338 17.3474 26.7731 17.2586C26.8124 17.1698 26.8327 17.0738 26.8327 16.9767C26.8327 16.8796 26.8124 16.7835 26.7731 16.6947C26.7338 16.606 26.6764 16.5264 26.6045 16.4611C26.5327 16.3958 26.448 16.3462 26.3558 16.3155C26.2637 16.2849 26.1662 16.2739 26.0695 16.2831C22.8931 16.2831 21.9856 19.1271 21.0782 21.8324C20.0194 25.1624 19.0358 27.3817 16.2383 27.3817C12.3811 27.3817 10.9442 22.8034 10.9442 19.7508C10.9442 13.7854 14.4987 10.0392 17.7514 10.0392C18.3683 10.024 18.9785 10.1694 19.5222 10.4612C20.0659 10.753 20.5244 11.1812 20.8527 11.7037C20.9446 11.8731 21.096 12.0024 21.2777 12.0666C21.4594 12.1307 21.6585 12.1252 21.8363 12.051C21.9226 12.0194 22.0013 11.9704 22.0677 11.907C22.1341 11.8436 22.1867 11.7671 22.2222 11.6824C22.2577 11.5977 22.2753 11.5066 22.2739 11.4148C22.2726 11.323 22.2523 11.2325 22.2143 11.1489C21.7686 10.3653 21.1168 9.71867 20.3297 9.27912C19.5427 8.83956 18.6503 8.62385 17.7493 8.65536C13.6654 8.65536 9.43011 12.8176 9.43011 19.755C9.43011 26.9 13.892 28.773 16.2373 28.773C20.0946 28.773 21.38 25.6516 22.3636 22.8764C22.6295 23.2012 22.9641 23.463 23.3432 23.6429C23.7224 23.8229 24.1368 23.9166 24.5565 23.9172C25.2846 23.8996 25.9875 23.6468 26.5601 23.1966C27.1326 22.7464 27.5441 22.1229 27.7329 21.4195C28.1294 21.7028 28.6075 21.8489 29.0946 21.8356C29.5874 21.7874 30.0581 21.6074 30.4573 21.3145C30.8566 21.0216 31.1696 20.6267 31.3636 20.1711C31.5221 20.4291 31.7448 20.6415 32.0101 20.7874C32.2753 20.9333 32.574 21.0077 32.8767 21.0034C33.3028 20.9919 33.7085 20.818 34.0107 20.5174C34.2373 21.4883 34.5401 22.3904 34.7667 23.1538C33.7079 24.4022 32.8756 25.443 32.8756 26.6914C32.8832 26.9786 32.9485 27.2613 33.0676 27.5227C33.1867 27.7842 33.3572 28.019 33.5689 28.2132C33.7806 28.4074 34.0292 28.5571 34.2999 28.6533C34.5706 28.7494 34.8579 28.7902 35.1447 28.773C35.7185 28.7859 36.275 28.5765 36.6979 28.1885C37.1208 27.8006 37.3773 27.2641 37.4138 26.6914C37.3234 25.6542 37.0412 24.6428 36.5815 23.7087C36.5815 23.5699 36.5053 23.5011 36.5053 23.3624ZM35.1436 27.386C35.0471 27.3965 34.9494 27.3864 34.8571 27.3561C34.7648 27.3259 34.68 27.2763 34.6084 27.2106C34.5368 27.1449 34.4801 27.0647 34.442 26.9754C34.4039 26.886 34.3854 26.7895 34.3876 26.6924C34.4859 25.9321 34.8316 25.2252 35.3713 24.6807C35.6556 25.3181 35.8344 25.9976 35.9007 26.6924C35.8829 26.8811 35.7957 27.0564 35.6561 27.1846C35.5164 27.3127 35.3331 27.3844 35.1436 27.386Z"/>
</mask>
<path d="M36.5053 23.3624L31.7024 19.2041L30.1523 20.9944V23.3624H36.5053ZM41.1948 12.1241H47.5478V11.8586L47.5256 11.594L41.1948 12.1241ZM40.4383 11.4282V17.7812V11.4282ZM39.6818 12.1241L33.351 11.594L33.3262 11.8893L33.3291 12.1856L39.6818 12.1241ZM35.9007 21.7668L29.8757 23.7816L33.2378 33.8353L40.5184 26.1299L35.9007 21.7668ZM35.1447 16.9798L41.4974 17.0398L41.5001 16.7443L41.4755 16.4498L35.1447 16.9798ZM34.3882 16.284V22.6369V16.284ZM33.6316 16.9798L27.3009 16.4498L27.275 16.7584L27.2793 17.0681L33.6316 16.9798ZM32.8756 19.6163V25.9692H36.3396L38.2159 23.0574L32.8756 19.6163ZM32.1196 17.6744L38.4536 17.184L38.4391 16.9966L38.4135 16.8103L32.1196 17.6744ZM31.3636 17.0497L30.5922 23.3556L31.1451 23.4233L31.7013 23.3937L31.3636 17.0497ZM30.6076 17.6744L36.8465 18.8729L36.9196 18.4922L36.9459 18.1054L30.6076 17.6744ZM28.5652 20.3067L34.1788 17.3323L33.9777 16.9527L33.7273 16.6036L28.5652 20.3067ZM28.2623 19.197L34.5899 19.7646L34.6153 19.4813V19.197H28.2623ZM28.3375 18.3648H34.6905V18.2918L34.6888 18.2188L28.3375 18.3648ZM27.6567 17.6712L27.1973 24.0076L27.2952 24.0147L27.3933 24.0187L27.6567 17.6712ZM26.8245 18.2261L20.7989 16.2131L20.6489 16.662L20.5671 17.1281L26.8245 18.2261ZM26.7493 18.9895L33.0505 19.7983L33.0931 19.4671L33.1006 19.1332L26.7493 18.9895ZM24.5565 22.527V16.1741H24.1522L23.7512 16.2253L24.5565 22.527ZM23.4976 22.041L17.8901 25.0269L18.0302 25.29L18.1943 25.5389L23.4976 22.041ZM23.4976 19.7518L29.1052 22.7377L29.8506 21.3378V19.7518H23.4976ZM23.4976 19.6819L19.1723 15.0289L17.1447 16.9137V19.6819H23.4976ZM23.6491 19.4045L27.7945 24.2186L29.035 23.1504L29.6048 21.6157L23.6491 19.4045ZM26.0695 17.6702L26.6755 11.3462L26.2838 11.3087L25.8906 11.3198L26.0695 17.6702ZM26.7731 16.6947L20.9635 19.2654L26.7731 16.6947ZM26.0695 16.2831V22.6361H26.3732L26.6755 22.6071L26.0695 16.2831ZM21.0782 21.8324L15.0551 19.8121L15.0392 19.8596L15.024 19.9074L21.0782 21.8324ZM17.7514 10.0392V16.3922H17.8299L17.9084 16.3902L17.7514 10.0392ZM20.8527 11.7037L26.4373 8.67523L26.3403 8.49638L26.2321 8.3241L20.8527 11.7037ZM21.8363 12.051L19.6516 6.08555L19.5203 6.13364L19.3912 6.18747L21.8363 12.051ZM22.2143 11.1489L27.9991 8.52276L27.8794 8.25921L27.7363 8.00763L22.2143 11.1489ZM17.7493 8.65536V15.0083H17.8604L17.9714 15.0044L17.7493 8.65536ZM22.3636 22.8764L27.2793 18.852L20.1405 10.1324L16.3757 20.754L22.3636 22.8764ZM24.5565 23.9172L24.5465 30.2702L24.6283 30.2703L24.7101 30.2683L24.5565 23.9172ZM27.7329 21.4195L31.4264 16.2505L23.9725 10.9245L21.5973 19.7723L27.7329 21.4195ZM29.0946 21.8356L29.2676 28.1862L29.491 28.1801L29.7134 28.1583L29.0946 21.8356ZM31.3636 20.1711L36.7775 16.847L30.3393 6.36141L25.5186 17.6821L31.3636 20.1711ZM32.8767 21.0034L32.9682 27.3556L33.0082 27.3551L33.0481 27.354L32.8767 21.0034ZM34.0107 20.5174L40.1974 19.0736L37.608 7.97767L29.5302 16.0135L34.0107 20.5174ZM34.7667 23.1538L39.6116 27.2632L41.8352 24.6416L40.857 21.3462L34.7667 23.1538ZM32.8756 26.6914H26.5227V26.7752L26.5249 26.859L32.8756 26.6914ZM35.1447 28.773L35.2876 22.4217L35.0264 22.4158L34.7656 22.4314L35.1447 28.773ZM37.4138 26.6914L43.7539 27.0951L43.7843 26.6172L43.7427 26.1402L37.4138 26.6914ZM36.5815 23.7087H30.2286V25.1872L30.8814 26.5138L36.5815 23.7087ZM35.1436 27.386L35.0927 21.0332L34.7711 21.0358L34.4514 21.0708L35.1436 27.386ZM34.3876 26.6924L28.0871 25.8779L28.0441 26.2107L28.0364 26.5461L34.3876 26.6924ZM35.3713 24.6807L41.1734 22.0931L37.3931 13.6164L30.8592 20.2084L35.3713 24.6807ZM35.9007 26.6924L42.2255 27.2897L42.2822 26.6893L42.2249 26.0888L35.9007 26.6924ZM41.3082 27.5208C43.5922 24.8827 47.5478 20.1269 47.5478 12.1241H34.8419C34.8419 15.3596 33.5033 17.124 31.7024 19.2041L41.3082 27.5208ZM47.5256 11.594C47.3768 9.81672 46.5657 8.16019 45.2529 6.95279L36.6515 16.3045C35.619 15.3549 34.9811 14.052 34.864 12.6541L47.5256 11.594ZM45.2529 6.95279C43.9402 5.74539 42.2218 5.07529 40.4383 5.07529V17.7812C39.0355 17.7812 37.684 17.2541 36.6515 16.3045L45.2529 6.95279ZM40.4383 5.07529C38.6548 5.07529 36.9363 5.74541 35.6236 6.95279L44.2251 16.3045C43.1926 17.2541 41.8411 17.7812 40.4383 17.7812V5.07529ZM35.6236 6.95279C34.3109 8.16016 33.4998 9.81668 33.351 11.594L46.0126 12.6541C45.8955 14.052 45.2575 15.3549 44.2251 16.3045L35.6236 6.95279ZM33.3291 12.1856C33.3479 14.1241 32.6145 15.9945 31.283 17.4036L40.5184 26.1299C44.1078 22.331 46.085 17.2887 46.0344 12.0626L33.3291 12.1856ZM41.9257 19.752C41.6334 18.878 41.4887 17.9614 41.4974 17.0398L28.792 16.9198C28.77 19.2514 29.1363 21.5703 29.8757 23.7816L41.9257 19.752ZM41.4755 16.4498C41.3267 14.6725 40.5156 13.016 39.2028 11.8086L30.6014 21.1603C29.5689 20.2106 28.9309 18.9077 28.8139 17.5099L41.4755 16.4498ZM39.2028 11.8086C37.8901 10.6012 36.1717 9.93106 34.3882 9.93106V22.6369C32.9854 22.6369 31.6338 22.1099 30.6014 21.1603L39.2028 11.8086ZM34.3882 9.93106C32.6047 9.93106 30.8862 10.6012 29.5735 11.8086L38.175 21.1603C37.1425 22.1099 35.7909 22.6369 34.3882 22.6369V9.93106ZM29.5735 11.8086C28.2608 13.016 27.4497 14.6725 27.3009 16.4498L39.9624 17.5099C39.8454 18.9077 39.2074 20.2106 38.175 21.1603L29.5735 11.8086ZM27.2793 17.0681C27.2749 16.7518 27.364 16.4411 27.5354 16.1752L38.2159 23.0574C39.3993 21.2209 40.0143 19.0761 39.984 16.8915L27.2793 17.0681ZM32.8756 13.2634C34.5774 13.2634 35.816 13.9447 36.4741 14.419C37.1317 14.893 37.5357 15.3869 37.733 15.6515C38.1265 16.1791 38.2941 16.6064 38.3324 16.7047C38.4318 16.9601 38.4464 17.09 38.4536 17.184L25.7857 18.1648C25.8681 19.2298 26.1092 20.3306 26.4922 21.3142C26.6722 21.7766 26.9958 22.5073 27.5476 23.2473C27.7824 23.5622 29.5286 25.9692 32.8756 25.9692V13.2634ZM38.4135 16.8103C38.1721 15.0517 37.2786 13.4481 35.9102 12.3173L27.8167 22.1119C26.7284 21.2126 26.0178 19.9372 25.8257 18.5385L38.4135 16.8103ZM35.9102 12.3173C34.5419 11.1866 32.7985 10.6114 31.026 10.7058L31.7013 23.3937C30.2915 23.4687 28.905 23.0112 27.8167 22.1119L35.9102 12.3173ZM32.1351 10.7438C31.1873 10.6278 30.2258 10.7062 29.3093 10.9742L32.8748 23.1695C32.1345 23.386 31.3578 23.4493 30.5922 23.3556L32.1351 10.7438ZM29.3093 10.9742C28.3929 11.2421 27.5406 11.694 26.8045 12.3022L34.8981 22.0968C34.3035 22.5881 33.6151 22.9531 32.8748 23.1695L29.3093 10.9742ZM26.8045 12.3022C26.0685 12.9104 25.4641 13.6623 25.0282 14.5118L36.333 20.3119C35.9809 20.9982 35.4926 21.6055 34.8981 22.0968L26.8045 12.3022ZM25.0282 14.5118C24.5923 15.3614 24.3341 16.2908 24.2693 17.2435L36.9459 18.1054C36.8936 18.8749 36.685 19.6257 36.333 20.3119L25.0282 14.5118ZM24.3688 16.4759C24.329 16.6831 24.2591 16.8637 24.2718 16.8367C24.2849 16.8088 24.3255 16.7248 24.401 16.6021C24.4717 16.487 24.616 16.2675 24.8512 16.0045C25.164 15.6548 26.5879 14.1655 29.0946 14.1655V26.8714C31.9417 26.8714 33.6965 25.174 34.3215 24.4753C35.0565 23.6536 35.5115 22.7932 35.7712 22.2407C36.3135 21.0867 36.6597 19.8453 36.8465 18.8729L24.3688 16.4759ZM29.0946 14.1655C29.3338 14.1655 30.1639 14.1778 31.173 14.5953C32.4046 15.1048 33.4993 16.0499 34.1788 17.3323L22.9515 23.281C24.7318 26.641 28.0954 26.8714 29.0946 26.8714V14.1655ZM33.7273 16.6036C34.3845 17.5197 34.6906 18.6415 34.5899 19.7646L21.9348 18.6295C21.7634 20.5409 22.2845 22.4503 23.4031 24.0097L33.7273 16.6036ZM34.6153 19.197C34.6153 19.4087 34.6011 19.5656 34.5945 19.6313C34.589 19.6852 34.5835 19.7211 34.5953 19.6339C34.6023 19.5824 34.6266 19.4078 34.6462 19.2151C34.6669 19.0108 34.6905 18.7152 34.6905 18.3648H21.9846C21.9846 18.1531 21.9987 17.9961 22.0054 17.9305C22.0109 17.8766 22.0163 17.8407 22.0045 17.9279C21.9975 17.9794 21.9733 18.154 21.9537 18.3466C21.9329 18.551 21.9094 18.8466 21.9094 19.197H34.6153ZM34.6888 18.2188C34.6475 16.4247 33.925 14.7135 32.6678 13.4329L23.6007 22.3339C22.5964 21.3109 22.0192 19.944 21.9863 18.5108L34.6888 18.2188ZM32.6678 13.4329C31.4106 12.1523 29.7131 11.3982 27.9201 11.3238L27.3933 24.0187C25.961 23.9593 24.605 23.3569 23.6007 22.3339L32.6678 13.4329ZM28.1161 11.3349C26.5279 11.2198 24.9465 11.6368 23.6215 12.5201L30.6695 23.092C29.6459 23.7744 28.4243 24.0965 27.1973 24.0076L28.1161 11.3349ZM23.6215 12.5201C22.2966 13.4034 21.3035 14.7027 20.7989 16.2131L32.85 20.2391C32.4603 21.4059 31.693 22.4096 30.6695 23.092L23.6215 12.5201ZM20.5671 17.1281C20.4675 17.6956 20.411 18.2698 20.398 18.8458L33.1006 19.1332C33.0992 19.1971 33.0929 19.2609 33.0818 19.324L20.5671 17.1281ZM20.4481 18.1806C20.3886 18.6439 20.326 18.7547 20.3957 18.5993C20.4397 18.5012 20.6833 17.9668 21.3164 17.4015C22.0681 16.7302 23.2094 16.1741 24.5565 16.1741V28.8799C29.2195 28.8799 31.3439 25.2361 31.9876 23.8019C32.7189 22.1726 32.9586 20.5146 33.0505 19.7983L20.4481 18.1806ZM23.7512 16.2253C24.7254 16.1008 25.7151 16.252 26.6077 16.6617L21.3074 28.2093C22.5743 28.7908 23.979 29.0054 25.3618 28.8287L23.7512 16.2253ZM26.6077 16.6617C27.5003 17.0714 28.2602 17.7233 28.8009 18.5432L18.1943 25.5389C18.9619 26.7026 20.0404 27.6278 21.3074 28.2093L26.6077 16.6617ZM29.1052 19.0551C29.407 19.6219 29.5648 20.2543 29.5648 20.8964H16.859C16.859 22.3369 17.2131 23.7554 17.8901 25.0269L29.1052 19.0551ZM29.5648 20.8964C29.5648 21.5386 29.407 22.1709 29.1052 22.7377L17.8901 16.766C17.2131 18.0375 16.859 19.4559 16.859 20.8964H29.5648ZM29.8506 19.7518V19.6819H17.1447V19.7518H29.8506ZM27.823 24.335C28.2263 23.9602 28.5318 23.5808 28.7599 23.2485C28.8739 23.0825 28.9701 22.926 29.0508 22.7846C29.1314 22.6433 29.1987 22.5134 29.2539 22.3999C29.3092 22.2865 29.3547 22.1848 29.3911 22.0998C29.4274 22.0149 29.4569 21.9413 29.4791 21.8842C29.5011 21.8276 29.5186 21.7807 29.5294 21.7513C29.5349 21.7363 29.5395 21.7236 29.5425 21.7153C29.5451 21.7081 29.548 21.7 29.5482 21.6994C29.5506 21.6927 29.5451 21.7081 29.5375 21.7286C29.5294 21.7506 29.5145 21.7902 29.4948 21.8402C29.4749 21.8905 29.4473 21.958 29.4125 22.0373C29.3776 22.1167 29.3331 22.2136 29.2781 22.3228C29.223 22.4321 29.1551 22.5587 29.0728 22.6971C28.9903 22.8356 28.8911 22.9899 28.7728 23.1536C28.5354 23.4821 28.216 23.8556 27.7945 24.2186L19.5036 14.5905C19.063 14.9699 18.727 15.3621 18.4747 15.7112C18.2256 16.056 18.0494 16.3707 17.9296 16.6087C17.8104 16.8453 17.7279 17.0446 17.6802 17.1653C17.6349 17.2798 17.5995 17.3787 17.5977 17.3839C17.5854 17.418 17.6089 17.3517 17.6379 17.2773C17.6702 17.1943 17.7345 17.0342 17.8307 16.8368C17.9274 16.6381 18.0744 16.364 18.2853 16.0568C18.4987 15.7459 18.7878 15.3863 19.1723 15.0289L27.823 24.335ZM29.6048 21.6157C29.3487 22.3054 28.8924 22.9028 28.2944 23.3314L20.8938 13.0032C19.4332 14.0497 18.3187 15.5089 17.6933 17.1934L29.6048 21.6157ZM28.2944 23.3314C27.6963 23.7599 26.9839 23.9999 26.2485 24.0206L25.8906 11.3198C24.0945 11.3704 22.3544 11.9566 20.8938 13.0032L28.2944 23.3314ZM25.4636 23.9942C26.4416 24.0879 27.4283 23.9761 28.3606 23.6661L24.3511 11.6094C25.0991 11.3607 25.8908 11.271 26.6755 11.3462L25.4636 23.9942ZM28.3606 23.6661C29.2929 23.3561 30.15 22.8546 30.8771 22.1938L22.3319 12.7907C22.9153 12.2605 23.6031 11.8582 24.3511 11.6094L28.3606 23.6661ZM30.8771 22.1938C31.6042 21.5331 32.1852 20.7276 32.5827 19.8292L20.9635 14.6879C21.2824 13.9671 21.7485 13.3209 22.3319 12.7907L30.8771 22.1938ZM32.5827 19.8292C32.9803 18.9308 33.1856 17.9592 33.1856 16.9767H20.4797C20.4797 16.1883 20.6445 15.4088 20.9635 14.6879L32.5827 19.8292ZM33.1856 16.9767C33.1856 15.9941 32.9803 15.0225 32.5827 14.1241L20.9635 19.2654C20.6445 18.5445 20.4797 17.765 20.4797 16.9767H33.1856ZM32.5827 14.1241C32.1852 13.2257 31.6042 12.4202 30.8771 11.7595L22.3319 21.1626C21.7485 20.6325 21.2824 19.9862 20.9635 19.2654L32.5827 14.1241ZM30.8771 11.7595C30.1501 11.0988 29.2929 10.5973 28.3606 10.2872L24.3511 22.3439C23.603 22.0951 22.9153 21.6927 22.3319 21.1626L30.8771 11.7595ZM28.3606 10.2872C27.4283 9.97717 26.4415 9.86545 25.4636 9.95915L26.6755 22.6071C25.8908 22.6823 25.0991 22.5926 24.3511 22.3439L28.3606 10.2872ZM26.0695 9.93019C22.0826 9.93019 19.249 11.9377 17.5253 14.3904C16.1439 16.3559 15.4138 18.7428 15.0551 19.8121L27.1014 23.8527C27.348 23.1174 27.5085 22.6383 27.6818 22.2108C27.8507 21.7942 27.9373 21.6725 27.9207 21.6962C27.8846 21.7476 27.6651 22.039 27.2056 22.299C26.7129 22.5778 26.2706 22.6361 26.0695 22.6361V9.93019ZM15.024 19.9074C14.7746 20.6916 14.5841 21.2341 14.4138 21.6387C14.241 22.0488 14.1669 22.1255 14.227 22.0453C14.3147 21.9283 14.5935 21.6062 15.104 21.3418C15.6264 21.0712 16.0672 21.0288 16.2383 21.0288V33.7347C19.7693 33.7347 22.5473 32.1292 24.3935 29.6664C25.8546 27.7173 26.6331 25.3281 27.1325 23.7575L15.024 19.9074ZM16.2383 21.0288C16.3944 21.0288 16.6067 21.0535 16.8457 21.1303C17.0831 21.2065 17.2851 21.3141 17.4421 21.4247C17.7401 21.6346 17.7881 21.7887 17.7083 21.6438C17.6309 21.5035 17.5158 21.2275 17.4242 20.8239C17.3339 20.4265 17.2972 20.04 17.2972 19.7508H4.59129C4.59129 22.0857 5.10805 25.1058 6.58131 27.7781C8.13412 30.5948 11.261 33.7347 16.2383 33.7347V21.0288ZM17.2972 19.7508C17.2972 18.0245 17.8068 16.9948 18.1618 16.5337C18.587 15.9814 18.5843 16.3922 17.7514 16.3922V3.6863C9.54594 3.6863 4.59129 11.9207 4.59129 19.7508H17.2972ZM17.9084 16.3902C17.424 16.4022 16.9449 16.288 16.5179 16.0589L22.5265 4.86354C21.0122 4.05079 19.3126 3.64578 17.5944 3.68824L17.9084 16.3902ZM16.5179 16.0589C16.091 15.8298 15.731 15.4936 15.4733 15.0833L26.2321 8.3241C25.3178 6.86882 24.0409 5.67628 22.5265 4.86354L16.5179 16.0589ZM15.2681 14.7322C16.1098 16.2845 17.4976 17.4692 19.1627 18.0571L23.3928 6.07604C24.6944 6.53562 25.7793 7.46178 26.4373 8.67523L15.2681 14.7322ZM19.1627 18.0571C20.8277 18.645 22.6517 18.5942 24.2815 17.9146L19.3912 6.18747C20.6653 5.65618 22.0911 5.61647 23.3928 6.07604L19.1627 18.0571ZM24.0211 18.0165C24.9284 17.6842 25.7574 17.1682 26.4561 16.5007L17.6794 7.31324C18.2453 6.77263 18.9167 6.35468 19.6516 6.08555L24.0211 18.0165ZM26.4561 16.5007C27.1547 15.8333 27.7081 15.0288 28.0815 14.1376L16.3628 9.22727C16.6653 8.50545 17.1135 7.85385 17.6794 7.31324L26.4561 16.5007ZM28.0815 14.1376C28.4549 13.2464 28.6404 12.2878 28.6262 11.3216L15.9217 11.5081C15.9102 10.7255 16.0604 9.94906 16.3628 9.22727L28.0815 14.1376ZM28.6262 11.3216C28.612 10.3554 28.3985 9.4026 27.9991 8.52276L16.4296 13.775C16.1061 13.0624 15.9332 12.2907 15.9217 11.5081L28.6262 11.3216ZM27.7363 8.00763C26.7171 6.21598 25.2269 4.7375 23.4273 3.73248L17.2322 14.8257C17.0067 14.6998 16.8201 14.5146 16.6924 14.2902L27.7363 8.00763ZM23.4273 3.73248C21.6276 2.72746 19.5872 2.23425 17.5272 2.30631L17.9714 15.0044C17.7133 15.0134 17.4577 14.9517 17.2322 14.8257L23.4273 3.73248ZM17.7493 2.30242C9.05265 2.30242 3.07717 10.5258 3.07717 19.755H15.7831C15.7831 17.5855 16.4349 16.2834 16.9645 15.6396C17.5304 14.9516 17.9054 15.0083 17.7493 15.0083V2.30242ZM3.07717 19.755C3.07717 24.7312 4.68017 28.7483 7.53928 31.5115C10.2454 34.1269 13.5813 35.1259 16.2373 35.1259V22.4201C16.452 22.4201 16.5041 22.4543 16.4614 22.4379C16.443 22.4309 16.41 22.4146 16.3692 22.3752C16.3406 22.3476 16.2202 22.2268 16.0918 21.8936C15.9578 21.546 15.7831 20.8795 15.7831 19.755H3.07717ZM16.2373 35.1259C20.2363 35.1259 23.265 33.3583 25.2861 30.8992C27.009 28.8029 27.8836 26.3191 28.3516 24.9988L16.3757 20.754C16.1409 21.4165 15.9602 21.8897 15.7783 22.2791C15.5985 22.6639 15.4874 22.8105 15.4701 22.8316C15.4678 22.8344 15.4993 22.7957 15.5697 22.7376C15.6426 22.6775 15.7419 22.6094 15.8636 22.5491C16.1391 22.4127 16.3133 22.4201 16.2373 22.4201V35.1259ZM17.448 26.9009C18.3087 27.9522 19.3917 28.7996 20.6191 29.3822L26.0674 17.9037C26.5365 18.1263 26.9504 18.4502 27.2793 18.852L17.448 26.9009ZM20.6191 29.3822C21.8465 29.9648 23.1878 30.268 24.5465 30.2702L24.5665 17.5643C25.0857 17.5651 25.5983 17.681 26.0674 17.9037L20.6191 29.3822ZM24.7101 30.2683C26.8095 30.2175 28.8361 29.4886 30.487 28.1905L22.6332 18.2027C23.1389 17.805 23.7597 17.5817 24.4028 17.5662L24.7101 30.2683ZM30.487 28.1905C32.1378 26.8924 33.3241 25.0949 33.8686 23.0667L21.5973 19.7723C21.7641 19.151 22.1275 18.6003 22.6332 18.2027L30.487 28.1905ZM24.0395 26.5885C25.5617 27.6762 27.3975 28.2371 29.2676 28.1862L28.9215 15.485C29.8175 15.4606 30.697 15.7294 31.4264 16.2505L24.0395 26.5885ZM29.7134 28.1583C31.3412 27.999 32.8962 27.4044 34.215 26.437L26.6997 16.192C27.22 15.8103 27.8335 15.5757 28.4758 15.5129L29.7134 28.1583ZM34.215 26.437C35.5338 25.4696 36.5679 24.165 37.2087 22.6601L25.5186 17.6821C25.7714 17.0884 26.1794 16.5737 26.6997 16.192L34.215 26.437ZM25.9498 23.4953C26.6846 24.692 27.7179 25.6771 28.9483 26.3539L35.0718 15.2209C35.7717 15.6059 36.3595 16.1663 36.7775 16.847L25.9498 23.4953ZM28.9483 26.3539C30.1788 27.0306 31.564 27.3759 32.9682 27.3556L32.7852 14.6511C33.584 14.6396 34.3719 14.836 35.0718 15.2209L28.9483 26.3539ZM33.0481 27.354C35.0935 27.2988 37.0406 26.4643 38.4912 25.0212L29.5302 16.0135C30.3764 15.1717 31.5121 14.6849 32.7053 14.6527L33.0481 27.354ZM27.824 21.9612C28.1075 23.1759 28.5321 24.4754 28.6764 24.9615L40.857 21.3462C40.5481 20.3054 40.3671 19.8007 40.1974 19.0736L27.824 21.9612ZM29.9218 19.0445C29.2333 19.8562 26.5227 22.6981 26.5227 26.6914H39.2286C39.2286 27.1039 39.157 27.4638 39.0674 27.7411C38.9829 28.0022 38.8951 28.152 38.8842 28.1703C38.8761 28.1838 38.9126 28.1213 39.0449 27.9507C39.1796 27.777 39.3519 27.5693 39.6116 27.2632L29.9218 19.0445ZM26.5249 26.859C26.555 27.998 26.8139 29.1193 27.2862 30.1562L38.849 24.8893C39.0831 25.4033 39.2115 25.9591 39.2264 26.5237L26.5249 26.859ZM27.2862 30.1562C27.7585 31.1931 28.4346 32.1244 29.2741 32.8946L37.8636 23.5319C38.2798 23.9137 38.6149 24.3753 38.849 24.8893L27.2862 30.1562ZM29.2741 32.8946C30.1137 33.6649 31.0997 34.2583 32.1733 34.6397L36.4264 22.6668C36.9586 22.8559 37.4474 23.15 37.8636 23.5319L29.2741 32.8946ZM32.1733 34.6397C33.247 35.0211 34.3864 35.1826 35.5238 35.1146L34.7656 22.4314C35.3294 22.3977 35.8942 22.4778 36.4264 22.6668L32.1733 34.6397ZM35.0018 35.1243C37.2148 35.1741 39.3614 34.3663 40.9926 32.8699L32.4032 23.5071C33.1885 22.7866 34.2221 22.3977 35.2876 22.4217L35.0018 35.1243ZM40.9926 32.8699C42.6238 31.3735 43.6132 29.3043 43.7539 27.0951L31.0737 26.2876C31.1414 25.2239 31.6178 24.2276 32.4032 23.5071L40.9926 32.8699ZM43.7427 26.1402C43.5842 24.3192 43.0887 22.5435 42.2816 20.9035L30.8814 26.5138C30.9938 26.742 31.0627 26.9892 31.0848 27.2426L43.7427 26.1402ZM42.9345 23.7087C42.9345 23.3968 42.9128 23.0962 42.874 22.809C42.8353 22.5227 42.7821 22.2684 42.7269 22.0509C42.6724 21.8367 42.6168 21.662 42.5771 21.5443C42.5411 21.4374 42.5068 21.3453 42.5067 21.3449C42.4973 21.3193 42.522 21.3855 42.5492 21.4659C42.5799 21.5572 42.6272 21.7048 42.6744 21.8909C42.7226 22.0803 42.7698 22.3054 42.8043 22.5607C42.8389 22.8172 42.8582 23.0852 42.8582 23.3624H30.1523C30.1523 23.6743 30.174 23.9748 30.2128 24.2621C30.2515 24.5483 30.3047 24.8027 30.36 25.0202C30.4144 25.2344 30.47 25.4091 30.5097 25.5268C30.5457 25.6337 30.58 25.7258 30.5801 25.7262C30.5895 25.7517 30.5648 25.6856 30.5377 25.6051C30.5069 25.5139 30.4597 25.3663 30.4124 25.1802C30.3642 24.9908 30.317 24.7657 30.2825 24.5103C30.2479 24.2539 30.2286 23.9859 30.2286 23.7087H42.9345ZM34.4514 21.0708C35.2545 20.9828 36.0671 21.0674 36.8348 21.3189L32.8793 33.3934C33.8317 33.7054 34.8397 33.8103 35.8359 33.7011L34.4514 21.0708ZM36.8348 21.3189C37.6025 21.5704 38.3077 21.983 38.903 22.5291L30.3138 31.8921C31.0523 32.5695 31.927 33.0814 32.8793 33.3934L36.8348 21.3189ZM38.903 22.5291C39.4984 23.0753 39.9701 23.7423 40.2867 24.4855L28.5973 29.4652C28.9901 30.3872 29.5753 31.2146 30.3138 31.8921L38.903 22.5291ZM40.2867 24.4855C40.6033 25.2288 40.7575 26.0311 40.7389 26.8388L28.0364 26.5461C28.0133 27.548 28.2046 28.5433 28.5973 29.4652L40.2867 24.4855ZM40.6882 27.5069C40.6077 28.129 40.3249 28.7074 39.8834 29.1529L30.8592 20.2084C29.3382 21.7429 28.3641 23.7351 28.0871 25.8779L40.6882 27.5069ZM29.5692 27.2682C29.5731 27.277 29.5756 27.2864 29.5765 27.296L42.2249 26.0888C42.0932 24.7088 41.7381 23.3592 41.1734 22.0931L29.5692 27.2682ZM29.5759 26.0951C29.7059 24.7181 30.3422 23.4382 31.3614 22.5031L39.9507 31.866C41.2493 30.6747 42.0598 29.0441 42.2255 27.2897L29.5759 26.0951ZM31.3614 22.5031C32.3877 21.5617 33.719 21.0442 35.0927 21.0332L35.1946 33.7387C36.9473 33.7246 38.6452 33.0637 39.9507 31.866L31.3614 22.5031Z" fill="#3F7ED3" mask="url(#path-3-inside-1_223_20927)"/>
<path d="M54.2829 27.9644C50.9232 29.9041 46.6118 28.7489 44.6721 25.3892L42.183 21.078C41.8118 20.4351 42.0329 19.61 42.6758 19.2388C43.3188 18.8675 44.1439 19.0886 44.5151 19.7316L45.5819 21.5792C45.6028 21.6154 45.6493 21.6279 45.6855 21.607C45.7217 21.5861 45.7342 21.5396 45.7132 21.5034L40.3796 12.2652C40.0084 11.6223 40.2295 10.7972 40.8724 10.426C41.5154 10.0547 42.3405 10.2758 42.7117 10.9188L46.623 17.6934C46.644 17.7296 46.6904 17.7421 46.7267 17.7212C46.7629 17.7003 46.7754 17.6538 46.7544 17.6176L45.6877 15.7699C45.3165 15.127 45.5376 14.3019 46.1805 13.9307C46.8235 13.5594 47.6486 13.7805 48.0198 14.4235L49.4421 16.887C49.463 16.9232 49.5095 16.9357 49.5457 16.9148C49.582 16.8938 49.5944 16.8474 49.5735 16.8111L48.5068 14.9635C48.1356 14.3205 48.3567 13.4954 48.9996 13.1242C49.6426 12.753 50.4677 12.9741 50.8389 13.6171L52.2612 16.0806C52.2821 16.1168 52.3286 16.1292 52.3648 16.1083C52.401 16.0874 52.4135 16.0409 52.3926 16.0047L51.3259 14.1571C50.9547 13.5141 51.1757 12.689 51.8187 12.3178C52.4617 11.9466 53.2868 12.1677 53.658 12.8106L56.8581 18.3535C57.7978 19.981 58.0474 21.877 57.561 23.6923C57.0746 25.5075 55.9104 27.0247 54.2829 27.9644Z" fill="white"/>
<mask id="path-6-inside-2_223_20927" fill="white">
<path d="M53.9645 27.4143C57.0257 25.6469 58.0746 21.7325 56.3072 18.6713L53.107 13.1284C52.9106 12.7883 52.4757 12.6717 52.1356 12.8681C51.7954 13.0645 51.6789 13.4994 51.8753 13.8395L52.942 15.6872C53.1384 16.0273 53.0218 16.4622 52.6817 16.6586C52.3416 16.855 51.9066 16.7385 51.7102 16.3983L50.2879 13.9348C50.0916 13.5947 49.6566 13.4781 49.3165 13.6745C48.9763 13.8709 48.8598 14.3058 49.0562 14.646L50.1229 16.4936C50.3193 16.8337 50.2028 17.2687 49.8626 17.4651C49.5225 17.6614 49.0875 17.5449 48.8912 17.2047L47.4689 14.7412C47.2725 14.4011 46.8376 14.2846 46.4974 14.4809C46.1573 14.6773 46.0407 15.1123 46.2371 15.4524L47.3038 17.3C47.5002 17.6402 47.3837 18.0751 47.0435 18.2715C46.7034 18.4678 46.2685 18.3513 46.0721 18.0112L42.1608 11.2365C41.9644 10.8964 41.5295 10.7799 41.1893 10.9762C40.8492 11.1726 40.7326 11.6076 40.929 11.9477L46.2626 21.1858C46.459 21.526 46.3425 21.9609 46.0023 22.1573C45.6622 22.3537 45.2273 22.2371 45.0309 21.897L43.9642 20.0493C43.7678 19.7092 43.3328 19.5927 42.9927 19.789C42.6526 19.9854 42.536 20.4204 42.7324 20.7605L45.2215 25.0716C46.9889 28.1329 50.9033 29.1817 53.9645 27.4143ZM54.5998 28.5147C50.9367 30.6296 46.236 29.37 44.1211 25.7069L41.632 21.3958C41.0857 20.4495 41.4111 19.2351 42.3574 18.6887C42.6251 18.5342 42.9143 18.4494 43.2036 18.4286L39.8287 12.583C39.2823 11.6367 39.6077 10.4223 40.554 9.87589C41.5004 9.32952 42.7148 9.65491 43.2611 10.6013L45.2138 13.9834C45.3764 13.7432 45.5945 13.5351 45.8621 13.3806C46.515 13.0036 47.2955 13.0416 47.8962 13.4122C48.0635 13.0726 48.3294 12.7772 48.6812 12.5742C49.3341 12.1972 50.1146 12.2352 50.7153 12.6058C50.8826 12.2662 51.1485 11.9708 51.5003 11.7677C52.4466 11.2214 53.661 11.5468 54.2074 12.4931L57.4075 18.036C58.4321 19.8104 58.7042 21.8777 58.1739 23.8568C57.6436 25.836 56.3743 27.4902 54.5998 28.5147Z"/>
</mask>
<path d="M56.3072 18.6713L54.4733 19.7301L54.4733 19.7301L56.3072 18.6713ZM42.7324 20.7605L40.8985 21.8193L40.8985 21.8193L42.7324 20.7605ZM45.2215 25.0716L47.0554 24.0128L47.0554 24.0128L45.2215 25.0716ZM44.1211 25.7069L45.955 24.6481L45.955 24.6481L44.1211 25.7069ZM41.632 21.3958L39.7981 22.4546L39.7981 22.4546L41.632 21.3958ZM43.2036 18.4286L43.355 20.5409L46.7288 20.2991L45.0376 17.3698L43.2036 18.4286ZM45.2138 13.9834L43.3799 15.0422L45.0711 17.9715L46.9674 15.1706L45.2138 13.9834ZM47.8962 13.4122L46.7842 15.2144L48.7666 16.4375L49.7959 14.348L47.8962 13.4122ZM50.7153 12.6058L49.6033 14.408L51.5856 15.6311L52.6149 13.5416L50.7153 12.6058ZM57.4075 18.036L55.5736 19.0948L55.5736 19.0948L57.4075 18.036ZM58.1739 23.8568L56.1284 23.3087L56.1284 23.3087L58.1739 23.8568ZM55.0233 29.2483C59.0974 26.8961 60.4933 21.6865 58.1411 17.6124L54.4733 19.7301C55.6559 21.7785 54.9541 24.3977 52.9057 25.5804L55.0233 29.2483ZM58.1411 17.6124L54.9409 12.0696L51.2731 14.1872L54.4733 19.7301L58.1411 17.6124ZM54.9409 12.0696C54.1598 10.7166 52.4297 10.253 51.0767 11.0342L53.1944 14.702C52.5217 15.0904 51.6615 14.8599 51.2731 14.1872L54.9409 12.0696ZM51.0767 11.0342C49.7237 11.8153 49.2602 13.5454 50.0413 14.8984L53.7092 12.7807C54.0976 13.4534 53.8671 14.3136 53.1944 14.702L51.0767 11.0342ZM50.0413 14.8984L51.1081 16.746L54.7759 14.6283L53.7092 12.7807L50.0413 14.8984ZM51.1081 16.746C50.7197 16.0733 50.9501 15.2131 51.6229 14.8247L53.7405 18.4926C55.0935 17.7114 55.5571 15.9813 54.7759 14.6283L51.1081 16.746ZM51.6229 14.8247C52.2956 14.4363 53.1558 14.6668 53.5442 15.3395L49.8763 17.4571C50.6575 18.8102 52.3875 19.2737 53.7405 18.4926L51.6229 14.8247ZM53.5442 15.3395L52.1219 12.876L48.454 14.9936L49.8763 17.4571L53.5442 15.3395ZM52.1219 12.876C51.3407 11.523 49.6107 11.0594 48.2577 11.8406L50.3753 15.5085C49.7026 15.8969 48.8424 15.6663 48.454 14.9936L52.1219 12.876ZM48.2577 11.8406C46.9046 12.6218 46.4411 14.3518 47.2223 15.7048L50.8901 13.5871C51.2785 14.2598 51.0481 15.12 50.3753 15.5085L48.2577 11.8406ZM47.2223 15.7048L48.289 17.5524L51.9569 15.4348L50.8901 13.5871L47.2223 15.7048ZM48.289 17.5524C47.9006 16.8797 48.1311 16.0195 48.8038 15.6311L50.9214 19.299C52.2744 18.5178 52.738 16.7878 51.9569 15.4348L48.289 17.5524ZM48.8038 15.6311C49.4765 15.2427 50.3367 15.4732 50.7251 16.1459L47.0572 18.2636C47.8384 19.6165 49.5684 20.0801 50.9214 19.299L48.8038 15.6311ZM50.7251 16.1459L49.3028 13.6824L45.6349 15.8001L47.0572 18.2636L50.7251 16.1459ZM49.3028 13.6824C48.5216 12.3294 46.7916 11.8659 45.4386 12.647L47.5562 16.3149C46.8835 16.7033 46.0233 16.4728 45.6349 15.8001L49.3028 13.6824ZM45.4386 12.647C44.0856 13.4282 43.622 15.1582 44.4032 16.5112L48.0711 14.3936C48.4594 15.0663 48.229 15.9265 47.5562 16.3149L45.4386 12.647ZM44.4032 16.5112L45.4699 18.3588L49.1378 16.2412L48.0711 14.3936L44.4032 16.5112ZM45.4699 18.3588C45.0815 17.6861 45.312 16.8259 45.9847 16.4375L48.1024 20.1054C49.4553 19.3243 49.919 17.5942 49.1378 16.2412L45.4699 18.3588ZM45.9847 16.4375C46.6574 16.0491 47.5176 16.2796 47.906 16.9523L44.2382 19.07C45.0193 20.423 46.7494 20.8865 48.1024 20.1054L45.9847 16.4375ZM47.906 16.9523L43.9947 10.1777L40.3268 12.2954L44.2382 19.07L47.906 16.9523ZM43.9947 10.1777C43.2135 8.82473 41.4835 8.36116 40.1305 9.14231L42.2481 12.8102C41.5754 13.1986 40.7152 12.9681 40.3268 12.2954L43.9947 10.1777ZM40.1305 9.14231C38.7775 9.92347 38.3139 11.6535 39.0951 13.0065L42.7629 10.8889C43.1513 11.5616 42.9208 12.4218 42.2481 12.8102L40.1305 9.14231ZM39.0951 13.0065L44.4287 22.2446L48.0966 20.127L42.7629 10.8889L39.0951 13.0065ZM44.4287 22.2446C44.0403 21.5719 44.2708 20.7117 44.9435 20.3233L47.0612 23.9912C48.4142 23.2101 48.8777 21.48 48.0966 20.127L44.4287 22.2446ZM44.9435 20.3233C45.6163 19.9349 46.4765 20.1655 46.8648 20.8381L43.197 22.9558C43.9781 24.3088 45.7081 24.7724 47.0612 23.9912L44.9435 20.3233ZM46.8648 20.8381L45.7981 18.9905L42.1302 21.1082L43.197 22.9558L46.8648 20.8381ZM45.7981 18.9905C45.017 17.6375 43.2869 17.174 41.9339 17.9551L44.0515 21.623C43.3788 22.0114 42.5186 21.7809 42.1302 21.1082L45.7981 18.9905ZM41.9339 17.9551C40.5809 18.7363 40.1173 20.4663 40.8985 21.8193L44.5663 19.7017C44.9548 20.3744 44.7242 21.2346 44.0515 21.623L41.9339 17.9551ZM40.8985 21.8193L43.3875 26.1305L47.0554 24.0128L44.5663 19.7017L40.8985 21.8193ZM43.3875 26.1305C45.7397 30.2046 50.9492 31.6004 55.0233 29.2483L52.9057 25.5804C50.8573 26.763 48.238 26.0612 47.0554 24.0128L43.3875 26.1305ZM53.541 26.6807C50.8907 28.2109 47.4851 27.2983 45.955 24.6481L42.2872 26.7657C44.9868 31.4417 50.9827 33.0483 55.6586 30.3486L53.541 26.6807ZM45.955 24.6481L43.466 20.337L39.7981 22.4546L42.2872 26.7658L45.955 24.6481ZM43.466 20.337C43.4858 20.3713 43.488 20.4121 43.4805 20.4403C43.4729 20.4686 43.4506 20.5028 43.4162 20.5226L41.2986 16.8548C39.3394 17.9859 38.667 20.4954 39.7981 22.4546L43.466 20.337ZM43.4162 20.5226C43.3997 20.5322 43.3775 20.5392 43.355 20.5409L43.0523 16.3164C42.451 16.3595 41.8505 16.5361 41.2986 16.8548L43.4162 20.5226ZM45.0376 17.3698L41.6626 11.5242L37.9947 13.6418L41.3697 19.4874L45.0376 17.3698ZM41.6626 11.5242C41.6824 11.5585 41.6846 11.5992 41.6771 11.6275C41.6695 11.6558 41.6472 11.69 41.6128 11.7098L39.4952 8.04195C37.536 9.17309 36.8636 11.6826 37.9947 13.6418L41.6626 11.5242ZM41.6128 11.7098C41.5785 11.7296 41.5378 11.7319 41.5095 11.7243C41.4812 11.7167 41.447 11.6944 41.4272 11.6601L45.0951 9.54243C43.9639 7.58324 41.4544 6.91081 39.4952 8.04195L41.6128 11.7098ZM41.4272 11.6601L43.3799 15.0422L47.0477 12.9246L45.0951 9.54243L41.4272 11.6601ZM46.9674 15.1706C46.9547 15.1893 46.9375 15.205 46.9209 15.2145L44.8033 11.5466C44.2514 11.8653 43.7981 12.2971 43.4602 12.7962L46.9674 15.1706ZM46.9209 15.2145C46.8997 15.2268 46.8718 15.2337 46.8464 15.2331C46.8245 15.2325 46.804 15.2266 46.7842 15.2144L49.0081 11.61C47.7733 10.8481 46.1592 10.7638 44.8033 11.5466L46.9209 15.2145ZM49.7959 14.348C49.7905 14.3589 49.7828 14.3706 49.7723 14.3818C49.7615 14.3935 49.7499 14.4024 49.74 14.4081L47.6224 10.7402C46.8955 11.1599 46.3427 11.7736 45.9965 12.4764L49.7959 14.348ZM49.74 14.4081C49.7188 14.4203 49.6909 14.4273 49.6654 14.4266C49.6436 14.4261 49.6231 14.4202 49.6033 14.408L51.8272 10.8036C50.5924 10.0417 48.9783 9.9574 47.6224 10.7402L49.74 14.4081ZM52.6149 13.5416C52.6095 13.5525 52.6018 13.5642 52.5914 13.5754C52.5806 13.5871 52.569 13.596 52.5591 13.6017L50.4414 9.9338C49.7146 10.3535 49.1618 10.9672 48.8156 11.67L52.6149 13.5416ZM52.5591 13.6017C52.5248 13.6215 52.484 13.6237 52.4557 13.6161C52.4274 13.6086 52.3933 13.5863 52.3734 13.5519L56.0413 11.4343C54.9102 9.47508 52.4006 8.80266 50.4414 9.9338L52.5591 13.6017ZM52.3734 13.5519L55.5736 19.0948L59.2415 16.9771L56.0413 11.4343L52.3734 13.5519ZM55.5736 19.0948C56.3173 20.3829 56.5134 21.8721 56.1284 23.3087L60.2194 24.4049C60.8951 21.8833 60.5468 19.238 59.2415 16.9771L55.5736 19.0948ZM56.1284 23.3087C55.7434 24.7454 54.8291 25.9371 53.541 26.6807L55.6586 30.3486C57.9195 29.0433 59.5437 26.9266 60.2194 24.4049L56.1284 23.3087Z" fill="#3F7ED3" mask="url(#path-6-inside-2_223_20927)"/>
</g>
<defs>
<clipPath id="clip0_223_20927">
<rect width="61.2424" height="36" fill="white"/>
</clipPath>
</defs>
</svg>
