<svg width="31" height="32" viewBox="0 0 31 32" fill="none" xmlns="http://www.w3.org/2000/svg">
<path fill-rule="evenodd" clip-rule="evenodd" d="M19.2849 17.1873C19.6844 16.6605 20.1716 16.2027 20.7263 15.8331C21.7139 15.1717 22.899 14.7915 24.303 14.5493C24.4116 14.5311 24.5232 14.5558 24.6133 14.6178C24.7034 14.6797 24.7645 14.7741 24.7835 14.88C24.793 14.9322 24.7919 14.9857 24.7802 15.0374C24.7684 15.0892 24.7462 15.1382 24.715 15.1815C24.6837 15.2249 24.6439 15.2617 24.5979 15.29C24.552 15.3182 24.5007 15.3373 24.4471 15.3461C23.1526 15.5701 22.0716 15.9112 21.1907 16.4998C20.4404 17.0106 19.8308 17.6939 19.4157 18.4894C22.7842 18.8175 24.7781 18.4894 26.2275 17.4685C27.6769 16.4477 28.6298 14.6847 29.9003 12.1482C29.5293 12.1717 29.1422 12.1899 28.7472 12.2055C26.1928 12.3227 23.4088 12.4477 21.6498 13.9477C21.1684 14.3657 20.7304 14.8289 20.3419 15.3305C19.9541 15.8218 19.5976 16.3358 19.2742 16.8696V17.1873H19.2849ZM0.739366 20.2602H4.86861C5.06448 20.2616 5.25185 20.3385 5.38986 20.4741C5.52786 20.6097 5.60531 20.7931 5.6053 20.9842V29.2732C5.6046 29.4643 5.52648 29.6474 5.38797 29.7825C5.24947 29.9177 5.06181 29.9939 4.86594 29.9946H0.739366C0.543491 29.9939 0.355838 29.9177 0.217332 29.7825C0.0788265 29.6474 0.000703331 29.4643 0 29.2732L0 20.9842C-1.27023e-06 20.7926 0.0778107 20.6089 0.216393 20.4732C0.354975 20.3375 0.543029 20.2609 0.739366 20.2602ZM6.73704 29.1665V21.0415H10.4873C12.0888 21.3201 13.6663 22.1612 15.2571 23.1248H18.1692C19.4878 23.2029 20.1764 24.5076 18.8979 25.3644C17.8756 26.0935 16.5276 26.0519 15.161 25.9321C14.2081 25.8852 14.1654 27.1352 15.161 27.1404C15.5053 27.1665 15.879 27.0857 16.2073 27.0857C17.9316 27.0857 19.3516 26.7628 20.2111 25.4347L20.6462 24.4399L24.981 22.3435C27.1484 21.6482 28.6885 23.8592 27.0923 25.3982C24.0715 27.5519 20.8393 29.4082 17.4432 30.9399C15.0409 32.3592 12.6627 32.3123 10.2711 30.9399L6.73704 29.1665ZM18.7698 -0.000213676C20.3923 -0.00849837 21.9548 0.597707 23.1284 1.69079C24.302 2.78387 24.9951 4.27857 25.0618 5.86022C25.1286 7.44187 24.5638 8.9871 23.4863 10.1706C22.4088 11.3541 20.9026 12.0836 19.2849 12.2055V15.3644C19.4184 15.1795 19.5518 15.0024 19.6853 14.8435C20.107 14.3008 20.5807 13.7986 21.1 13.3435C23.0645 11.6586 26.0166 11.5206 28.7098 11.4034C29.3318 11.3748 29.9403 11.3461 30.5516 11.2967C30.625 11.2919 30.6985 11.3053 30.7651 11.3357C30.8639 11.3824 30.9396 11.4653 30.9756 11.5664C31.0116 11.6675 31.0051 11.7784 30.9573 11.8748C29.4759 14.8592 28.4296 16.9034 26.7133 18.1248C25.0904 19.2706 22.907 19.6456 19.2849 19.2889V19.9034C21.3802 20.104 23.3207 20.3592 24.4018 21.2055L20.5101 23.0987C20.3651 22.8763 20.1849 22.6777 19.9762 22.5102C19.5181 22.1497 18.9609 21.9295 18.3747 21.8774C18.3101 21.8691 18.245 21.8647 18.1799 21.8644H15.6228C14.7365 21.315 13.8075 20.8344 12.8442 20.4269C14.2001 19.9711 15.9991 19.854 17.8089 19.8383V18.1769C16.7846 18.2847 15.7489 18.2141 14.75 17.9685C14.1457 17.8045 13.5828 17.5204 13.0964 17.1341C12.61 16.7478 12.2106 16.2677 11.9233 15.7237C11.9199 15.7154 11.9154 15.7075 11.9099 15.7003L10.7435 13.3566C10.7144 13.2983 10.6975 13.235 10.6935 13.1703C10.6896 13.1056 10.6988 13.0407 10.7207 12.9795C10.7425 12.9183 10.7765 12.8619 10.8207 12.8135C10.8649 12.7652 10.9185 12.7258 10.9784 12.6977C11.056 12.6597 11.1426 12.6427 11.2293 12.6482L15.137 12.8826H15.2011C15.9297 12.9711 16.7305 13.0701 17.4539 13.6925C17.5736 13.7959 17.6877 13.9054 17.7955 14.0206C17.7955 13.2862 17.8436 12.7941 17.8516 12.1691C16.2769 11.9527 14.8455 11.1605 13.8472 9.95287C12.8489 8.74525 12.3584 7.21256 12.4752 5.66531C12.5919 4.11806 13.3071 2.67196 14.4759 1.61999C15.6447 0.568016 17.1796 -0.0111657 18.7698 -0.000213676ZM17.8089 17.1873V17.1092C17.6888 16.9633 17.5476 16.8352 17.3898 16.729C17.0024 16.4899 16.5708 16.3271 16.1193 16.2498C16.0604 16.2451 16.0033 16.2282 15.9517 16.2002C15.9001 16.1722 15.8553 16.1337 15.8202 16.0874C15.7851 16.041 15.7606 15.9879 15.7483 15.9316C15.736 15.8753 15.7362 15.817 15.7488 15.7608C15.7615 15.7045 15.7864 15.6515 15.8218 15.6054C15.8572 15.5593 15.9023 15.5212 15.9541 15.4935C16.0059 15.4658 16.0631 15.4493 16.122 15.445C16.1809 15.4407 16.24 15.4487 16.2954 15.4685C16.8319 15.5637 17.3452 15.7563 17.8089 16.0362V15.9321C17.7902 15.88 17.7688 15.8253 17.7475 15.7758C17.5418 15.2636 17.2164 14.8052 16.7972 14.4373C16.3034 14.0128 15.6682 13.9347 15.0863 13.8644H15.0729L12.0301 13.6821L12.8308 15.268C13.0562 15.6935 13.3691 16.0691 13.7497 16.3715C14.1304 16.674 14.5708 16.8967 15.0436 17.0258C15.9482 17.2393 16.8846 17.294 17.8089 17.1873Z" fill="#42B955"/>
</svg>
