<svg width="32" height="28" viewBox="0 0 32 28" fill="none" xmlns="http://www.w3.org/2000/svg">
<path fill-rule="evenodd" clip-rule="evenodd" d="M15.9987 1.06386e-06C16.4606 -0.000367243 16.9177 0.0948991 17.3428 0.280058C17.7679 0.465218 18.1522 0.736454 18.4728 1.07759C19.1333 1.77223 19.5011 2.7055 19.4968 3.67597C19.4971 4.00746 19.4552 4.33758 19.3723 4.65797L26.9951 10.8802C27.0601 10.9321 27.1172 10.9936 27.1645 11.0627H29.6284C30.2645 11.073 30.8709 11.341 31.3151 11.8082C31.7594 12.2755 32.0056 12.904 31.9999 13.5568V25.5059C32.0054 26.1586 31.7591 26.787 31.3149 27.2542C30.8706 27.7214 30.2644 27.9895 29.6284 28H2.37167C1.73539 27.9902 1.12879 27.7223 0.684406 27.255C0.240027 26.7876 -0.00600443 26.1588 0.000111349 25.5059V13.5568C-0.00533594 12.9041 0.240893 12.2756 0.68513 11.8084C1.12937 11.3413 1.73561 11.0732 2.37167 11.0627H4.83554C4.88285 10.9936 4.93993 10.9321 5.00492 10.8802L12.6277 4.65797C12.5447 4.33761 12.5028 4.00747 12.5032 3.67597C12.4989 2.7055 12.8667 1.77223 13.5273 1.07759C13.8475 0.73677 14.2314 0.465631 14.656 0.280483C15.0807 0.0953339 15.5373 -1.66289e-05 15.9987 1.06386e-06ZM24.4957 11.0627L18.5456 6.19616C18.5237 6.22714 18.4993 6.25618 18.4728 6.28304C18.152 6.62392 17.7677 6.89498 17.3426 7.08015C16.9176 7.26531 16.4605 7.36084 15.9987 7.36084C15.537 7.36084 15.0799 7.26531 14.6548 7.08015C14.2298 6.89498 13.8454 6.62392 13.5247 6.28304C13.4981 6.25618 13.4738 6.22714 13.4519 6.19616L7.50182 11.0627H24.4957ZM15.9987 2.12037C16.1937 2.12158 16.3863 2.16297 16.5654 2.24205C16.9296 2.4047 17.2173 2.70729 17.3666 3.08498C17.4406 3.27274 17.4786 3.47344 17.4784 3.67597C17.4787 3.88141 17.4405 4.08494 17.3658 4.27554C17.29 4.46244 17.1812 4.6334 17.0448 4.77965C16.907 4.92238 16.7444 5.03736 16.5654 5.11858C16.3858 5.19491 16.1931 5.23334 15.9987 5.23156C15.8039 5.23134 15.611 5.19118 15.4314 5.11359C15.2518 5.036 15.0891 4.92252 14.9527 4.77965C14.8163 4.63321 14.7073 4.46231 14.6309 4.27554C14.5568 4.08477 14.5189 3.88131 14.5191 3.67597C14.5189 3.47344 14.5569 3.27274 14.6309 3.08498C14.7802 2.70729 15.0678 2.4047 15.4321 2.24205C15.6111 2.1629 15.8038 2.12151 15.9987 2.12037Z" fill="#FF7B7B"/>
<path d="M8.24881 17.2912H7.76301C7.6963 16.935 7.55614 16.5976 7.35194 16.3015H8.24881C8.30765 16.3007 8.36573 16.2876 8.41951 16.2631C8.47329 16.2386 8.52165 16.2031 8.56167 16.1588C8.64401 16.0625 8.68995 15.9391 8.69115 15.811C8.69302 15.6824 8.64667 15.5579 8.56167 15.4633C8.52165 15.419 8.47329 15.3835 8.41951 15.359C8.36573 15.3345 8.30765 15.3215 8.24881 15.3207H4.70914C4.6503 15.3215 4.59222 15.3345 4.53844 15.359C4.48466 15.3835 4.4363 15.419 4.39628 15.4633C4.31128 15.5579 4.26493 15.6824 4.2668 15.811C4.26799 15.9391 4.31394 16.0625 4.39628 16.1588C4.4363 16.2031 4.48466 16.2386 4.53844 16.2631C4.59222 16.2876 4.6503 16.3007 4.70914 16.3015H5.59384C5.87755 16.3095 6.15149 16.4096 6.37621 16.5874C6.60094 16.7653 6.76487 17.0117 6.84441 17.2912H4.70914C4.6503 17.292 4.59222 17.3051 4.53844 17.3297C4.48466 17.3542 4.4363 17.3897 4.39628 17.4339C4.31394 17.5302 4.26799 17.6536 4.2668 17.7817C4.26493 17.9104 4.31128 18.0349 4.39628 18.1295C4.4363 18.1738 4.48466 18.2092 4.53844 18.2338C4.59222 18.2583 4.6503 18.2713 4.70914 18.2721H6.83224C6.74214 18.5507 6.57372 18.7958 6.34818 18.9765C6.12935 19.1443 5.86354 19.235 5.59037 19.2351H4.70914C4.6503 19.2359 4.59222 19.2489 4.53844 19.2735C4.48466 19.298 4.4363 19.3335 4.39628 19.3777C4.31394 19.474 4.26799 19.5974 4.2668 19.7255V19.7344C4.265 19.8013 4.27562 19.8678 4.29808 19.9306C4.31897 19.9906 4.35216 20.0454 4.39542 20.0911L7.05038 23.0337C7.09146 23.078 7.14005 23.1142 7.19377 23.1407C7.24751 23.1641 7.30529 23.1762 7.36367 23.1762C7.42206 23.1762 7.47984 23.1641 7.53358 23.1407C7.5873 23.1142 7.63588 23.078 7.67697 23.0337C7.75931 22.9374 7.80526 22.814 7.80646 22.6859C7.80833 22.5573 7.76197 22.4328 7.67697 22.3382L5.74767 20.1981C6.23258 20.1602 6.69006 19.9524 7.04343 19.6096C7.41105 19.2507 7.66045 18.7832 7.75692 18.2721H8.24794C8.30685 18.2721 8.36543 18.263 8.42175 18.2453C8.47762 18.219 8.52852 18.1828 8.5721 18.1383C8.61629 18.0926 8.65063 18.038 8.67291 17.9779C8.69685 17.9154 8.70894 17.8488 8.70854 17.7817C8.70888 17.7175 8.69677 17.6538 8.67291 17.5944C8.65056 17.5343 8.61623 17.4797 8.5721 17.4339C8.53328 17.3839 8.481 17.3467 8.42175 17.3269C8.36731 17.3023 8.3083 17.2901 8.24881 17.2912Z" fill="white"/>
<path d="M15.9732 15.3207V22.1859H14.8196L11.8196 17.276V22.1859H10.666V15.3207H11.8196L14.8289 20.248V15.3207H15.9732ZM19.4289 22.2816C19.0883 22.2866 18.7499 22.2246 18.432 22.099C18.1467 21.9837 17.8894 21.8057 17.6782 21.5776C17.4705 21.3491 17.3095 21.0802 17.2047 20.7868C17.0923 20.4754 17.0364 20.1455 17.0396 19.8135V19.6223C17.0349 19.2529 17.0922 18.8855 17.2089 18.536C17.3115 18.2314 17.4722 17.9508 17.6816 17.7105C17.879 17.4809 18.1242 17.2997 18.399 17.1803C18.6817 17.0542 18.9868 16.9891 19.2951 16.9891C19.6153 16.985 19.9327 17.0501 20.2268 17.1803C20.4834 17.2956 20.71 17.4713 20.8882 17.6931C21.0708 17.9266 21.2053 18.1955 21.2838 18.4838C21.3755 18.8115 21.4203 19.1511 21.4168 19.4919V19.9786H17.5757V19.1617H20.3233V19.0748C20.3197 18.8775 20.2792 18.6828 20.2039 18.5012C20.14 18.3262 20.0264 18.1748 19.8778 18.0667C19.7032 17.9465 19.4948 17.8885 19.2849 17.9017C19.1134 17.8957 18.9436 17.9378 18.7937 18.0233C18.6498 18.104 18.528 18.2206 18.4396 18.3623C18.3392 18.532 18.2649 18.7167 18.2194 18.9098C18.1683 19.1436 18.1436 19.3827 18.1457 19.6223V19.8135C18.1434 20.0252 18.1719 20.2361 18.2304 20.4391C18.29 20.6192 18.3804 20.787 18.4972 20.9346C18.6132 21.075 18.7577 21.1877 18.9207 21.2648C19.0981 21.3472 19.2909 21.3887 19.4856 21.3865C19.7323 21.3882 19.976 21.3316 20.1979 21.2213C20.4089 21.1059 20.5936 20.946 20.74 20.7521L21.3236 21.3343C21.2043 21.5059 21.0637 21.6608 20.9052 21.7949C20.7163 21.9467 20.5034 22.0643 20.2759 22.1425C20.0032 22.241 19.7154 22.2881 19.4264 22.2816H19.4289ZM23.6333 21.0562L24.7827 17.0847H25.4899L25.2968 18.2753L24.139 22.1859H23.5046L23.6333 21.0562ZM22.9557 17.0847L23.8518 21.0736L23.9247 22.1859H23.2174L21.8707 17.0847H22.9557ZM26.563 21.0301L27.4312 17.0847H28.5111L27.1695 22.1859H26.4614L26.563 21.0301ZM25.6068 17.0847L26.7417 21.0127L26.884 22.1859H26.2505L25.0783 18.2753L24.8852 17.0847H25.6068Z" fill="white"/>
</svg>
