<svg width="18" height="18" viewBox="0 0 18 18" fill="none" xmlns="http://www.w3.org/2000/svg">
<path fill-rule="evenodd" clip-rule="evenodd" d="M7.15224 1.71049C5.67312 1.96055 4.29533 2.62517 3.17892 3.62714C2.06251 4.62911 1.25333 5.92729 0.845382 7.37085C0.437434 8.81442 0.447469 10.3441 0.874321 11.7822C1.30117 13.2203 2.12732 14.5077 3.25677 15.495C4.38623 16.4822 5.77263 17.1287 7.25489 17.3593C8.73716 17.59 10.2544 17.3953 11.6305 16.7979C13.0065 16.2005 14.1847 15.2249 15.0283 13.9845C15.872 12.7441 16.3463 11.2898 16.3962 9.79049C16.397 9.75594 16.3909 9.72158 16.3782 9.68945C16.3654 9.65731 16.3464 9.62807 16.3221 9.60344C16.2979 9.57882 16.2689 9.55932 16.237 9.5461C16.2051 9.53288 16.1708 9.52621 16.1362 9.52649H11.1162C11.0455 9.52868 10.978 9.55677 10.9265 9.60543C10.8751 9.65409 10.8433 9.71995 10.8372 9.79049C10.7876 10.2356 10.6133 10.6576 10.3343 11.008C10.0554 11.3583 9.68316 11.6228 9.26053 11.771C8.8379 11.9191 8.38202 11.9449 7.94538 11.8454C7.50873 11.7458 7.10907 11.525 6.7924 11.2083C6.47572 10.8917 6.25491 10.492 6.15538 10.0553C6.05584 9.6187 6.08163 9.16283 6.22977 8.74019C6.37792 8.31756 6.6424 7.94535 6.99277 7.66641C7.34314 7.38747 7.76515 7.21315 8.21024 7.16349C8.28078 7.1574 8.34663 7.12562 8.39529 7.07419C8.44396 7.02276 8.47205 6.95526 8.47424 6.88449V1.86349C8.47452 1.82884 8.46782 1.79449 8.45454 1.76249C8.44126 1.73049 8.42166 1.7015 8.39693 1.67723C8.3722 1.65297 8.34284 1.63393 8.31059 1.62126C8.27834 1.60859 8.24387 1.60255 8.20924 1.60349C7.85491 1.61548 7.50178 1.65122 7.15224 1.71049Z" fill="#CDCDCD"/>
<path fill-rule="evenodd" clip-rule="evenodd" d="M17.3462 7.14652C17.0413 5.34441 16.1229 3.70305 14.7467 2.50032C13.3705 1.29758 11.6209 0.607361 9.79423 0.546518C9.75968 0.545713 9.72532 0.551858 9.69318 0.564589C9.66105 0.577319 9.63181 0.596376 9.60719 0.620627C9.58256 0.644878 9.56306 0.673829 9.54984 0.705762C9.53662 0.737695 9.52994 0.771958 9.53022 0.806518V5.82652C9.53241 5.89729 9.56051 5.96479 9.60917 6.01622C9.65783 6.06765 9.72369 6.09943 9.79423 6.10552C10.3306 6.16529 10.8307 6.40575 11.2123 6.78739C11.594 7.16902 11.8345 7.66913 11.8942 8.20552C11.9003 8.27606 11.9321 8.34191 11.9835 8.39057C12.035 8.43924 12.1025 8.46733 12.1732 8.46952H17.1932C17.2278 8.4698 17.2621 8.46313 17.294 8.44991C17.3259 8.43669 17.3548 8.41719 17.3791 8.39256C17.4033 8.36794 17.4224 8.33869 17.4352 8.30656C17.4479 8.27443 17.454 8.24007 17.4532 8.20552C17.4413 7.85052 17.4056 7.49672 17.3462 7.14652Z" fill="#CDCDCD"/>
</svg>
