<svg width="61" height="45" viewBox="0 0 61 45" fill="none" xmlns="http://www.w3.org/2000/svg">
<path d="M58.7781 24.0197C58.112 24.0377 57.2599 24.2057 56.5218 24.7458C55.9577 25.1419 55.5917 25.7119 55.2376 26.234C55.2376 26.234 55.3336 26.024 55.4117 25.6879C55.5017 25.3519 55.6217 24.9078 55.7357 24.4638C55.8557 24.0197 55.9697 23.5757 56.0597 23.2456C56.1137 22.9036 56.1497 22.6755 56.1497 22.6755C56.6418 22.7475 57.884 22.8616 58.8381 21.9194C59.1321 21.6194 59.3902 21.2413 59.5642 20.8453C59.7142 20.4432 59.8162 20.0172 59.8882 19.6391C60.0203 18.871 60.0203 18.2709 60.0203 18.2709C60.0203 18.2709 59.5822 18.247 59.0181 18.379C58.4481 18.517 57.746 18.811 57.2119 19.4171C56.8278 19.8372 56.6178 20.3532 56.4258 20.8453C56.4258 20.8453 56.4438 20.7433 56.4558 20.5873C56.4618 20.4312 56.4738 20.2272 56.4798 20.0232C56.4978 19.6091 56.5158 19.1951 56.5158 19.1951C56.7078 18.961 57.0079 18.571 57.2359 18.0549C57.4339 17.5449 57.5719 16.9148 57.5239 16.2487C57.5059 15.3426 56.9659 14.5865 56.5758 14.0824C56.1617 13.5723 55.7837 13.3083 55.7837 13.3083C55.7837 13.3083 55.5257 13.7223 55.2916 14.3164C55.0396 14.9165 54.9196 15.6726 54.9316 16.4767C54.9676 17.0708 55.1836 17.6169 55.4357 18.0849C55.6517 18.553 55.8977 18.943 56.0777 19.1891C56.0777 19.1891 56.0597 19.9752 55.9937 20.7613C55.8797 21.5414 55.7597 22.3215 55.7597 22.3215C55.6997 21.8054 55.5617 21.2593 55.2676 20.8273C54.8476 20.1972 54.1215 19.9032 53.5814 19.7531C53.0233 19.6091 52.5853 19.6091 52.5853 19.6091C52.5853 19.6091 52.5733 19.7171 52.5733 19.8972C52.5733 20.0772 52.5913 20.3292 52.5913 20.6173C52.6033 21.1933 52.7353 21.9134 53.1553 22.5435C53.7374 23.5156 54.9016 23.9657 55.3876 24.0917C55.3876 24.0917 55.1536 24.9618 54.9256 25.838C54.5955 26.6781 54.2655 27.5182 54.2655 27.5182C54.3495 26.9001 54.3435 26.228 54.1215 25.6399C53.7434 24.8298 53.0593 24.3438 52.4773 24.0557C51.8892 23.7677 51.4091 23.6657 51.4091 23.6657C51.4091 23.6657 51.2771 24.1337 51.1991 24.7698C51.0731 25.3879 51.0371 26.198 51.3431 26.9901C51.7872 28.2323 52.9573 29.0304 53.4494 29.2884C53.4494 29.2884 53.0353 30.0565 52.6213 30.8246C52.1232 31.5387 51.6191 32.2528 51.6191 32.2528C51.8772 31.5687 52.1232 30.8306 51.9492 30.0625C51.7392 29.0904 51.1151 28.4063 50.545 27.9562C49.9749 27.5062 49.4709 27.2781 49.4709 27.2781C49.4709 27.2781 49.1888 27.7222 48.9848 28.3943C48.7448 29.0424 48.4687 29.8645 48.6247 30.8006C48.7928 32.2708 49.8789 33.471 50.335 33.867C50.335 33.867 49.7829 34.5031 49.2008 35.1092C48.5647 35.6673 47.9347 36.2253 47.9347 36.2253C48.4087 35.5413 48.9068 34.7852 48.8888 33.861C48.9068 32.7689 48.3907 31.8928 47.8866 31.2807C47.3766 30.6626 46.8845 30.2966 46.8845 30.2966C46.8845 30.2966 46.4825 30.6866 46.1044 31.3347C45.9304 31.6827 45.6784 32.0008 45.5103 32.4148C45.3303 32.8169 45.1983 33.2849 45.1623 33.801C44.9583 35.3972 45.8344 37.0354 46.1944 37.5515C46.1944 37.5515 45.9964 37.6835 45.7024 37.8936C45.5523 37.9956 45.3843 38.1156 45.1983 38.2416C45.0003 38.3496 44.7842 38.4576 44.5742 38.5717C43.7281 39.0157 42.876 39.4598 42.876 39.4598L43.056 39.8558C43.056 39.8558 44.2742 39.2317 45.4743 38.5717C46.0384 38.1816 46.6025 37.7976 47.0225 37.5035C47.2326 37.3595 47.4126 37.2335 47.5326 37.1495C47.6526 37.0595 47.7126 36.9995 47.7126 36.9995C48.1147 37.4735 49.3328 38.8897 51.3431 38.6797C52.6093 38.5897 53.7554 37.7315 54.6315 36.9754C54.8476 36.7834 55.0456 36.5974 55.2256 36.4234C55.3876 36.2373 55.5197 36.0633 55.6277 35.9193C55.8497 35.6313 55.9697 35.4392 55.9697 35.4392C55.9697 35.4392 55.5017 35.0432 54.7456 34.7371C54.3675 34.5811 53.9235 34.4491 53.4374 34.3891C52.9633 34.3351 52.4293 34.3411 51.8472 34.4311C50.9051 34.5931 50.1009 35.0792 49.3868 35.5173C49.3868 35.5173 49.5609 35.3912 49.7649 35.1392C49.9809 34.8992 50.263 34.5811 50.551 34.2631C50.839 33.945 51.1271 33.627 51.3371 33.381C51.5351 33.1289 51.6552 32.9489 51.6552 32.9489C52.1292 33.291 53.5034 34.2271 55.1956 33.639C56.2818 33.303 57.0979 32.3368 57.698 31.5087C57.992 31.0886 58.244 30.7106 58.376 30.4166C58.5081 30.1225 58.5741 29.9365 58.5741 29.9365C58.5741 29.9365 58.082 29.6785 57.3619 29.5525C57.0019 29.4924 56.5878 29.4564 56.1497 29.4985C55.6937 29.5285 55.2076 29.6245 54.7336 29.8345C53.9835 30.1525 53.3834 30.7046 52.8733 31.2267C52.8733 31.2267 52.9093 31.1787 52.9633 31.1007C53.0113 31.0166 53.0773 30.8906 53.1553 30.7466C53.3114 30.4526 53.5274 30.0625 53.7374 29.6725C53.9475 29.2824 54.1695 28.8984 54.3135 28.5983C54.4335 28.2863 54.5175 28.0823 54.5175 28.0823C55.0156 28.2803 56.3898 28.7723 57.71 27.9442C58.112 27.6802 58.5141 27.3262 58.7841 26.9121C59.0541 26.4981 59.2762 26.048 59.4442 25.6339C59.7862 24.8058 59.9303 24.1277 59.9303 24.1277C59.9303 24.1277 59.4562 23.9957 58.7901 24.0137L58.7781 24.0197Z" fill="#FFE876"/>
<path d="M1.24217 24.0198C1.90825 24.0378 2.76037 24.2058 3.49847 24.7459C4.06254 25.1419 4.42859 25.712 4.78264 26.2341C4.78264 26.2341 4.68662 26.024 4.60861 25.688C4.5186 25.352 4.39859 24.9079 4.28457 24.4638C4.16455 24.0198 4.05054 23.5757 3.96053 23.2457C3.90652 22.9036 3.87052 22.6756 3.87052 22.6756C3.38445 22.7476 2.13628 22.8616 1.18216 21.9195C0.888118 21.6195 0.630084 21.2414 0.456061 20.8454C0.306041 20.4433 0.204027 20.0172 0.132018 19.6392C-5.36513e-08 18.8711 0 18.271 0 18.271C0 18.271 0.438058 18.247 1.00213 18.379C1.57221 18.5171 2.2743 18.8111 2.80837 19.4172C3.19243 19.8372 3.40245 20.3533 3.59448 20.8454C3.59448 20.8454 3.57648 20.7433 3.56448 20.5873C3.55847 20.4313 3.54647 20.2273 3.54047 20.0232C3.52247 19.6092 3.50447 19.1951 3.50447 19.1951C3.31244 18.9611 3.0124 18.5711 2.78437 18.055C2.58634 17.5449 2.44833 16.9148 2.49633 16.2487C2.51433 15.3426 3.05441 14.5865 3.44446 14.0825C3.85851 13.5724 4.23656 13.3083 4.23656 13.3083C4.23656 13.3083 4.4946 13.7224 4.72863 14.3165C4.98066 14.9166 5.10068 15.6727 5.08868 16.4768C5.05267 17.0709 4.83664 17.6169 4.58461 18.085C4.36858 18.553 4.12255 18.9431 3.94253 19.1891C3.94253 19.1891 3.96053 19.9752 4.02654 20.7614C4.14055 21.5415 4.26057 22.3215 4.26057 22.3215C4.32058 21.8055 4.45859 21.2594 4.75263 20.8274C5.17269 20.1973 5.89879 19.9032 6.43886 19.7532C6.99693 19.6092 7.43499 19.6092 7.43499 19.6092C7.43499 19.6092 7.44699 19.7172 7.44699 19.8972C7.44699 20.0773 7.42899 20.3293 7.42899 20.6173C7.41699 21.1934 7.28497 21.9135 6.86491 22.5436C6.28284 23.5157 5.11868 23.9658 4.63262 24.0918C4.63262 24.0918 4.86665 24.9619 5.09468 25.838C5.42472 26.6781 5.75477 27.5182 5.75477 27.5182C5.67076 26.9002 5.67676 26.2281 5.89879 25.64C6.27684 24.8299 6.96093 24.3438 7.54301 24.0558C8.13108 23.7677 8.61115 23.6657 8.61115 23.6657C8.61115 23.6657 8.74317 24.1338 8.82118 24.7699C8.94719 25.388 8.9832 26.1981 8.67716 26.9902C8.2331 28.2323 7.06294 29.0304 6.57088 29.2885C6.57088 29.2885 6.98493 30.0566 7.39899 30.8247C7.89705 31.5388 8.40112 32.2529 8.40112 32.2529C8.14308 31.5688 7.89705 30.8307 8.07108 30.0626C8.2811 29.0905 8.90519 28.4064 9.47526 27.9563C10.0453 27.5062 10.5554 27.2782 10.5554 27.2782C10.5554 27.2782 10.8374 27.7223 11.0415 28.3944C11.2815 29.0424 11.5575 29.8646 11.4015 30.8007C11.2335 32.2709 10.1474 33.471 9.69129 33.8671C9.69129 33.8671 10.2434 34.5032 10.8254 35.1092C11.4615 35.6673 12.0916 36.2254 12.0916 36.2254C11.6175 35.5413 11.1195 34.7852 11.1375 33.8611C11.1195 32.7689 11.6356 31.8928 12.1396 31.2808C12.6497 30.6627 13.1418 30.2966 13.1418 30.2966C13.1418 30.2966 13.5438 30.6867 13.9219 31.3348C14.0959 31.6828 14.3479 32.0008 14.5159 32.4149C14.696 32.8169 14.828 33.285 14.864 33.8011C15.068 35.3973 14.1919 37.0355 13.8318 37.5516C13.8318 37.5516 14.0299 37.6836 14.3239 37.8936C14.4739 37.9956 14.642 38.1156 14.828 38.2417C15.026 38.3497 15.242 38.4577 15.4521 38.5717C16.2982 39.0158 17.1503 39.4598 17.1503 39.4598L16.9703 39.8559C16.9703 39.8559 15.7521 39.2318 14.5519 38.5717C13.9879 38.1817 13.4238 37.7976 13.0037 37.5036C12.7937 37.3596 12.6137 37.2335 12.4937 37.1495C12.3736 37.0595 12.3136 36.9995 12.3136 36.9995C11.9116 37.4736 10.6934 38.8898 8.68316 38.6797C7.41699 38.5897 6.27084 37.7316 5.39472 36.9755C5.17869 36.7835 4.98066 36.5974 4.80064 36.4234C4.63862 36.2374 4.5066 36.0634 4.39859 35.9194C4.17656 35.6313 4.05654 35.4393 4.05654 35.4393C4.05654 35.4393 4.5246 35.0432 5.2807 34.7372C5.65875 34.5812 6.10281 34.4492 6.58888 34.3892C7.06294 34.3352 7.59701 34.3412 8.17909 34.4312C9.12122 34.5932 9.92532 35.0793 10.6394 35.5173C10.6394 35.5173 10.4654 35.3913 10.2614 35.1393C10.0453 34.8992 9.7633 34.5812 9.47526 34.2631C9.18722 33.9451 8.89919 33.6271 8.68916 33.381C8.49113 33.129 8.37112 32.949 8.37112 32.949C7.89705 33.291 6.52287 34.2271 4.83064 33.6391C3.7445 33.303 2.92839 32.3369 2.32831 31.5088C2.03427 31.0887 1.78224 30.7107 1.65022 30.4166C1.5182 30.1226 1.45219 29.9366 1.45219 29.9366C1.45219 29.9366 1.94426 29.6785 2.66436 29.5525C3.0244 29.4925 3.43846 29.4565 3.87652 29.4985C4.33258 29.5285 4.81864 29.6245 5.29271 29.8346C6.04281 30.1526 6.64289 30.7047 7.15295 31.2267C7.15295 31.2267 7.11695 31.1787 7.06294 31.1007C7.01494 31.0167 6.94893 30.8907 6.87092 30.7467C6.7149 30.4526 6.49887 30.0626 6.28884 29.6725C6.07881 29.2825 5.85678 28.8984 5.71276 28.5984C5.59275 28.2864 5.50873 28.0823 5.50873 28.0823C5.01067 28.2803 3.63648 28.7724 2.31631 27.9443C1.91425 27.6803 1.5122 27.3262 1.24217 26.9122C0.97213 26.4981 0.7501 26.0481 0.582078 25.634C0.240032 24.8059 0.0960128 24.1278 0.0960128 24.1278C0.0960128 24.1278 0.570076 23.9958 1.23616 24.0138L1.24217 24.0198Z" fill="#FFE876"/>
<path d="M30.0103 38.1097L31.0424 40.198L33.3467 40.5341L31.6785 42.1603L32.0745 44.4586L30.0103 43.3725L27.952 44.4586L28.342 42.1603L26.6738 40.5341L28.9781 40.198L30.0103 38.1097Z" fill="#FFE876"/>
<path d="M22.6529 38.7398L23.481 40.414L25.3293 40.6841L23.9911 41.9862L24.3091 43.8285L22.6529 42.9584L21.0027 43.8285L21.3147 41.9862L19.9766 40.6841L21.8308 40.414L22.6529 38.7398Z" fill="#FFE876"/>
<path d="M37.3668 38.7397L38.1949 40.414L40.0431 40.684L38.705 41.9862L39.023 43.8284L37.3668 42.9583L35.7166 43.8284L36.0286 41.9862L34.6904 40.684L36.5387 40.414L37.3668 38.7397Z" fill="#FFE876"/>
<path d="M48 18C48 27.9411 39.9411 36 30 36C20.0589 36 12 27.9411 12 18C12 8.05887 20.0589 0 30 0C39.9411 0 48 8.05887 48 18ZM14.7471 18C14.7471 26.424 21.576 33.2529 30 33.2529C38.424 33.2529 45.2529 26.424 45.2529 18C45.2529 9.57603 38.424 2.74706 30 2.74706C21.576 2.74706 14.7471 9.57603 14.7471 18Z" fill="#FFE876"/>
</svg>
