<svg width="24" height="24" viewBox="0 0 24 24" fill="none" xmlns="http://www.w3.org/2000/svg">
<circle cx="12" cy="12" r="11.5" stroke="#FFD166" stroke-dasharray="3 3"/>
<circle cx="12" cy="12" r="9" fill="#FFD166"/>
<path d="M9.54296 16L7.90396 13.536C7.80862 13.382 7.70596 13.2573 7.59596 13.162C7.49329 13.0667 7.37596 13.0007 7.24396 12.964C7.11929 12.92 6.96896 12.898 6.79296 12.898H5.23096V11.93H7.38696C7.90762 11.93 8.29996 11.8237 8.56396 11.611C8.82796 11.391 8.98562 11.0793 9.03696 10.676L9.22396 10.786H5.23096V9.972H9.22396L9.01496 10.115C8.95629 9.77033 8.79862 9.51 8.54196 9.334C8.28529 9.15066 7.91862 9.059 7.44196 9.059H5.23096V8.245H11.38V9.059H9.41096L9.58696 8.905C9.82162 9.037 10.005 9.213 10.137 9.433C10.269 9.64566 10.3496 9.895 10.379 10.181L10.126 9.972H11.38V10.786H10.159L10.401 10.533C10.4083 11.0023 10.3056 11.4093 10.093 11.754C9.88029 12.0987 9.57596 12.3663 9.17996 12.557C8.79129 12.7403 8.32196 12.832 7.77196 12.832V12.722H8.07996C8.40996 12.722 8.69229 12.788 8.92696 12.92C9.16896 13.0447 9.39629 13.2683 9.60896 13.591L11.237 16H9.54296Z" fill="white"/>
<path d="M12.8167 16V14.823H14.5987V9.433H15.2807L12.9927 10.797V9.455L15.0057 8.245H16.0177V14.823H17.6897V16H12.8167Z" fill="white"/>
</svg>
