<svg width="18" height="18" viewBox="0 0 18 18" fill="none" xmlns="http://www.w3.org/2000/svg">
<path d="M16.9107 16.4757L11.9384 11.5853C12.9921 10.4178 13.5751 8.92236 13.5751 7.33264C13.5751 5.64082 12.9211 4.04921 11.7334 2.85291C9.28222 0.382977 5.29353 0.381749 2.84178 2.85291C1.65404 4.04921 1 5.64082 1 7.33264C1 9.02569 1.65404 10.6167 2.84178 11.813C4.06762 13.0482 5.67725 13.6656 7.28772 13.6656C8.80181 13.6656 10.3124 13.1121 11.5069 12.0192L16.4796 16.91C16.5392 16.97 16.6172 17 16.6951 17C16.7731 17 16.8511 16.97 16.9106 16.91C17.0298 16.79 17.0298 16.5956 16.9107 16.4757ZM11.3023 11.3786C9.08872 13.6097 5.48642 13.6097 3.27287 11.3786C2.2003 10.2981 1.60972 8.86123 1.60972 7.33264C1.60972 5.80461 2.20036 4.36774 3.27287 3.28725C4.37965 2.17198 5.83356 1.61404 7.28772 1.61404C8.74164 1.61404 10.1955 2.17198 11.3023 3.28725C12.3749 4.36774 12.9655 5.80461 12.9655 7.33264C12.9655 8.86129 12.3749 10.2981 11.3023 11.3786Z" fill="#3F7ED3" stroke="#3F7ED3"/>
</svg>
