<svg width="24" height="24" viewBox="0 0 24 24" fill="none" xmlns="http://www.w3.org/2000/svg">
<rect width="24" height="24" fill="#F4F7FF"/>
<path d="M2 5.00877V11.455C2 18.143 5.49744 20.1574 10.2667 22.8971L11.141 23.3805C11.1881 23.4396 11.2494 23.4855 11.319 23.5137C11.3886 23.5419 11.4641 23.5516 11.5385 23.5417C11.6758 23.5542 11.8139 23.5263 11.9359 23.4611L12.8103 22.9777C17.5795 20.1574 21.0769 18.143 21.0769 11.455V5.00877C21.0727 4.84351 21.0164 4.68397 20.9163 4.55348C20.8162 4.42299 20.6775 4.32841 20.5205 4.28357L11.7769 1.06045C11.6894 1.0206 11.5946 1 11.4987 1C11.4028 1 11.308 1.0206 11.2205 1.06045L2.47692 4.28357C2.33795 4.34641 2.21939 4.44789 2.13499 4.57624C2.05058 4.70459 2.00377 4.85456 2 5.00877Z" fill="#06D6A0"/>
<path d="M10.3937 15.3036C10.3791 15.3047 10.3646 15.3047 10.35 15.3036C10.2581 15.2982 10.1681 15.2743 10.0856 15.233C10.003 15.1918 9.92945 15.1341 9.86924 15.0635L7.054 11.7987C6.99361 11.7288 6.94737 11.6475 6.91802 11.5594C6.88866 11.4714 6.87677 11.3781 6.88292 11.2854C6.88908 11.1926 6.91321 11.1021 6.95393 11.0188C6.99466 10.9356 7.05113 10.8612 7.12021 10.8001C7.2598 10.6769 7.44193 10.615 7.62659 10.6278C7.81125 10.6406 7.98341 10.7271 8.10514 10.8685L10.4577 13.6008L16.3129 8.3402C16.4515 8.21617 16.6328 8.15263 16.8173 8.16372C17.0019 8.17481 17.1745 8.25964 17.2977 8.3994C17.4206 8.54013 17.4835 8.72454 17.4723 8.91217C17.4612 9.0998 17.3769 9.27518 17.2382 9.39993L10.8575 15.133C10.7282 15.2447 10.5636 15.3053 10.3937 15.3036Z" fill="#FFEFEF"/>
<path d="M10.394 15.4177C10.3735 15.4195 10.3527 15.4195 10.3322 15.4177C10.2272 15.4102 10.1247 15.3817 10.0305 15.3341C9.93626 15.2864 9.85224 15.2204 9.78318 15.1398L6.9689 11.875C6.82788 11.7109 6.75678 11.4969 6.77109 11.2797C6.78541 11.0625 6.88395 10.8597 7.04526 10.716C7.20759 10.5736 7.4189 10.5021 7.63306 10.5171C7.84723 10.532 8.04694 10.6322 8.18852 10.7958L10.4658 13.4358L16.2368 8.25141C16.3979 8.10741 16.6087 8.03412 16.8231 8.04713C17.0375 8.06014 17.2382 8.15843 17.3812 8.32089C17.5232 8.48454 17.5955 8.69867 17.5824 8.9162C17.5694 9.13374 17.472 9.33705 17.3116 9.48206L10.9308 15.2151C10.782 15.3462 10.5912 15.4182 10.394 15.4177ZM7.57754 10.7388C7.43624 10.7389 7.29973 10.7901 7.19248 10.8834C7.07589 10.9875 7.00457 11.1342 6.99426 11.2914C6.98395 11.4485 7.03541 11.6035 7.13738 11.7224L9.95275 14.9872C10.0035 15.046 10.0652 15.094 10.1344 15.1284C10.2036 15.1628 10.2788 15.1829 10.3558 15.1876H10.394C10.5368 15.1874 10.6745 15.1345 10.7814 15.0386L17.1621 9.30447C17.2198 9.25285 17.2669 9.19026 17.3006 9.1202C17.3343 9.05014 17.3542 8.97401 17.3588 8.89619C17.3635 8.81838 17.3529 8.74033 17.3279 8.66663C17.3028 8.59292 17.2637 8.52515 17.2127 8.4668C17.1617 8.40845 17.0998 8.36083 17.0307 8.32672C16.9615 8.29262 16.8865 8.27246 16.8097 8.2678C16.7329 8.26315 16.656 8.27398 16.5834 8.29949C16.5107 8.32499 16.4437 8.36472 16.3863 8.41649L10.4468 13.7532L8.02004 10.9392C7.96451 10.876 7.89632 10.8254 7.82004 10.7908C7.74376 10.7563 7.66109 10.7385 7.57754 10.7388Z" fill="white"/>
</svg>
