<svg width="8" height="8" viewBox="0 0 8 8" fill="none" xmlns="http://www.w3.org/2000/svg">
<path d="M7.94579 2.96253C7.87805 2.73826 7.74185 2.54262 7.55751 2.40491C7.37318 2.2672 7.15062 2.1949 6.92312 2.1986H5.4681L5.0254 0.773579C4.95615 0.549296 4.81918 0.353749 4.63459 0.215568C4.49689 0.11119 4.33715 0.0421246 4.16849 0.014108C3.99983 -0.0139086 3.82711 -6.40431e-05 3.66464 0.0544524C3.50218 0.108969 3.3546 0.202522 3.23412 0.327563C3.11364 0.452604 3.02373 0.605556 2.97176 0.773579L2.529 2.1986H1.07404C0.847377 2.19895 0.626624 2.27321 0.443269 2.4108C0.259913 2.5484 0.123324 2.74226 0.0530298 2.96475C-0.0172645 3.18725 -0.0176823 3.42693 0.0518246 3.64969C0.121331 3.87245 0.257166 4.06693 0.440033 4.20521L1.62591 5.10013L1.17484 6.54231C1.10279 6.76639 1.10193 7.00839 1.17237 7.23301C1.2428 7.45763 1.3809 7.65307 1.56647 7.79102C1.75205 7.92898 1.97544 8.00222 2.2041 7.99995C2.43276 7.99768 2.6547 7.92007 2.83767 7.77845L3.99855 6.89742L5.15944 7.77845C5.34394 7.91565 5.56501 7.99055 5.79237 7.99301C6.02033 7.99408 6.24272 7.92041 6.42746 7.78251C6.6122 7.64461 6.74976 7.44965 6.82023 7.22581C6.89041 7.00335 6.89041 6.76371 6.82023 6.54126L6.36916 5.09895L7.55606 4.20403C7.74137 4.06738 7.87914 3.87284 7.94896 3.64904C8.01878 3.42524 8.01692 3.18412 7.94369 2.96148L7.94579 2.96253Z" fill="#EE9C15"/>
</svg>
