<svg width="31" height="28" viewBox="0 0 31 28" fill="none" xmlns="http://www.w3.org/2000/svg">
<path d="M18.1279 18.1686H23.1336" stroke="#EFEEF1" stroke-width="0.992" stroke-linejoin="round"/>
<path d="M22.2996 18.1686H18.1279V22.0714H22.2996V18.1686Z" fill="white"/>
<path d="M4.35547 7.70012C4.35547 7.70012 8.52633 0.241052 16.4518 1.06331C24.8366 1.93696 27.7149 9.25653 27.7149 9.25653" stroke="#FCEDA6" stroke-width="1.8" stroke-linejoin="round"/>
<path d="M3.79861 10.3096C4.35347 10.3096 4.80328 9.88849 4.80328 9.36907C4.80328 8.84966 4.35347 8.42859 3.79861 8.42859C3.24375 8.42859 2.79395 8.84966 2.79395 9.36907C2.79395 9.88849 3.24375 10.3096 3.79861 10.3096Z" fill="#F2E190"/>
<path d="M29.2827 13.8182L30.1621 9.81993L25.8583 11.4513L29.2827 13.8182Z" fill="#F2E190"/>
<path d="M27.302 20.2999C27.302 20.2999 23.1312 27.7589 15.2057 26.9367C6.82093 26.063 3.94336 18.7435 3.94336 18.7435" stroke="#FCEDA6" stroke-width="1.8" stroke-linejoin="round"/>
<path d="M28.1306 18.509C27.7642 18.509 27.4672 18.787 27.4672 19.1299C27.4672 19.4729 27.7642 19.7509 28.1306 19.7509C28.497 19.7509 28.7939 19.4729 28.7939 19.1299C28.7939 18.787 28.497 18.509 28.1306 18.509Z" fill="#F2E190"/>
<path d="M1.70199 14.7225L0.959467 18.7482L5.20517 16.9719L1.70199 14.7225Z" fill="#F2E190"/>
<path d="M15.8335 23.2856C20.9774 23.2856 25.1474 19.1283 25.1474 13.9999C25.1474 8.87158 20.9774 4.71423 15.8335 4.71423C10.6895 4.71423 6.51953 8.87158 6.51953 13.9999C6.51953 19.1283 10.6895 23.2856 15.8335 23.2856Z" fill="#F2E190"/>
<path d="M17.8508 12.0253H17.226C17.1398 11.6317 16.9596 11.2607 16.6984 10.9391H17.8508C17.9254 10.9402 17.9994 10.9273 18.0685 10.9014C18.1376 10.8755 18.2003 10.837 18.2528 10.7882C18.3601 10.6855 18.42 10.5485 18.4199 10.406C18.4198 10.2665 18.3597 10.1327 18.2528 10.0339C18.2008 9.98375 18.1385 9.94378 18.0695 9.91614C18.0004 9.88851 17.9261 9.87385 17.8508 9.87305H13.3002C13.2249 9.87385 13.1506 9.88851 13.0815 9.91614C13.0125 9.94378 12.9502 9.98375 12.8982 10.0339C12.7913 10.1327 12.7312 10.2665 12.7311 10.406C12.731 10.5485 12.7909 10.6855 12.8982 10.7882C12.9507 10.837 13.0134 10.8755 13.0825 10.9014C13.1515 10.9273 13.2256 10.9402 13.3002 10.9391H14.4373C14.7954 10.9413 15.1436 11.0474 15.4323 11.2425C15.721 11.4375 15.9355 11.7114 16.0452 12.0253H13.3002C13.2249 12.0261 13.1506 12.0408 13.0815 12.0684C13.0125 12.096 12.9502 12.1361 12.8982 12.1863C12.8444 12.2346 12.8019 12.2926 12.7731 12.3566C12.7444 12.4205 12.7301 12.4892 12.7311 12.5584C12.7293 12.6281 12.7428 12.6974 12.7706 12.7622C12.7985 12.827 12.8402 12.886 12.8932 12.9357C12.9463 12.9854 13.0097 13.0248 13.0796 13.0516C13.1495 13.0783 13.2245 13.0919 13.3002 13.0915H16.031C15.9123 13.3985 15.6952 13.665 15.4084 13.8559C15.1221 14.0385 14.7823 14.1367 14.434 14.1375H13.2969C13.2216 14.1384 13.1473 14.153 13.0783 14.1806C13.0092 14.2083 12.9469 14.2482 12.8949 14.2984C12.841 14.3487 12.7984 14.4085 12.7697 14.4741C12.741 14.5397 12.7268 14.6099 12.7278 14.6806C12.7254 14.7528 12.7391 14.8248 12.7682 14.8919C12.7953 14.9597 12.8378 15.0213 12.8927 15.0729L16.3063 18.2713C16.3592 18.3216 16.4218 18.3625 16.4909 18.392C16.56 18.4187 16.6343 18.4325 16.7093 18.4325C16.7844 18.4325 16.8586 18.4187 16.9278 18.392C16.9969 18.3625 17.0594 18.3216 17.1124 18.2713C17.2193 18.1724 17.2794 18.0387 17.2795 17.8992C17.2806 17.8284 17.2663 17.7583 17.2376 17.6927C17.2089 17.627 17.1664 17.5673 17.1124 17.517L14.6328 15.1935C15.249 15.1501 15.8334 14.9243 16.2986 14.5498C16.7657 14.1663 17.0872 13.6553 17.2162 13.0915H17.8475C17.9238 13.0917 17.9996 13.0815 18.0726 13.0613C18.1442 13.0318 18.2096 12.9909 18.2659 12.9406C18.3224 12.8916 18.3671 12.8323 18.3974 12.7665C18.4277 12.7007 18.4428 12.6298 18.4418 12.5584C18.441 12.4859 18.425 12.4142 18.3948 12.3472C18.366 12.282 18.3215 12.2235 18.2648 12.1762C18.2085 12.1259 18.1431 12.0851 18.0715 12.0555C17.9999 12.0358 17.9255 12.0256 17.8508 12.0253Z" fill="white"/>
</svg>
