<svg width="26" height="31" viewBox="0 0 26 31" fill="none" xmlns="http://www.w3.org/2000/svg">
<path d="M2.6 13.6C3.2992 13.6 3.93205 13.3249 4.39969 12.883L6.96516 14.141C6.95229 14.2435 6.93333 14.3442 6.93333 14.45C6.93333 15.856 8.09972 17 9.53333 17C10.9669 17 12.1333 15.856 12.1333 14.45C12.1333 14.0575 12.0349 13.6901 11.8727 13.3576L15.3529 9.94434C15.6919 10.1035 16.0665 10.2 16.4667 10.2C17.9003 10.2 19.0667 9.05604 19.0667 7.65C19.0667 7.38526 19.0136 7.13491 18.9369 6.89474L21.9607 4.67102C22.3733 4.94129 22.8678 5.1 23.4 5.1C24.8336 5.1 26 3.95604 26 2.55C26 1.14396 24.8336 0 23.4 0C21.9664 0 20.8 1.14396 20.8 2.55C20.8 2.81474 20.853 3.06509 20.9298 3.30526L17.9059 5.52898C17.4934 5.25871 16.9989 5.1 16.4667 5.1C15.0331 5.1 13.8667 6.24396 13.8667 7.65C13.8667 8.04246 13.9651 8.40991 14.1273 8.74238L10.6471 12.1557C10.3081 11.9965 9.93349 11.9 9.53333 11.9C8.83413 11.9 8.20129 12.1751 7.73365 12.617L5.16818 11.359C5.18104 11.2565 5.2 11.1558 5.2 11.05C5.2 9.64396 4.03361 8.5 2.6 8.5C1.16639 8.5 0 9.64396 0 11.05C0 12.456 1.16639 13.6 2.6 13.6Z" fill="#FF3D3D"/>
<rect x="7" y="22" width="5" height="9" rx="1" fill="#FF3D3D"/>
<rect x="14" y="15" width="5" height="16" rx="1" fill="#4DC423"/>
<rect x="21" y="9" width="5" height="22" rx="1" fill="#4DC423"/>
<rect y="18" width="5" height="13" rx="1" fill="#4DC423"/>
</svg>
