<svg width="22" height="22" viewBox="0 0 22 22" fill="none" xmlns="http://www.w3.org/2000/svg">
    <g filter="url(#filter0_i_561_5139)">
        <circle cx="11" cy="11" r="11" fill="#E2AF29"/>
    </g>
    <circle cx="11" cy="11" r="8" fill="#FFD057"/>
    <path d="M8.28554 15.4889C8.78561 15.3358 9.97292 15.1329 10.2444 15.093L10.225 8.94369L7.32408 8.93657L6.98425 11.3214H6.34535C6.30345 11.1316 6.26178 10.8921 6.22033 10.6031C6.17889 10.3141 6.14205 10.0137 6.10982 9.70186C6.07851 9.39195 6.05249 9.08346 6.03177 8.77639C6.01105 8.46933 6.00046 8.20996 6 7.99829H15.9551C15.9551 8.22373 15.9447 8.48665 15.924 8.78707C15.9033 9.08749 15.8771 9.39242 15.8453 9.70186C15.8135 10.0118 15.7771 10.3098 15.7362 10.596C15.6952 10.8822 15.6533 11.124 15.6104 11.3214H14.9688L14.6497 8.92304L11.6679 8.94867L11.6638 15.1215L12.8711 15.3173L13.6716 15.4889V15.9665L8.2959 16L8.28554 15.4889ZM6.0449 6.92546V6H16V6.92546H6.0449Z" fill="white"/>
    <defs>

    </defs>
</svg>
