<svg width="37" height="30" viewBox="0 0 37 30" fill="none" xmlns="http://www.w3.org/2000/svg">
<path d="M20.9402 27.7161C21.7974 27.7458 22.6443 27.5223 23.3737 27.0737C24.1031 26.6251 24.6822 25.9716 25.0379 25.1958C25.3936 24.4201 25.5099 23.5569 25.372 22.7155C25.2341 21.8741 24.8483 21.0922 24.2633 20.4687C23.6783 19.8452 22.9205 19.4081 22.0856 19.2127C21.2506 19.0173 20.3762 19.0724 19.5727 19.3709C18.7693 19.6695 18.073 20.1981 17.5719 20.89C17.0707 21.5819 16.7873 22.4059 16.7573 23.2579C16.7172 24.4004 17.1353 25.5119 17.9198 26.348C18.7042 27.1841 19.7907 27.6762 20.9402 27.7161ZM21.1672 21.2545C21.5958 21.2693 22.0104 21.4102 22.3584 21.6593C22.7065 21.9083 22.9725 22.2543 23.1227 22.6536C23.2728 23.0528 23.3005 23.4874 23.2022 23.9023C23.104 24.3172 22.8841 24.6938 22.5704 24.9845C22.2567 25.2753 21.8634 25.467 21.4401 25.5355C21.0168 25.604 20.5826 25.5462 20.1923 25.3695C19.802 25.1927 19.4733 24.9049 19.2476 24.5424C19.0219 24.18 18.9095 23.7591 18.9244 23.3331C18.9445 22.7619 19.1921 22.222 19.6127 21.8321C20.0333 21.4423 20.5925 21.2345 21.1672 21.2545Z" fill="#AF99ED"/>
<path d="M4.35894 2.62538L5.09452 2.16855L20.0264 25.9185L19.2908 26.3753C19.0198 26.5436 18.6927 26.598 18.3814 26.5266C18.0701 26.4552 17.8001 26.2637 17.6308 25.9944L3.9757 4.27526C3.80639 4.00596 3.75165 3.68084 3.82352 3.37143C3.89539 3.06202 4.08799 2.79366 4.35894 2.62538Z" fill="#AF99ED"/>
<path d="M32.4361 7.77124H7.15625V20.8803H32.4361V7.77124Z" fill="white"/>
<path d="M37.0009 7.74164H4.86914V20.3223H37.0009V7.74164Z" fill="#A19AD5"/>
<path d="M20.9608 17.8959V13.1039H19.0968V12.2559H23.8568V13.1039H21.9928V17.8959H20.9608ZM23.3369 17.8959L25.8889 12.2559H26.7529L29.3369 17.8959H28.2889L27.6009 16.3119L28.0169 16.5919H24.6329L25.0649 16.3119L24.3769 17.8959H23.3369ZM26.3129 13.3599L25.1849 16.0319L24.9769 15.7839H27.6649L27.4969 16.0319L26.3449 13.3599H26.3129ZM29.1557 17.8959L31.4757 14.8079V15.2479L29.2357 12.2559H30.4437L32.0677 14.5039H31.7397L33.3557 12.2559H34.5717L32.3237 15.2479V14.8079L34.6517 17.8959H33.4357L31.7237 15.5439H32.0757L30.3637 17.8959H29.1557Z" fill="white"/>
<path d="M14.3037 8.31909V20.3355" stroke="white" stroke-width="0.8" stroke-dasharray="2 1"/>
<path d="M10.6218 12.7518H10.2095C10.1529 12.459 10.034 12.1816 9.86065 11.9382H10.6218C10.6717 11.9375 10.721 11.9267 10.7667 11.9066C10.8123 11.8864 10.8534 11.8573 10.8873 11.8209C10.9572 11.7417 10.9962 11.6403 10.9972 11.535C10.9988 11.4292 10.9595 11.3268 10.8873 11.2491C10.8534 11.2127 10.8123 11.1835 10.7667 11.1633C10.721 11.1432 10.6717 11.1325 10.6218 11.1318H7.61776C7.56782 11.1325 7.51854 11.1432 7.47289 11.1633C7.42725 11.1835 7.38621 11.2127 7.35225 11.2491C7.2801 11.3268 7.24077 11.4292 7.24235 11.535C7.24337 11.6403 7.28236 11.7417 7.35225 11.8209C7.38621 11.8573 7.42725 11.8864 7.47289 11.9066C7.51854 11.9267 7.56782 11.9375 7.61776 11.9382H8.36859C8.60937 11.9447 8.84185 12.027 9.03257 12.1732C9.22329 12.3195 9.36242 12.522 9.42992 12.7518H7.61776C7.56782 12.7525 7.51854 12.7633 7.47289 12.7834C7.42725 12.8036 7.38621 12.8327 7.35225 12.8691C7.28236 12.9483 7.24337 13.0497 7.24235 13.155C7.24077 13.2608 7.2801 13.3632 7.35225 13.4409C7.38621 13.4773 7.42725 13.5065 7.47289 13.5267C7.51854 13.5468 7.56782 13.5575 7.61776 13.5582H9.4196C9.34313 13.7872 9.2002 13.9888 9.00878 14.1373C8.82306 14.2752 8.59748 14.3498 8.36564 14.3499H7.61776C7.56782 14.3506 7.51854 14.3612 7.47289 14.3814C7.42725 14.4016 7.38621 14.4307 7.35225 14.4671C7.28236 14.5463 7.24337 14.6477 7.24235 14.753V14.7604C7.24083 14.8153 7.24984 14.87 7.2689 14.9216C7.28663 14.971 7.3148 15.016 7.35151 15.0536L9.60472 17.4727C9.63959 17.5091 9.68083 17.5389 9.72642 17.5606C9.77202 17.5799 9.82106 17.5898 9.87061 17.5898C9.92016 17.5898 9.9692 17.5799 10.0148 17.5606C10.0604 17.5389 10.1016 17.5091 10.1365 17.4727C10.2064 17.3935 10.2454 17.2921 10.2464 17.1868C10.248 17.081 10.2086 16.9787 10.1365 16.9009L8.49914 15.1416C8.91068 15.1104 9.29893 14.9396 9.59882 14.6577C9.91081 14.3627 10.1225 13.9784 10.2044 13.5582H10.6211C10.6711 13.5582 10.7208 13.5507 10.7686 13.5362C10.816 13.5145 10.8592 13.4848 10.8962 13.4482C10.9337 13.4107 10.9628 13.3657 10.9817 13.3163C11.0021 13.2649 11.0123 13.2102 11.012 13.155C11.0123 13.1022 11.002 13.0499 10.9817 13.001C10.9628 12.9516 10.9336 12.9067 10.8962 12.8691C10.8632 12.828 10.8189 12.7975 10.7686 12.7812C10.7224 12.7609 10.6723 12.7509 10.6218 12.7518Z" fill="white"/>
<path d="M10.6998 28.8837C9.87131 29.1045 8.99555 29.0761 8.18328 28.8022C7.37101 28.5283 6.6587 28.0212 6.13642 27.3449C5.61415 26.6687 5.30538 25.8537 5.24915 25.003C5.19291 24.1523 5.39175 23.3042 5.82051 22.5658C6.24927 21.8274 6.8887 21.232 7.65793 20.8549C8.42717 20.4777 9.29166 20.3357 10.1421 20.4468C10.9925 20.558 11.7907 20.9173 12.4357 21.4793C13.0806 22.0413 13.5435 22.7807 13.7656 23.6042C14.0635 24.7083 13.9078 25.8849 13.3329 26.875C12.7579 27.8651 11.8108 28.5877 10.6998 28.8837ZM9.01512 22.6387C8.60088 22.7491 8.22887 22.9791 7.94615 23.2997C7.66342 23.6202 7.48267 24.0168 7.42676 24.4394C7.37084 24.8621 7.44228 25.2917 7.63202 25.6739C7.82177 26.0562 8.12131 26.374 8.49276 26.587C8.86421 26.8001 9.29089 26.8989 9.71884 26.871C10.1468 26.843 10.5568 26.6896 10.897 26.43C11.2372 26.1705 11.4923 25.8165 11.6301 25.4129C11.7679 25.0092 11.7822 24.574 11.6711 24.1623C11.5222 23.6102 11.1587 23.1395 10.6606 22.8538C10.1625 22.5681 9.57061 22.4907 9.01512 22.6387Z" fill="#AF99ED"/>
<path d="M12.0061 27.2043L11.1859 26.9239L20.3516 0.442139L21.1717 0.722557C21.4739 0.82585 21.7223 1.0442 21.8625 1.32956C22.0026 1.61493 22.023 1.94394 21.919 2.24421L13.5371 26.4616C13.4331 26.7619 13.2135 27.0088 12.9263 27.1481C12.6392 27.2874 12.3082 27.3076 12.0061 27.2043Z" fill="#AF99ED"/>
</svg>
