<svg width="36" height="32" viewBox="0 0 36 32" fill="none" xmlns="http://www.w3.org/2000/svg">
<path d="M19.5389 9.67226L22.4842 16.3157L29.9902 16.9677C30.1354 16.9817 30.2762 17.0223 30.4043 17.0872C30.5324 17.1521 30.6452 17.24 30.7362 17.3457L30.7668 17.3836C30.9342 17.5932 31.0159 17.8509 30.9974 18.1111V18.1584C30.9822 18.2865 30.9432 18.4112 30.8821 18.527L30.8648 18.5554C30.8104 18.6491 30.7417 18.7351 30.6607 18.8105L24.9518 23.6111L26.6336 30.6987C26.6918 30.9714 26.6384 31.2543 26.4836 31.4925C26.3673 31.6735 26.1953 31.8183 25.9897 31.9083C25.7867 31.9942 25.5602 32.0206 25.3406 31.9839C25.1896 31.9591 25.0462 31.9042 24.9202 31.8232L18.501 28.1283L12.0298 31.8516C11.9067 31.9225 11.7691 31.9691 11.6257 31.9886C11.4822 32.0081 11.336 32.0001 11.196 31.965C11.0515 31.9301 10.916 31.8686 10.7976 31.7842C10.6792 31.6998 10.5805 31.5941 10.5072 31.4736L10.4847 31.4358C10.3537 31.2035 10.3151 30.9358 10.3755 30.6798L12.0502 23.6111L6.3832 18.8483C6.15663 18.6584 6.01987 18.3936 6.00254 18.1111C5.98254 17.8266 6.08117 17.5459 6.27809 17.3268C6.37392 17.219 6.49409 17.1319 6.63017 17.0716C6.76347 17.0061 6.91025 16.9675 7.06083 16.9582L14.5107 16.3157L17.4703 9.65334C17.5258 9.52439 17.6086 9.40694 17.7137 9.30796C17.8189 9.20898 17.9443 9.13047 18.0826 9.0769C18.2187 9.02463 18.3649 8.99845 18.5123 9.00007C18.6596 9.0017 18.8051 9.0311 18.9398 9.08636L18.9715 9.09582C19.0924 9.15032 19.2022 9.22384 19.296 9.31315L19.3317 9.35099C19.4178 9.44387 19.4867 9.54919 19.5358 9.6628L19.5389 9.67226Z" fill="#FFC06E"/>
<path d="M21.3853 19.2613H20.7288C20.6385 18.8479 20.4489 18.4593 20.1744 18.125H21.3841C21.4631 18.1258 21.5415 18.1112 21.6142 18.0822C21.6869 18.0531 21.7524 18.0102 21.8066 17.9562C21.862 17.9047 21.906 17.8434 21.936 17.7758C21.9661 17.7082 21.9815 17.6357 21.9815 17.5625C21.9815 17.4893 21.9661 17.4168 21.936 17.3493C21.906 17.2817 21.862 17.2204 21.8066 17.1688C21.7524 17.1148 21.6869 17.0719 21.6142 17.0429C21.5415 17.0138 21.4631 16.9992 21.3841 17H16.61C16.5309 16.9992 16.4525 17.0137 16.3798 17.0427C16.3071 17.0718 16.2416 17.1148 16.1875 17.1688C16.1321 17.2204 16.0881 17.2817 16.058 17.3493C16.028 17.4168 16.0125 17.4893 16.0125 17.5625C16.0125 17.6357 16.028 17.7082 16.058 17.7758C16.0881 17.8434 16.1321 17.9047 16.1875 17.9562C16.2416 18.0103 16.3071 18.0533 16.3798 18.0823C16.4525 18.1114 16.5309 18.1259 16.61 18.125H17.8101C18.1828 18.1252 18.546 18.235 18.8487 18.4388C19.1514 18.6426 19.3783 18.9303 19.4975 19.2613H16.61C16.5309 19.2604 16.4525 19.2749 16.3798 19.304C16.3071 19.333 16.2416 19.376 16.1875 19.43C16.1321 19.4816 16.0881 19.5429 16.058 19.6105C16.028 19.6781 16.0125 19.7505 16.0125 19.8237C16.0125 19.897 16.028 19.9694 16.058 20.037C16.0881 20.1046 16.1321 20.1659 16.1875 20.2175C16.2416 20.2715 16.3071 20.3145 16.3798 20.3435C16.4525 20.3726 16.5309 20.3871 16.61 20.3862H19.4783C19.3529 20.7095 19.1243 20.9886 18.8237 21.1859C18.5231 21.3831 18.165 21.4889 17.7981 21.4887H16.598C16.5189 21.4878 16.4405 21.5023 16.3678 21.5314C16.2951 21.5604 16.2296 21.6034 16.1755 21.6575C16.1199 21.7089 16.0758 21.7702 16.0457 21.8378C16.0156 21.9054 16.0002 21.9779 16.0003 22.0512V22.0624C15.9977 22.1357 16.0121 22.2085 16.0423 22.2761C16.0704 22.3481 16.1151 22.4134 16.1731 22.4674L19.7567 25.8311C19.809 25.8869 19.8755 25.9294 19.9499 25.9548C20.0222 25.9846 20.1003 26 20.1792 26C20.2581 26 20.3361 25.9846 20.4084 25.9548C20.4829 25.9294 20.5493 25.8869 20.6016 25.8311C20.6571 25.7795 20.7011 25.7182 20.7311 25.6506C20.7611 25.5831 20.7766 25.5106 20.7766 25.4374C20.7766 25.3642 20.7611 25.2917 20.7311 25.2241C20.7011 25.1565 20.6571 25.0952 20.6016 25.0437L17.9973 22.5911C18.6425 22.5469 19.2556 22.3104 19.7471 21.9162C20.2369 21.5183 20.5742 20.9809 20.7072 20.3862H21.3697C21.4511 20.3867 21.5321 20.3753 21.6097 20.3525C21.6849 20.3232 21.7536 20.2813 21.8126 20.2287C21.8717 20.1768 21.9189 20.1141 21.9511 20.0444C21.9834 19.9748 22 19.8997 22 19.8237C22 19.7478 21.9834 19.6727 21.9511 19.6031C21.9189 19.5334 21.8717 19.4706 21.8126 19.4188C21.7536 19.3662 21.6849 19.3243 21.6097 19.295C21.5371 19.2736 21.4615 19.2622 21.3853 19.2613Z" fill="white"/>
<path d="M0.556472 12.0815C0.332417 11.9848 0.156769 11.81 0.0663998 11.5938C-0.023969 11.3776 -0.0220283 11.1367 0.0718123 10.9217C0.114403 10.8151 0.179397 10.7176 0.262895 10.6353C0.346393 10.5529 0.446672 10.4873 0.557707 10.4424C0.668743 10.3976 0.788246 10.3744 0.90904 10.3742C1.02983 10.374 1.14943 10.3967 1.26064 10.4412L5.05188 12.0152C5.27687 12.1131 5.45297 12.2895 5.54331 12.5072C5.63365 12.7249 5.63122 12.9671 5.53654 13.1832C5.44392 13.398 5.26631 13.5703 5.04134 13.6636C4.93165 13.7087 4.81329 13.732 4.69365 13.732C4.57401 13.732 4.45565 13.7087 4.34596 13.6636L0.556472 12.0815ZM4.41093 6.29107C4.23999 6.11948 4.14482 5.89294 4.14482 5.65745C4.14482 5.42196 4.23999 5.19532 4.41093 5.02373C4.49488 4.94277 4.59527 4.8786 4.70609 4.83504C4.81691 4.79148 4.93589 4.76935 5.05593 4.77012C5.17598 4.7709 5.29464 4.79451 5.40481 4.83949C5.51499 4.88448 5.61444 4.94999 5.69721 5.03202L8.59464 7.89816C8.76539 8.06985 8.86042 8.29645 8.86042 8.53188C8.86042 8.76731 8.76539 8.99391 8.59464 9.1656C8.51126 9.24751 8.41107 9.31255 8.30016 9.35672C8.18926 9.40088 8.06998 9.42322 7.94961 9.42244C7.82924 9.42167 7.7103 9.39775 7.60004 9.35217C7.48979 9.30658 7.39055 9.24029 7.30836 9.15731L4.41093 6.29107ZM10.2225 2.36459C10.1301 2.14706 10.1301 1.90439 10.2225 1.68688C10.3149 1.46937 10.4925 1.29382 10.7185 1.19665C10.8303 1.1536 10.95 1.13209 11.0707 1.13345C11.1913 1.13482 11.3105 1.15897 11.4211 1.20454C11.5317 1.25011 11.6315 1.31611 11.7145 1.39869C11.7976 1.48127 11.8623 1.57879 11.9047 1.68536L13.4702 5.42134C13.5625 5.63939 13.5625 5.8825 13.4702 6.10056C13.4246 6.20823 13.3576 6.30664 13.2727 6.39047C13.1898 6.47301 13.0892 6.53804 12.9777 6.58108C12.8666 6.62591 12.7471 6.64898 12.6263 6.64893C12.5055 6.64888 12.386 6.6257 12.275 6.58078C12.164 6.53585 12.0639 6.47007 11.9806 6.38754C11.8973 6.305 11.8327 6.20736 11.7906 6.10056L10.2225 2.36459ZM34.7391 10.4412C34.8503 10.3967 34.9699 10.374 35.0907 10.3742C35.2115 10.3744 35.331 10.3976 35.442 10.4424C35.5531 10.4873 35.6534 10.5529 35.7369 10.6353C35.8204 10.7176 35.8853 10.8151 35.9279 10.9217C36.022 11.1366 36.0241 11.3776 35.9337 11.5939C35.8433 11.8102 35.6675 11.985 35.4433 12.0815L31.6538 13.6636C31.5426 13.7081 31.423 13.731 31.3022 13.7308C31.1814 13.7305 31.0619 13.7073 30.9509 13.6624C30.8398 13.6175 30.7395 13.5519 30.656 13.4696C30.5725 13.3872 30.5076 13.2898 30.465 13.1832C30.3708 12.9658 30.3692 12.7224 30.4606 12.5039C30.5051 12.3963 30.5713 12.2978 30.6555 12.214C30.74 12.1314 30.8396 12.0641 30.9496 12.0152L34.7391 10.4412ZM30.2999 5.03202C30.3827 4.94999 30.4821 4.88448 30.5923 4.83949C30.7025 4.79451 30.8211 4.7709 30.9412 4.77012C31.0612 4.76935 31.1802 4.79148 31.291 4.83504C31.4018 4.8786 31.5022 4.94277 31.5862 5.02373C31.7573 5.19523 31.8526 5.42191 31.8526 5.65745C31.8526 5.893 31.7573 6.11957 31.5862 6.29107L28.6888 9.15731C28.6066 9.24027 28.5075 9.30659 28.3973 9.35217C28.2871 9.39774 28.1682 9.42157 28.0479 9.42234C27.9276 9.42312 27.8084 9.40077 27.6976 9.35662C27.5868 9.31246 27.4866 9.24749 27.4033 9.1656C27.2318 8.99454 27.1359 8.76818 27.135 8.53269C27.1342 8.2972 27.2286 8.07028 27.399 7.89816L30.2999 5.03202ZM24.0968 1.68536C24.1392 1.57879 24.2039 1.48127 24.287 1.39869C24.37 1.31611 24.4698 1.25011 24.5804 1.20454C24.691 1.15897 24.8102 1.13482 24.9308 1.13345C25.0515 1.13209 25.1712 1.1536 25.283 1.19665C25.509 1.29382 25.6866 1.46937 25.779 1.68688C25.8714 1.90439 25.8714 2.14706 25.779 2.36459L24.2135 6.10056C24.1686 6.20818 24.1022 6.3066 24.0177 6.39047C23.9352 6.47303 23.8349 6.53808 23.7236 6.58108C23.6135 6.62478 23.4953 6.64721 23.3759 6.64721C23.2565 6.64721 23.1383 6.62478 23.0282 6.58108C22.8021 6.48638 22.6239 6.31235 22.5313 6.09591C22.4388 5.87947 22.4391 5.63758 22.5322 5.42134L24.0968 1.68536ZM17.0613 0.898449C17.0559 0.782357 17.0755 0.666339 17.1188 0.557575C17.1622 0.448811 17.2284 0.349492 17.3136 0.265541C17.3988 0.181589 17.5011 0.11481 17.6143 0.0691659C17.7276 0.0235214 17.8495 0 17.9727 0C18.0958 0 18.2177 0.0235214 18.331 0.0691659C18.4443 0.11481 18.5466 0.181589 18.6317 0.265541C18.7169 0.349492 18.7831 0.448811 18.8265 0.557575C18.8699 0.666339 18.8894 0.782357 18.884 0.898449V4.94081C18.8894 5.05691 18.8699 5.17292 18.8265 5.28169C18.7831 5.39045 18.7169 5.48977 18.6317 5.57372C18.5466 5.65767 18.4443 5.72445 18.331 5.7701C18.2177 5.81574 18.0958 5.83926 17.9727 5.83926C17.8495 5.83926 17.7276 5.81574 17.6143 5.7701C17.5011 5.72445 17.3988 5.65767 17.3136 5.57372C17.2284 5.48977 17.1622 5.39045 17.1188 5.28169C17.0755 5.17292 17.0559 5.05691 17.0613 4.94081V0.898449Z" fill="#FFD361"/>
</svg>
