<svg xmlns="http://www.w3.org/2000/svg" width="55" height="65" viewBox="0 0 55 65" fill="none">
    <path opacity="0.1" d="M28.4011 -1.52066C35.1528 -1.4906 41.6429 1.03681 46.5686 5.55424C51.4943 10.0717 54.4909 16.2447 54.9566 22.834C52.637 17.8478 48.8996 13.62 44.1906 10.6552C39.4816 7.69042 33.9999 6.11388 28.3999 6.11388C22.7999 6.11388 17.3182 7.69042 12.6092 10.6552C7.90021 13.62 4.16292 17.8478 1.84331 22.834C2.30857 16.2442 5.30522 10.0704 10.2315 5.55283C15.1578 1.03524 21.6488 -1.49171 28.4011 -1.52066ZM8.0684 45.65C3.98124 41.8698 1.07169 37.0348 -0.323658 31.7044C-1.719 26.374 -1.54313 20.766 0.183662 15.5294C1.88247 10.3073 5.07262 5.66946 9.37775 2.16304C13.6829 -1.34338 18.9234 -3.57206 24.481 -4.26014C17.9295 -5.82213 11.0161 -4.89099 5.13981 -1.65521C-0.736476 1.58057 -5.13678 6.87926 -7.17055 13.1687C-9.25813 19.4658 -8.84999 26.3006 -6.02725 32.3172C-3.20451 38.3337 1.82663 43.0926 8.0684 45.65ZM31.9573 47.2207C27.0867 49.8937 21.5316 51.1364 15.9574 50.8C10.3833 50.4636 5.02662 48.5623 0.528801 45.3239C-3.99538 42.0595 -7.48107 37.6076 -9.52391 32.4841C-11.5667 27.3606 -12.083 21.7756 -11.0131 16.3767C-14.5514 22.0275 -15.7957 28.7706 -14.5003 35.275C-13.2048 41.7794 -9.46387 47.5722 -4.01574 51.5102C1.41188 55.4103 8.15601 57.138 14.8411 56.3409C21.5261 55.5438 27.6485 52.2821 31.9596 47.2207H31.9573ZM40.7833 24.8477C41.8541 30.2464 41.3384 35.8315 39.2959 40.9551C37.2534 46.0786 33.768 50.5307 29.2438 53.795C24.7458 57.0338 19.389 58.9356 13.8145 59.2728C8.24014 59.61 2.68441 58.3683 -2.18718 55.6963C2.12513 60.7556 8.24775 64.0153 14.9322 64.8106C21.6167 65.606 28.3595 63.8772 33.7859 59.9767C39.2328 56.0389 42.973 50.2468 44.2684 43.7435C45.5638 37.2402 44.3203 30.4981 40.7833 24.8477ZM53.6937 27.3094C51.6595 21.0203 47.2591 15.7217 41.3829 12.486C35.5068 9.25033 28.5936 8.31898 22.0421 9.88041C27.5998 10.5685 32.8403 12.7973 37.1454 16.3037C41.4506 19.8101 44.6407 24.448 46.3395 29.6701C48.0663 34.9067 48.2422 40.5146 46.8468 45.845C45.4515 51.1754 42.5419 56.0105 38.4548 59.7907C44.6941 57.2308 49.7226 52.4709 52.5434 46.4548C55.3642 40.4387 55.7713 33.6054 53.6843 27.3094H53.6937Z" fill="#E6EEF8" fill-opacity="0.4"/>
</svg>