<svg width="23" height="20" viewBox="0 0 23 20" fill="none" xmlns="http://www.w3.org/2000/svg">
<path d="M1.43237 1H21.5884C21.6578 0.999741 21.7267 1.01317 21.791 1.03951C21.8552 1.06585 21.9137 1.10459 21.963 1.15353C22.0123 1.20247 22.0515 1.26064 22.0783 1.32472C22.1052 1.3888 22.1191 1.45753 22.1194 1.527V15.373C22.1191 15.4425 22.1052 15.5112 22.0783 15.5753C22.0515 15.6394 22.0123 15.6975 21.963 15.7465C21.9137 15.7954 21.8552 15.8342 21.791 15.8605C21.7267 15.8868 21.6578 15.9003 21.5884 15.9H14.9534V17.946H18.4024C18.5421 17.946 18.6762 18.0015 18.775 18.1004C18.8738 18.1992 18.9294 18.3332 18.9294 18.473C18.9294 18.6128 18.8738 18.7468 18.775 18.8457C18.6762 18.9445 18.5421 19 18.4024 19H4.61737C4.4776 19 4.34355 18.9445 4.24472 18.8457C4.14589 18.7468 4.09037 18.6128 4.09037 18.473C4.09037 18.3332 4.14589 18.1992 4.24472 18.1004C4.34355 18.0015 4.4776 17.946 4.61737 17.946H8.06637V15.9H1.43237C1.3629 15.9003 1.29406 15.8868 1.22977 15.8605C1.16549 15.8342 1.10703 15.7954 1.05772 15.7465C1.00841 15.6975 0.969226 15.6394 0.942399 15.5753C0.915572 15.5112 0.901629 15.4425 0.901367 15.373V1.527C0.901629 1.45753 0.915572 1.3888 0.942399 1.32472C0.969226 1.26064 1.00841 1.20247 1.05772 1.15353C1.10703 1.10459 1.16549 1.06585 1.22977 1.03951C1.29406 1.01317 1.3629 0.999741 1.43237 1ZM18.0204 4.97701L18.1514 6.62901C18.1565 6.69848 18.1479 6.76827 18.126 6.83442C18.1042 6.90056 18.0695 6.96175 18.024 7.01449C17.9321 7.12101 17.8017 7.18667 17.6614 7.19701C17.5919 7.20213 17.5221 7.19352 17.456 7.17167C17.3898 7.14981 17.3286 7.11515 17.2759 7.06964C17.1694 6.97775 17.1037 6.8473 17.0934 6.707L17.0424 6.054L11.6044 10.426C11.5464 10.4744 11.4789 10.51 11.4061 10.5303C11.3334 10.5505 11.2572 10.5551 11.1825 10.5437C11.1079 10.5322 11.0366 10.505 10.9733 10.4639C10.91 10.4227 10.8561 10.3686 10.8154 10.305L9.16537 7.70501L5.92437 11.353C5.8784 11.405 5.82265 11.4475 5.76028 11.4779C5.69792 11.5084 5.63017 11.5262 5.56089 11.5305C5.49162 11.5348 5.42219 11.5254 5.35655 11.5028C5.29092 11.4802 5.23037 11.445 5.17837 11.399C5.12636 11.353 5.08392 11.2973 5.05347 11.2349C5.02301 11.1726 5.00514 11.1048 5.00086 11.0355C4.99659 10.9663 5.00601 10.8968 5.02857 10.8312C5.05113 10.7656 5.0864 10.705 5.13237 10.653L8.84037 6.47901C8.89508 6.41798 8.96315 6.37041 9.03928 6.34002C9.1154 6.30964 9.19752 6.29725 9.27922 6.30384C9.36092 6.31042 9.43999 6.33579 9.51027 6.37797C9.58055 6.42015 9.64013 6.47801 9.68437 6.54701L11.3924 9.24001L16.3434 5.26001L15.7434 5.10701C15.6139 5.06705 15.5049 4.97872 15.439 4.86039C15.3731 4.74205 15.3554 4.60285 15.3895 4.47178C15.4237 4.3407 15.5071 4.22785 15.6223 4.15673C15.7376 4.08562 15.8759 4.06172 16.0084 4.09001L17.6134 4.50301C17.7213 4.52913 17.8181 4.58879 17.89 4.67342C17.9619 4.75805 18.0051 4.86328 18.0134 4.974L18.0204 4.97701ZM13.8924 15.9H9.12737V17.946H13.8924V15.9ZM21.0574 2.054H1.96237V14.846H21.0574V2.054Z" fill="currentColor" stroke="currentColor" stroke-width="0.5"/>
</svg>
