<svg width="55" height="36" viewBox="0 0 55 36" fill="none" xmlns="http://www.w3.org/2000/svg">
<g clip-path="url(#clip0_223_20911)">
<path d="M49.6817 34.6305H49.6811H47.5514C47.4566 34.6319 47.3658 34.6688 47.2967 34.7336C47.2338 34.7997 47.1983 34.8872 47.1976 34.9785C47.199 35.0705 47.2339 35.1586 47.2957 35.2265C47.3664 35.2893 47.4574 35.3248 47.5521 35.3266H49.6811H49.6815C50.2036 35.327 50.7207 35.2244 51.2032 35.0248C51.6857 34.8251 52.1241 34.5323 52.4933 34.1631C52.8625 33.7939 53.1553 33.3555 53.3549 32.8731C53.5545 32.3906 53.6571 31.8735 53.6567 31.3513V31.3509V29.2177V29.2124C53.6572 29.1674 53.6486 29.1229 53.6315 29.0813L54.1509 28.8681L53.6315 29.0813C53.6151 29.0412 53.591 29.0046 53.5607 28.9736C53.4919 28.9092 53.4014 28.8729 53.307 28.8719L53.3039 28.8718C53.2596 28.8711 53.2157 28.8793 53.1746 28.8959C53.1336 28.9125 53.0963 28.9372 53.065 28.9685C53.0337 28.9998 53.009 29.037 52.9924 29.0781C52.9758 29.1191 52.9677 29.1631 52.9684 29.2073L52.9685 29.2166H52.9685V31.3482V31.3498H52.4071C52.4081 31.7071 52.3381 32.0611 52.201 32.3911C52.064 32.721 51.8627 33.0205 51.6088 33.2719L49.6817 34.6305ZM49.6817 34.6305C50.5523 34.6294 51.3872 34.2843 52.0044 33.6703L49.6817 34.6305ZM0.673262 29.2139L0.673287 29.2177L0.673275 31.3508C0.673275 31.3508 0.673275 31.3509 0.673275 31.3509C0.673572 32.4052 1.09253 33.4163 1.83804 34.1618C2.58332 34.9071 3.59398 35.326 4.64794 35.3266C4.64831 35.3266 4.64868 35.3266 4.64905 35.3266L6.77555 35.3221C6.8687 35.3196 6.95786 35.2842 7.02728 35.2223C7.08918 35.1544 7.12424 35.0662 7.12568 34.9741C7.12494 34.8826 7.08936 34.7949 7.02624 34.7288C6.95859 34.6649 6.86967 34.6283 6.77659 34.626H4.64886C4.21789 34.6259 3.79116 34.541 3.39303 34.376C2.99546 34.2112 2.6342 33.9698 2.32984 33.6655C2.02384 33.3629 1.78113 33.0024 1.61585 32.605C1.45045 32.2074 1.3659 31.7807 1.36713 31.3501M0.673262 29.2139L1.9285 31.3509M0.673262 29.2139C0.67266 29.1244 0.706019 29.0382 0.766369 28.9724M0.673262 29.2139L0.766369 28.9724M1.36713 31.3501C1.36713 31.3498 1.36713 31.3495 1.36713 31.3492L1.9285 31.3509M1.36713 31.3501V31.3509H1.9285M1.36713 31.3501V29.2249M1.9285 31.3509V29.2177M1.36713 29.2249C1.36718 29.2264 1.36722 29.228 1.36726 29.2295L1.9285 29.2177M1.36713 29.2249C1.36407 29.1307 1.32843 29.0405 1.26648 28.9697M1.36713 29.2249V29.2177H1.9285M1.9285 29.2177L1.26648 28.9697M1.26648 28.9697C1.27043 28.9732 1.27431 28.9767 1.27813 28.9803L1.66354 28.5721L1.2558 28.958C1.25944 28.9618 1.263 28.9658 1.26648 28.9697ZM1.26648 28.9697C1.19731 28.9094 1.10929 28.8748 1.01738 28.872M1.26648 28.9697L1.02469 28.8718C1.02225 28.8719 1.01981 28.8719 1.01738 28.872M1.01738 28.872C0.924497 28.875 0.835653 28.9106 0.766369 28.9724M1.01738 28.872L0.766369 28.9724M49.6777 1.40059H49.6784C50.5492 1.40161 51.3843 1.74692 52.0015 2.36122M49.6777 1.40059L52.4037 4.68574L52.9651 4.68742C52.9664 4.25512 52.8818 3.82688 52.7164 3.42751C52.551 3.02829 52.308 2.66586 52.0015 2.36122M49.6777 1.40059H47.5486C47.4539 1.39881 47.363 1.36327 47.2923 1.30054C47.2306 1.23266 47.1956 1.1445 47.1942 1.05254C47.1949 0.962537 47.2294 0.876175 47.2907 0.810469C47.3625 0.746074 47.4552 0.709591 47.5518 0.707857H49.6808C50.7356 0.708977 51.7468 1.12876 52.4924 1.875C53.2379 2.62131 53.6567 3.63307 53.6567 4.68799V6.8212H53.6566M49.6777 1.40059L53.6566 6.8212M52.0015 2.36122L51.6055 2.75911L52.0011 2.3609C52.0013 2.36101 52.0014 2.36111 52.0015 2.36122ZM53.6566 6.8212L53.6568 6.82984M53.6566 6.8212L53.6568 6.82984M53.6568 6.82984C53.6575 6.87375 53.6492 6.91737 53.6325 6.95804C53.6163 6.99758 53.5924 7.03352 53.5623 7.06379C53.4946 7.12724 53.406 7.16355 53.3133 7.16581C53.2199 7.16349 53.1303 7.12819 53.0604 7.0663L53.6568 6.82984ZM0.773043 7.07018L0.771325 7.06846C0.739678 7.03667 0.714698 6.99888 0.697852 6.95731C0.681006 6.91574 0.672633 6.87122 0.673226 6.82637L0.673275 6.82637V6.81895V4.68614C0.674948 3.6319 1.09435 2.62127 1.83964 1.87561C2.58491 1.12998 3.59528 0.710077 4.6495 0.707857H6.77369C6.86867 0.711499 6.95922 0.74897 7.02899 0.813476C7.09192 0.879041 7.1277 0.966067 7.12903 1.05701C7.12735 1.14871 7.09231 1.23657 7.03065 1.30422C6.96135 1.36599 6.87237 1.40137 6.7794 1.40396H4.65244L0.773043 7.07018ZM0.773043 7.07018C0.841536 7.12907 0.928222 7.16288 1.01875 7.16578C1.11127 7.16308 1.1999 7.12827 1.26948 7.06744C1.33115 6.99832 1.36625 6.90935 1.36825 6.81648M0.773043 7.07018L1.36825 6.81648M1.36825 6.81648V4.68814V6.81648ZM52.9651 6.81747L52.4037 6.81895H52.9651V6.81747ZM1.61755 3.43111C1.45267 3.82962 1.36796 4.25672 1.36825 4.68799L4.65228 1.40396C4.22101 1.40366 3.79391 1.48837 3.3954 1.65325C2.99675 1.81818 2.63453 2.0601 2.32946 2.36517C2.0244 2.67023 1.78248 3.03245 1.61755 3.43111Z" stroke="#3F7ED3" stroke-width="1.12274" stroke-linecap="round"/>
<mask id="path-2-inside-1_223_20911" fill="white">
<path d="M42.4718 17.6687L43.5092 16.6313C43.9221 16.2185 44.154 15.6585 44.154 15.0746C44.154 14.4908 43.9221 13.9308 43.5092 13.518C43.0963 13.1051 42.5364 12.8732 41.9525 12.8732C41.3686 12.8732 40.8087 13.1051 40.3958 13.518L38.2806 15.6332V12.1201L29.4872 3.31445H18.4754C17.5025 3.31534 16.5698 3.7022 15.8819 4.3901C15.194 5.078 14.8071 6.01074 14.8062 6.98358V28.9972C14.8071 29.9701 15.194 30.9028 15.8819 31.5907C16.5698 32.2786 17.5025 32.6655 18.4754 32.6664H34.6182C35.591 32.6655 36.5238 32.2786 37.2117 31.5907C37.8996 30.9028 38.2864 29.9701 38.2873 28.9972V21.8599L41.44 18.7073L41.9564 19.2237L40.919 20.2612C40.8452 20.327 40.7854 20.4071 40.7433 20.4967C40.7012 20.5862 40.6776 20.6834 40.674 20.7822C40.6703 20.8811 40.6867 20.9797 40.7222 21.0721C40.7576 21.1645 40.8113 21.2488 40.8802 21.3199C40.949 21.391 41.0315 21.4474 41.1227 21.4859C41.2139 21.5243 41.3119 21.5439 41.4108 21.5434C41.5098 21.543 41.6076 21.5226 41.6985 21.4834C41.7894 21.4442 41.8714 21.3871 41.9396 21.3154L41.9564 21.2986L43.5159 19.7391C43.5841 19.671 43.6382 19.5901 43.6751 19.5011C43.712 19.4121 43.731 19.3167 43.731 19.2204C43.731 19.124 43.712 19.0286 43.6751 18.9396C43.6382 18.8506 43.5841 18.7698 43.5159 18.7017L42.4718 17.6687ZM30.2159 6.12917L35.4647 11.3859H32.4176C31.8337 11.3859 31.2737 11.1539 30.8608 10.741C30.4479 10.3281 30.2159 9.76809 30.2159 9.18416V6.12917ZM36.8199 28.9972C36.8199 29.5812 36.5879 30.1412 36.175 30.5541C35.7621 30.967 35.2021 31.1989 34.6182 31.1989H18.4754C17.8914 31.1989 17.3314 30.967 16.9185 30.5541C16.5056 30.1412 16.2737 29.5812 16.2737 28.9972V6.98358C16.2737 6.39965 16.5056 5.83964 16.9185 5.42674C17.3314 5.01384 17.8914 4.78188 18.4754 4.78188H28.7485V9.18528C28.7485 10.1587 29.1349 11.0923 29.8229 11.7809C30.5109 12.4696 31.4442 12.8569 32.4176 12.8578H36.8199V17.1018L30.0205 23.8944C29.6987 24.2151 29.4849 24.6282 29.4088 25.0761C29.3328 25.5241 29.3982 25.9846 29.5962 26.3936L29.5333 26.4565C29.2634 26.0926 28.9089 25.8002 28.5003 25.6045C28.0918 25.4088 27.6416 25.3159 27.189 25.3337C26.5686 25.4488 26.0141 25.7926 25.6351 26.297C25.3656 26.5889 25.186 26.7731 24.9873 26.8011C24.9008 26.7955 24.6718 26.5373 24.5382 26.3767C24.1712 25.8365 23.6068 25.4619 22.9663 25.3337C22.0086 25.2214 21.0745 25.7918 20.0944 27.0874C20.031 27.1631 19.9835 27.2506 19.9547 27.345C19.9259 27.4393 19.9164 27.5384 19.9267 27.6365C19.937 27.7346 19.967 27.8296 20.0147 27.9159C20.0625 28.0022 20.1272 28.078 20.2048 28.1388C20.2825 28.1996 20.3716 28.2441 20.4668 28.2698C20.5621 28.2954 20.6615 28.3017 20.7592 28.2881C20.8569 28.2746 20.9508 28.2415 21.0355 28.1909C21.1201 28.1403 21.1937 28.0731 21.2519 27.9935L21.2688 27.9767C21.8705 27.1795 22.4263 26.7416 22.7991 26.7955C22.9821 26.818 23.1718 27.0201 23.43 27.3288C23.6003 27.5928 23.8279 27.8149 24.096 27.9786C24.3641 28.1423 24.6657 28.2433 24.9783 28.2742C25.0412 28.2742 25.1097 28.2686 25.1737 28.263C25.794 28.1478 26.3485 27.8041 26.7275 27.2996C27.0026 27.001 27.1766 26.8236 27.3754 26.7955C27.7425 26.7439 28.2983 27.1851 28.9057 27.9767C28.9739 28.0655 29.0617 28.1375 29.1621 28.1871C29.2625 28.2367 29.373 28.2627 29.485 28.263H29.5535C29.7351 28.2558 29.9073 28.18 30.0351 28.0508L30.6482 27.4377C31.0565 27.6387 31.5177 27.7058 31.9664 27.6297C32.4151 27.5535 32.8283 27.3378 33.1474 27.0133L36.839 23.3274V28.9972H36.8199ZM32.0965 25.9658C32.0284 26.034 31.9476 26.0881 31.8585 26.125C31.7695 26.1619 31.6741 26.1809 31.5778 26.1809C31.4814 26.1809 31.386 26.1619 31.297 26.125C31.208 26.0881 31.1272 26.034 31.0591 25.9658C30.9909 25.8977 30.9368 25.8169 30.8999 25.7279C30.8631 25.6389 30.8441 25.5435 30.8441 25.4471C30.8441 25.3508 30.8631 25.2554 30.8999 25.1664C30.9368 25.0774 30.9909 24.9965 31.0591 24.9284L39.3595 16.628L40.397 17.6654L32.0965 25.9658ZM41.4355 16.6268L41.2469 16.4382L40.3981 15.5894L41.4355 14.552C41.4922 14.5 41.5557 14.4558 41.6241 14.4206C41.6868 14.3868 41.7548 14.3637 41.8251 14.3522C41.8667 14.3456 41.9087 14.3418 41.9508 14.3409C41.9952 14.3409 42.0393 14.3466 42.0822 14.3578C42.1661 14.3745 42.2471 14.4036 42.3225 14.4442C42.406 14.4934 42.4788 14.5588 42.5368 14.6365C42.5948 14.7141 42.6368 14.8025 42.6603 14.8966C42.6838 14.9906 42.6884 15.0884 42.6738 15.1842C42.6591 15.28 42.6256 15.372 42.5751 15.4547C42.5429 15.5064 42.5052 15.5546 42.4628 15.5984L41.4355 16.6268ZM19.9428 14.3174C19.9425 14.2208 19.9613 14.1252 19.9981 14.036C20.0349 13.9468 20.089 13.8657 20.1572 13.7975C20.2254 13.7292 20.3065 13.6752 20.3957 13.6384C20.4849 13.6016 20.5806 13.5828 20.6771 13.5831H25.1018C25.2914 13.5905 25.4708 13.671 25.6024 13.8078C25.7339 13.9446 25.8074 14.127 25.8074 14.3168C25.8074 14.5066 25.7339 14.689 25.6024 14.8257C25.4708 14.9625 25.2914 15.0431 25.1018 15.0505H20.6771C20.5807 15.0508 20.4851 15.032 20.396 14.9953C20.3068 14.9586 20.2258 14.9046 20.1576 14.8365C20.0894 14.7684 20.0353 14.6874 19.9984 14.5983C19.9615 14.5093 19.9426 14.4138 19.9428 14.3174ZM19.9428 17.2522C19.9425 17.1557 19.9613 17.0601 19.9981 16.9709C20.0349 16.8816 20.089 16.8006 20.1572 16.7323C20.2254 16.6641 20.3065 16.61 20.3957 16.5732C20.4849 16.5364 20.5806 16.5176 20.6771 16.5179H29.5052C29.6948 16.5253 29.8742 16.6059 30.0058 16.7427C30.1373 16.8795 30.2108 17.0619 30.2108 17.2516C30.2108 17.4414 30.1373 17.6238 30.0058 17.7606C29.8742 17.8974 29.6948 17.9779 29.5052 17.9854H20.6771C20.4831 17.986 20.2969 17.9096 20.1592 17.7729C20.0215 17.6363 19.9437 17.4506 19.9428 17.2567V17.2522Z"/>
</mask>
<path d="M42.4718 17.6687L43.5092 16.6313C43.9221 16.2185 44.154 15.6585 44.154 15.0746C44.154 14.4908 43.9221 13.9308 43.5092 13.518C43.0963 13.1051 42.5364 12.8732 41.9525 12.8732C41.3686 12.8732 40.8087 13.1051 40.3958 13.518L38.2806 15.6332V12.1201L29.4872 3.31445H18.4754C17.5025 3.31534 16.5698 3.7022 15.8819 4.3901C15.194 5.078 14.8071 6.01074 14.8062 6.98358V28.9972C14.8071 29.9701 15.194 30.9028 15.8819 31.5907C16.5698 32.2786 17.5025 32.6655 18.4754 32.6664H34.6182C35.591 32.6655 36.5238 32.2786 37.2117 31.5907C37.8996 30.9028 38.2864 29.9701 38.2873 28.9972V21.8599L41.44 18.7073L41.9564 19.2237L40.919 20.2612C40.8452 20.327 40.7854 20.4071 40.7433 20.4967C40.7012 20.5862 40.6776 20.6834 40.674 20.7822C40.6703 20.8811 40.6867 20.9797 40.7222 21.0721C40.7576 21.1645 40.8113 21.2488 40.8802 21.3199C40.949 21.391 41.0315 21.4474 41.1227 21.4859C41.2139 21.5243 41.3119 21.5439 41.4108 21.5434C41.5098 21.543 41.6076 21.5226 41.6985 21.4834C41.7894 21.4442 41.8714 21.3871 41.9396 21.3154L41.9564 21.2986L43.5159 19.7391C43.5841 19.671 43.6382 19.5901 43.6751 19.5011C43.712 19.4121 43.731 19.3167 43.731 19.2204C43.731 19.124 43.712 19.0286 43.6751 18.9396C43.6382 18.8506 43.5841 18.7698 43.5159 18.7017L42.4718 17.6687ZM30.2159 6.12917L35.4647 11.3859H32.4176C31.8337 11.3859 31.2737 11.1539 30.8608 10.741C30.4479 10.3281 30.2159 9.76809 30.2159 9.18416V6.12917ZM36.8199 28.9972C36.8199 29.5812 36.5879 30.1412 36.175 30.5541C35.7621 30.967 35.2021 31.1989 34.6182 31.1989H18.4754C17.8914 31.1989 17.3314 30.967 16.9185 30.5541C16.5056 30.1412 16.2737 29.5812 16.2737 28.9972V6.98358C16.2737 6.39965 16.5056 5.83964 16.9185 5.42674C17.3314 5.01384 17.8914 4.78188 18.4754 4.78188H28.7485V9.18528C28.7485 10.1587 29.1349 11.0923 29.8229 11.7809C30.5109 12.4696 31.4442 12.8569 32.4176 12.8578H36.8199V17.1018L30.0205 23.8944C29.6987 24.2151 29.4849 24.6282 29.4088 25.0761C29.3328 25.5241 29.3982 25.9846 29.5962 26.3936L29.5333 26.4565C29.2634 26.0926 28.9089 25.8002 28.5003 25.6045C28.0918 25.4088 27.6416 25.3159 27.189 25.3337C26.5686 25.4488 26.0141 25.7926 25.6351 26.297C25.3656 26.5889 25.186 26.7731 24.9873 26.8011C24.9008 26.7955 24.6718 26.5373 24.5382 26.3767C24.1712 25.8365 23.6068 25.4619 22.9663 25.3337C22.0086 25.2214 21.0745 25.7918 20.0944 27.0874C20.031 27.1631 19.9835 27.2506 19.9547 27.345C19.9259 27.4393 19.9164 27.5384 19.9267 27.6365C19.937 27.7346 19.967 27.8296 20.0147 27.9159C20.0625 28.0022 20.1272 28.078 20.2048 28.1388C20.2825 28.1996 20.3716 28.2441 20.4668 28.2698C20.5621 28.2954 20.6615 28.3017 20.7592 28.2881C20.8569 28.2746 20.9508 28.2415 21.0355 28.1909C21.1201 28.1403 21.1937 28.0731 21.2519 27.9935L21.2688 27.9767C21.8705 27.1795 22.4263 26.7416 22.7991 26.7955C22.9821 26.818 23.1718 27.0201 23.43 27.3288C23.6003 27.5928 23.8279 27.8149 24.096 27.9786C24.3641 28.1423 24.6657 28.2433 24.9783 28.2742C25.0412 28.2742 25.1097 28.2686 25.1737 28.263C25.794 28.1478 26.3485 27.8041 26.7275 27.2996C27.0026 27.001 27.1766 26.8236 27.3754 26.7955C27.7425 26.7439 28.2983 27.1851 28.9057 27.9767C28.9739 28.0655 29.0617 28.1375 29.1621 28.1871C29.2625 28.2367 29.373 28.2627 29.485 28.263H29.5535C29.7351 28.2558 29.9073 28.18 30.0351 28.0508L30.6482 27.4377C31.0565 27.6387 31.5177 27.7058 31.9664 27.6297C32.4151 27.5535 32.8283 27.3378 33.1474 27.0133L36.839 23.3274V28.9972H36.8199ZM32.0965 25.9658C32.0284 26.034 31.9476 26.0881 31.8585 26.125C31.7695 26.1619 31.6741 26.1809 31.5778 26.1809C31.4814 26.1809 31.386 26.1619 31.297 26.125C31.208 26.0881 31.1272 26.034 31.0591 25.9658C30.9909 25.8977 30.9368 25.8169 30.8999 25.7279C30.8631 25.6389 30.8441 25.5435 30.8441 25.4471C30.8441 25.3508 30.8631 25.2554 30.8999 25.1664C30.9368 25.0774 30.9909 24.9965 31.0591 24.9284L39.3595 16.628L40.397 17.6654L32.0965 25.9658ZM41.4355 16.6268L41.2469 16.4382L40.3981 15.5894L41.4355 14.552C41.4922 14.5 41.5557 14.4558 41.6241 14.4206C41.6868 14.3868 41.7548 14.3637 41.8251 14.3522C41.8667 14.3456 41.9087 14.3418 41.9508 14.3409C41.9952 14.3409 42.0393 14.3466 42.0822 14.3578C42.1661 14.3745 42.2471 14.4036 42.3225 14.4442C42.406 14.4934 42.4788 14.5588 42.5368 14.6365C42.5948 14.7141 42.6368 14.8025 42.6603 14.8966C42.6838 14.9906 42.6884 15.0884 42.6738 15.1842C42.6591 15.28 42.6256 15.372 42.5751 15.4547C42.5429 15.5064 42.5052 15.5546 42.4628 15.5984L41.4355 16.6268ZM19.9428 14.3174C19.9425 14.2208 19.9613 14.1252 19.9981 14.036C20.0349 13.9468 20.089 13.8657 20.1572 13.7975C20.2254 13.7292 20.3065 13.6752 20.3957 13.6384C20.4849 13.6016 20.5806 13.5828 20.6771 13.5831H25.1018C25.2914 13.5905 25.4708 13.671 25.6024 13.8078C25.7339 13.9446 25.8074 14.127 25.8074 14.3168C25.8074 14.5066 25.7339 14.689 25.6024 14.8257C25.4708 14.9625 25.2914 15.0431 25.1018 15.0505H20.6771C20.5807 15.0508 20.4851 15.032 20.396 14.9953C20.3068 14.9586 20.2258 14.9046 20.1576 14.8365C20.0894 14.7684 20.0353 14.6874 19.9984 14.5983C19.9615 14.5093 19.9426 14.4138 19.9428 14.3174ZM19.9428 17.2522C19.9425 17.1557 19.9613 17.0601 19.9981 16.9709C20.0349 16.8816 20.089 16.8006 20.1572 16.7323C20.2254 16.6641 20.3065 16.61 20.3957 16.5732C20.4849 16.5364 20.5806 16.5176 20.6771 16.5179H29.5052C29.6948 16.5253 29.8742 16.6059 30.0058 16.7427C30.1373 16.8795 30.2108 17.0619 30.2108 17.2516C30.2108 17.4414 30.1373 17.6238 30.0058 17.7606C29.8742 17.8974 29.6948 17.9779 29.5052 17.9854H20.6771C20.4831 17.986 20.2969 17.9096 20.1592 17.7729C20.0215 17.6363 19.9437 17.4506 19.9428 17.2567V17.2522Z" stroke="#3F7ED3" stroke-width="2.24549" stroke-linecap="round" mask="url(#path-2-inside-1_223_20911)"/>
</g>
<defs>
<clipPath id="clip0_223_20911">
<rect width="54.3274" height="35.966" fill="white" transform="translate(6.10352e-05 0.0332031)"/>
</clipPath>
</defs>
</svg>
