<svg width="37" height="28" viewBox="0 0 37 28" fill="none" xmlns="http://www.w3.org/2000/svg">
<path fill-rule="evenodd" clip-rule="evenodd" d="M34.5188 11.8577V27.5301C34.5188 27.787 34.3212 28 34.0828 28H30.3229C30.0844 28 29.8868 27.7886 29.8868 27.5301V15.8724C30.6543 15.0634 31.5976 14.0847 32.5601 13.0864L34.0789 11.5092C34.2173 11.637 34.3643 11.7535 34.5188 11.8577ZM14.2372 7.28301L17.1321 4.55334C19.3319 6.87596 21.4647 9.68352 23.6423 12.0022L31.5807 3.40589L29.024 0.65021L37 0L36.5515 8.76L34.0989 6.11601C32.3383 8.03852 28.1744 12.2752 26.4115 14.1756C24.1846 16.5761 23.1211 16.6194 20.8933 14.2182L17.1321 9.7065L16.4018 10.4045C16.2889 10.1412 16.1651 9.88353 16.0306 9.63227C15.7509 9.11011 15.4299 8.62541 15.0742 8.18573L15.079 8.18121C14.8264 7.86857 14.5448 7.568 14.2372 7.28301ZM9.12698 7.37562C8.29861 7.31417 7.46714 7.42965 6.68028 7.71544L6.66359 7.72214C5.88191 8.00873 5.15973 8.45723 4.53768 9.04242C3.91095 9.63219 3.39815 10.3492 3.02856 11.1526C2.65981 11.954 2.44141 12.826 2.3859 13.7185C2.34424 14.3769 2.39132 15.0383 2.52566 15.6821C2.64264 16.2417 2.82503 16.7831 3.06845 17.2932L0.0943565 20.362C0.0361155 20.4216 0.00221863 20.5038 0.000105079 20.5904C-0.00200847 20.6769 0.027834 20.7609 0.0830831 20.8238L1.7668 22.7218C1.82212 22.7842 1.89815 22.8204 1.9782 22.8225C2.05826 22.8246 2.1358 22.7923 2.19382 22.7328L5.05583 19.7552C5.49054 20.0866 5.96255 20.3571 6.46053 20.5604C7.0413 20.7966 7.65115 20.9394 8.27049 20.9842C9.09845 21.0456 9.9295 20.9302 10.716 20.6448C11.5046 20.3585 12.2331 19.9075 12.8599 19.3176C13.4864 18.7279 13.9991 18.0111 14.3687 17.208C14.7284 16.4282 14.954 15.5613 15.0119 14.6412C15.0698 13.721 14.9548 12.8293 14.6967 12.0041L14.6905 11.9861C14.4242 11.1439 14.0078 10.3659 13.4647 9.69582C12.9184 9.02003 12.2537 8.46716 11.5087 8.06898C10.7853 7.68125 9.98073 7.438 9.12698 7.37562ZM8.09293 16.8384C7.75957 16.8133 7.33501 16.7248 7.00815 16.6304V15.5254C7.44204 15.5632 8.51048 15.6614 8.9044 15.5654C9.19997 15.493 9.16723 14.99 8.97255 14.927C8.73819 14.8484 8.24765 14.9428 7.85316 14.8196C7.65182 14.7567 7.48193 14.6618 7.34347 14.5351C7.20204 14.405 7.09617 14.2327 7.02665 14.0187C6.9588 13.8104 6.92461 13.5623 6.92461 13.2747V12.896C6.92461 12.0864 7.33884 11.6041 8.09293 11.4682V10.8878H9.16723V11.4457C9.50045 11.4743 9.91511 11.5661 10.2458 11.6525V12.7592C9.79493 12.7165 8.93981 12.6296 8.51215 12.7133C8.47713 12.7198 8.44303 12.7311 8.41069 12.7469C8.23508 12.8367 8.24209 13.3543 8.45722 13.4156C8.59793 13.4554 8.88648 13.4344 9.04034 13.4344C9.196 13.4344 9.34038 13.4508 9.47292 13.4831C9.60661 13.5159 9.72765 13.5655 9.8349 13.6316C10.2848 13.9079 10.4833 14.3954 10.4833 14.9336V15.3127C10.4833 15.5377 10.4645 15.7385 10.4277 15.914C10.2808 16.6104 9.77961 16.7607 9.16723 16.8329V17.4589H8.09293V16.8384ZM11.8275 22.6543V27.5301C11.8275 27.7877 11.6306 28 11.3915 28H7.63159C7.39254 28 7.19554 27.7886 7.19554 27.5301V23.1609C7.49609 23.2185 7.80734 23.2599 8.12834 23.2834C8.67308 23.323 9.22577 23.3019 9.77773 23.2252C10.3272 23.1499 10.8684 23.0163 11.3936 22.8264C11.5396 22.7735 11.6842 22.7162 11.8275 22.6543ZM19.3912 17.9196V27.5301C19.3912 27.7874 19.1938 28 18.955 28H15.1953C14.9565 28 14.7591 27.7886 14.7591 27.5301V20.545C15.3764 19.8626 15.891 19.0805 16.2842 18.2268C16.5313 17.6922 16.7287 17.1325 16.8737 16.556C16.9673 16.1819 17.0383 15.8017 17.0864 15.4178L18.0902 16.6212C18.1319 16.6712 18.1749 16.72 18.219 16.7675C18.6196 17.1993 19.0079 17.5832 19.3912 17.9196ZM26.9548 18.6353V27.5301C26.9548 27.7874 26.7576 28 26.5189 28H22.7589C22.5202 28 22.3229 27.7886 22.3229 27.5301V19.5639C22.7618 19.6689 23.2165 19.7183 23.6959 19.712C24.8943 19.6963 25.93 19.3366 26.9548 18.6353Z" fill="#DE68CB"/>
</svg>
