<svg width="20" height="16" viewBox="0 0 20 16" fill="none" xmlns="http://www.w3.org/2000/svg">
<path d="M12 9.5C12.2967 9.5 12.5867 9.41203 12.8334 9.24721C13.08 9.08238 13.2723 8.84811 13.3858 8.57403C13.4994 8.29994 13.5291 7.99834 13.4712 7.70736C13.4133 7.41639 13.2704 7.14912 13.0607 6.93934C12.8509 6.72956 12.5836 6.5867 12.2926 6.52882C12.0017 6.47094 11.7001 6.50065 11.426 6.61418C11.1519 6.72771 10.9176 6.91997 10.7528 7.16665C10.588 7.41332 10.5 7.70333 10.5 8C10.5 8.39783 10.658 8.77936 10.9393 9.06066C11.2206 9.34197 11.6022 9.5 12 9.5Z" fill="#CDCDCD"/>
<path d="M0 3.75C0 2.75544 0.395088 1.80161 1.09835 1.09835C1.80161 0.395088 2.75544 0 3.75 0H16.25C17.2446 0 18.1984 0.395088 18.9017 1.09835C19.6049 1.80161 20 2.75544 20 3.75V12.25C20 13.2446 19.6049 14.1984 18.9017 14.9017C18.1984 15.6049 17.2446 16 16.25 16H3.75C2.75544 16 1.80161 15.6049 1.09835 14.9017C0.395088 14.1984 0 13.2446 0 12.25V3.75ZM3.75 3C3.55109 3 3.36032 3.07902 3.21967 3.21967C3.07902 3.36032 3 3.55109 3 3.75V12.25C3 12.4489 3.07902 12.6397 3.21967 12.7803C3.36032 12.921 3.55109 13 3.75 13C3.94891 13 4.13968 12.921 4.28033 12.7803C4.42098 12.6397 4.5 12.4489 4.5 12.25V3.75C4.5 3.55109 4.42098 3.36032 4.28033 3.21967C4.13968 3.07902 3.94891 3 3.75 3ZM9.28 4.22C9.21134 4.14631 9.12854 4.08721 9.03654 4.04622C8.94454 4.00523 8.84523 3.98319 8.74452 3.98141C8.64382 3.97963 8.54379 3.99816 8.4504 4.03588C8.35701 4.0736 8.27218 4.12974 8.20096 4.20096C8.12974 4.27218 8.0736 4.35701 8.03588 4.4504C7.99816 4.54379 7.97963 4.64382 7.98141 4.74452C7.98318 4.84522 8.00523 4.94454 8.04622 5.03654C8.08721 5.12854 8.14631 5.21134 8.22 5.28L9.42 6.48C9.14769 6.94172 9.00407 7.46796 9.00407 8.004C9.00407 8.54004 9.14769 9.06628 9.42 9.528L8.22 10.728C8.10142 10.8723 8.04094 11.0556 8.05039 11.2422C8.05984 11.4287 8.13855 11.605 8.27111 11.7365C8.40367 11.8681 8.58055 11.9455 8.76714 11.9535C8.95374 11.9615 9.13661 11.8997 9.28 11.78L10.48 10.58C10.9417 10.8523 11.468 10.9959 12.004 10.9959C12.54 10.9959 13.0663 10.8523 13.528 10.58L14.728 11.78C14.8723 11.8986 15.0556 11.9591 15.2422 11.9496C15.4287 11.9402 15.605 11.8614 15.7365 11.7289C15.8681 11.5963 15.9455 11.4194 15.9535 11.2329C15.9615 11.0463 15.8997 10.8634 15.78 10.72L14.58 9.52C14.8523 9.05828 14.9959 8.53204 14.9959 7.996C14.9959 7.45996 14.8523 6.93372 14.58 6.472L15.78 5.272C15.8986 5.12771 15.9591 4.94437 15.9496 4.75784C15.9402 4.57132 15.8614 4.39503 15.7289 4.26347C15.5963 4.13191 15.4194 4.05454 15.2329 4.0465C15.0463 4.03846 14.8634 4.10033 14.72 4.22L13.52 5.42C13.0583 5.14769 12.532 5.00407 11.996 5.00407C11.46 5.00407 10.9337 5.14769 10.472 5.42L9.28 4.22Z" fill="#CDCDCD"/>
</svg>
