<svg width="13" height="18" viewBox="0 0 13 18" fill="none" xmlns="http://www.w3.org/2000/svg">
<path d="M11.6428 0.299988H0.80484C0.670722 0.300252 0.542163 0.35365 0.447327 0.448486C0.352491 0.543323 0.299093 0.671866 0.298828 0.805984V17.068C0.298748 17.1681 0.328378 17.266 0.383972 17.3493C0.439567 17.4326 0.518635 17.4975 0.611145 17.5359C0.703655 17.5742 0.805448 17.5842 0.903656 17.5647C1.00186 17.5451 1.09208 17.4968 1.16284 17.426L6.22385 12.365L11.2848 17.426C11.3556 17.4968 11.4458 17.5451 11.544 17.5647C11.6422 17.5842 11.744 17.5742 11.8365 17.5359C11.929 17.4975 12.0081 17.4326 12.0637 17.3493C12.1193 17.266 12.1489 17.1681 12.1488 17.068V0.805984C12.1486 0.671866 12.0952 0.543323 12.0003 0.448486C11.9055 0.35365 11.7769 0.300252 11.6428 0.299988ZM6.22385 11.138C6.15738 11.1379 6.09155 11.151 6.03012 11.1764C5.96869 11.2018 5.91287 11.239 5.86584 11.286L1.30985 15.841V1.31198H11.1358V15.842L6.58084 11.287C6.53421 11.2397 6.47862 11.2021 6.41733 11.1766C6.35603 11.151 6.29027 11.1379 6.22385 11.138Z" fill="currentColor"/>
<path d="M0.803925 17.868C0.698276 17.868 0.593674 17.8471 0.496155 17.8064C0.398635 17.7658 0.310127 17.7063 0.235748 17.6312C0.161369 17.5562 0.102595 17.4672 0.0628053 17.3693C0.0230156 17.2714 0.00301246 17.1666 0.00393689 17.061V0.806C0.0041924 0.593351 0.0883563 0.389406 0.238159 0.23848C0.387962 0.0875531 0.591283 0.00184439 0.803925 0H11.6419C11.8556 0.000264624 12.0605 0.0852769 12.2115 0.236374C12.3626 0.387471 12.4477 0.592317 12.4479 0.806V17.068C12.448 17.2274 12.4007 17.3833 12.3121 17.5159C12.2236 17.6484 12.0977 17.7518 11.9504 17.8128C11.8031 17.8738 11.641 17.8898 11.4846 17.8587C11.3283 17.8275 11.1847 17.7508 11.0719 17.638L6.22293 12.789L1.37393 17.638C1.22129 17.7862 1.01668 17.8688 0.803925 17.868ZM0.803925 0.598999C0.749371 0.599262 0.697115 0.621047 0.658539 0.659622C0.619963 0.698198 0.598194 0.750454 0.597931 0.805008V17.068C0.597974 17.0952 0.603392 17.122 0.613861 17.1471C0.62433 17.1722 0.639647 17.1949 0.658936 17.214C0.698283 17.2511 0.750313 17.2718 0.804413 17.2718C0.858513 17.2718 0.910574 17.2511 0.949921 17.214L6.01093 12.153C6.06815 12.0987 6.14404 12.0684 6.22293 12.0684C6.30182 12.0684 6.37771 12.0987 6.43494 12.153L11.4959 17.214C11.5348 17.2524 11.5873 17.2738 11.6419 17.2738C11.6966 17.2738 11.749 17.2524 11.7879 17.214C11.8261 17.1749 11.8476 17.1226 11.8479 17.068V0.806C11.8477 0.751446 11.8259 0.699205 11.7873 0.660629C11.7487 0.622054 11.6965 0.600269 11.6419 0.600006L0.803925 0.598999ZM11.1349 16.141C11.0554 16.1409 10.9791 16.1093 10.9229 16.053L6.36792 11.498C6.32857 11.4609 6.27651 11.4402 6.22241 11.4402C6.16831 11.4402 6.11628 11.4609 6.07693 11.498L1.52094 16.053C1.47898 16.0949 1.42553 16.1234 1.36737 16.135C1.30921 16.1465 1.24894 16.1406 1.19415 16.1179C1.13937 16.0952 1.09254 16.0568 1.05957 16.0075C1.0266 15.9583 1.00896 15.9003 1.00891 15.841V1.312C1.00891 1.2726 1.01669 1.2336 1.03177 1.1972C1.04685 1.16081 1.06894 1.12773 1.0968 1.09987C1.12466 1.07201 1.15772 1.04991 1.19412 1.03484C1.23052 1.01976 1.26953 1.01201 1.30893 1.01201H11.1349C11.1743 1.01201 11.2133 1.01976 11.2497 1.03484C11.2861 1.04991 11.3192 1.07201 11.347 1.09987C11.3749 1.12773 11.397 1.16081 11.4121 1.1972C11.4272 1.2336 11.4349 1.2726 11.4349 1.312V15.842C11.435 15.9012 11.4176 15.959 11.3848 16.0083C11.3521 16.0576 11.3055 16.0961 11.2509 16.119C11.2145 16.1342 11.1754 16.142 11.1359 16.142L11.1349 16.141ZM6.22293 10.841C6.43652 10.8424 6.64095 10.9279 6.79193 11.079L10.8339 15.12V1.612H1.60794V15.112L5.65192 11.07C5.72714 10.9954 5.81645 10.9364 5.91464 10.8966C6.01284 10.8568 6.11798 10.8369 6.22394 10.838L6.22293 10.841Z" fill="currentColor"/>
</svg>
