<svg width="28" height="32" viewBox="0 0 28 32" fill="none" xmlns="http://www.w3.org/2000/svg">
<path fill-rule="evenodd" clip-rule="evenodd" d="M10.8773 2.16543C12.7435 2.16543 14.5334 2.90621 15.853 4.22479C17.1726 5.54337 17.914 7.3317 17.914 9.19645C17.914 11.0612 17.1726 12.8496 15.853 14.1682C14.5334 15.4868 12.7435 16.2275 10.8773 16.2275C1.62198 16.219 1.62198 2.16543 10.8773 2.16543ZM10.9102 2.6799e-05C13.2721 -0.00566945 15.5457 0.896903 17.2598 2.52057C18.9739 4.14423 19.9972 6.36452 20.1175 8.72149C20.2378 11.0785 19.446 13.3913 17.9062 15.1809C16.3663 16.9704 14.1964 18.0993 11.8461 18.3338V22.2012C12.03 21.94 12.207 21.6957 12.3993 21.4513C12.9792 20.6819 13.6327 19.9708 14.3505 19.3281C17.0607 16.9521 21.1343 16.7583 24.853 16.5898C25.7097 16.5477 26.5479 16.5055 27.3827 16.4381C27.484 16.4292 27.586 16.4466 27.6786 16.4887C27.815 16.5558 27.9192 16.6741 27.9687 16.8177C28.0181 16.9613 28.0087 17.1187 27.9426 17.2554C25.9011 21.4682 24.455 24.3581 22.088 26.0853C19.829 27.7199 16.8296 28.2506 11.8352 27.7367V29.0511C13.6943 29.2445 15.5224 29.6662 17.2782 30.3065L13.8665 32H13.2805C13.096 31.7056 12.864 31.4437 12.5941 31.2248C12.0091 30.7532 11.2971 30.4658 10.5484 30.3991C10.4775 30.3907 10.4059 30.3907 10.3351 30.3991H6.72099C6.23023 30.0958 5.73863 29.8009 5.24365 29.5229C6.74589 29.1696 8.28257 28.9831 9.82577 28.9668V26.1611C8.4123 26.3122 6.98322 26.2124 5.60455 25.8662C4.7723 25.63 3.99742 25.2257 3.32783 24.6782C2.65658 24.1349 2.10606 23.4577 1.71136 22.6898L1.68944 22.6561L0.0704387 19.3281C0.0302719 19.2461 0.00675445 19.157 0.00125463 19.0659C-0.00424519 18.9748 0.00837346 18.8835 0.0383878 18.7973C0.06909 18.7104 0.116344 18.6303 0.177528 18.5613C0.248684 18.4846 0.335886 18.4244 0.432944 18.385C0.530003 18.3457 0.634538 18.3282 0.739119 18.3338L6.13579 18.6624H6.24035C7.37152 18.6995 8.46093 19.0982 9.34849 19.7999L9.82914 20.2802V18.3171C7.49997 18.0409 5.36438 16.886 3.85911 15.0887C2.35384 13.2914 1.59261 10.9874 1.73111 8.64785C1.86962 6.30833 2.89738 4.11003 4.60422 2.50257C6.31105 0.895107 8.56801 -0.000103243 10.9135 2.6799e-05H10.9102ZM16.6922 3.44611C15.2665 2.02409 13.3625 1.18267 11.3505 1.0854C9.33839 0.988133 7.36201 1.64197 5.80561 2.91983C4.24922 4.19769 3.22405 6.00822 2.92944 7.99938C2.63482 9.99053 3.09183 12.02 4.21158 13.6931C5.33133 15.3663 7.03379 16.5637 8.98797 17.0523C10.9421 17.541 13.0083 17.286 14.7848 16.337C16.5613 15.388 17.9211 13.8128 18.5998 11.9176C19.2785 10.0225 19.2276 7.943 18.4571 6.08329C18.048 5.09683 17.4483 4.20067 16.6922 3.44611Z" fill="#88DE91"/>
<path d="M12.0515 7.74842H11.5982C11.5343 7.46284 11.403 7.19532 11.2145 6.96676H12.0515C12.1596 6.96586 12.2636 6.92654 12.3437 6.85631C12.3814 6.82091 12.4114 6.77872 12.4321 6.73206C12.4528 6.68541 12.4637 6.63524 12.4643 6.58449C12.4646 6.53361 12.454 6.48316 12.4333 6.43639C12.4126 6.38961 12.382 6.34745 12.3437 6.31256C12.3056 6.27497 12.2602 6.24514 12.21 6.22472C12.1598 6.20429 12.1059 6.19367 12.0515 6.1936H8.74654C8.69222 6.19369 8.63846 6.20429 8.58843 6.22472C8.5384 6.24514 8.4931 6.27499 8.4552 6.31256C8.41672 6.34741 8.38608 6.38951 8.36518 6.43628C8.34429 6.48306 8.33358 6.53355 8.33374 6.58449C8.33444 6.63529 8.34553 6.68541 8.36638 6.73206C8.38722 6.77872 8.4174 6.82095 8.4552 6.85631C8.53501 6.92634 8.63869 6.96565 8.74654 6.96676H9.57299C9.82713 6.9656 10.0755 7.04004 10.2843 7.17988C10.4931 7.31973 10.6522 7.51822 10.7401 7.74842H8.74654C8.69221 7.74845 8.63844 7.759 8.5884 7.77943C8.53836 7.79986 8.49307 7.82977 8.4552 7.86738C8.41672 7.90223 8.38608 7.94433 8.36518 7.9911C8.34429 8.03787 8.33358 8.08826 8.33374 8.1392C8.33466 8.19052 8.34608 8.24119 8.36736 8.28823C8.38863 8.33527 8.41933 8.37777 8.4577 8.4133C8.49607 8.44884 8.54134 8.47666 8.59091 8.49523C8.64048 8.51381 8.69338 8.52271 8.74654 8.52147H10.7313C10.6426 8.74566 10.485 8.93836 10.2797 9.07373C10.0721 9.21054 9.82699 9.28449 9.57562 9.28613H8.74917C8.64132 9.28724 8.53765 9.32654 8.45785 9.39658C8.42005 9.43194 8.38985 9.47417 8.36901 9.52082C8.34817 9.56748 8.33708 9.6177 8.33639 9.6685V9.67701C8.33575 9.72932 8.34561 9.78119 8.36542 9.82988C8.38869 9.87598 8.4183 9.91887 8.45344 9.95734L10.9319 12.2682C10.9678 12.3077 11.014 12.337 11.0657 12.3531C11.1153 12.3755 11.1694 12.3872 11.2241 12.3872C11.2789 12.3872 11.333 12.3755 11.3826 12.3531C11.4343 12.337 11.4805 12.3077 11.5163 12.2682C11.5548 12.2333 11.5855 12.1912 11.6064 12.1445C11.6273 12.0977 11.638 12.0473 11.6378 11.9964C11.6371 11.9456 11.626 11.8953 11.6052 11.8487C11.5843 11.802 11.5541 11.7598 11.5163 11.7244L9.71558 10.0423C10.1602 10.0147 10.5841 9.85104 10.9258 9.57506C11.2622 9.3045 11.4965 8.934 11.592 8.52147H12.0506C12.1066 8.53017 12.164 8.52131 12.2143 8.49606C12.2657 8.47962 12.3132 8.45357 12.3542 8.41953C12.3916 8.38149 12.4233 8.33867 12.4484 8.29217C12.4705 8.244 12.4819 8.19187 12.4819 8.1392C12.4819 8.08653 12.4705 8.0345 12.4484 7.98633C12.4275 7.93727 12.3949 7.89361 12.3534 7.85887C12.3127 7.82227 12.2652 7.79347 12.2134 7.77393C12.1612 7.75718 12.1065 7.74855 12.0515 7.74842Z" fill="white"/>
</svg>
