<svg width="24" height="24" viewBox="0 0 24 24" fill="none" xmlns="http://www.w3.org/2000/svg">
<path fill-rule="evenodd" clip-rule="evenodd" d="M24 12C24 18.6274 18.6274 24 12 24C5.37258 24 0 18.6274 0 12C0 5.37258 5.37258 0 12 0C18.6274 0 24 5.37258 24 12ZM22.9478 13.0786L22.4501 13.0302L21.9525 12.9817C21.9839 12.659 22 12.3315 22 12C22 11.6685 21.9839 11.341 21.9525 11.0183L22.4501 10.9698L22.9478 10.9214C22.9823 11.2763 23 11.6361 23 12C23 12.3639 22.9823 12.7237 22.9478 13.0786ZM22.5291 8.80579L22.0505 8.95076L21.572 9.09574C21.3806 8.46386 21.1282 7.85831 20.8216 7.28587L21.2623 7.04979L21.7031 6.81371C22.0405 7.44358 22.3183 8.11011 22.5291 8.80579ZM20.5034 5.02156L20.1171 5.33898L19.7308 5.65639C19.3148 5.15004 18.85 4.68524 18.3436 4.26921L18.661 3.88289L18.9784 3.49656C19.5351 3.95393 20.0461 4.46489 20.5034 5.02156ZM17.1863 2.29691L16.9502 2.73767L16.7141 3.17843C16.1417 2.87182 15.5361 2.61943 14.9043 2.42799L15.0492 1.94947L15.1942 1.47095C15.8899 1.68172 16.5564 1.95955 17.1863 2.29691ZM13.0786 1.05221L13.0302 1.54986L12.9817 2.04751C12.659 2.0161 12.3315 2 12 2C11.6685 2 11.341 2.0161 11.0183 2.04751L10.9698 1.54986L10.9214 1.05221C11.2763 1.01767 11.6361 1 12 1C12.3639 1 12.7237 1.01767 13.0786 1.05221ZM8.80579 1.47095L8.95076 1.94947L9.09574 2.42799C8.46386 2.61943 7.85831 2.87182 7.28587 3.17843L7.04979 2.73767L6.81371 2.29691C7.44358 1.95955 8.11011 1.68172 8.80579 1.47095ZM5.02156 3.49656L5.33898 3.88289L5.65639 4.26921C5.15004 4.68524 4.68524 5.15004 4.26921 5.65639L3.88289 5.33898L3.49656 5.02157C3.95393 4.4649 4.46489 3.95393 5.02156 3.49656ZM2.29691 6.81371L2.73767 7.04979L3.17843 7.28587C2.87182 7.85831 2.61943 8.46386 2.42799 9.09574L1.94947 8.95076L1.47095 8.80579C1.68172 8.11011 1.95955 7.44358 2.29691 6.81371ZM1.05221 10.9214C1.01767 11.2763 1 11.6361 1 12C1 12.3639 1.01767 12.7237 1.05221 13.0786L1.54986 13.0302L2.04751 12.9817C2.0161 12.659 2 12.3315 2 12C2 11.6685 2.0161 11.341 2.04751 11.0183L1.54986 10.9698L1.05221 10.9214ZM1.47095 15.1942L1.94947 15.0492L2.42799 14.9043C2.61943 15.5361 2.87182 16.1417 3.17843 16.7141L2.73767 16.9502L2.29691 17.1863C1.95955 16.5564 1.68172 15.8899 1.47095 15.1942ZM3.49656 18.9784L3.88289 18.661L4.26921 18.3436C4.68524 18.85 5.15004 19.3148 5.65639 19.7308L5.33898 20.1171L5.02157 20.5034C4.4649 20.0461 3.95393 19.5351 3.49656 18.9784ZM6.81371 21.7031L7.04979 21.2623L7.28587 20.8216C7.85831 21.1282 8.46386 21.3806 9.09574 21.572L8.95076 22.0505L8.80579 22.5291C8.11011 22.3183 7.44358 22.0405 6.81371 21.7031ZM10.9214 22.9478L10.9698 22.4501L11.0183 21.9525C11.341 21.9839 11.6685 22 12 22C12.3315 22 12.659 21.9839 12.9817 21.9525L13.0302 22.4501L13.0786 22.9478C12.7237 22.9823 12.3639 23 12 23C11.6361 23 11.2763 22.9823 10.9214 22.9478ZM15.1942 22.5291L15.0492 22.0505L14.9043 21.572C15.5361 21.3806 16.1417 21.1282 16.7141 20.8216L16.9502 21.2623L17.1863 21.7031C16.5564 22.0405 15.8899 22.3183 15.1942 22.5291ZM18.9784 20.5034L18.661 20.1171L18.3436 19.7308C18.85 19.3148 19.3148 18.85 19.7308 18.3436L20.1171 18.661L20.5034 18.9784C20.0461 19.5351 19.5351 20.0461 18.9784 20.5034ZM21.7031 17.1863L21.2623 16.9502L20.8216 16.7141C21.1282 16.1417 21.3806 15.5361 21.572 14.9043L22.0505 15.0492L22.5291 15.1942C22.3183 15.8899 22.0405 16.5564 21.7031 17.1863ZM14.6377 10.5605L14.9521 9.48047H13.5756C13.5186 9.09436 13.4055 8.75028 13.2363 8.44824C13.1725 8.33431 13.1005 8.22721 13.0201 8.12695H14.6377L14.9521 7.04688H10.1123H9.83887H8.62891L8.30762 8.12695H9.52441H10.1123C10.6318 8.12695 11.0511 8.21126 11.3701 8.37988C11.6937 8.54395 11.9307 8.77409 12.0811 9.07031C12.1468 9.19788 12.1982 9.3346 12.2352 9.48047H8.6084L8.29395 10.5605H12.2524C12.2126 10.7249 12.1509 10.8798 12.0674 11.0254C11.9079 11.3034 11.6686 11.5244 11.3496 11.6885C11.0352 11.848 10.6364 11.9277 10.1533 11.9277H8.48535L8.49219 12.7754L12.1084 17H13.6602V16.918L10.2969 13.0078C11.1172 13.0078 11.7689 12.8825 12.252 12.6318C12.7396 12.3812 13.0882 12.0371 13.2979 11.5996C13.4515 11.2826 13.55 10.9362 13.5934 10.5605H14.6377Z" fill="#3F7ED3"/>
</svg>
