<svg width="123" height="128" viewBox="0 0 123 128" fill="pink" xmlns="http://www.w3.org/2000/svg">
<g opacity="1" filter="url(#filter0_d_34_12480)">
<path d="M73.4018 5.96458C84.9762 6.01612 96.1022 10.3488 104.546 18.093C112.99 25.8371 118.127 36.4196 118.926 47.7154C114.949 39.1677 108.542 31.9199 100.47 26.8375C92.397 21.755 82.9998 19.0524 73.3998 19.0524C63.7999 19.0524 54.4027 21.755 46.3301 26.8375C38.2575 31.9199 31.8507 39.1677 27.8742 47.7154C28.6718 36.4185 33.809 25.835 42.254 18.0906C50.699 10.3461 61.8265 6.01421 73.4018 5.96458ZM38.5458 86.8286C31.5393 80.3482 26.5515 72.0597 24.1594 62.9218C21.7674 53.784 22.0689 44.1704 25.0291 35.1932C27.9414 26.2411 33.4102 18.2905 40.7904 12.2795C48.1707 6.26849 57.1544 2.4479 66.6818 1.26833C55.4506 -1.40936 43.599 0.186867 33.5254 5.73392C23.4518 11.281 15.9084 20.3644 12.4219 31.1464C8.84321 41.9414 9.54287 53.6582 14.3819 63.9723C19.2208 74.2864 27.8457 82.4445 38.5458 86.8286ZM79.4982 89.5212C71.1486 94.1036 61.6255 96.2339 52.0699 95.6572C42.5143 95.0805 33.3314 91.821 25.6208 86.2695C17.8651 80.6735 11.8896 73.0415 8.38758 64.2585C4.88557 55.4754 4.00053 45.9011 5.83475 36.6459C-0.231045 46.3329 -2.36409 57.8925 -0.143309 69.0429C2.07747 80.1932 8.49051 90.1239 17.8302 96.8746C27.1347 103.561 38.696 106.522 50.1561 105.156C61.6163 103.789 72.1118 98.1978 79.5022 89.5212H79.4982ZM94.6286 51.1675C96.4642 60.4224 95.5801 69.9969 92.0787 78.7801C88.5773 87.5634 82.6022 95.1956 74.8465 100.791C67.1357 106.344 57.9525 109.604 48.3964 110.182C38.8402 110.76 29.3161 108.631 20.9648 104.051C28.3574 112.724 38.8533 118.312 50.3123 119.675C61.7714 121.039 73.3307 118.075 82.6329 111.389C91.9705 104.638 98.3822 94.7087 100.603 83.5602C102.824 72.4117 100.692 60.8539 94.6286 51.1675ZM116.761 55.3876C113.273 44.6062 105.73 35.523 95.6564 29.9761C85.583 24.4291 73.7319 22.8325 62.5008 25.5093C72.0281 26.6888 81.0119 30.5097 88.3921 36.5207C95.7724 42.5317 101.241 50.4822 104.153 59.4344C107.114 68.4115 107.415 78.025 105.023 87.1628C102.631 96.3006 97.6433 104.589 90.6367 111.07C101.333 106.681 109.953 98.5215 114.789 88.2082C119.624 77.8949 120.322 66.1808 116.744 55.3876H116.761Z" fill="white"/>
</g>
<defs>
<filter id="filter0_d_34_12480" x="-5" y="0" width="128" height="128" filterUnits="userSpaceOnUse" color-interpolation-filters="sRGB">
<feFlood flood-opacity="0" result="BackgroundImageFix"/>
<feColorMatrix in="SourceAlpha" type="matrix" values="0 0 0 0 0 0 0 0 0 0 0 0 0 0 0 0 0 0 127 0" result="hardAlpha"/>
<feOffset dy="4"/>
<feGaussianBlur stdDeviation="2"/>
<feComposite in2="hardAlpha" operator="out"/>
<feColorMatrix type="matrix" values="0 0 0 0 0 0 0 0 0 0 0 0 0 0 0 0 0 0 0.4 0"/>
<feBlend mode="normal" in2="BackgroundImageFix" result="effect1_dropShadow_34_12480"/>
<feBlend mode="normal" in="SourceGraphic" in2="effect1_dropShadow_34_12480" result="shape"/>
</filter>
</defs>
</svg>
